<?xml version="1.0" encoding="utf-8"?>
<!-- Generator: Adobe Illustrator 23.0.1, SVG Export Plug-In . SVG Version: 6.00 Build 0)  -->
<svg version="1.1" id="レイヤー_1" xmlns="http://www.w3.org/2000/svg" xmlns:xlink="http://www.w3.org/1999/xlink" x="0px"
	 y="0px" viewBox="0 0 107 104.6" style="enable-background:new 0 0 107 104.6;" xml:space="preserve">
<style type="text/css">
	.st0{fill:#FFFFFF;}
	.st1{fill-rule:evenodd;clip-rule:evenodd;fill:#F5B090;}
</style>
<ellipse class="st0" cx="53.5" cy="48.3" rx="47.7" ry="42.8"/>
<path class="st1" d="M1.7,34.7c1.2-4,2.2-8.1,4.4-11.6c2.2-3.6,5.3-7,8.5-9.9c3.2-2.9,7.7-5.6,11.6-7.7C30,3.4,37.3,2.1,41.7,1
	C46,0,50.4,0,55,0c4.6,0,8.9,0.5,13.2,1.5c4.4,1.1,8.7,2.3,12.5,4.3c3.9,2.1,7.7,4.4,10.9,7.3s5.7,6.4,8,10c2.2,3.5,4,7.4,5.2,11.4
	c1.1,3.9,2.3,9.2,2.3,13.5s0.1,7.2-1,11.1c-1.2,4-2.8,9.2-5,12.7c-2.2,3.6-4.2,7.6-7.4,10.5c-3.2,2.9-5.7,5.4-9.6,7.4
	c-3.5,1.9-9.7,4.5-15.1,5.9c-4.2,1-14.7,2.3-19.5,1.9c-0.7-0.1-1.1,0.7-1.1,0.7c-1.4,2.2-3.8,4.7-8.4,6.2c-0.3,0.1,0-0.2-0.4-0.1
	c0.5-0.3,0.3-0.3,0.7-0.7c1.6-1.7,1.9-4,2-6.2c0-0.6-0.2-1-0.7-1.1c-2.1-0.5-5.7-0.9-7.7-1.7c-2.1-0.8-11.3-2.9-19-11.5
	c-3.5-3.8-6.5-7.6-8.8-11.2c-2.2-3.5-3.3-9.1-4.4-13.2C0.4,55,0,51,0,46.8C0,42.6,0.6,38.6,1.7,34.7z M17.5,40.6l-0.3,0.1
	c-0.1-0.1-0.3-0.1-0.5-0.1l-0.1-0.1l0.2-0.3c-0.1-0.1-0.1-0.2-0.2-0.5l0.1-0.2l-0.1-0.3l0.1-0.3l0.1,0l0.1-0.2l0.3,0l0.2-0.2l0.1,0
	l0.1-0.1c0.2-0.1,0.3-0.2,0.2-0.4l0.2-0.1c0.2,0,0.3,0,0.5,0.2l0.3-0.1l0.2,0.1h0.1c0.1-0.2,0.3-0.4,0.4-0.5v0c0-0.1,0-0.2,0-0.3
	s0-0.2,0-0.3c0-0.1,0-0.2,0-0.3c0-0.1-0.1-0.3-0.1-0.5c0,0,0-0.1,0-0.1s0-0.1,0-0.1c0-0.3-0.1-0.5-0.4-0.5c-0.1,0-0.3,0-0.6,0.1
	l-0.1-0.1l-1,0.1l-0.2-0.2l-0.2,0.1l-0.1-0.1l-0.3,0.1c-0.1,0-0.1,0-0.3-0.1c-0.1,0-0.2-0.1-0.3-0.1c-0.1,0-0.2,0-0.3,0
	s-0.2,0-0.3,0c-0.1,0-0.1,0-0.1,0l-0.3,0.5c0,0.1,0.1,0.2,0.1,0.4c0,0.2,0,0.4-0.1,0.7s-0.1,0.5-0.1,0.6c0,0.2,0.1,0.3,0.3,0.3
	c0.1,0,0.3,0,0.5,0l0.3,0.1c-0.1,0.1-0.2,0.2-0.3,0.3L16,38.3l0.1,0.2c-0.3,0.2-0.6,0.2-0.8,0.2c0,0.1-0.1,0.2-0.3,0.3
	c-0.1,0.1-0.2,0.1-0.4,0.2l0,0.2c0.1,0.1,0.1,0.2,0.2,0.4l0.2-0.1l0.3,0.1l0.3-0.2l0.2,0.1v0l-0.1,0.2l0.2,0.2l0,0.3l-0.1,0.2
	l-0.5,0.1L15,40.6l-0.1-0.1l-0.4,0c-0.2,0-0.4-0.1-0.4-0.3l-0.3,0.1c-0.2-0.1-0.4-0.2-0.4-0.3L13,40l-0.2,0l0-0.1l0.1,0l-0.1-0.1
	l0.4-0.4c0-0.2,0.2-0.4,0.5-0.7h0.2c0.1-0.2,0.2-0.4,0.3-0.5c-0.1-0.2-0.1-0.3-0.1-0.3c-0.1-0.1-0.2-0.1-0.3-0.1
	c0-0.2-0.1-0.2-0.1-0.3c0,0-0.1,0-0.3,0l-0.3-0.3c0-0.2,0.1-0.3,0.3-0.2l0.1,0l0-0.2l0.3-0.2l0-0.1l0,0l0.1,0
	c0.2-0.3,0.4-0.6,0.4-0.7l0-0.2l-0.2-0.1l0-0.2l-0.2,0l-0.1-0.2h-0.3c-0.1,0-0.2,0-0.3,0.1l-0.4-0.2l-0.2,0.2h-0.1l-0.2-0.1h-0.1
	c-0.2,0.1-0.3,0.2-0.4,0.2l-0.2-0.2l-0.1,0.1c-0.1,0-0.2,0-0.2,0c-0.2,0-0.3,0.1-0.4,0.2c0,0.1-0.1,0.2-0.1,0.5
	c0,0.2,0.2,0.4,0.7,0.4c0.1,0,0.2,0,0.3,0s0.2,0,0.2,0l0.4,0l0,0l0,0.2l0.1,0.1l0,0.1l0,0.2l-0.2,0.1l0,0.1
	c-0.1,0.1-0.2,0.2-0.3,0.2s-0.2,0.2-0.3,0.4l0.1,0.2l0,0.1l0.2,0.3c0.1,0,0.3,0.1,0.4,0.2c0.2,0.1,0.2,0.2,0.3,0.4l0,0.1l-0.2,0
	c-0.4,0.3-0.5,0.5-0.6,0.5c-0.2,0.2-0.4,0.3-0.6,0.3l0,0.2L11.3,40c0.1,0.1,0.2,0.3,0.4,0.6l0.1-0.1c0.1,0,0.3,0.1,0.6,0.2
	c0.5,0.2,0.7,0.3,0.7,0.3l0.2,0.1l0.1,0l0.3,0.2l0.1-0.1h0.1c0.1,0.1,0.4,0.2,0.6,0.1l0.1,0.1l0.2,0c0.1,0.1,0.2,0.1,0.4,0.2
	c0.1,0,0.3,0.1,0.4,0.1c0.1-0.1,0.3-0.1,0.5-0.1c0.2,0,0.4,0,0.5,0l0.3,0.1l0.2-0.2l0.4,0.2c0.2,0,0.4-0.2,0.4-0.7L18,40.8
	C17.8,40.8,17.7,40.7,17.5,40.6z M12.4,33.7l0.1,0l0.1,0.2l0,0.2l0.2,0.1l0,0.1l-0.1,0.1c0.1,0,0.2,0.1,0.3,0.2l0.1,0l0.2-0.1
	l0.1-0.2l0.1,0c0.1,0,0.1,0,0.2-0.1c0,0,0-0.1-0.1-0.4l-0.2,0c0-0.1,0-0.2,0-0.3l-0.2-0.1c0-0.1-0.1-0.2-0.2-0.3s-0.2-0.2-0.2-0.3
	l-0.1,0l-0.1,0l0.1-0.2c-0.1-0.2-0.4-0.3-0.6-0.5l-0.6,0.3l0,0.1l0.1,0.1l0,0.2l0.2,0.1c0.1,0.2,0.2,0.3,0.3,0.3
	C12.2,33.5,12.3,33.6,12.4,33.7z M14.6,34.5l0.8,0.2l0.2-0.1c0.1,0,0.1,0,0.2,0c0.1,0,0.1,0,0.3,0l0.1,0.1l0.2-0.1l0.1,0.1
	c0,0,0.1,0,0.1-0.1c0.1,0,0.1-0.1,0.2-0.1l0.1,0.1c0.1,0,0.2,0,0.4,0c0.1,0,0.2-0.1,0.3-0.1c0,0,0.1,0,0.1,0c0,0,0.1,0,0.1,0
	c0.1,0,0.1,0,0.3,0c0.1,0,0.2,0,0.3,0c0.2,0,0.4,0,0.8,0.1s0.6,0.1,0.8,0.1c0.1,0,0.2,0,0.3-0.1s0.2-0.1,0.2-0.2
	c0-0.2-0.1-0.4-0.3-0.7L20,33.9c0,0-0.1-0.1-0.2-0.2l-0.2,0.1c-0.1-0.1-0.2-0.1-0.3-0.1c0,0-0.1,0-0.1,0s-0.1,0-0.1,0
	c-0.1,0-0.3,0-0.5,0s-0.4,0-0.5,0L18,33.6l0.1-0.4L18,33c0.1,0,0.2-0.1,0.4-0.2c0.2,0.1,0.4,0.1,0.4,0.1c0,0,0.1,0,0.1,0
	s0.1,0,0.1,0l0.2,0.1l0.2-0.1l0.2,0.1h0l0.3-0.4c0-0.1-0.1-0.2-0.1-0.3l0-0.1c-0.2-0.2-0.4-0.3-0.7-0.3c0,0-0.1,0-0.2,0
	s-0.1,0-0.2,0c-0.1,0-0.2,0-0.4,0c-0.2,0-0.3,0-0.4,0c-0.1-0.1-0.2-0.2-0.2-0.4l0.1-0.2l-0.2-0.1l0.1-0.2c-0.1-0.1-0.2-0.1-0.4-0.1
	c0,0-0.1,0-0.1,0s-0.1,0-0.1,0l-0.1,0l0,0.1C17,31.2,17,31.4,17,31.5c0,0.1,0,0.2,0.1,0.4L16.8,32l-0.1-0.1h-0.1l-0.2,0.2l-0.2,0
	L16.1,32c-0.1,0-0.2,0-0.3,0.1c-0.1-0.1-0.2-0.1-0.2-0.1C15.5,32,15.3,32,15.1,32L15,32.1c0,0.3,0,0.6,0.1,0.7l0.3-0.1l0.1,0.2
	l0.2,0l0.3,0.1c0.1,0,0.1,0,0.2,0c0.1,0,0.1,0,0.2,0s0.2,0,0.3,0s0.1,0,0.2,0l0.2,0.5c-0.2,0.2-0.3,0.3-0.4,0.3l-0.2-0.1l-0.2,0.1
	L16,33.7l-0.1,0.2h-0.2c-0.1,0-0.2,0-0.3-0.1l-0.1,0.1c-0.1,0-0.3,0-0.5,0l-0.2,0.2v0c0,0.1,0,0.1,0.1,0.1s0.1,0.1,0.1,0.1
	C14.7,34.4,14.6,34.5,14.6,34.5z M16.5,37c-0.1-0.1-0.2-0.1-0.2-0.1c-0.1,0-0.1-0.1-0.1-0.2v-0.1c0-0.2,0-0.3,0.1-0.4
	c0.1,0,0.2,0,0.2,0c0,0,0.1,0,0.2,0s0.1,0,0.2,0c0.1,0,0.2,0,0.3,0.1c0.1,0.1,0.2,0.1,0.3,0.1c0,0,0.1,0,0.1,0s0.1,0,0.1,0l0.1,0
	c0,0,0.1,0,0.1,0s0.1,0,0.2,0c0.1,0,0.2,0,0.2,0c0,0,0.1,0,0.2-0.1s0.1-0.1,0.2-0.1c0.1,0,0.1,0,0.1,0.1c0,0.1,0,0.1,0,0.2v0.3
	l0.1,0.2l0,0c-0.1,0-0.2,0-0.5,0c0,0-0.1,0-0.2,0.1c-0.1,0-0.1,0.1-0.2,0.1c-0.1,0-0.2,0-0.3-0.1c-0.1,0-0.2,0-0.4,0s-0.3,0-0.4,0.1
	l0,0l0-0.1C16.6,37,16.6,37,16.5,37z M20.3,40.6L20,40.5v0c0,0,0-0.1,0-0.1s0-0.1,0-0.1c0-0.1,0.1-0.2,0.4-0.3c0-0.1,0-0.2,0-0.2
	c0-0.1,0.1-0.1,0.1-0.2l0-0.1l0.1-0.1c0-0.2,0.1-0.3,0.2-0.3c-0.1-0.1-0.1-0.3-0.1-0.4l-0.1,0c0,0-0.1,0-0.2-0.1
	c-0.1-0.1-0.1-0.1-0.2-0.1c-0.1,0-0.2,0.1-0.3,0.3h-0.2l-0.2,0.4l-0.1,0l0,0.1l0,0.2c-0.2,0.1-0.4,0.2-0.4,0.4h0
	c-0.1-0.1-0.2-0.2-0.2-0.3c-0.1-0.1-0.2-0.2-0.3-0.2l0-0.2l-0.2,0l-0.2-0.3L17.8,39c-0.1,0.1-0.2,0.3-0.4,0.5
	c0.1,0.1,0.2,0.3,0.3,0.5c0.2,0,0.3,0.1,0.4,0.3l0.1,0c0,0.1,0.2,0.2,0.5,0.4c0.2,0.2,0.4,0.3,0.4,0.4c0,0,0.1,0.1,0.3,0.2
	c0.1,0,0.2,0.1,0.3,0.3c0.1,0.2,0.2,0.2,0.3,0.2c0.4,0,0.7-0.2,0.7-0.5c0,0-0.1-0.1-0.2-0.2C20.4,40.9,20.3,40.7,20.3,40.6z
	 M23.8,39C23.8,39,23.8,39,23.8,39c-0.1-0.1-0.1-0.1-0.1-0.2c0,0,0-0.1,0.1-0.2s0.1-0.2,0.1-0.2v0c0,0,0-0.1-0.1-0.1
	s-0.1-0.1-0.1-0.1c0,0,0-0.1,0-0.1c0,0,0-0.1,0-0.1c0-0.1-0.2-0.1-0.5-0.1c-0.1,0-0.2,0.1-0.3,0.2s-0.1,0.3-0.1,0.3c0,0,0,0.1,0,0.1
	s0,0.1,0,0.1c0,0,0,0.1-0.1,0.1s-0.1,0.1-0.1,0.1s0,0,0,0.1c0,0,0,0,0,0.1c0,0,0,0-0.1,0.1c0,0-0.1,0-0.1,0.1c0,0.1,0.1,0.1,0.1,0.2
	c0,0,0,0.1-0.1,0.3s-0.1,0.3-0.1,0.4c0,0,0,0.1,0,0.2c0,0,0,0.1,0,0.1c0,0,0,0.1,0,0.1v0l0.3,0.3c0.1,0,0.2,0,0.2,0
	c0.2,0,0.3,0,0.3-0.2c0-0.1,0.1-0.2,0.1-0.3c0.1-0.1,0.1-0.2,0.1-0.2c0-0.1,0-0.2,0-0.3s0-0.2,0-0.3C23.7,39.3,23.7,39.2,23.8,39z
	 M28.5,35.8c0-0.1-0.1-0.1-0.2-0.1c0,0-0.1,0-0.2,0s-0.1,0-0.2,0c-0.4,0-0.6,0-0.8-0.1c-0.2-0.1-0.2-0.3-0.2-0.7
	c0-0.1,0-0.2,0.1-0.3c0-0.1,0.1-0.2,0.1-0.3l0.4-0.3l0.1,0.1c0.1,0,0.4,0,0.8,0s0.6,0,0.7,0.1l0.2-0.1c0,0,0.1,0,0.1,0
	c0.1,0,0.3-0.1,0.5-0.3l-0.1-0.2l0-0.2l-0.1-0.3l-0.2,0c-0.1-0.1-0.2-0.1-0.4-0.1c-0.1,0-0.2,0-0.4,0c-0.2,0-0.3,0-0.4,0
	c-0.2,0-0.4,0-0.5-0.1c-0.1,0-0.2,0.1-0.5,0.1c-0.2,0-0.3,0-0.4-0.1c0,0,0-0.2,0-0.4l-0.2-0.2l0.2-0.2l0-0.2
	c-0.1-0.1-0.2-0.2-0.2-0.2c0,0,0,0,0-0.1c0-0.1-0.2-0.2-0.5-0.3l-0.3,0.2v0.1c0,0.3,0,0.5,0,0.6c0,0.4-0.1,0.6-0.2,0.7
	c0,0-0.3,0.1-0.8,0.2l-0.4-0.1l-0.2,0.1c-0.1,0-0.3,0-0.5,0c-0.2,0-0.4,0-0.5,0c-0.1,0-0.1,0-0.1,0c-0.2,0.2-0.3,0.4-0.3,0.5
	l0.1,0.3l1.2,0.1l0.2-0.2l0.1,0.1c0,0,0.1,0,0.1,0c0,0,0.1,0,0.2,0c0.1,0,0.2,0,0.2,0s0.1,0,0.1,0l0.2,0.1l0.2-0.1l0.2,0.2l-0.1,0.3
	l0.2,0.3c0,0.2-0.1,0.5-0.1,0.8c0,0.1,0,0.2-0.1,0.2c-0.2,0-0.4-0.1-0.5-0.1c-0.2,0-0.3,0-0.4,0.1c0,0-0.1,0-0.2,0
	c-0.1,0-0.2,0-0.2,0c-0.1,0-0.3,0-0.6,0l-0.2,0.1c-0.1-0.1-0.2-0.1-0.4-0.1l-0.6,0c-0.1,0.1-0.2,0.3-0.2,0.5c0,0.2,0.2,0.4,0.5,0.4
	c0.1,0,0.1,0,0.3,0s0.2,0,0.2,0l0.3,0c0.1,0,0.1,0,0.2,0c0.1,0,0.2,0,0.2,0l0.1,0.1l0.2,0c0.2,0.1,0.3,0.7,0.3,1.8
	c0,0.4,0,0.9,0,1.5c0,0.6,0,0.9,0,1l0.2,0.4c0.3,0,0.5-0.1,0.6-0.1c0.1,0,0.1-0.1,0.1-0.3c0-0.2,0-0.4,0.1-0.5l-0.1-0.2l0.1-0.2
	c-0.1-0.3-0.1-0.7-0.1-1.2c0-0.4,0-0.7,0.1-0.8l-0.1-0.3c0-0.1,0-0.2,0-0.3c0-0.1,0.1-0.2,0.1-0.3l-0.1-0.3c0,0,0.2-0.1,0.5-0.1
	c0.1,0,0.2,0,0.3-0.1c0.4,0.2,0.5,0.3,0.5,0.5c0,0,0,0.2-0.1,0.5l0.1,0.2C27,38,27,38.2,27,38.3c0,0.1,0,0.4,0,0.9
	c0,0.4,0,0.7,0,0.9l0.1,0.2c0,0.6,0.1,0.9,0.2,0.9c0,0,0.2,0,0.5-0.1l0.2-0.4l-0.1-0.3l0.1-0.2c0-0.1-0.1-0.3-0.2-0.6
	c0.1-0.6,0.1-1,0.1-1.3c0-0.4,0-0.7-0.1-1l0.1-0.1l-0.2-0.3c0,0,0.1-0.1,0.1-0.3c0-0.1,0.1-0.2,0.2-0.2c0.1,0,0.1,0,0.2,0.1
	s0.2,0.1,0.2,0.1c0.5,0,0.7,0,0.7,0l0.2-0.1l0.1,0c0.2-0.1,0.3-0.2,0.5-0.1l0.1-0.5c0-0.3-0.1-0.4-0.3-0.4c-0.1,0-0.2,0-0.3,0.1
	l-0.3-0.2l-0.2,0.1C29,35.7,28.8,35.7,28.5,35.8z M30.1,39.2L30.1,39.2L29.9,39c0,0,0-0.1,0-0.2c0-0.2,0-0.2,0-0.2c0,0,0-0.1,0-0.1
	s0-0.1,0-0.2c0,0,0-0.1,0-0.1c0,0,0-0.1,0-0.1c0-0.2-0.1-0.3-0.3-0.3c0,0-0.1,0-0.1,0s-0.1,0-0.1,0c0,0,0,0-0.1,0c0,0-0.1,0-0.1,0
	c-0.2,0-0.3,0.2-0.3,0.6c0,0.1,0.1,0.1,0.2,0.2C29,38.7,29,38.8,29,38.8c0,0,0,0.1,0.1,0.1c0,0,0.1,0,0.1,0.1c0,0,0,0.1,0,0.1
	s0,0.1,0,0.1c0,0.1,0,0.2,0.2,0.4s0.2,0.3,0.2,0.4c0,0,0,0.1,0,0.1c0,0.1,0,0.1,0,0.1c0,0.1,0,0.2,0.1,0.2c0.3,0,0.5,0,0.5,0
	c0.2-0.1,0.3-0.2,0.3-0.4c0-0.1,0-0.2-0.1-0.4S30,39.4,30,39.4s0,0,0-0.1C30.1,39.2,30.1,39.2,30.1,39.2z M37.7,33.5l-0.5-0.2
	l-0.1-0.2l-0.1,0c0,0-0.1-0.1-0.2-0.1c-0.1,0-0.2,0-0.3-0.1c0-0.1-0.1-0.1-0.2,0c-0.1,0-0.4-0.1-0.8-0.3c-0.1,0-0.1,0.1-0.1,0.1
	s0,0,0-0.2c0,0,0,0-0.1,0c0,0-0.1,0-0.2,0c-0.1,0-0.1,0-0.1,0c-0.1,0-0.1,0-0.3-0.1c-0.1,0-0.2-0.1-0.3-0.1c0,0-0.1,0-0.2,0
	c-0.1,0-0.2,0-0.2,0c-0.2,0.2-0.3,0.5-0.3,0.6l-0.2,0.3l0,0.3c-0.1,0.1-0.2,0.3-0.4,0.5c0,0.1-0.1,0.5-0.5,1.1v0
	c0,0.1,0,0.1-0.1,0.1l0,0.2c-0.1,0.1-0.2,0.2-0.4,0.5s-0.2,0.5-0.2,0.7c0,0.1,0,0.2,0.2,0.2s0.2,0.1,0.3,0.2l0.1-0.1h0.1l0.3-0.2
	v-0.2l0.3-0.2l0-0.2c0.3-0.1,0.4-0.1,0.4-0.1c0.1,0,0.2,0,0.3,0.2c0.2,0.1,0.3,0.2,0.3,0.2c0.1,0,0.2,0,0.3,0.1c0,0,0.1,0.1,0.2,0.1
	l0.3,0c0.1,0,0.1,0,0.2,0.1s0.1,0.1,0.1,0.2c0,0.1,0,0.2-0.1,0.3l0.1,0.2c-0.1,0.1-0.2,0.3-0.4,0.6c0,0.1,0,0.1,0,0.2
	c0,0.1-0.1,0.2-0.3,0.2c0,0.3-0.1,0.5-0.2,0.8s-0.2,0.4-0.2,0.5c0,0.1,0.1,0.2,0.3,0.3s0.3,0.2,0.4,0.2s0.2-0.1,0.3-0.3
	c0.2-0.2,0.2-0.4,0.3-0.4l-0.1-0.2c0-0.1,0.1-0.2,0.2-0.3c0-0.1,0.1-0.2,0.1-0.3c0-0.1,0-0.1,0.1-0.2s0.1-0.2,0.1-0.2
	c0,0,0,0-0.1-0.1c0.1-0.3,0.3-0.5,0.5-0.7l0-0.2c0.1-0.1,0.2-0.2,0.2-0.2c0,0,0-0.1,0-0.2c0-0.1,0-0.2,0.1-0.3s0.1-0.3,0.1-0.4
	c0,0,0.1-0.2,0.3-0.5c0.2-0.3,0.3-0.5,0.3-0.5l0-0.2c0-0.1,0-0.2,0.1-0.3c0.1-0.1,0.1-0.2,0.2-0.3c0-0.2,0.1-0.4,0.2-0.7L37.7,33.5z
	 M36.3,35.1c0,0.1,0,0.2-0.1,0.3s-0.1,0.2-0.1,0.3s0,0.2-0.2,0.3s-0.2,0.2-0.3,0.2c0,0-0.1,0-0.1-0.1c0,0-0.1-0.1-0.1-0.1
	c0,0-0.1,0-0.1,0c0,0-0.1,0-0.1,0c-0.1,0-0.2,0-0.3-0.1s-0.3-0.1-0.3-0.1s-0.2,0-0.2,0c0,0,0-0.1,0-0.2c-0.2-0.2-0.3-0.3-0.3-0.5
	c0-0.2,0-0.2,0.1-0.3c0.1,0,0.1-0.1,0.1-0.2c0,0,0-0.1,0-0.1c0,0,0-0.1,0-0.1c0-0.1,0.1-0.2,0.3-0.3c0,0,0,0,0-0.1
	c0,0,0-0.1,0.2-0.3s0.2-0.2,0.2-0.2c0,0,0.1,0,0.1,0.1l0.2-0.1c0,0,0.1,0,0.1,0.1c0,0.1,0.1,0.1,0.3,0.1c0.1,0,0.2,0,0.3,0.1
	c0.1,0.1,0.2,0.1,0.2,0.1l0.1,0c0.1,0.1,0.3,0.2,0.5,0.3v0l-0.1,0.2c0,0.1,0,0.1-0.1,0.2c0,0,0,0.1-0.1,0.1c0,0-0.1,0.1-0.1,0.1
	C36.3,34.9,36.3,35,36.3,35.1z M42.6,36.5L42,36.4l-0.2-0.2c0,0-0.1,0-0.2,0.1s-0.1,0.1-0.2,0.1c0,0-0.1,0-0.2-0.1
	c-0.1-0.1-0.2-0.1-0.4-0.1c-0.1,0-0.2,0-0.3,0l-0.1-0.2l-0.1,0c0,0,0-0.1-0.2-0.2c-0.3,0-0.4-0.1-0.4-0.1c0,0,0,0,0.1-0.1
	s0.1-0.1,0.1-0.1c-0.1-0.2-0.2-0.4-0.2-0.5s0-0.2,0.1-0.3c0-0.1,0.1-0.2,0.1-0.3s0-0.2,0-0.3c0.1-0.1,0.1-0.2,0.1-0.2
	c0-0.1,0-0.1-0.1-0.1c0,0,0-0.1,0-0.2c0,0,0-0.1,0.1-0.2s0.1-0.2,0.1-0.2c0,0,0-0.1-0.1-0.1c0,0,0-0.1,0-0.2l0-0.2l0,0
	c-0.2-0.1-0.4-0.1-0.6-0.1c-0.1,0-0.2,0.1-0.2,0.2c0-0.1,0,0.1,0,0.3c0,0.1,0,0.1,0,0.2s0,0.2,0,0.2c0,0.1,0,0.1,0,0.1
	c0,0,0,0.1,0,0.3c0,0.2,0,0.3,0,0.3c0,0.2,0,0.4-0.1,0.8s-0.1,0.6-0.1,0.8c0,0.2,0,0.4,0,0.7c0,0.3,0.1,0.6,0.1,0.7
	c-0.1,0.2-0.1,0.3,0,0.5c-0.1,0.1-0.2,0.2-0.2,0.3l0,0.1c0,0,0.1,0.1,0.2,0.1l-0.1,0.1l0.1,0.1l0,0.2l0.1,0.2c0,0.1,0,0.3-0.1,0.5
	s-0.1,0.4-0.1,0.5c0,0.1,0,0.2,0,0.3s0,0.2,0,0.3c0.2,0.1,0.4,0.2,0.4,0.2c0.2,0,0.3,0,0.3,0c0,0,0.1-0.1,0.2-0.3l0-0.2l0.1-0.2
	c-0.1-0.1-0.1-0.2,0-0.3c-0.1-0.3-0.1-0.4-0.1-0.5c0-0.1,0-0.3,0.1-0.5s0.1-0.4,0.1-0.5c0,0,0-0.1-0.1-0.1S39.8,38,39.8,38
	c0,0,0.1-0.1,0.2-0.1c-0.1-0.1-0.2-0.2-0.2-0.4c0-0.1,0-0.2,0-0.3s0-0.2,0-0.3c0,0,0.1,0,0.1,0c0,0,0.2,0,0.3,0.1c0,0,0.1,0,0.2,0
	c0.1,0,0.2,0,0.2,0c0,0,0.1,0,0.1,0.1s0.1,0.1,0.1,0.1s0,0,0.1,0s0.1,0,0.1,0c0.1,0,0.2,0,0.3,0.2c0.1,0.1,0.3,0.1,0.5,0.1l0.1,0.1
	l0.3-0.1c0,0,0.1,0,0.1,0s0.1-0.1,0.2-0.2c0.1-0.2,0.1-0.3,0.1-0.3C42.8,36.6,42.7,36.6,42.6,36.5z M48,37.5L48,37.5
	c0.1,0.2,0.2,0.3,0.3,0.5c0,0,0.2,0,0.5-0.1c0.1,0,0.1-0.1,0.2-0.3c0-0.3,0-0.4,0-0.5L48.7,37l0-0.2l-0.1-0.2c0,0,0-0.1,0.1-0.2
	s0.1-0.2,0.1-0.2s-0.1-0.2-0.2-0.4s-0.2-0.4-0.3-0.4l-0.2,0.1l-0.2-0.1c-0.1,0.2-0.1,0.3-0.1,0.4c0,0,0,0.1,0,0.4
	c0,0.2-0.1,0.3-0.3,0.3c-0.1,0-0.2,0-0.3-0.1l-0.3,0.2c-0.4-0.2-0.6-0.3-0.6-0.4s0.1-0.4,0.4-0.8l0.1,0c0.1,0,0.2-0.1,0.2-0.3
	c0.1-0.1,0.2-0.2,0.2-0.5c0.1-0.1,0.2-0.2,0.3-0.4s0.2-0.3,0.3-0.4l-0.2-0.3c-0.1,0-0.3-0.1-0.4-0.2c-0.1,0-0.2,0.1-0.4,0.4
	c0,0.1-0.1,0.3-0.3,0.5s-0.3,0.3-0.4,0.3c-0.1,0-0.2,0-0.3-0.1s-0.2-0.2-0.2-0.3c0-0.2,0.1-0.4,0.3-0.7c0.2-0.3,0.3-0.5,0.3-0.6
	c-0.3-0.2-0.5-0.4-0.6-0.4l-0.1,0c0,0.2-0.1,0.2-0.3,0.2v0.2l-0.9,1.5c0,0.2,0.1,0.4,0.4,0.6c0.2,0.2,0.4,0.3,0.6,0.4l0.2-0.1
	l0.1,0.5c0,0-0.1,0.1-0.2,0.2s-0.2,0.2-0.2,0.3l-0.3,0.3l0,0.1l-0.1,0.3c0,0.2,0.1,0.3,0.3,0.3l0.2,0.2l0.3-0.1l0.2,0.1l0.2-0.1
	l0.2,0c0.1,0.1,0.1,0.2,0.2,0.4c0,0,0,0.1,0,0.3c0,0,0,0.2,0.2,0.4c0,0.1,0,0.3,0,0.6c0,0.2,0,0.5,0,0.6c0,0.1-0.1,0.2-0.1,0.3
	l0.1,0.2l0,0.2l0.1,0.1l0,0.2c0,0.1,0.2,0.1,0.5,0.1H47l0.2-0.1l0-0.3l0.1-0.1l-0.1-0.2l0.1-0.1l-0.1-0.2c0-0.1,0-0.2,0.1-0.4
	s0.1-0.3,0.1-0.4c0-0.1-0.1-0.2-0.2-0.6l0.2-0.2c0-0.1-0.1-0.2-0.1-0.3c0-0.1-0.1-0.2-0.1-0.3c0-0.2,0.1-0.3,0.4-0.4l0.3,0.1
	c0,0,0.1,0,0.1,0L48,37.5z M45.5,38.5c0,0-0.1,0.1-0.1,0.1c0,0,0,0-0.1,0s0,0-0.1,0c-0.1,0-0.1,0-0.2,0.1S45,38.7,45,38.8
	c0,0,0,0.1,0,0.1c0,0,0,0.1,0,0.1c0,0.1,0,0.2-0.1,0.2v0c0,0,0,0,0,0.1s0,0.1,0,0.1s0,0,0,0.1s0,0.1,0,0.1s0,0,0,0.1c0,0,0,0,0,0.1
	c0,0,0,0.1,0,0.1s0,0.1,0,0.1c0,0.1,0,0.3,0.1,0.4s0.1,0.2,0.1,0.3c0.1,0,0.2,0,0.3,0c0.1,0,0.2,0,0.2,0c0.1,0,0.2,0,0.2-0.2
	c0,0,0-0.1,0-0.1s0,0,0-0.1c0,0,0-0.1,0-0.1s0-0.1,0-0.1c0,0,0-0.1,0-0.1s0-0.1,0-0.1c0,0,0,0,0-0.1s0,0,0-0.1c0,0,0-0.1-0.1-0.1
	c0,0-0.1-0.1-0.1-0.1c0.2-0.3,0.2-0.5,0.2-0.7c0-0.1,0-0.2-0.1-0.2C45.7,38.6,45.6,38.5,45.5,38.5z M48.9,40
	C48.9,40,48.9,40,48.9,40c-0.1-0.1-0.1-0.1-0.1-0.1c0,0,0,0,0-0.1s0-0.1,0-0.1c0,0,0-0.1-0.1-0.2s-0.1-0.2-0.1-0.2c0,0,0-0.1,0-0.1
	s0-0.1,0-0.1c0,0,0-0.1-0.2-0.2c0,0,0,0,0.1-0.1c0,0,0.1-0.1,0.1-0.1c0-0.1-0.1-0.2-0.2-0.2c0,0-0.1,0-0.1-0.1s-0.1-0.1-0.1-0.1
	c-0.1,0-0.2,0.1-0.3,0.1c0,0,0,0-0.1,0.1c0,0.1-0.1,0.1-0.1,0.2s0,0.1,0.1,0.1S48,39,48,39.1c0,0,0,0.1-0.1,0.2s-0.1,0.1-0.1,0.1
	c0,0,0,0.1,0.1,0.2c0.1,0.1,0.1,0.2,0.1,0.2c0,0,0,0.1,0,0.1s0,0.1,0,0.1c0,0,0,0.1,0,0.1s0,0.1,0,0.1c0,0,0,0,0,0.1s0,0.1,0,0.1
	c0,0,0.1,0.1,0.2,0.1c0.1,0,0.2,0,0.3,0c0.1,0,0.2,0,0.2-0.1c0,0,0-0.1,0-0.3C48.7,40.2,48.8,40.1,48.9,40z M50.7,38.2
	c0,0-0.1,0-0.1,0c0,0-0.1,0-0.1,0c0,0-0.1,0-0.1-0.1S50.3,38,50.2,38c-0.1,0-0.2,0.1-0.3,0.2l-0.1-0.1c0,0-0.1,0-0.2,0.1
	c-0.1,0-0.2,0-0.3,0s-0.2,0.1-0.2,0.4c0,0.2,0,0.3,0,0.4s0.2,0.1,0.6,0.1c0.3,0,0.5,0.1,0.5,0.2c0,0.1,0,0.2-0.2,0.5
	C50,39.9,50,40.1,50,40.1s0,0.1,0,0.2c0,0.1,0,0.1,0,0.2s0,0,0,0.1s0,0,0,0.1c0,0,0,0.1,0.1,0.2c0,0.1,0.1,0.1,0.2,0.1
	c0,0,0.1,0,0.2,0s0.1,0,0.2,0c0.3,0,0.4-0.2,0.4-0.7c0,0,0-0.1,0-0.2c0-0.1,0-0.2,0-0.2s0-0.1,0.2-0.2s0.2-0.2,0.2-0.4
	c0-0.1,0-0.1,0.1-0.2s0.1-0.1,0.1-0.2c0-0.2-0.1-0.3-0.2-0.4c-0.2-0.1-0.3-0.2-0.4-0.2c0,0-0.1,0-0.1,0
	C50.8,38.2,50.7,38.2,50.7,38.2z M53.3,37.1c0,0,0.2,0,0.6,0.1c0,0.1,0.1,0.1,0.1,0.1l0.3-0.2l0.2,0.1c0.3-0.1,0.5-0.3,0.5-0.6
	c0-0.1,0-0.5-0.1-1.2s-0.1-1.1-0.1-1.3c0-0.3,0-0.5,0-0.6l-0.1-0.2l0.1-0.2l-0.2-0.3l-0.5,0c0,0-0.1-0.1-0.1-0.1c0,0-0.1,0-0.1,0.1
	c0,0-0.1,0.1-0.1,0.1l-0.3-0.1c-0.4,0-0.6,0-0.6,0c-0.2,0-0.3-0.1-0.3-0.3c0,0,0-0.1,0-0.2l-0.2-0.2l0.1-0.3c0-0.2-0.1-0.4-0.3-0.4
	c0,0-0.1,0-0.2,0c-0.1,0-0.1,0-0.2,0L52,31.6v0.2L51.8,32c0,0,0,0.1,0.1,0.3c-0.1,0.1-0.1,0.3-0.1,0.5l-0.1,0.1
	c-0.1-0.1-0.2-0.1-0.3-0.2c-0.2,0-0.6,0-1.3,0L49.8,33c-0.1,0-0.2,0.2-0.2,0.7l0.1,0.2c0,0,0,0.1,0,0.1c0,0,0,0.1,0.1,0.2
	c0,0.1,0.1,0.1,0.1,0.2l-0.2,0.4l0.1,0.2c0,0.1,0,0.1,0,0.2c0,0.1,0,0.2,0,0.2c0,0.1,0,0.2-0.1,0.3s-0.1,0.3-0.1,0.3
	c0,0.5,0,0.8,0.1,0.8c0,0,0.2,0.1,0.7,0.2c0.3,0.1,0.5,0.1,0.6,0c0.1,0.1,0.4,0.1,0.7,0.1c0.2,0,0.3,0.1,0.3,0.3c0,0.2,0,0.3,0,0.5
	l-0.1,0.1c0,0.1,0,0.2,0.1,0.4c0,0.2,0,0.4-0.1,0.7c0,0.2,0.1,0.5,0.1,1c0,0.5,0,0.8,0,1.1c0.2,0.1,0.3,0.2,0.5,0.3l0.3-0.1
	c0.1-0.1,0.1-0.4,0.2-0.9c0-0.3,0-0.6,0-1c0-0.2,0-0.3,0-0.3l-0.1-0.3c0-0.1,0-0.2,0.1-0.3s0.1-0.2,0.1-0.3c0,0,0-0.1-0.1-0.1
	S52.8,38,52.8,38c0,0,0-0.2,0.1-0.5c0,0,0-0.1,0-0.1C52.9,37.2,53,37.1,53.3,37.1z M52.5,36.1c0,0-0.1,0-0.2,0.1
	c-0.1,0-0.1,0.1-0.2,0.1c0,0-0.1,0-0.1-0.1c0,0-0.1-0.1-0.1-0.1s-0.1,0-0.1,0.1s-0.1,0.1-0.1,0.1s-0.1,0-0.2,0s-0.1,0-0.2,0
	s-0.1,0-0.2,0s-0.2,0-0.2,0c-0.2,0-0.3-0.1-0.3-0.4c0,0,0,0,0-0.1c0,0,0-0.1,0-0.1c0,0,0-0.1-0.1-0.2l0.4-0.2c0,0,0.1,0,0.2,0.1
	s0.2,0.1,0.2,0.1c0,0,0.1,0,0.1-0.1s0.1-0.1,0.1-0.1s0,0,0.1,0.1c0,0,0,0.1,0.1,0.1c0.1,0,0.1,0,0.3-0.1c0.1,0,0.2-0.1,0.3-0.1
	c0,0,0.1,0,0.2,0c0.1,0,0.2,0,0.2,0c0.1,0,0.1,0.1,0.1,0.1H53c0.1,0,0.1,0,0.2,0s0.2,0,0.2,0c0,0,0,0,0.1,0.1c0,0,0.1,0.1,0.1,0.1
	c0,0,0.1,0,0.1,0c0,0,0.1,0,0.1,0l0,0c0.1,0.2,0.1,0.4,0.1,0.7c0,0,0,0.1-0.1,0.2s-0.1,0.1-0.2,0.1c0,0-0.1,0-0.2-0.1
	s-0.1-0.1-0.2-0.1c-0.1,0-0.1,0-0.2,0s-0.2,0-0.2,0s-0.1,0-0.2-0.1C52.6,36.2,52.5,36.1,52.5,36.1z M50.8,33.8c0,0,0.1,0,0.2,0.1
	c0.1-0.1,0.2-0.2,0.2-0.2c0.1,0.1,0.2,0.1,0.2,0.1c0,0,0.1,0,0.1,0s0.1,0,0.1,0c0,0,0.1,0,0.2,0s0.2,0,0.2,0s0.1,0,0.2-0.1
	s0.2-0.1,0.2-0.1c0,0,0.1,0,0.1,0c0.1,0,0.1,0,0.1,0s0.1,0,0.1,0c0,0,0.1,0,0.1,0s0.1,0,0.1,0.1s0.1,0.1,0.1,0.1c0,0,0.1,0,0.1,0
	s0.1,0,0.1,0c0.1,0,0.2,0,0.3,0.1C54,33.9,54,34,54,34.1c0,0.3-0.2,0.4-0.5,0.4c0,0-0.1,0.1-0.1,0.1c0,0-0.1,0-0.2-0.1
	c-0.1,0-0.1-0.1-0.2-0.1c0,0-0.1,0-0.2,0.1s-0.2,0.1-0.2,0.1s-0.1,0-0.2-0.1s-0.1-0.1-0.2-0.1c0,0-0.1,0-0.1,0.1
	c0,0-0.1,0.1-0.1,0.1c-0.1,0-0.2-0.1-0.5-0.2c0,0-0.2,0-0.5,0c-0.3,0-0.5-0.1-0.5-0.3C50.7,33.9,50.7,33.8,50.8,33.8z M55.7,40.2
	c0,0,0-0.1-0.1-0.3s-0.1-0.2-0.2-0.2c-0.1,0-0.1,0.1-0.2,0.1s-0.2-0.1-0.3-0.3s-0.3-0.3-0.3-0.4c0-0.1,0.1-0.2,0.3-0.2
	c0-0.2,0-0.3,0.1-0.3c0.1,0,0.2,0,0.2-0.1c0-0.1,0.1-0.2,0.3-0.3c0-0.1-0.1-0.2-0.1-0.3s-0.1-0.2-0.2-0.2c0,0-0.1,0-0.1,0
	c-0.1,0-0.1-0.1-0.1-0.1c-0.1,0-0.2,0-0.2,0c0,0.1-0.1,0.1-0.1,0.2c0,0-0.1,0-0.2,0.1c-0.1,0-0.2,0-0.2,0c-0.1,0-0.2,0.1-0.3,0.3
	c-0.1,0.1-0.2,0.2-0.4,0.2c0,0-0.1,0.1-0.2,0.3c-0.1,0.2-0.1,0.3-0.1,0.3c0.2,0.2,0.3,0.4,0.4,0.5c0,0,0.1,0.1,0.1,0.1
	s0.1,0,0.1,0.1s0.1,0.1,0.1,0.2c0,0,0.2,0.2,0.6,0.4c0.3,0.2,0.5,0.4,0.6,0.4c0,0,0.1,0,0.1,0s0.1-0.1,0.1-0.1l0-0.1
	c0,0,0.1-0.1,0.2-0.1C55.6,40.4,55.7,40.3,55.7,40.2z M60.5,34c-0.4-0.2-0.6-0.2-0.6-0.2c-0.1,0-0.1,0.1-0.2,0.2
	c-0.1,0.2-0.2,0.2-0.2,0.2c0,0-0.1,0.1-0.1,0.1c0,0.1,0,0.1,0,0.1c0,0.1-0.1,0.1-0.2,0.2c0,0.1-0.1,0.2-0.1,0.2
	c0,0.1-0.1,0.2-0.2,0.2c0,0.1,0.1,0.1,0.1,0.2c0,0.1,0,0.1-0.1,0.2c-0.1,0-0.1,0.1-0.1,0.2c0,0.1-0.1,0.2-0.3,0.3
	c0,0,0.1,0.1,0.1,0.1c-0.1,0.1-0.1,0.2-0.1,0.3c0,0.2,0,0.2,0,0.2c0,0.4-0.2,0.6-0.5,0.7c-0.1,0.3-0.2,0.5-0.3,0.7
	c-0.2,0.5-0.3,0.7-0.4,0.8c0,0.2,0.2,0.3,0.4,0.3v0c0,0.1,0,0.2,0.2,0.2c0,0,0.1,0,0.1-0.1s0.1-0.1,0.1-0.1c0.1,0,0.2-0.1,0.2-0.1
	s0.1,0,0.1,0c0,0,0-0.1,0-0.3c0,0,0-0.2,0-0.3s0-0.3,0-0.4c0.1,0.1,0.2,0.1,0.2,0.1c0,0,0-0.1,0-0.2c0-0.1,0.1-0.2,0.2-0.5
	s0.3-0.4,0.3-0.5c0,0,0,0,0,0c0,0,0-0.1,0-0.1s0-0.1,0-0.1c0-0.1,0.1-0.2,0.2-0.3s0.2-0.2,0.2-0.2c0,0,0,0,0-0.1s0-0.1,0-0.1
	c0,0,0,0,0.1-0.1h0c0,0,0.1-0.1,0.2-0.3S60,35,60,35c0-0.1,0.1-0.2,0.3-0.4c0.1-0.1,0.1-0.1,0.1-0.1c0-0.1,0-0.2,0-0.2
	C60.3,34.1,60.4,34,60.5,34z M65.7,38.3l-0.1-0.2l-0.2,0c0,0-0.1-0.1-0.1-0.2s-0.1-0.2-0.1-0.2c0,0,0-0.1,0-0.1s0-0.1,0-0.1l0,0
	c-0.1-0.1-0.2-0.2-0.3-0.4c-0.1-0.2-0.1-0.3-0.1-0.5c0-0.1-0.1-0.2-0.2-0.3c-0.2-0.1-0.2-0.2-0.2-0.3c0-0.1-0.1-0.2-0.2-0.2
	S64,35.6,64,35.5c0-0.1,0-0.2-0.1-0.2s-0.1-0.1-0.1-0.2s0-0.1,0-0.2l-0.2-0.1v0c0,0,0-0.1,0-0.1s0-0.1,0-0.1c0,0-0.1,0-0.2-0.1
	l0.1-0.1c0-0.1-0.1-0.2-0.2-0.4c-0.1-0.2-0.2-0.2-0.3-0.2c-0.1,0-0.2,0-0.4,0.1c-0.2,0.1-0.3,0.1-0.3,0.2c0.1,0.2,0.2,0.4,0.2,0.5
	c0,0,0,0.1,0,0.1c0,0,0.1,0,0.1,0c0,0,0,0,0,0.1s0,0.2,0.1,0.3s0.1,0.2,0.1,0.4c0,0,0.2,0.3,0.4,0.8c0.3,0.6,0.5,0.9,0.5,1.1
	c0,0,0.1,0.1,0.1,0.2c0.1,0.1,0.1,0.2,0.1,0.3c0,0.1,0.1,0.2,0.2,0.3s0.2,0.2,0.2,0.2c0,0,0,0,0,0.1c0,0,0,0,0,0.1
	c0.1,0.1,0.2,0.3,0.2,0.4c0,0,0.1,0.1,0.2,0.2s0.2,0.2,0.2,0.2s0.1,0,0.1-0.1s0.1-0.1,0.1-0.1s0.1,0,0.1,0s0.1,0,0.1,0
	c0.1,0,0.2-0.1,0.3-0.3c-0.1,0-0.1-0.1-0.1-0.1C65.7,38.5,65.8,38.4,65.7,38.3C65.8,38.3,65.7,38.3,65.7,38.3z M66.8,33.3
	c0,0,0.1-0.1,0-0.1c-0.1-0.5-0.2-0.8-0.4-1c-0.2-0.3-0.5-0.4-1-0.5c0,0-0.1,0-0.1-0.1s-0.1,0-0.1,0c-0.1,0-0.1,0-0.2,0.1
	s-0.2,0.1-0.2,0.1c0,0-0.1,0-0.1,0c-0.1,0-0.1,0-0.1,0c-0.1,0-0.2,0.1-0.2,0.1c-0.1,0.1-0.2,0.1-0.3,0.2c0,0,0,0.1,0,0.2
	s0,0.2,0,0.2c0,0.1-0.1,0.1-0.1,0.2s-0.1,0.1-0.1,0.2c0,0.4,0,0.7,0.2,0.9c0.1,0,0.2,0.1,0.2,0.1c0,0,0,0.1,0,0.2
	c0.2,0.1,0.3,0.1,0.4,0.1c0.1,0.1,0.1,0.1,0.2,0.2l0.4,0.1c0,0,0.1,0,0.1,0c0,0,0.1,0,0.1,0c0.1,0,0.1,0,0.3,0.1
	c0.1,0,0.2,0.1,0.3,0.1h0c0.1-0.1,0.3-0.2,0.5-0.2c0.1-0.1,0.2-0.2,0.3-0.2c0.1-0.1,0.2-0.2,0.2-0.3c0,0,0-0.1,0-0.1
	c0-0.1,0.1-0.1,0.1-0.2c0,0,0-0.1-0.1-0.1l0,0C66.7,33.4,66.8,33.3,66.8,33.3z M65.7,32.8l0.2,0c0,0.1,0.1,0.2,0.1,0.3
	c-0.1,0.1-0.2,0.3-0.3,0.4l-0.4,0l0.1-0.1L65,33.3c0-0.2-0.1-0.3-0.2-0.3c0.1,0,0.1-0.1,0.1-0.2v0c0,0,0,0,0.1,0s0.1,0,0.2,0
	c0-0.1,0-0.2,0.1-0.2l0.4,0.1L65.7,32.8z M75.6,33.7c0,0,0-0.1,0.1-0.2c0-0.1,0.1-0.2,0.1-0.2c0-0.1-0.1-0.2-0.2-0.2
	c0.1,0,0,0-0.4,0c0,0-0.1,0-0.2-0.1S74.8,33,74.7,33c-0.1,0-0.1,0-0.2,0.1C74.4,33,74.3,33,74.2,33c-0.2,0-0.3,0-0.3,0
	c-0.1,0-0.2-0.1-0.5-0.2c0,0-0.1,0-0.1,0c-0.1,0-0.1,0.1-0.1,0.1c-0.1,0-0.3,0.1-0.7,0.1c-0.2,0-0.4,0-0.8-0.1l0,0.1
	c-0.1,0-0.1,0-0.2-0.1c-0.1,0-0.1-0.1-0.2-0.1c0,0-0.1,0-0.2,0.1S71,33,70.9,33c-0.1,0-0.3,0-0.6,0s-0.5,0-0.6,0
	c-0.2,0-0.4,0-0.6,0.1c-0.3,0.1-0.4,0.2-0.4,0.4c0,0,0,0.1,0.1,0.2s0,0.2,0,0.3c0,0,0,0.1,0,0.2s0,0.2,0,0.2l0,0.5
	c0.1,0.1,0.1,0.2,0.1,0.2c0,0,0,0.1-0.1,0.2c-0.1,0.1-0.1,0.1-0.1,0.2c0,0.1,0,0.2,0,0.3s0,0.2,0,0.3c0,0.1,0,0.2,0.1,0.2
	s0.1,0,0.2,0c0.2,0,0.2,0,0.2,0c0,0,0.1,0,0.2,0.1c0.1-0.2,0.2-0.4,0.3-0.6c-0.1-0.1-0.1-0.2-0.2-0.3c0,0,0,0,0.1-0.1
	s0.1-0.1,0.1-0.1c0-0.1,0-0.1,0-0.2s0-0.2,0-0.2c0.1-0.1,0.1-0.1,0.2-0.2c0,0,0-0.1-0.1-0.1c-0.1,0-0.1-0.1-0.1-0.1
	c0-0.1,0.1-0.2,0.3-0.3c0.2-0.1,0.3-0.1,0.5-0.1h0.1c0.1,0.1,0.1,0.1,0.2,0.1h0c0-0.1,0.1-0.2,0.1-0.2c0,0,0.1,0,0.2,0.1
	c0.1,0,0.2,0,0.3,0c0.1,0,0.2,0,0.3,0c0.1,0,0.2,0,0.3,0.1c0.2,0,0.3,0.1,0.3,0.1c0.1,0,0.1,0,0.1-0.1s0.1-0.1,0.1-0.1
	s0.1,0,0.2,0.1c0,0,0.1,0,0.1,0c0,0,0,0,0.1,0c0.1,0,0.2,0,0.3,0.1c0.1,0,0.2,0.1,0.2,0.1c0,0,0.1,0,0.1-0.1s0.1-0.1,0.1-0.1
	s0.1,0,0.1,0.1s0.1,0.1,0.2,0.1c0,0,0.1,0,0.2,0c0.1,0,0.2,0,0.2,0c0.2,0.1,0.3,0.2,0.3,0.3c0,0-0.1,0.2-0.2,0.3l0,0.2
	c0,0.1,0,0.2-0.1,0.2c-0.1,0.1-0.1,0.2-0.1,0.2c0,0,0,0.1,0,0.1s0,0.1,0,0.1c0,0-0.1,0.1-0.2,0.2s-0.2,0.3-0.2,0.4
	c0,0.1-0.1,0.3-0.3,0.6c0,0.1,0,0.1,0.1,0.2c0,0,0,0,0,0c0,0-0.1,0-0.1,0c0,0-0.1,0-0.1,0v0.1c0,0.1,0,0.2-0.1,0.3s-0.1,0.2-0.1,0.4
	c0,0,0,0.1,0,0.1l-0.3,0.1c0,0.1,0,0.3,0,0.5c0,0-0.1,0.2-0.2,0.4s-0.2,0.4-0.2,0.5c0,0.1,0.1,0.1,0.2,0.1l0.1,0.2
	c0.1,0,0.2,0,0.3,0c0,0,0,0,0.1,0.1s0.1,0.1,0.1,0.1c0.1,0,0.2-0.1,0.3-0.3c0.1-0.2,0.1-0.3,0.1-0.4c0.1,0,0.2-0.1,0.2-0.1
	c0,0,0,0,0-0.1c0,0,0-0.1,0-0.1c0-0.1,0.1-0.2,0.2-0.4c0.1-0.2,0.2-0.2,0.3-0.2c0,0,0-0.1,0-0.2s0-0.2,0-0.2c0-0.1,0.1-0.2,0.2-0.4
	c0.2-0.2,0.2-0.4,0.2-0.6c0,0,0-0.1,0.1-0.2s0.1-0.3,0.1-0.4c0-0.1,0.1-0.2,0.2-0.3c0.1-0.1,0.2-0.3,0.2-0.6c0-0.1,0.1-0.1,0.1-0.2
	c0.1-0.1,0.1-0.1,0.1-0.2s0,0,0-0.1s0,0,0-0.1c0,0,0,0,0.1,0c0,0,0.1-0.1,0.1-0.2c0-0.1,0.1-0.2,0.1-0.2c0.1-0.1,0.1-0.2,0.1-0.2
	c0,0,0,0-0.1-0.1c0,0,0-0.1,0.1-0.1S75.6,33.8,75.6,33.7z M84.4,35.7c-0.1,0-0.1,0-0.2-0.1c-0.2,0.1-0.5,0.1-1,0.1c0,0-0.1,0-0.1,0
	s-0.1,0-0.1,0c-0.2,0-0.4,0.1-0.6,0.2c-0.2-0.2-0.4-0.2-0.6-0.2c-0.1,0-0.1,0-0.2,0.1s-0.2,0.1-0.2,0.1c0,0-0.1,0-0.1-0.1
	c0,0-0.1-0.1-0.1-0.1c0,0-0.1,0-0.1,0s-0.1,0-0.1,0s-0.1,0-0.1-0.1c0,0-0.1-0.1-0.1-0.1c-0.1,0-0.1,0-0.2,0.1
	c-0.1,0-0.2,0.1-0.2,0.1c0,0-0.1,0-0.1,0c-0.1,0-0.1,0-0.2,0s-0.1,0-0.1-0.2l-0.1,0c-0.1,0-0.1,0-0.2,0.1c-0.1,0-0.1,0.1-0.2,0.1
	s-0.1,0-0.2-0.1s-0.1-0.1-0.2-0.1c0,0.1-0.2,0.2-0.4,0.2c-0.1,0-0.2,0-0.3-0.1s-0.2-0.1-0.3-0.1l-0.1,0c0,0-0.1,0-0.1,0.1
	c0,0-0.1,0-0.1,0c-0.1,0-0.1,0-0.1,0l-0.1,0v0.1c-0.1,0.1-0.1,0.1-0.1,0.2c0,0.4,0.2,0.7,0.5,0.7c0,0,0.1,0,0.2,0c0.1,0,0.1,0,0.2,0
	c0.1,0,0.2,0,0.3,0s0.3,0,0.3,0c0.1,0,0.2,0,0.3,0s0.2,0,0.3,0c0,0,0.1,0,0.2,0s0.2,0,0.2,0c0,0,0.1,0,0.2,0c0.1,0,0.2,0,0.2,0
	c0,0,0.1,0,0.2-0.1c0.1,0,0.1,0,0.2,0c0.1,0,0.1,0,0.2,0.1s0.1,0.1,0.2,0.1c0,0,0.1,0,0.1-0.1s0.1-0.1,0.2-0.1c0,0,0.1,0,0.1,0
	s0.1,0,0.1,0s0.1,0,0.1,0c0.1,0,0.1,0,0.1,0c0,0,0.1,0,0.1,0s0.1,0,0.1,0c0,0,0.1,0,0.1,0c0.1,0,0.1,0,0.2,0.1l0.1,0
	c0,0,0.1,0,0.2,0c0.1,0,0.1,0,0.2,0c0.1,0,0.2,0,0.2-0.2c0.2,0,0.5,0.1,0.8,0.1c0,0,0.1,0,0.3,0c0,0,0.1,0,0.1-0.1s0.1-0.1,0.1-0.1
	c0.2,0.1,0.3,0.1,0.4,0.1l0.1,0c0,0,0.1,0,0.1-0.1l0.1,0.1c0.1,0,0.2-0.1,0.3-0.2c0.1,0,0.1-0.1,0.1-0.2v-0.4
	c-0.2-0.1-0.3-0.2-0.4-0.2L84.4,35.7L84.4,35.7L84.4,35.7z M93.7,39.5C93.7,39.4,93.7,39.4,93.7,39.5c0-0.1,0-0.1-0.1-0.1
	c0,0-0.1,0-0.1,0c-0.1,0-0.1,0-0.1,0l-0.1,0c-0.1-0.1-0.5-0.2-1.2-0.2c0,0-0.1,0-0.1-0.1S91.8,39,91.7,39c-0.4,0-0.6-0.2-0.6-0.6
	c0,0,0,0-0.1,0c-0.2-0.3-0.3-0.5-0.3-0.6c0-0.3,0.1-0.6,0.2-0.8c0,0,0-0.1-0.1-0.1s-0.1-0.1-0.1-0.1c0,0,0-0.1,0.1-0.2l-0.1-0.1
	c0-0.1,0.1-0.2,0.1-0.4C91,36,91,36,91.2,36c0,0,0.1,0,0.1-0.1s0.1-0.2,0.2-0.4s0.2-0.3,0.3-0.3l0.2,0.1c0,0,0,0,0-0.2
	c0,0,0,0,0-0.1l0.2,0c0.1-0.1,0.2-0.1,0.2-0.1c0,0,0.1,0,0.2,0c0.1,0,0.2-0.1,0.3-0.2c0.1-0.1,0.2-0.2,0.2-0.3c0.1,0,0.2,0,0.2,0
	s0.1-0.1,0.1-0.2c0,0,0-0.1-0.1-0.2c0-0.1,0-0.2-0.1-0.3c0,0-0.2,0-0.5,0l-0.4-0.1c-0.2,0.1-0.5,0.1-0.9,0.1c-0.1,0-0.1,0-0.2,0
	s-0.2,0-0.2,0s-0.1,0-0.2,0.1c-0.1,0-0.1,0.1-0.1,0.1c0,0-0.1,0-0.1-0.1s-0.1-0.1-0.1-0.1c-0.1,0-0.2,0-0.4,0s-0.3,0-0.4,0
	c-0.1,0-0.2,0-0.2-0.1s-0.2-0.1-0.2-0.1c-0.1,0-0.2,0-0.4,0.1s-0.3,0.1-0.4,0.1c-0.1,0-0.1,0-0.2,0s-0.2,0-0.2,0
	c-0.1,0-0.2,0-0.4,0.1s-0.3,0.1-0.3,0.1c0,0-0.1,0-0.2,0c-0.1,0-0.1,0-0.2,0l-0.1,0.1c0,0.1-0.1,0.2-0.1,0.4c0,0.1,0.1,0.3,0.1,0.4
	c0,0,0.1,0,0.2,0c0,0,0.1,0,0.1,0s0.1,0,0.1,0c0,0,0.1,0,0.1-0.1c0.1,0,0.1-0.1,0.1-0.1c0.4,0,0.6,0,0.7,0.1c0,0,0.1,0,0.1,0
	c0.1-0.1,0.2-0.1,0.3-0.2c0.1,0.1,0.1,0.1,0.2,0.1c0,0,0.1,0,0.1-0.1s0.1-0.1,0.2-0.1c0.1,0,0.2,0,0.5,0c0.2,0,0.4,0,0.5,0
	s0.2,0,0.4,0.1c0,0,0.1,0,0.1,0c0.1,0,0.1,0,0.1,0.1c0,0,0,0,0,0.1l0,0.2c0,0-0.1,0.1-0.3,0.1c-0.2,0-0.2,0.1-0.2,0.2
	s-0.1,0.3-0.3,0.7c-0.1,0.3-0.2,0.6-0.2,0.7c0,0,0,0,0.1,0.1s0.1,0.1,0.1,0.2c0,0.1,0,0.3-0.1,0.5s-0.1,0.4-0.1,0.5c0,0,0,0,0,0.1
	c0,0,0,0.1,0,0.2s0,0.1,0.1,0.1s0.1,0,0.1,0.1c0.1,0.4,0.3,0.9,0.8,1.4l0,0c0,0,0.1,0,0.1,0c0,0,0.2,0,0.4,0.2
	c0.2,0.1,0.5,0.2,0.6,0.2c0,0,0.1,0,0.1,0.1c0,0.1,0.1,0.1,0.1,0.1s0.1,0,0.2,0s0.2,0,0.2,0c0,0,0.1,0,0.2,0s0.1,0,0.2,0
	c0.1,0,0.2,0,0.4-0.1c0.2-0.1,0.3-0.1,0.3-0.2c0-0.1,0-0.2,0-0.3C93.7,39.6,93.7,39.5,93.7,39.5z M94.3,34.8L94.3,34.8
	c-0.3,0-0.4-0.1-0.4-0.1s-0.1,0-0.2,0l-0.2,0c0,0,0,0,0,0.2c0,0.1,0,0.1-0.1,0.2s-0.1,0.1-0.1,0.1c0.1,0,0.1,0.1,0.1,0.2
	c0,0,0,0.1-0.1,0.2s-0.1,0.1-0.1,0.2c0,0,0,0.1,0.1,0.2s0.1,0.2,0.1,0.3c0,0,0,0.1,0.1,0.2s0.1,0.2,0.1,0.2c0.1,0,0.1,0,0.3-0.1
	s0.2-0.1,0.3-0.1s0.1,0,0.1-0.1c0,0,0-0.1,0-0.2s0-0.1,0-0.1c0.1-0.2,0.1-0.4,0.1-0.8c0,0,0-0.1,0-0.3S94.4,34.8,94.3,34.8z
	 M96,35.8l0-0.2L96,35.4c0,0,0-0.1,0-0.1s0-0.1,0-0.1c0-0.1,0-0.2-0.1-0.3c-0.1-0.1-0.2-0.1-0.3-0.1c0,0-0.1,0-0.2,0
	c-0.1,0-0.2,0-0.2,0c0,0,0,0.1,0,0.2c0,0,0,0.1-0.1,0.1c-0.1,0-0.1,0.1-0.1,0.1s0,0.1,0.1,0.2s0.1,0.1,0.1,0.2c0,0,0,0.1-0.1,0.1
	s-0.1,0.1-0.1,0.1c0,0,0,0.1,0.1,0.2c0,0.1,0.1,0.2,0.1,0.3c0,0.1,0,0.1,0.1,0.2s0.1,0.1,0.1,0.1c0.3,0,0.4,0,0.5,0s0-0.1,0-0.3v0
	c0,0,0.1,0,0.1,0s0.1,0,0.1-0.1L96,35.8z M29.1,48.6C29.1,48.5,29.1,48.5,29.1,48.6c0-0.1,0-0.2,0-0.2c0,0,0.1-0.1,0.1-0.1
	c0-0.1-0.1-0.3-0.2-0.5l-0.3,0l-0.1-0.1l-0.5,0.1l-0.3-0.2l-0.1,0.1c0,0-0.1,0-0.2,0c-0.1,0-0.2,0-0.2,0c-0.1,0-0.3,0-0.5-0.1
	s-0.4-0.1-0.5-0.1c0,0-0.1,0-0.2,0.1s-0.2,0.1-0.3,0.1l0-0.1l0-0.1c0,0,0-0.1-0.1-0.1c0-0.1,0-0.3,0-0.6c-0.1,0-0.2-0.1-0.2-0.2
	c0,0-0.1,0-0.4,0c-0.2,0-0.3,0-0.3,0.1c0,0,0,0.1-0.1,0.4c0,0,0,0.1,0,0.1c0,0.3-0.2,0.5-0.7,0.5c0,0-0.1,0-0.1,0.1
	s-0.1,0.1-0.2,0.1c-0.1,0-0.4,0-0.6-0.1s-0.5-0.1-0.6-0.1c-0.1,0-0.2,0-0.3,0c-0.1,0-0.2,0-0.3,0l-0.1,0.2l-0.2,0
	c-0.1,0-0.2,0-0.2,0.2c0,0.1,0,0.2-0.1,0.3c0.1,0.1,0.1,0.5,0.1,1.3c0,0.1,0,0.2,0.2,0.2h0.3l0.3,0v-0.3c0-0.1,0-0.1,0.1-0.2
	c0.1-0.1,0.1-0.1,0.1-0.1C22.1,49,22,48.9,22,48.9c0-0.1,0-0.2,0.2-0.3c0.1-0.1,0.2-0.1,0.3-0.1c0.7,0,1,0,1.1,0.1l0.1-0.1
	c0.2,0,0.3,0,0.4-0.1c0,0,0.1,0,0.2,0.1c0.1,0,0.1,0,0.2,0c0.1,0,0.2,0,0.3-0.1s0.2-0.1,0.3-0.1s0.2,0,0.4,0.1
	c0.2,0,0.3,0.1,0.4,0.1c0,0,0.1,0,0.1-0.1s0.1-0.1,0.1-0.1c0,0,0.1,0,0.1,0.1c0.1,0,0.3,0,0.4,0s0.2,0,0.3,0.1s0.2,0,0.3,0h0
	l0.1-0.1c0.2,0,0.3,0,0.4,0.2l0.3-0.1c0.1,0,0.1,0.1,0.1,0.2c0,0.1,0,0.2,0,0.3l0,0.2c0,0.2,0,0.3,0.2,0.4c0.1,0.1,0.2,0.1,0.4,0.1
	c0.1,0,0.2,0,0.4,0l0-0.2c0,0,0-0.1,0-0.2s0-0.1,0-0.2c0-0.1,0-0.1,0-0.2C29.1,48.7,29.1,48.6,29.1,48.6z M28.6,56.1L28.6,56.1
	c0-0.1-0.1-0.2-0.2-0.3c-0.1-0.1-0.2-0.2-0.3-0.2c0-0.2-0.1-0.3-0.2-0.4c-0.1,0-0.2-0.1-0.2-0.2c0,0,0-0.1,0.2-0.3c0,0,0.1,0,0.2,0
	c0.1,0,0.1,0,0.2,0c0.1,0,0.1,0,0.2-0.1c0.1,0.1,0.2,0,0.4,0l0.1,0l0-0.5c0-0.1-0.1-0.2-0.4-0.3c-0.1,0-0.1,0.1-0.2,0.1
	c-0.1,0-0.1,0-0.2-0.1l-0.2,0.1c-0.1,0-0.3,0-0.5-0.1c-0.2,0-0.4-0.1-0.4-0.2c0,0,0-0.1,0.1-0.1c0,0,0.1-0.1,0.1-0.1l0-0.3
	c0-0.1,0.1-0.1,0.2-0.1c0.1,0,0.2,0,0.2,0c0,0,0.1,0,0.3-0.1l0.2,0.1c0,0,0.1-0.1,0.3-0.1c0.1,0,0.2-0.2,0.2-0.3
	c0-0.4-0.2-0.5-0.6-0.5L27.9,52c-0.1,0-0.2,0.1-0.3,0.1c-0.2,0-0.3,0-0.4,0c-0.1-0.2-0.1-0.2-0.1-0.3c0,0,0-0.1,0-0.2s0-0.1,0-0.2
	l-0.1-0.2c0.5,0,0.7,0,0.7,0c0,0,0.1,0,0.2-0.1s0.2-0.1,0.2-0.1c0,0,0.1,0,0.1,0c0.1-0.2,0.1-0.3,0.1-0.4c0-0.3-0.3-0.5-0.9-0.5
	c-0.3,0-0.5-0.1-0.7-0.2l0-0.3l-0.1-0.2l0-0.2c0-0.1-0.2-0.1-0.3-0.1c0,0-0.1,0-0.2,0s-0.2,0-0.2,0c-0.1,0.2-0.1,0.4-0.1,0.7
	L26,50.4l-0.1,0c-0.1,0-0.2,0-0.4,0s-0.3,0-0.4,0c-0.2,0-0.4,0-0.7-0.1c-0.2-0.2-0.2-0.3-0.2-0.3c0,0,0,0,0-0.1s0-0.1,0-0.2
	c0,0,0-0.1-0.1-0.2s-0.1-0.2-0.1-0.2l-0.2,0c-0.2,0-0.3,0-0.4,0c-0.1,0-0.2,0.2-0.2,0.3c0,0,0,0.1,0,0.2l-0.2,0.2l0.1,0.2
	c-0.1,0.2-0.2,0.3-0.2,0.3l-0.5-0.1c-0.4,0-0.6,0.2-0.6,0.4v0.1C22,51,22.2,51,22.3,51l0,0.2l0.2,0c0,0,0.3,0,0.8,0.1
	c0,0.1,0.1,0.2,0.2,0.3l-0.1,0.2l0,0.2c0,0.1-0.1,0.1-0.2,0.1c0,0-0.1,0-0.2,0c-0.1,0-0.2,0-0.2,0c-0.1,0-0.2,0-0.2,0.1l-0.3,0
	c-0.2,0-0.3,0.1-0.3,0.2c0,0,0,0.2,0.1,0.5l0.4,0l0.1,0.1l0.1-0.1c0.1,0,0.1,0,0.3,0c0.2,0,0.3,0,0.3,0c0,0,0.1,0,0.1,0.1
	s0.1,0.2,0.1,0.2c0,0-0.1,0.1-0.1,0.2c0,0,0,0.1,0,0.1c0,0.1-0.1,0.1-0.2,0.2c-0.1,0-0.2,0-0.3,0.1c-0.1,0-0.3-0.1-0.4-0.1
	c-0.2,0.1-0.3,0.2-0.3,0.2c0,0-0.1,0-0.2-0.1c-0.1,0-0.1-0.1-0.2-0.1c0,0-0.1,0.1-0.3,0.2v0.2c-0.1,0-0.1,0.1-0.1,0.2s0,0.1,0.1,0.2
	s0.2,0.1,0.3,0.1v0.2c0-0.1,0.2-0.1,0.4-0.1c0.3,0,0.5,0.1,0.5,0.2c0,0.1,0,0.1-0.1,0.2s-0.1,0.2-0.1,0.3l-0.1,0.3L22,55.7L22,56
	c-0.2,0.1-0.3,0.3-0.3,0.5c0,0.1,0.1,0.2,0.2,0.3c0.1,0.1,0.2,0.2,0.3,0.2c0.1,0,0.3-0.1,0.4-0.3s0.2-0.3,0.2-0.5c0,0,0,0,0.1-0.1
	s0.1-0.1,0.2-0.1c0-0.1,0-0.2,0.1-0.3c0.1-0.2,0.2-0.3,0.2-0.3l0-0.1l0-0.2c0.2,0,0.3,0,0.5-0.1l0.1-0.2c0.1,0,0.2-0.1,0.5-0.1
	c0.3,0,0.5,0,0.6,0c0.3,0,0.8,0.1,1.5,0.4l0,0.1l0.1,0.1c0,0.1,0.1,0.2,0.1,0.3c0.1,0.1,0.1,0.2,0.2,0.2c0,0,0.1,0,0.1,0
	c0.1,0.3,0.3,0.5,0.4,0.7l0.2,0c0.1,0.1,0.1,0.2,0.2,0.3s0.2,0.2,0.3,0.2c0,0,0.1,0,0.3,0l0.2-0.2C28.7,56.5,28.7,56.3,28.6,56.1z
	 M26.2,57.4c0-0.1-0.1-0.2-0.2-0.2c-0.1-0.1-0.2-0.1-0.3-0.2c-0.1,0-0.2,0.1-0.2,0.1c-0.1,0-0.1,0-0.2-0.1s-0.2-0.1-0.2-0.1
	s-0.1,0-0.1-0.1s-0.1-0.1-0.1-0.1c0,0,0,0-0.1,0c0,0-0.1,0-0.1,0s-0.1,0-0.2-0.1s-0.2-0.1-0.2-0.1c-0.1,0-0.1,0.1-0.2,0.2
	C24,56.9,24,57,24,57.1c0,0,0.1,0.2,0.2,0.5l0.2-0.1c0,0,0.1,0.1,0.3,0.2c0.1,0.1,0.2,0.2,0.3,0.2c0,0,0.1,0,0.1,0s0.1,0,0.1,0
	c0,0,0.1,0,0.1,0.1c0,0.1,0,0.1,0.1,0.1c0,0,0.1,0,0.2,0c0,0,0.1,0,0.1,0c0.1,0,0.1,0,0.1,0c0.1,0,0.2,0,0.3-0.1s0.2-0.2,0.2-0.2
	c0,0,0-0.1,0-0.1S26.2,57.6,26.2,57.4z M25.7,55.6c0,0-0.1,0-0.1,0s-0.1,0-0.1,0c-0.1,0-0.2,0-0.3-0.2c-0.1-0.1-0.2-0.2-0.3-0.2
	c0,0-0.1,0-0.1,0s-0.1,0-0.1,0c0,0-0.1,0-0.1,0s-0.1,0-0.1,0c0,0,0,0.1,0,0.2c-0.2,0.1-0.2,0.2-0.2,0.3c0,0.1,0.1,0.2,0.2,0.3
	c0.1,0.1,0.2,0.2,0.2,0.2c0,0,0,0,0.1,0c0,0,0.1,0,0.1,0c0,0,0,0.1,0,0.2c0,0,0,0,0,0c0,0,0,0,0,0c0,0,0,0,0.1,0c0,0,0.1,0,0.2,0.1
	s0.2,0.1,0.2,0.1c0,0,0.1,0,0.1,0c0,0,0.1,0,0.1,0c0.1,0,0.1,0,0.1,0.1s0.1,0.1,0.1,0.1c0,0,0,0,0.1,0c0,0,0.1,0,0.1,0
	c0,0,0.1,0,0.1,0s0.1,0,0.1,0s0.1-0.1,0.1-0.2s0.1-0.3,0.1-0.3c0-0.1,0-0.2-0.1-0.2s-0.1-0.1-0.1-0.1s-0.1-0.1-0.2-0.2
	C26,55.7,25.9,55.7,25.7,55.6C25.8,55.6,25.7,55.6,25.7,55.6z M25,53.7c0,0-0.1,0-0.1,0s-0.1,0-0.1,0c-0.1,0-0.1,0-0.2-0.1
	c-0.1,0-0.1-0.1-0.1-0.2c0,0,0-0.1,0.1-0.1c0,0,0.1-0.1,0.1-0.1s0-0.1,0-0.1c0,0,0-0.1,0-0.1c0,0,0.2-0.1,0.5-0.1
	c0.1,0,0.2,0,0.3-0.1c0.1,0,0.1-0.1,0.2-0.1c0,0,0.1,0,0.2,0.1s0.1,0.1,0.2,0.1c0,0,0.1,0,0.1,0c0,0,0.1,0,0.1,0
	c0.1,0,0.1,0.1,0.1,0.2c0,0,0,0.1,0,0.2s0,0.1,0,0.2s-0.1,0.1-0.2,0.1s-0.2,0.1-0.3,0.1h0C25.6,53.8,25.3,53.7,25,53.7z M24.9,51.2
	c0,0,0.1,0,0.2,0.1s0.1,0.1,0.1,0.1c0,0,0.1,0,0.1-0.1s0.1-0.1,0.1-0.1s0,0,0.1,0.1c0,0,0.1,0.1,0.1,0.1c0,0,0,0,0.1,0
	c0,0,0.1,0,0.1,0c0.1,0,0.2,0.2,0.2,0.5c0,0.2,0,0.3-0.1,0.3c-0.1,0-0.2,0-0.5-0.1S25.1,52,25,52c0,0-0.1,0-0.1,0c0,0-0.1,0-0.1,0
	c-0.1,0-0.2,0-0.3-0.1c-0.1-0.1-0.2-0.2-0.2-0.2c0-0.2,0-0.3,0.1-0.3c0.1,0,0.2,0,0.3-0.1C24.9,51.2,24.9,51.2,24.9,51.2z
	 M34.1,53.6L34,53.4l-0.1-0.1h-0.2c-0.1,0.1-0.1,0.2-0.2,0.2c0,0-0.1,0-0.3,0c0,0.2,0,0.3-0.1,0.3c0,0-0.1,0-0.2,0
	c-0.1,0-0.1,0-0.2,0c0,0,0-0.1-0.1-0.2c0-0.1,0-0.2-0.1-0.4c-0.1-0.3-0.1-0.5-0.1-0.5l0.1-0.2c0,0,0-0.1,0-0.1c0,0,0-0.1,0-0.2
	s0-0.3,0-0.5c0,0,0-0.1-0.1-0.2s-0.1-0.2-0.1-0.2l0.1-0.2c0,0,0.1-0.1,0.1-0.2c0,0,0-0.1,0-0.2c0-0.1,0-0.2,0-0.2
	c0-0.1,0-0.2,0.1-0.3c0-0.1,0.1-0.2,0.1-0.3c0-0.2-0.3-0.2-0.8-0.2c0,0-0.1,0.1-0.1,0.3c0,0,0,0.1-0.1,0.2s-0.1,0.1-0.1,0.2
	c0,0.1,0,0.1,0.1,0.2s0.1,0.2,0.1,0.2c0,0,0,0.1-0.1,0.2c0,0-0.1,0.1-0.1,0.1s0,0.1,0.1,0.1s0.1,0.1,0.1,0.1c-0.1,0-0.1,0-0.1,0.1
	c0.1,0.1,0.1,0.2,0.1,0.2c0,0,0,0.1,0,0.3s0,0.2,0,0.3l-0.1,0.2c0.1,0.1,0.2,0.2,0.2,0.3c0,0,0,0.1-0.1,0.2s-0.1,0.2-0.1,0.2
	c0.1,0.1,0.1,0.2,0.1,0.4c0,0.1,0,0.2,0.1,0.3c0,0.2,0.1,0.3,0.1,0.3c0,0.3,0,0.5,0,0.7c0.2,0.3,0.4,0.5,0.6,0.5s0.5-0.2,0.8-0.5
	s0.6-0.5,0.8-0.5c0.1,0,0.2,0,0.2-0.1l0-0.1c0-0.1,0.1-0.2,0.2-0.2l0-0.1C34.3,53.8,34.2,53.7,34.1,53.6z M38.3,53.6
	c0,0,0-0.1,0-0.1c0,0,0-0.1,0-0.1c0-0.1,0-0.2,0-0.3s0-0.2,0-0.3c0-0.1,0-0.2,0-0.3s0-0.2,0-0.3c0-0.1,0-0.1-0.1-0.2
	s-0.1-0.1-0.1-0.1s0.1-0.1,0.2-0.2c-0.1-0.2-0.1-0.3-0.1-0.4c0,0,0-0.1,0-0.2s0-0.2,0-0.3c0-0.3,0-0.5-0.1-0.5s-0.2,0-0.6,0
	c-0.1,0-0.2,0-0.2,0.1c0,0.1-0.1,0.1-0.1,0.1v0c0,0,0,0.1,0.1,0.1s0.1,0.1,0.1,0.1c0,0,0,0.1-0.1,0.1s-0.1,0.1-0.1,0.1
	s0,0.1,0.1,0.1s0.1,0.1,0.1,0.2c0,0.1,0,0.2-0.1,0.3c0,0.1-0.1,0.2-0.1,0.3c0,0,0,0.1,0.1,0.2s0.1,0.2,0,0.2c0,0.1,0,0.2,0,0.2
	c0,0.1,0,0.2,0,0.2c0,0,0,0.1,0,0.2c0,0.1,0,0.1,0,0.2l0.1,0.2c-0.1,0.4-0.2,0.5-0.2,0.5c0,0.1,0,0.1,0.1,0.2c0.1,0,0.1,0.1,0.1,0.1
	c0,0,0,0.1,0,0.2s0,0.2,0,0.2v0.1c-0.1,0,0,0,0.2,0l0.1,0c0,0.1,0.1,0.1,0.4,0.1l0.2,0c0,0,0-0.1,0-0.1s0-0.1,0-0.2
	c0-0.1,0-0.1,0-0.2s0-0.1,0.1-0.1s0.1-0.1,0.1-0.1s0-0.1,0-0.2C38.3,53.7,38.3,53.6,38.3,53.6z M48,54c-0.1-0.1-0.2-0.2-0.5-0.3
	c-0.1-0.1-0.2-0.2-0.3-0.5l-0.3-0.1l0-0.1c-0.1-0.1-0.3-0.2-0.4-0.2c-0.2-0.1-0.3-0.2-0.3-0.4H46c-0.2-0.1-0.3-0.3-0.4-0.5
	c-0.1-0.1-0.2-0.1-0.3-0.2c-0.1-0.1-0.2-0.2-0.2-0.2l0.1-0.2l0.3-0.1c0-0.2,0.1-0.3,0.2-0.5c0.1-0.2,0.3-0.3,0.4-0.3
	c0.2-0.3,0.4-0.4,0.5-0.4c0,0,0.1-0.2,0.2-0.4c0.1-0.2,0.2-0.3,0.2-0.3c0-0.1-0.2-0.3-0.6-0.5c-0.3-0.2-0.6-0.3-0.7-0.3l0-0.2
	l-0.3,0c-0.1-0.1-0.2-0.1-0.2-0.2l-0.2,0c-0.1-0.2-0.3-0.3-0.6-0.3l-0.1-0.2c-0.2-0.1-0.5-0.1-0.9-0.1c-0.2,0-0.3,0.2-0.6,0.5
	l-0.2,0.1c-0.1,0.2-0.2,0.3-0.3,0.5c-0.2,0.1-0.5,0.3-0.8,0.6s-0.6,0.5-0.8,0.6c0,0.1,0,0.1,0,0.2s0,0.1-0.1,0.2c-0.1,0-0.1,0-0.2,0
	c-0.1,0.2-0.2,0.3-0.3,0.3c-0.1,0-0.1,0.2-0.2,0.4c0.1,0.1,0.2,0.1,0.2,0.2c0.2,0.1,0.2,0.2,0.2,0.2c0.1,0,0.2,0,0.3-0.1
	s0.2-0.1,0.3-0.1c0.1,0,0.1-0.1,0.2-0.2s0.2-0.2,0.2-0.2c0.2,0,0.3,0,0.3,0c0.1,0,0.1,0.1,0.1,0.3c0,0.1,0.1,0.1,0.2,0.1
	c0.1,0.1,0.3,0.3,0.5,0.5l0.3,0l-0.1,0.1c0.1,0.2,0.2,0.3,0.2,0.5l-0.1,0c-0.1,0-0.5,0.3-1.3,1c-0.7,0.7-1.1,1.1-1.1,1.2l-0.2,0.2
	c0.1,0.2,0.2,0.3,0.2,0.5c0.3,0,0.4,0.1,0.4,0.1c0.1,0,0.2,0,0.5-0.2c0.1-0.2,0.3-0.4,0.5-0.7s0.5-0.5,0.5-0.7c0,0,0.1-0.1,0.1-0.1
	c0.1,0,0.1,0,0.2,0l0.2-0.1c0-0.1,0.2-0.2,0.4-0.4s0.4-0.3,0.5-0.3c0.1,0,0.3,0.1,0.6,0.4c0.3,0.3,0.4,0.4,0.5,0.4c0,0,0,0,0.1,0
	c0,0.1,0.3,0.3,0.8,0.7s0.8,0.7,0.9,0.7c0.2,0.1,0.3,0.1,0.3,0.1c0.1,0,0.1,0,0.2-0.1l0.3-0.1L48,54z M44.7,50.5c0,0.1,0,0.1,0,0.2
	c0,0.1-0.1,0.1-0.2,0.1l-0.1,0.1h0c0,0,0,0-0.2,0c0,0-0.1,0-0.1,0c-0.1,0-0.3-0.1-0.5-0.2c0,0,0-0.1-0.1-0.2
	c-0.2-0.1-0.4-0.2-0.5-0.2c-0.1-0.1-0.2-0.2-0.2-0.4c-0.2,0-0.3-0.1-0.3-0.3c0-0.1,0-0.2,0.1-0.2s0.2,0,0.3-0.1c0,0,0.1-0.1,0.1-0.2
	s0-0.2,0.1-0.2c0.1,0,0.2-0.1,0.3-0.2c0.1-0.1,0.2-0.2,0.2-0.2c0.1,0,0.2-0.1,0.3-0.2c0.1,0.1,0.2,0.2,0.3,0.2
	c0.2,0,0.3,0.1,0.4,0.2c0.2,0,0.3,0.1,0.5,0.2c0.3,0.1,0.4,0.3,0.4,0.5c0,0,0,0.1-0.2,0.2c-0.1,0.1-0.2,0.3-0.4,0.6h-0.2
	c0,0,0,0,0,0.1C44.9,50.4,44.8,50.4,44.7,50.5z M44.9,56.6c-0.1,0-0.2,0-0.3-0.1c-0.2-0.1-0.3-0.1-0.5-0.1c-0.1,0-0.1,0-0.1-0.1
	c0-0.1,0-0.1-0.1-0.1c0,0,0,0-0.1,0c0,0-0.1,0-0.2,0c-0.1,0-0.2-0.1-0.5-0.2c0,0,0,0-0.1,0.1s-0.1,0.1-0.2,0.1s-0.1,0-0.1,0.1
	c0,0,0,0,0,0.1s0,0.1,0,0.1c0,0,0,0.1-0.1,0.2c0,0.2,0.2,0.3,0.5,0.4c0.4,0.1,0.6,0.1,0.6,0.2c0.3,0.2,0.4,0.3,0.4,0.3
	c0.1,0.1,0.3,0.1,0.5,0.1c0.1,0,0.2,0,0.4,0.1s0.2,0.1,0.2,0.1c0.2,0,0.4-0.2,0.4-0.5c0-0.1,0-0.2-0.1-0.3s-0.1-0.1-0.3-0.1
	c0,0-0.1,0-0.2-0.1C45.2,56.7,45.1,56.6,44.9,56.6z M45.8,54.8L45.8,54.8c-0.1,0-0.1,0-0.1,0s-0.1,0-0.1,0s-0.1,0-0.1,0
	s-0.1,0-0.2,0s-0.1,0-0.2-0.1c0,0-0.1-0.1-0.1-0.1s-0.1,0-0.1,0c0,0-0.1,0-0.1,0c0,0-0.1,0-0.2-0.1c0,0-0.1-0.1-0.2-0.1
	c0,0-0.2-0.1-0.3-0.1s-0.2,0-0.3-0.1c0,0,0,0,0-0.1c0-0.1,0-0.1-0.1-0.1c0,0-0.1,0-0.2,0.1c0,0,0,0-0.1-0.1c0,0-0.1-0.1-0.1-0.1
	c-0.1,0-0.2,0.1-0.3,0.2s-0.2,0.3-0.2,0.4c0,0.1,0,0.1,0.1,0.2s0.1,0.1,0.1,0.2c0,0,0.2,0,0.3,0c0.2,0,0.3,0.1,0.3,0.1
	c0.1,0.1,0.2,0.2,0.3,0.2c0,0,0.1,0,0.1,0c0,0,0.1,0,0.1,0s0,0,0,0c0,0,0,0,0,0.1c0,0,0,0.1,0,0.1s0,0,0,0c0,0,0.1-0.1,0.1-0.1
	c0,0,0.1,0,0.2,0.1s0.2,0.1,0.2,0.1s0.1,0,0.1-0.1c0,0,0.1,0,0.2,0.1c0.1,0,0.2,0.1,0.3,0.1c0.1,0,0.2-0.1,0.3-0.2
	c0.1-0.1,0.1-0.3,0.1-0.4c0-0.1,0-0.1-0.1-0.2C45.8,54.9,45.8,54.8,45.8,54.8z M56,54.4c-0.1,0-0.4,0.2-0.8,0.7l0,0.1
	c0,0-0.1,0-0.2,0l-0.2,0l0,0c-0.1,0.2-0.3,0.3-0.7,0.3c-0.2,0-0.3-0.1-0.4-0.2l-0.1,0c-0.1,0-0.2,0-0.2-0.2L53,55.2
	c-0.2-0.2-0.3-0.5-0.3-0.9c0-0.1,0-0.1-0.1-0.2S52.6,54,52.6,54c0-0.4,0.1-0.6,0.3-0.6c0,0,0,0,0.1,0s0.1,0,0.1,0c0,0,0.1,0,0.1,0
	c0,0,0.1,0,0.1,0c0.1,0,0.2,0,0.3-0.1s0.2-0.1,0.3-0.1s0.2,0,0.3,0.1s0.3,0.1,0.3,0.1c0.1,0,0.3,0,0.4-0.1s0.2-0.2,0.2-0.3
	c0,0,0-0.1-0.1-0.2c0,0,0-0.1,0.1-0.1c0-0.1-0.2-0.2-0.4-0.3h0c0,0-0.1,0-0.1,0.1s-0.1,0.1-0.1,0.1c0,0-0.2,0-0.3-0.1
	c0,0.1-0.2,0.2-0.4,0.2c0,0-0.1,0-0.2,0s-0.2,0-0.2,0c-0.2,0-0.4-0.1-0.6-0.2l0-0.1l0,0c0,0,0,0,0-0.1s0,0,0-0.1
	c0-0.1,0-0.1,0.1-0.2l-0.1-0.1c0,0,0-0.1,0-0.1s0-0.1,0-0.1c0,0,0.1-0.1,0.2-0.3c0.1,0,0.3,0,0.6,0c0,0,0.1,0,0.1,0s0.1,0,0.1,0
	c0.1,0,0.2,0,0.4,0.1s0.3,0.1,0.3,0.1l0.1,0c0.1,0,0.1,0,0.2-0.1c0,0,0,0,0.1,0s0.1,0,0.1,0c0.1,0,0.1-0.1,0.2-0.2c0,0,0,0,0-0.2
	c0-0.1,0-0.1,0.1-0.2c0-0.1,0.1-0.1,0.1-0.1c-0.1-0.1-0.2-0.2-0.4-0.2c0,0-0.1,0-0.1,0s-0.1,0-0.1,0c0,0-0.1,0-0.1-0.1
	S54.2,50,54.2,50s-0.1,0-0.1,0.1s-0.1,0.1-0.2,0.1c0,0,0,0-0.1,0c-0.1,0-0.1,0-0.2,0c0,0,0,0-0.1,0s-0.1,0-0.1,0c0,0-0.1,0-0.1,0
	s-0.1,0-0.1,0c0,0-0.1,0-0.1,0c0,0-0.1,0-0.1,0l-0.1,0c-0.1-0.1-0.2-0.2-0.2-0.3c0.1-0.1,0.1-0.2,0.1-0.2c0,0,0-0.1,0-0.1
	s0-0.1,0-0.1s0-0.1,0.1-0.1c0,0,0.1,0,0.1-0.1c-0.1-0.1-0.1-0.2-0.1-0.2c0,0,0,0,0-0.1c0,0,0,0,0-0.1c0,0,0-0.1,0-0.1s0-0.1,0-0.1
	c-0.2,0-0.4,0-0.6,0c-0.1,0-0.1,0.1-0.2,0.1v0.1l-0.1,0.1c0,0.1,0,0.2,0,0.4c-0.1,0.1-0.1,0.2-0.1,0.2c0,0,0,0.1,0,0.2s0,0.2,0,0.2
	c0,0,0,0.1-0.1,0.2s-0.2,0.1-0.2,0.1c-0.1,0-0.2-0.1-0.2-0.1c0,0-0.2,0-0.8,0.1c0,0-0.1,0-0.1,0s-0.1,0-0.1,0l0,0L50,50.2h0
	c0,0-0.1,0-0.1,0s-0.1,0-0.1,0c-0.1,0-0.1,0.1-0.1,0.2c-0.1,0.1-0.1,0.1-0.1,0.2c0,0.4,0.2,0.6,0.5,0.6c0,0,0.1,0,0.1,0s0.1,0,0.1,0
	c0,0,0.1,0,0.2,0.1s0.2,0.1,0.2,0.1c0.1,0,0.2,0,0.3-0.1s0.1-0.1,0.1-0.1c0.1,0.1,0.2,0.1,0.3,0.1c0.2,0,0.2,0,0.3,0.1
	c0,0,0,0.1,0,0.3c0,0,0,0,0,0.1s0,0.1,0,0.1s0,0.1-0.1,0.2s-0.1,0.1-0.1,0.1s0,0,0.1,0.1c0,0,0.1,0,0.1,0.1c0,0,0,0.1-0.1,0.2
	c-0.1,0.1-0.1,0.1-0.2,0.1c0,0-0.1,0-0.1,0s-0.1,0-0.1,0s-0.1,0-0.1,0.1S51,52.5,51,52.5s-0.1,0-0.2-0.1s-0.1-0.1-0.2-0.1
	c-0.1,0-0.2,0-0.3,0s-0.3,0-0.3,0c-0.3,0-0.4,0.1-0.5,0.2c0,0.1,0,0.1,0,0.2c0,0.1,0,0.2,0,0.2c0,0,0,0.1,0.1,0.2s0.1,0.2,0.2,0.2
	c0.1,0,0.2,0,0.2,0c0.1,0,0.1,0,0.2,0.1c0.1-0.1,0.2-0.1,0.4-0.1l0.1,0l0.2,0.1c0,0,0,0,0.1-0.1s0.1-0.1,0.1-0.1c0,0,0.1,0,0.2,0.2
	c0,0,0.1,0,0.2,0.1c0.1,0,0.1,0.1,0.1,0.2l0,0.5c0,0,0,0,0.1,0.1s0.1,0,0.1,0.1c0,0,0,0,0,0.1c0,0,0,0.1,0,0.1c0,0.1,0,0.2,0.1,0.3
	s0.1,0.3,0.1,0.4l0.1,0.1c0.1,0,0.2,0.2,0.4,0.6c0.1,0.3,0.3,0.4,0.5,0.4c0.1,0,0.1,0,0.2,0.1s0.1,0.1,0.1,0.1c0,0,0.1,0,0.1,0
	s0.1,0,0.1,0c0,0,0.1,0,0.2,0.1s0.2,0.1,0.3,0.1c0,0,0.1,0,0.1,0c0.1,0,0.1,0,0.2,0s0.1,0,0.2,0c0.1,0,0.2,0,0.2,0
	c0,0,0.1,0,0.1,0.1c0,0,0.1,0.1,0.1,0.1c0,0,0.1,0,0.1-0.1c0.1-0.1,0.1-0.1,0.2-0.1c0,0,0.1,0,0.1,0c0.1,0,0.3-0.1,0.5-0.3
	s0.4-0.4,0.4-0.4l0-0.1c0.2-0.3,0.3-0.6,0.3-0.6s-0.1-0.2-0.2-0.3C56.2,54.5,56.1,54.4,56,54.4z M58.8,52.5
	C58.8,52.5,58.9,52.6,58.8,52.5c0.1,0,0.2,0.1,0.2,0.1c0,0,0,0,0.1,0s0,0,0.1,0c0,0,0,0,0.1,0s0.1,0,0.1,0c0,0,0.1,0,0.2,0
	c0.1,0,0.1,0,0.2,0s0.1,0,0.2,0s0.1,0,0.2,0c0,0,0,0,0.1,0s0.1,0,0.1,0c0,0,0.1,0,0.1,0s0.1,0,0.2,0c0,0,0.1,0,0.1,0
	c0,0,0.1,0,0.1,0c0,0,0.1,0,0.2-0.1c0.1-0.1,0.1-0.1,0.1-0.2c0,0,0-0.1,0-0.2c0-0.1,0-0.2,0-0.2c0,0-0.1,0-0.2,0l-0.1,0
	c0-0.1-0.1-0.1-0.2-0.1c-0.1,0-0.1,0-0.2,0.1c-0.1-0.1-0.2-0.1-0.2-0.1c0,0-0.1,0-0.1,0.1c0,0-0.1,0.1-0.1,0.1c0,0-0.1,0-0.2-0.1
	s-0.2,0-0.2,0c-0.1,0-0.2,0-0.2,0c0,0-0.1,0-0.2,0c-0.1,0-0.1,0-0.2,0s-0.1,0-0.1,0s-0.1,0-0.1,0c0,0-0.1,0-0.1,0s-0.1,0-0.1,0
	s-0.1,0-0.1,0s-0.1,0-0.2,0c-0.1,0-0.1,0.1-0.1,0.2c0,0,0,0.1,0,0.2s0,0.2,0,0.2s0.1,0.1,0.2,0.2c0.1,0,0.2,0.1,0.3,0.1
	C58.7,52.6,58.7,52.6,58.8,52.5C58.8,52.6,58.8,52.5,58.8,52.5z M60.7,54.2c0,0-0.1,0-0.2,0.1c-0.1,0.1-0.2,0.1-0.2,0.1
	c0,0-0.1,0-0.1,0c-0.1,0-0.1,0-0.1,0s-0.1,0-0.2,0.2c-0.1,0.1-0.2,0.2-0.3,0.2c0,0,0,0-0.1,0c0,0-0.1,0-0.1,0h0
	c-0.1,0.2-0.1,0.2-0.2,0.2c0,0-0.1,0-0.1,0c0,0-0.1,0-0.1,0c-0.1,0-0.1,0-0.1,0c0,0.1-0.1,0.2-0.2,0.2c-0.1,0.1-0.2,0.1-0.2,0.2
	c0,0.3,0.2,0.5,0.5,0.5c0.1,0,0.2,0,0.2-0.1c0.1-0.1,0.2-0.1,0.2-0.1c0,0,0,0,0.1,0c0,0,0.1,0,0.1,0c0,0,0,0,0.1-0.1
	c0-0.1,0.1-0.1,0.1-0.1c0.1,0,0.2,0,0.2,0c0,0,0.1,0,0.2-0.1c0.1-0.1,0.2-0.1,0.2-0.1c0,0,0,0,0.1,0s0.1,0,0.1,0
	c0.1,0,0.1,0,0.3-0.1s0.2-0.1,0.2-0.1c0,0,0-0.1,0-0.2l0-0.1c0,0,0.1,0,0.2,0C61.2,54.4,61,54.2,60.7,54.2z M59.4,49.6
	C59.5,49.6,59.5,49.6,59.4,49.6c0.1,0.1,0.1,0.1,0.1,0.2c0.1,0,0.3,0.1,0.5,0.1c0,0.1,0.2,0.1,0.3,0.2c0.2,0,0.3,0.1,0.4,0.1
	c0,0,0,0,0.1,0s0.1,0,0.1,0c0,0,0,0,0.1,0s0.1,0,0.1,0c0.1,0,0.1-0.1,0.2-0.2s0.1-0.2,0.1-0.3c0-0.1,0-0.2-0.1-0.2s-0.1,0-0.1-0.1
	c0,0,0,0,0-0.1c0,0,0,0,0-0.1c0,0,0,0,0,0s-0.1,0-0.1,0c0,0-0.1,0-0.1,0c-0.1,0-0.1,0-0.1-0.1c0-0.1-0.1-0.1-0.1-0.1
	c0,0-0.1,0-0.1,0s-0.1,0-0.1,0c-0.1,0-0.1,0-0.1-0.2c0-0.1-0.1-0.2-0.1-0.2c0,0,0,0-0.1,0s-0.1,0-0.1,0c0,0-0.1,0-0.1-0.1
	s0-0.1-0.1-0.1c0,0-0.1,0-0.3,0c0,0-0.1,0-0.2-0.1s-0.2-0.1-0.3-0.1c-0.2,0-0.4,0.1-0.4,0.4c0,0.1,0,0.2,0,0.3
	c0.1,0,0.2,0.1,0.4,0.2c0.1,0.1,0.2,0.1,0.2,0.1s0.1,0,0.1,0C59.4,49.6,59.4,49.6,59.4,49.6z M68.5,56.1c0,0-0.1,0-0.3-0.2l0-0.2
	c0-0.4-0.1-0.7-0.2-0.9c0,0,0-0.1,0.1-0.2c0-0.1,0.1-0.2,0.1-0.2c0,0,0-0.1-0.1-0.2s-0.1-0.1-0.1-0.2c0-0.1,0-0.1,0.1-0.2L68,53.8
	c0.1-0.2,0.1-0.4,0.1-0.5l0.1-0.1c-0.2-0.2-0.6-0.3-1-0.4c0,0-0.4,0-1.1,0c-0.1,0-0.3,0-0.5,0s-0.4,0-0.5,0c0,0-0.1,0-0.2-0.1
	s-0.2-0.1-0.2-0.1c-0.1,0.1-0.2,0.1-0.4,0s-0.3,0-0.4,0l-0.2,0c-0.1,0-0.3-0.1-0.5-0.2l-0.2,0.1l-0.2,0L62.5,53c-0.1,0-0.1,0-0.2,0
	c0,0-0.1,0-0.1,0s0,0.1,0,0.1s0,0.1,0,0.1c0,0,0,0.1-0.1,0.2s-0.1,0.2-0.1,0.2c0,0.1,0,0.2,0,0.3c0,0.1,0,0.2,0,0.3
	c0,0,0,0.1,0.1,0.1c0,0,0.1,0.1,0.1,0.1c0,0,0,0.1-0.1,0.2s-0.1,0.2-0.1,0.3v0.7l0,0c0,0.1,0,0.1,0,0.1c0,0,0,0.1-0.1,0.1
	c0,0-0.1,0-0.2-0.1l-0.2,0.1L61.6,56c-0.2,0.1-0.3,0.2-0.3,0.3c0,0,0,0.1,0,0.2s0,0.2,0,0.3c0,0.2,0.9,0.2,2.6,0.2
	c0.1,0,0.2,0,0.4-0.1c0.2,0,0.3-0.1,0.4-0.1c0,0,0.1,0,0.1,0.1s0.1,0.1,0.1,0.1l1,0c0,0,0.1,0,0.1,0s0.1,0,0.2,0c0,0,0,0,0.1,0
	s0,0,0.1,0c0,0,0.1,0,0.1,0s0.1,0,0.2,0c0.1,0,0.2,0,0.3,0.1s0.2,0.1,0.3,0.1c0,0,0.1,0,0.2,0s0.1,0,0.2,0c0,0,0.1,0,0.2,0.1
	s0.2,0.1,0.2,0.1l0.2-0.1c0.1,0,0.2,0,0.2,0c0.1,0,0.2,0,0.2,0c0.2,0,0.3-0.1,0.3-0.2c0-0.3,0-0.5-0.1-0.6
	C69,56.2,68.8,56.1,68.5,56.1z M62.8,49.3c0,0,0,0.3,0,0.7s0,0.7,0,0.9c0,0.3,0,0.5,0,0.6c0.1,0.1,0.1,0.3,0.2,0.4c0,0,0.2,0,0.4,0
	c0,0,0.1,0,0.2,0c0.1,0,0.1,0,0.2,0c0.1,0,0.3,0,0.6-0.1c0.3,0,0.4-0.1,0.5-0.1c0.1,0,0.1,0,0.1,0.1s0.1,0.1,0.1,0.1
	c0,0,0,0,0.2-0.1c0.1,0,0.2-0.1,0.3-0.1c0.1,0,0.1,0,0.2,0s0.1,0,0.1,0c0,0,0.1,0,0.1,0c0,0,0.1,0,0.1,0s0.1,0,0.1,0.1
	s0.1,0.1,0.2,0.1s0.2,0,0.3,0c0.1,0,0.2,0,0.3,0c0,0,0.1-0.1,0.1-0.1s0.1,0,0.1,0c0.1,0,0.1,0,0.1,0c0.1,0,0.1,0,0.2-0.1
	c0-0.1,0.1-0.2,0.1-0.2c0-0.1,0-0.3,0-0.5v-1.3c0-0.1,0-0.1,0-0.2c0-0.1,0-0.2,0-0.2c0,0,0-0.1,0-0.1s0-0.1,0-0.1c0,0,0-0.1,0.1-0.2
	c0-0.1,0.1-0.1,0.1-0.2c0-0.1,0-0.2-0.1-0.3c0-0.1-0.1-0.2-0.1-0.3c0-0.2-0.2-0.3-0.7-0.3c-0.1,0-0.1,0-0.2,0s-0.2,0-0.2,0
	c0,0-0.1,0-0.2,0c-0.1,0-0.1,0-0.2,0s-0.1,0-0.1-0.1c-0.1,0-0.1-0.1-0.1-0.1s-0.1,0-0.1,0.1s-0.1,0.1-0.1,0.1c-0.3,0-0.6,0-0.7-0.1
	c-0.2,0-0.4,0.1-0.4,0.1c-0.3,0-0.4,0-0.4,0c-0.1,0-0.1,0-0.2,0.1s-0.2,0.1-0.3,0.1c0,0-0.1,0-0.2,0s-0.2,0-0.2,0l-0.1,0.1
	c0,0-0.1,0.1-0.2,0.2s-0.1,0.2-0.1,0.2c0,0.1,0,0.2,0.1,0.3s0.1,0.2,0.1,0.3c0,0.1,0,0.1-0.1,0.2C62.8,49.2,62.8,49.2,62.8,49.3z
	 M63.8,56.1c-0.1,0-0.2,0-0.3-0.1c-0.1,0-0.2-0.1-0.2-0.2c0,0,0-0.1,0.1-0.2s0.1-0.2,0.1-0.2c0,0,0,0,0-0.1s0-0.1,0-0.1s0-0.1,0-0.1
	s0-0.1,0-0.1c0-0.1,0-0.1-0.1-0.2c0-0.1-0.1-0.1-0.1-0.1c0,0.1,0,0,0.1-0.3c0,0,0-0.1,0-0.3c0-0.1,0-0.2,0.1-0.2
	c0.1-0.1,0.2-0.1,0.3-0.1c0,0,0.1,0,0.2,0.2c0,0,0,0,0.1,0c0,0,0,0,0.1,0c0.1,0,0.1,0,0.1,0.2c0,0,0,0.1-0.1,0.2s0,0.2,0,0.2
	c0,0,0,0,0,0.1s0,0.1,0,0.1c0,0,0,0.1,0,0.2c0,0,0,0-0.1,0.1c0,0-0.1,0.1-0.1,0.1c0,0,0.1,0.1,0.2,0.2C64,55.2,64,55.4,64,55.8
	C64,56,63.9,56.1,63.8,56.1z M63.8,50.4C63.9,50.4,63.9,50.3,63.8,50.4c0.1-0.2,0.1-0.2,0.2-0.2s0.1,0,0.1,0s0.1,0,0.1,0
	c0,0,0.1,0,0.1-0.1s0.1-0.1,0.1-0.1s0,0,0.1,0.1s0.1,0.1,0.1,0.1s0,0,0.1,0c0,0,0.1,0,0.1,0c0,0,0.1,0,0.2,0.1s0.2,0.1,0.4,0.1
	c0.1,0,0.2,0,0.4,0c0.2,0,0.3,0,0.4,0c0,0,0.1,0,0.1,0s0.2,0,0.3,0s0.2,0.1,0.2,0.2c0,0.2-0.1,0.3-0.4,0.3c-0.1,0-0.2,0-0.4,0
	c-0.2,0-0.3,0-0.4,0c-0.1,0-0.1,0-0.2,0s-0.1,0-0.1,0c0,0-0.1,0-0.1,0c-0.1,0-0.1,0-0.1,0s-0.1,0-0.1,0c-0.1,0-0.1,0-0.1,0
	c0,0-0.1,0-0.2,0c-0.1,0-0.2,0-0.3,0c0,0-0.1,0-0.2,0c-0.1,0-0.1,0-0.1,0s0-0.1,0-0.2c0-0.1,0-0.1-0.1-0.2s-0.1-0.1-0.1-0.2
	c0,0,0,0,0,0C63.8,50.3,63.8,50.3,63.8,50.4C63.8,50.4,63.8,50.4,63.8,50.4z M64.1,48.7c0,0,0.1,0,0.1,0s0.1,0,0.2,0
	c0,0,0.1,0,0.2,0s0.2,0,0.2,0c0,0,0.1,0,0.1,0s0.1,0,0.2,0c0,0,0,0,0.1,0s0.1,0,0.1,0c0.1,0,0.1,0,0.2,0s0.2,0,0.2,0
	c0.1,0,0.2,0,0.3,0c0.1,0,0.2,0,0.3,0c0.2,0,0.3,0.1,0.3,0.2c0,0,0,0.1,0,0.1s0,0,0,0c0,0,0,0,0,0.1s0,0.1,0,0.1
	c0,0.2-0.2,0.3-0.5,0.3c0,0-0.1,0-0.1,0s-0.1,0-0.1,0c0,0-0.1,0-0.1,0s-0.1,0-0.1,0c0,0-0.1,0-0.2,0c-0.1,0-0.2,0-0.2,0
	c0,0-0.1,0-0.2,0s-0.2,0-0.2,0c0,0-0.2,0-0.7-0.1c-0.1,0-0.2,0-0.2-0.1s-0.1-0.1-0.1-0.2v0c0,0,0-0.1,0-0.1c0-0.1,0-0.1,0-0.1
	c0,0,0.1-0.1,0.2-0.1C64,48.7,64.1,48.7,64.1,48.7z M65.6,54.8C65.6,54.9,65.6,54.9,65.6,54.8c0,0.1,0,0.2,0,0.2s0,0.1,0,0.1
	c0,0,0,0.1,0,0.1s0,0.1,0,0.2c0,0.1,0,0.1,0,0.2c0,0,0,0.1,0,0.1s0,0.1,0,0.1c0,0.1,0,0.1-0.1,0.1c0,0,0,0-0.1,0s-0.1,0-0.1,0
	c0,0-0.2,0-0.3,0.1c0-0.2,0-0.4-0.1-0.7c0-0.1-0.1-0.1-0.1-0.2c0,0,0-0.1,0-0.1c0,0,0-0.1,0-0.1c0,0,0-0.1-0.1-0.1s-0.1,0-0.1,0
	c0,0,0-0.1,0-0.1c0,0,0-0.1,0-0.1s0,0,0-0.1c0,0,0-0.1,0-0.1c0-0.1,0-0.2,0.1-0.3c0.1-0.2,0.1-0.2,0.2-0.2c0,0,0,0,0.1,0
	s0.1,0,0.1,0c0,0,0.1,0,0.1,0s0.1,0,0.1,0c0.2,0,0.3,0.1,0.3,0.4c0,0,0,0.1-0.1,0.3c0,0,0,0,0,0.1c0,0,0,0.1,0,0.1
	C65.6,54.7,65.6,54.7,65.6,54.8C65.6,54.8,65.6,54.8,65.6,54.8z M67.2,56C67.1,56,67.1,56,67.2,56C67,56,67,56,67,56
	c0,0-0.1,0-0.2,0c-0.1,0-0.1,0-0.2,0c-0.1,0-0.1-0.1-0.1-0.2c0,0,0-0.1,0-0.1c0,0,0-0.1,0-0.1c0,0,0-0.1,0-0.2s0-0.2,0-0.2
	c0,0,0-0.1-0.1-0.1S66.4,55,66.4,55c0,0,0,0,0-0.1s0-0.1,0-0.1c0,0,0,0,0-0.1s0,0,0-0.1s0,0,0-0.1s0-0.1,0-0.1s0-0.1-0.1-0.1
	c0,0-0.1-0.1-0.1-0.1c0-0.1,0.1-0.2,0.1-0.2c0.1-0.1,0.2-0.1,0.3-0.1c0,0,0.1,0,0.1,0s0.1,0,0.1,0c0.1,0,0.1,0,0.2,0v0
	c0,0,0,0.1,0,0.2c0,0.1-0.1,0.2-0.1,0.2c0,0,0,0.1,0,0.2c0,0.1,0,0.1,0,0.2c0,0,0,0.1,0,0.1c0,0,0,0.1,0,0.1s0,0.1,0.1,0.1
	s0.1,0.1,0.1,0.1s0,0,0,0.1c0,0,0,0,0,0c0,0,0,0.1,0,0.2s0,0.2,0,0.2c0,0,0,0.1-0.1,0.2S67.2,56,67.2,56z M75.9,52L75.9,52
	c-0.1-0.1-0.1-0.1-0.1-0.2c-0.1-0.2-0.1-0.3-0.2-0.3c0,0,0,0,0,0c0,0-0.1,0-0.1,0c-0.2,0-0.2,0-0.3-0.1c0,0,0-0.1,0-0.1
	c0,0,0-0.1-0.1-0.1s-0.1,0-0.2-0.1C74.9,51,74.8,51,74.8,51s-0.1,0-0.2,0s-0.1,0-0.2,0c-0.1,0-0.1,0-0.2,0s-0.2,0-0.2,0
	s-0.1,0-0.2,0c-0.1,0-0.2,0-0.2,0s-0.1,0-0.2-0.1s-0.1-0.1-0.1-0.2c0,0,0-0.1,0.1-0.2s0.1-0.1,0.1-0.2c0,0,0-0.1-0.1-0.2l0-0.2
	c0,0,0,0,0-0.1c0,0,0,0,0-0.1c0,0,0-0.1,0.1-0.1c0.1-0.1,0.1-0.2,0.1-0.3c0,0,0-0.1,0-0.1c0,0,0-0.1,0-0.1c0,0,0-0.1,0-0.1
	s0-0.1,0-0.1c0,0,0,0-0.1-0.1c0,0-0.1-0.1-0.1-0.2c0-0.1-0.1-0.1-0.3-0.1c-0.2,0-0.4,0-0.4,0.1s-0.1,0.2-0.1,0.4c0,0,0,0,0,0.1
	s0,0.1,0,0.1c0,0.1,0,0.1,0.1,0.2l0,0c0,0,0,0.1-0.1,0.2c-0.1,0.1-0.1,0.2-0.1,0.3c0,0,0,0.1,0.1,0.1s0.1,0.1,0.1,0.2
	c0,0-0.1,0.1-0.2,0.3s-0.3,0.3-0.3,0.3c-0.1,0-0.1,0-0.2-0.1l-0.4,0.1c0,0-0.1,0-0.1-0.1s-0.1-0.1-0.1-0.1c-0.5,0-0.8,0.2-0.8,0.6
	c0,0,0,0,0,0.1l0.1,0l0,0.2c0,0.1,0.1,0.1,0.2,0c0,0,0.1,0,0.1,0s0.1,0,0.1,0s0.1,0,0.1,0s0.1,0,0.1,0h0c0.2,0.1,0.3,0.1,0.3,0.1
	c0,0,0.1,0,0.4,0c0.1,0,0.2,0,0.2,0.1c0,0.1-0.1,0.2-0.1,0.2c0,0.1,0.1,0.1,0.1,0.2c0,0,0,0.1-0.1,0.2s-0.1,0.1-0.1,0.2
	c0,0,0,0,0,0.1s0,0,0,0.1v0c-0.1,0-0.1,0-0.1,0c0,0,0,0,0,0.1c0,0.1,0,0.2,0,0.2c0,0,0,0.1,0,0.2c0,0.1,0,0.1,0,0.2s0,0.1,0,0.2
	s0,0.2,0,0.2c0,0.1,0,0.1-0.1,0.2s-0.1,0.1-0.1,0.1c0.1,0.1,0.1,0.1,0.1,0.2c0,0.1-0.1,0.2-0.2,0.4s-0.2,0.3-0.2,0.4
	c0,0,0,0.1,0,0.1s0,0.1,0,0.1c0,0,0,0.1-0.1,0.2s-0.1,0.2-0.1,0.2s0,0,0.1,0.1s0.1,0.1,0.1,0.2c0,0,0,0,0.1,0c0,0,0.1,0,0.2,0.1
	c0.1,0,0.2,0,0.2,0c0.2,0,0.3-0.1,0.4-0.2c0-0.1,0-0.2,0-0.4c0-0.1,0-0.3,0.1-0.5s0.1-0.4,0.1-0.5c0-0.1,0-0.1,0.1-0.2
	s0.1-0.2,0.1-0.2c-0.1,0-0.1-0.1-0.1-0.2c0,0,0-0.1,0.1-0.2s0.1-0.2,0.1-0.2s0-0.1,0.1-0.2s0.1-0.1,0.1-0.2
	c-0.1-0.1-0.1-0.2-0.1-0.2s0,0,0-0.1s0-0.1,0-0.1c0-0.2-0.1-0.3-0.1-0.4c0,0,0.1-0.1,0.1-0.1s0.1-0.1,0.1-0.2c0,0,0-0.1,0.1-0.1
	s0.1-0.1,0.2-0.1c0,0,0.1,0,0.2,0.1s0.2,0.1,0.2,0.1c0,0,0.1,0,0.1,0s0.1,0,0.1,0c0.1,0,0.2,0,0.3,0s0.2,0,0.3,0
	c0.1,0,0.2,0.1,0.2,0.3c0,0,0.1,0.1,0.3,0.1c0.1,0,0.1,0,0.1,0.1c0,0.1,0,0.1-0.1,0.2l0.2,0.1l-0.1,0c0,0.1,0,0.2,0.1,0.4l0,0
	c0,0,0,0,0,0.1s0,0.1,0,0.1s0,0.1-0.1,0.2s-0.1,0.2-0.1,0.2s0,0.1,0.1,0.2s0.1,0.2,0.1,0.2c0,0.2-0.1,0.4-0.2,0.8s-0.2,0.6-0.2,0.7
	c0,0.1,0,0.2,0,0.3s0,0.2,0,0.3v0c0.4,0,0.6,0,0.6,0c0,0,0.1,0,0.2,0c0.1,0,0.1,0,0.2,0c0-0.2,0.1-0.3,0.1-0.5
	c0.1-0.1,0.1-0.2,0.1-0.2c0,0,0-0.1-0.1-0.1c0,0-0.1-0.1-0.1-0.1c0,0,0-0.1,0.1-0.1c0,0,0.1,0,0.1,0.1L76,54.7
	c0.2-0.3,0.2-0.5,0.2-0.5s0-0.2-0.1-0.4c0-0.2-0.1-0.3-0.1-0.4c0,0,0-0.1,0.1-0.2s0.1-0.2,0.1-0.2s0-0.1-0.1-0.1
	c-0.1,0-0.1,0-0.1-0.1c-0.1,0-0.1-0.2-0.1-0.3C76,52.2,76,52.1,75.9,52z M78.7,52.8l-0.2-0.1c0,0,0,0,0-0.1c0,0,0,0-0.1-0.1
	s0-0.1,0-0.1c0-0.1,0.1-0.1,0.1-0.1s0,0,0-0.1s-0.1-0.1-0.2-0.3c-0.1-0.2-0.2-0.3-0.2-0.3c0,0,0,0,0-0.1v-0.1
	c-0.3-0.3-0.5-0.6-0.4-0.8c0,0-0.1-0.1-0.2-0.2c-0.1-0.1-0.1-0.2-0.1-0.2c0,0,0,0,0-0.1c0,0,0-0.1,0-0.1c-0.4-0.7-0.6-1-0.8-1
	c0,0-0.1,0-0.2,0c-0.1,0-0.1,0-0.2,0c0,0.1-0.1,0.1-0.2,0.2S76,49.3,76,49.3c0,0.2,0.1,0.4,0.3,0.7c0.2,0.3,0.3,0.5,0.3,0.7
	c0,0.1,0.1,0.2,0.2,0.3c0.1,0.1,0.2,0.3,0.2,0.4v0.1c0,0-0.1,0.1-0.1,0.1s0.1,0.1,0.3,0.3c0.1,0.3,0.2,0.7,0.4,1.1l0.2,0
	c0,0.1,0,0.2,0,0.3c0,0.2,0.2,0.3,0.5,0.3c0.2,0,0.3-0.1,0.4-0.3L78.7,52.8z M85.5,55.5c0-0.1,0-0.1,0-0.1c0,0,0,0-0.1,0
	c-0.1,0-0.3-0.1-0.4-0.2c-0.2-0.1-0.3-0.2-0.3-0.4c-0.3-0.1-0.5-0.2-0.6-0.2c-0.1-0.1-0.2-0.2-0.3-0.5c-0.1,0-0.3,0-0.4-0.1
	s-0.2-0.1-0.2-0.1c0,0-0.1,0-0.1,0c0,0-0.1,0-0.1-0.1s0-0.1,0.1-0.1c0-0.1-0.1-0.2-0.4-0.3s-0.4-0.2-0.4-0.3c-0.1,0-0.2-0.1-0.3-0.2
	c-0.2-0.1-0.2-0.2-0.2-0.2c0.1,0,0.1-0.1,0.1-0.1c0-0.1,0.1-0.2,0.1-0.2s0.1-0.1,0.1-0.2c0-0.2,0.2-0.2,0.5-0.2v0
	c0-0.1,0.1-0.3,0.2-0.4s0.2-0.2,0.2-0.3c0,0,0,0,0-0.1c0.2-0.2,0.4-0.3,0.6-0.3c0.1,0,0.2-0.1,0.3-0.3s0.2-0.3,0.2-0.3
	c0.1,0,0.2-0.1,0.4-0.3c0.2-0.1,0.3-0.2,0.3-0.2c0-0.1,0.1-0.2,0.2-0.2c0.1-0.1,0.2-0.1,0.2-0.2c0,0-0.1-0.2-0.2-0.3
	s-0.2-0.3-0.2-0.3c-0.3,0-0.5,0.1-0.7,0.4c-0.1,0.1-0.2,0.2-0.3,0.4c-0.2,0-0.4,0.2-0.5,0.3c-0.2,0.2-0.3,0.4-0.4,0.5
	c-0.1,0-0.2,0-0.3,0.1c0,0.1-0.1,0.2-0.2,0.4c-0.4,0.3-0.6,0.5-0.8,0.6c-0.1,0-0.1,0.1-0.1,0.2c0,0.1-0.2,0.2-0.6,0.3
	c0,0,0,0.1,0,0.2c0,0-0.1,0.1-0.2,0.2c-0.1,0.1-0.2,0.2-0.2,0.4c0,0.2,0.1,0.4,0.3,0.5c0.3,0.2,0.4,0.3,0.4,0.4l0,0.1
	c0.2,0.1,0.5,0.3,1,0.6c0.4,0.3,0.7,0.6,0.8,0.7c0,0,0.1,0.1,0.1,0.2c0.1,0.1,0.2,0.2,0.4,0.2s0.3,0.1,0.4,0.2c0,0,0.1,0.1,0.3,0.3
	c0.1,0.1,0.2,0.1,0.3,0.1c0,0,0.1,0,0.2,0.1c0.1,0.1,0.2,0.1,0.3,0.1c0.1,0,0.1-0.1,0.2-0.2c0.1-0.1,0.1-0.2,0.2-0.3
	C85.6,55.7,85.6,55.6,85.5,55.5z M29.5,65.9c-0.1-0.3-0.1-0.4-0.1-0.4c0,0,0,0-0.1,0c-0.1,0-0.2,0-0.3,0c0,0-0.1,0-0.2,0
	s-0.3,0-0.4,0c-0.5,0-0.8-0.1-0.8-0.4c0,0,0-0.1,0-0.1c0-0.1,0-0.1,0-0.1l-0.1-0.7c0-0.1,0-0.1,0-0.2c0,0,0-0.1-0.1-0.2l-0.2-0.1
	l-0.2,0.1l-0.2,0c-0.1,0-0.1,0-0.1,0.1c0,0.1,0,0.1,0,0.2c-0.1,0-0.1,0.1,0,0.1c0,0,0,0.1,0,0.1s0,0.1,0,0.1c0,0,0,0.1,0,0.1
	s0,0.2,0,0.3l0.1,0.1c0,0.2-0.1,0.3-0.2,0.4s-0.3,0.2-0.5,0.2c0,0-0.1,0-0.1,0c-0.1,0-0.2-0.1-0.3-0.1c-0.2,0.1-0.3,0.1-0.3,0.1
	l-1.3,0c-0.1,0-0.2,0-0.4,0c-0.2,0-0.3,0-0.4,0c0,0-0.1,0-0.1-0.1c0,0-0.1,0-0.2,0.1s-0.2,0.1-0.2,0.1l-0.1-0.1c0,0-0.1,0-0.1,0
	s-0.1,0-0.1,0.1s0,0.1-0.1,0.1c0,0,0,0-0.1,0c0,0-0.1,0-0.1,0c-0.1,0-0.2,0.1-0.2,0.3c0,0,0,0.1,0,0.1s0,0.1,0,0.1v0
	c-0.1,0.1-0.1,0.1-0.1,0.2c0,0.1,0.1,0.2,0.3,0.2c0.1,0.1,0.3,0.1,0.4,0.1c0.1,0,0.3,0,0.3-0.1s0.1-0.1,0.1-0.1c0,0,0.1,0,0.1,0.1
	s0.1,0.1,0.1,0.1c0,0,0.1,0,0.2-0.1c0.1,0,0.1-0.1,0.2-0.1c0,0,0.1,0,0.1,0.1c0,0.1,0.1,0.1,0.1,0.1c0,0,0.1,0,0.1-0.1
	s0.1-0.1,0.1-0.1c0.1,0,0.2,0,0.3,0s0.3,0,0.4,0c0.1,0,0.1,0,0.2-0.1s0.1-0.1,0.1-0.1s0.1,0,0.1,0.1c0,0.1,0.1,0.1,0.1,0.1
	c0.1,0,0.2,0,0.4-0.1s0.3-0.1,0.4-0.1c0.1,0,0.2,0.1,0.5,0.1l0,0.2c0,0.2,0,0.4-0.2,0.4L26,67l-0.1-0.1l0,0c0,0-0.1,0-0.1,0.1h0
	c-0.1,0-0.2,0-0.3-0.1c-0.1-0.1-0.2-0.1-0.3-0.1c-0.1,0-0.3,0.1-0.7,0.3c-0.1,0-0.1,0-0.2,0C24.1,67.1,24,67,24,67l-0.1,0.1
	c-0.1,0.1-0.2,0.2-0.4,0.4c0,0.1,0,0.1,0,0.2s-0.1,0.2-0.2,0.3s-0.2,0.2-0.2,0.2c0,0,0,0.1,0,0.1c0,0.1,0,0.1,0,0.1s0,0.1-0.1,0.2v0
	c0,0,0,0.2,0,0.3c0,0.1,0,0.2,0.1,0.4c0,0.1,0.1,0.2,0.2,0.2c0,0,0,0.1,0,0.3c0,0.1,0.1,0.1,0.2,0.2c0.1,0,0.2,0.1,0.3,0.1
	c0.1,0.2,0.1,0.3,0.2,0.3c0,0,0.1,0,0.4,0c0.1,0,0.2,0.1,0.4,0.2c0.1,0,0.2,0,0.4,0s0.3,0,0.4,0c0.1-0.1,0.2-0.1,0.2-0.1
	c0.1,0,0.2,0.1,0.2,0.2c0,0.1,0,0.2-0.1,0.3l-0.3,0.3c0,0,0,0.1,0,0.2c0,0,0,0.1-0.1,0.3s-0.1,0.2-0.2,0.3c-0.1,0.1-0.2,0.2-0.2,0.4
	c0,0.1,0,0.1,0.1,0.2c0.1,0.1,0.2,0.2,0.2,0.2l0.2-0.1c0.1,0,0.1,0,0.2,0c0.1,0,0.1-0.1,0.1-0.2s0.1-0.2,0.3-0.2v-0.1
	c0-0.1,0.1-0.2,0.2-0.4s0.2-0.3,0.3-0.3c0-0.1,0-0.2,0.1-0.3s0.1-0.2,0.1-0.3c0,0,0-0.1,0.1-0.2c0-0.1,0.1-0.2,0.1-0.3
	c0,0,0-0.1,0.1-0.1s0.1-0.1,0.1-0.1c0,0,0,0,0-0.1c0,0,0-0.1,0-0.1c0,0,0-0.1,0.1-0.2c0.1-0.1,0.1-0.1,0.1-0.2s0-0.1,0.1-0.3
	c0,0,0-0.1,0-0.2s0-0.1,0-0.2c0-0.1,0-0.1,0.1-0.2s0.1-0.2,0.1-0.2c0-0.1,0-0.2,0-0.4c0-0.2,0-0.3,0-0.4c0,0,0-0.1,0.1-0.1
	s0.1-0.1,0.1-0.1c0-0.1,0-0.2-0.1-0.3c0-0.1-0.1-0.2-0.1-0.2c0,0,0-0.1,0-0.2s0-0.2,0-0.3c0-0.1,0.1-0.2,0.1-0.4
	c0.5-0.1,0.8-0.1,0.9-0.1c0.5,0,0.8-0.1,0.9-0.2c0-0.1-0.1-0.1-0.1-0.2C29.4,66,29.4,66,29.5,65.9C29.4,66,29.5,65.9,29.5,65.9z
	 M26,69.3l-0.1,0.2c-0.1,0-0.2,0.1-0.3,0.1c-0.1,0.1-0.3,0.1-0.7,0.1l-0.2-0.1l0-0.2c0,0-0.1,0-0.2,0.1c0,0-0.1-0.1-0.2-0.2
	c0-0.1-0.1-0.2-0.1-0.3c0-0.1,0-0.2,0.1-0.2c-0.1-0.1-0.2-0.2-0.2-0.2c0-0.1,0.1-0.1,0.2-0.3s0.2-0.2,0.3-0.3c0.3,0,0.5,0,0.5,0
	c0.1,0,0.1,0,0.2-0.1c0.1-0.1,0.1-0.1,0.1-0.1c0,0,0.1,0.1,0.3,0.2s0.2,0.2,0.3,0.3l0.2,0.2l-0.1,0.3c0-0.1,0,0,0,0.3
	c0,0.1,0,0.1-0.1,0.1C26,69.3,26,69.3,26,69.3z M36.5,71.1l0-0.2c0-0.1-0.1-0.1-0.2-0.1c-0.1,0-0.2,0-0.3,0.1s-0.2,0.1-0.2,0.1
	c0,0-0.1,0-0.1-0.1s-0.1-0.1-0.1-0.1h0c-0.1,0.1-0.2,0.2-0.2,0.2c0,0,0,0-0.1,0s-0.1,0-0.2,0c-0.1,0-0.1,0-0.2,0.1S34.8,71,34.8,71
	c0,0-0.1,0-0.2-0.1c-0.1-0.1-0.2-0.1-0.3-0.1c0,0-0.1,0-0.1,0.1S34,71,34,71c0,0-0.1,0-0.2,0s-0.2,0-0.2,0c0,0-0.1,0-0.1,0
	s-0.1,0-0.1,0s-0.1,0-0.1,0s-0.1,0-0.2,0h0L33,70.9l-0.2,0c-0.1-0.1-0.2-0.1-0.3-0.1l-0.2-0.2l-0.3,0.1c0,0-0.1,0-0.1-0.1
	s-0.1-0.1-0.2-0.1c-0.1,0-0.2,0.1-0.2,0.3c-0.1,0.2-0.1,0.3-0.1,0.4c0,0.1,0.1,0.1,0.2,0.2c0.1,0.1,0.1,0.1,0.2,0.1c0,0,0,0,0.1,0
	c0,0,0.1,0,0.1,0c0,0,0,0.1,0,0.1c0,0.1,0.2,0.1,0.5,0c0.1,0.1,0.3,0.2,0.5,0.2c0.1,0,0.2,0,0.3,0s0.2,0,0.3,0s0.1,0,0.2,0.1
	s0.1,0.1,0.2,0.1c0,0,0.1,0,0.1-0.1c0,0,0.2,0,0.5,0.1c0.3,0,0.5,0,0.6,0c0,0,0.2-0.1,0.4-0.1c0,0,0.1,0,0.2,0c0,0,0.1,0,0.1,0
	c0,0,0,0,0.2-0.1c0.2,0,0.3,0,0.5-0.1c0.2,0,0.3-0.1,0.3-0.3c0,0,0-0.1,0-0.2C36.5,71.2,36.5,71.2,36.5,71.1z M36.6,65.3
	C36.6,65.3,36.6,65.3,36.6,65.3c0-0.1,0.1-0.1,0.1-0.2c0-0.1-0.1-0.1-0.2-0.1L36.3,65c0,0-0.1,0-0.2,0c0,0-0.1,0-0.2,0
	c-0.1,0-0.2,0-0.3,0c-0.1,0-0.1,0-0.2-0.1s-0.2-0.1-0.2-0.1s-0.1,0-0.2,0.1s-0.1,0.1-0.2,0.1c0,0,0,0-0.1-0.1s0-0.1-0.1-0.1
	c0,0-0.1,0-0.2,0.1c0,0-0.1-0.1-0.1-0.1c0,0,0,0-0.1,0s-0.1,0-0.1,0c-0.1,0-0.1,0-0.2-0.1s-0.2-0.1-0.2-0.1c0,0-0.1,0-0.1,0.1
	S33.5,65,33.5,65c0,0-0.1,0-0.2-0.1s-0.1-0.1-0.2-0.1c-0.1,0-0.2,0-0.4,0.1c-0.2,0-0.3,0.1-0.4,0.1c0,0-0.1,0-0.1,0c0,0-0.1,0-0.1,0
	c0,0-0.1,0-0.3,0.1S31.5,65,31.5,65c-0.1,0-0.1,0.2-0.1,0.5c0,0.1,0,0.2,0.1,0.2c0.1,0.1,0.1,0.1,0.1,0.1c0.1-0.1,0.2-0.1,0.3-0.1
	c0.3,0,0.4,0,0.4,0c0,0,0.1,0.1,0.1,0.1l0.2-0.2l0.2,0.1c0.1-0.1,0.2-0.1,0.2-0.1s0,0,0.1,0s0,0,0.1,0s0.1-0.1,0.3-0.2
	c0.1,0,0.4,0.1,1,0.1c0.1,0,0.2-0.1,0.2-0.1c0,0,0.1,0,0.1,0.1s0.1,0.1,0.1,0.1c0,0,0.1,0,0.1-0.1s0.1-0.1,0.1-0.1
	c0.1,0,0.1,0.1,0.2,0.2c0,0,0,0,0,0.1c0,0,0,0,0,0.1l-0.2,0c0,0.1,0,0.2,0,0.4c-0.1,0-0.2,0-0.2,0.1c0,0.1-0.1,0.2-0.1,0.2
	c0,0,0,0,0,0.1v0c0.1,0.1,0.2,0.2,0.2,0.3c0,0,0.1,0,0.1,0s0.1,0.1,0.2,0.1h0.2c0.1,0,0.2-0.1,0.3-0.3c0.1-0.2,0.2-0.4,0.4-0.5
	c0.1,0,0.1-0.1,0.1-0.2c0-0.1,0-0.1,0.1-0.1s0.1,0,0.1,0c0,0,0.1-0.2,0.2-0.3c0.1-0.2,0.2-0.3,0.2-0.3
	C36.7,65.6,36.7,65.5,36.6,65.3C36.7,65.4,36.6,65.4,36.6,65.3z M38.2,64.8c0,0,0-0.1,0-0.2c0-0.1,0-0.1,0-0.2s0-0.1,0-0.2
	s0-0.1,0-0.2L38.1,64c-0.1,0-0.1-0.1-0.1-0.1s0-0.1-0.1-0.1c-0.1,0.1-0.3,0.1-0.4,0.1c0,0-0.1,0-0.1,0l-0.1,0.3c0,0,0,0.1,0,0.3
	c0,0.2,0,0.3,0,0.4l0,0.5c0,0.1,0,0.2,0.1,0.3s0.2,0.1,0.3,0.1c0,0,0.1,0,0.2-0.1s0.1-0.1,0.1-0.1l0.3,0c0,0,0,0,0-0.2v-0.1
	c0,0,0.1-0.1,0.1-0.1C38.3,65.2,38.2,65.1,38.2,64.8z M40,65.1c0-0.1,0-0.1,0-0.2c0-0.1,0-0.2,0.1-0.4c-0.1-0.2-0.1-0.4-0.1-0.6v0
	c0,0-0.1,0-0.1,0s-0.1,0-0.1,0c0,0-0.1,0-0.1,0s-0.1,0-0.1,0l-0.3,0c0,0,0,0,0,0.1s0,0.1,0,0.1s0,0.1,0,0.1c0,0,0,0.1,0,0.1
	s0,0.1,0,0.1c0,0,0,0.1,0,0.1c0,0.1,0,0.1,0,0.1c0,0,0,0.1-0.2,0.3c0.1,0,0.2,0.1,0.2,0.1c-0.1,0.2-0.1,0.3-0.1,0.3
	c0,0.3,0.2,0.5,0.5,0.5c0,0,0,0,0.1,0.1s0.1,0.1,0.1,0.1c0.1,0,0.1-0.1,0.2-0.2s0.1-0.2,0.1-0.3c0,0,0-0.1,0-0.1c0,0,0-0.1,0-0.1
	C40,65.3,40,65.3,40,65.1z M47.7,70L47.7,70l-0.2-0.1l-0.1-0.1c-0.1,0-0.2,0-0.4-0.1c-0.1,0-0.2,0.2-0.5,0.5s-0.5,0.5-0.7,0.5
	c0,0-0.1,0-0.1,0c0,0.2,0,0.2-0.1,0.3S45.5,71,45.3,71c0,0,0,0,0,0s0,0,0,0s-0.1,0-0.1-0.1S45,71,45,71s-0.1,0-0.2,0s-0.1,0-0.2,0
	c-0.2,0-0.3,0-0.4-0.1c-0.1-0.1-0.2-0.1-0.2-0.1c0,0-0.1,0-0.1,0s-0.1,0-0.1,0c-0.2,0-0.3-0.1-0.3-0.3c0,0,0-0.1-0.1-0.1
	s-0.1-0.1-0.2-0.3c-0.1-0.1-0.1-0.2-0.1-0.3c0,0,0-0.1-0.1-0.1s-0.1-0.1-0.1-0.2c0,0,0-0.1-0.1-0.1s-0.1-0.1-0.1-0.2
	c0-0.1,0-0.1,0.1-0.2c0-0.1-0.1-0.2-0.1-0.2c0,0,0-0.1,0-0.1s0-0.1,0-0.1c0-0.1,0-0.2-0.1-0.3s-0.1-0.2-0.1-0.3s0-0.1,0.1-0.2
	s0.1-0.1,0.1-0.2s0-0.1-0.1-0.2s-0.1-0.2-0.1-0.2c0-0.1,0-0.1,0.1-0.2S43,67,43,67l-0.1-0.2c0,0,0,0,0-0.1s0,0,0.1-0.1
	s0.1-0.1,0.1-0.2c0-0.1,0-0.1-0.1-0.2s-0.1-0.1-0.1-0.2c0,0,0-0.1,0.1-0.1s0.1-0.1,0.1-0.1l-0.1-0.1c0,0,0-0.1,0.1-0.1
	c0,0,0-0.1,0-0.1c0-0.1,0-0.1,0-0.1c0-0.1,0-0.1,0.1-0.2c0-0.1,0.1-0.1,0.1-0.2l0,0l-0.2-0.1l0-0.2c0,0-0.1-0.1-0.2-0.1
	c0,0-0.1,0-0.2,0s-0.2,0-0.2,0h0c0,0.1-0.1,0.2-0.1,0.3c0,0,0,0.1,0,0.3c0,0.1,0,0.1-0.1,0.2l0,0.2c0.1,0.1,0.1,0.1,0.1,0.2
	c0,0,0,0.1-0.1,0.1l0,0.1c0,0,0,0.1,0.1,0.2s0.1,0.1,0.1,0.2L42,66.4c0,0-0.1,0.1,0,0.1c0,0.2,0,0.3,0.1,0.4
	C42,67,42,67.2,41.9,67.4c0,0.2,0,0.4,0,0.6l0.1,0.2c-0.1,0.1-0.1,0.2-0.1,0.2c0,0.1,0,0.1,0.1,0.2s0.1,0.2,0.1,0.3l0,0.1
	c0,0.2,0,0.3,0.1,0.4c0,0.2,0.1,0.3,0.2,0.3c0,0,0,0,0,0c0,0,0,0.1-0.1,0.2l0.1,0.2c0,0.1-0.1,0.2-0.1,0.2c0,0.1,0,0.2,0.1,0.2
	s0.1,0.2,0.1,0.4v0c0.1,0.2,0.3,0.3,0.4,0.5c0.2,0.3,0.4,0.4,0.4,0.4s0,0,0.1,0s0,0,0.1,0c0.1,0,0.1,0,0.1,0.1s0,0.1,0.1,0.1
	c0,0,0.1,0,0.1,0c0.1,0,0.3,0.1,0.5,0.1c0.2,0.1,0.4,0.1,0.5,0.1c0.1,0,0.2,0,0.2-0.1s0.1-0.1,0.1-0.1c0,0,0,0,0.1,0
	c0,0,0.1,0,0.1,0l0,0c0-0.1,0-0.1,0.1-0.1c0,0,0,0,0.1,0s0.1,0,0.1,0c0-0.1,0.1-0.1,0.2-0.1c0,0,0.1,0,0.1,0s0.1,0,0.1,0
	s0.1,0,0.1-0.1c0-0.1,0.1-0.1,0.2-0.1c0.1-0.1,0.1-0.2,0.2-0.2c0,0,0.1,0,0.2,0h0c0-0.1,0.2-0.3,0.6-0.7
	C47.5,70.6,47.7,70.3,47.7,70z M50.7,67.5l-0.2-0.1c-0.1,0-0.2,0.1-0.2,0.1s-0.1,0-0.1-0.1c-0.1-0.1-0.1-0.1-0.1-0.1s-0.1,0-0.2,0
	s-0.1,0-0.2,0c0,0,0,0.1,0,0.1c0,0,0,0.1-0.1,0.1c0,0-0.1,0.1-0.1,0.1c0,0,0,0.1,0,0.2c0,0.1,0,0.2,0,0.2c0,0.2,0.1,0.3,0.2,0.3
	c0,0,0.1,0,0.1,0s0.1,0,0.1,0c0,0,0.1,0,0.2,0c0.1,0,0.2,0,0.2,0c0,0,0,0,0.1,0s0.1,0,0.1,0c0,0,0.1,0,0.2,0s0.2,0,0.2,0
	c0,0,0.1,0,0.1,0s0.1,0,0.1,0c0,0,0,0,0.2,0.1c0.1,0,0.3-0.1,0.7-0.1c0.1,0.1,0.2,0.2,0.2,0.3c0,0.1,0,0.2,0,0.4s0,0.3,0,0.4
	c0,0.2-0.1,0.3-0.4,0.3c0,0-0.1,0-0.2,0s-0.1,0-0.2,0c-0.1,0-0.2,0-0.3,0.1s-0.2,0.1-0.3,0.1L51,69.7c0,0-0.1-0.1-0.1-0.1
	c0,0-0.1,0-0.1,0.1s-0.1,0.1-0.1,0.2l-0.1-0.1c0,0-0.1,0.1-0.3,0.1c-0.2,0.1-0.3,0.1-0.3,0.1l0,0.1c0,0.1-0.1,0.4-0.3,0.8
	c0.1,0.1,0.1,0.1,0.1,0.2c0,0.1,0,0.1-0.1,0.2c0,0.2,0,0.3,0,0.5s0.1,0.3,0.2,0.4c0,0,0,0.1,0,0.2c0.4,0.3,0.6,0.6,0.8,0.7l0.2-0.1
	c0.2,0.1,0.5,0.1,1.1,0.1c0.1,0,0.1,0,0.2-0.1l0.3,0c0.2,0,0.3-0.1,0.5-0.2c0.2-0.2,0.3-0.3,0.3-0.5c0-0.1,0-0.1,0.1-0.2
	s0.1-0.1,0.1-0.2c0-0.1,0-0.3,0-0.4c0-0.1,0-0.3,0.1-0.4h0c0,0,0.1,0.1,0.2,0.1l0,0c0,0,0.1,0,0.1-0.1s0.1-0.1,0.1-0.1
	c0,0,0,0,0.1,0.1s0.2,0.1,0.4,0.1c0,0,0.1,0,0.2,0.1s0.1,0.1,0.1,0.1c0.4-0.1,0.6-0.2,0.6-0.4c0,0,0-0.1,0-0.2c0-0.2,0-0.2,0-0.2
	c0-0.1-0.1-0.1-0.3-0.1c-0.1,0-0.1-0.1-0.1-0.2c0,0-0.1-0.1-0.4-0.1c0,0-0.1,0-0.2-0.1c-0.1-0.1-0.2-0.1-0.4-0.1
	c-0.1,0-0.2-0.1-0.3-0.2c-0.1-0.2-0.2-0.3-0.2-0.4c0-0.1,0-0.2,0.2-0.3c-0.1-0.2-0.2-0.4-0.2-0.5c0-0.1,0-0.1,0.1-0.2
	c0.1-0.1,0.1-0.1,0.1-0.1c0,0,0-0.1,0-0.1c0,0,0-0.1,0.1-0.1c0.1,0,0.2,0,0.3,0.1c0.1,0,0.2,0.1,0.3,0.1c0,0,0.1,0,0.2-0.1
	s0.1-0.1,0.2-0.1s0.1,0,0.2,0s0.1,0,0.2,0c0,0,0.1,0,0.3-0.1s0.3-0.1,0.3-0.1l0-0.1c0,0,0,0,0-0.1c0,0,0-0.1,0.1-0.1
	c0,0,0-0.1,0-0.1s0-0.1-0.1-0.2c0-0.1-0.1-0.2-0.1-0.2l-0.1,0c-0.1,0-0.2,0.1-0.2,0.1c-0.2-0.1-0.3-0.1-0.3-0.1
	c-0.1,0-0.2,0-0.2,0.1c0,0.1-0.1,0.1-0.1,0.1c0,0-0.1,0-0.1-0.1c0,0,0,0-0.2,0c0,0,0,0-0.1,0s0,0-0.1,0c-0.1,0-0.1,0.1-0.2,0.1
	c0-0.1-0.1-0.1-0.1-0.1c-0.1,0-0.1,0-0.2,0c-0.1,0-0.2-0.1-0.2-0.3c0-0.2-0.1-0.3-0.1-0.5c0-0.1,0.1-0.2,0.2-0.3s0.2-0.1,0.4-0.1
	c0,0,0.1,0,0.2,0.1s0.1,0.1,0.2,0.1s0.1,0,0.2-0.1c0.1,0,0.1-0.1,0.2-0.1c0,0,0.1,0,0.1,0.1c0,0,0.1,0.1,0.1,0.1
	c0.5,0,0.7-0.2,0.7-0.5c0,0,0-0.1-0.1-0.2s-0.1-0.1-0.1-0.2c0,0-0.1,0-0.1,0s-0.1,0-0.1,0l-0.1,0c-0.1-0.1-0.3-0.2-0.5-0.2
	c0,0-0.1,0-0.1,0s-0.1,0-0.1,0c-0.1-0.1-0.2-0.1-0.4-0.1c-0.5,0-0.7-0.2-0.7-0.5c0,0,0-0.1,0.1-0.2c0-0.1,0.1-0.1,0.1-0.2
	s0-0.1-0.1-0.1s-0.1-0.1-0.1-0.1c0,0,0-0.1,0-0.2c0-0.1,0-0.1,0-0.2c0-0.2,0-0.3-0.1-0.3c0,0-0.1,0-0.3,0c0,0-0.1,0-0.2,0
	s-0.1,0-0.1,0c-0.1,0-0.1,0.1-0.1,0.3c0,0,0,0,0,0.2c0,0.1,0,0.2,0,0.3c0,0.7-0.1,1-0.3,1c-0.1,0-0.1,0-0.1,0c0,0-0.1,0-0.1,0
	s-0.1,0-0.2,0s-0.1,0-0.2,0s-0.1,0-0.1,0s-0.1,0-0.1,0l-0.8,0l-0.2-0.1l-0.1,0c-0.1,0.1-0.2,0.1-0.3,0.1c-0.1,0-0.1,0.1-0.2,0.1
	c0,0.1-0.1,0.2-0.1,0.3l0.2,0.4c0.1,0,0.2,0,0.3,0c0,0,0.1,0,0.2,0s0.1,0,0.2,0s0.1,0,0.1-0.1s0.1-0.1,0.1-0.1c0.1,0,0.2,0,0.3,0
	c0.1,0,0.2,0,0.3,0c0.1,0.1,0.2,0.1,0.3,0.1c0,0,0.1,0,0.2,0s0.2,0,0.2,0c0.3,0,0.5,0.1,0.5,0.3c0,0,0,0.1-0.1,0.1l0.2,0.4
	c-0.1,0-0.2,0.1-0.2,0.3L52,67.4c-0.1,0-0.4,0.1-0.7,0.1c-0.1-0.1-0.2-0.1-0.2-0.1c0,0-0.1,0-0.2,0.1C50.8,67.4,50.8,67.5,50.7,67.5
	z M52.2,71.9c0,0.1-0.1,0.2-0.3,0.2c0.2,0,0.1,0-0.4,0c-0.1,0-0.1,0-0.2,0c0,0-0.1,0-0.1,0s-0.1-0.1-0.3-0.2
	C50.9,72,50.8,72,50.8,72c0,0,0-0.1,0-0.2c0-0.1,0-0.1,0-0.2c0,0,0-0.1,0-0.1s0-0.1,0-0.1c0,0,0-0.1-0.1-0.1s-0.1-0.1-0.1-0.1
	c0-0.1,0.1-0.1,0.2-0.1c0-0.2,0-0.3,0.1-0.3s0.2-0.1,0.3-0.1c0,0,0.1,0,0.2-0.1c0.1,0,0.2-0.1,0.2-0.1c0,0,0.1,0,0.2,0
	c0.1,0,0.2,0,0.2,0c0.2,0,0.3,0.2,0.3,0.5c0,0.2,0,0.3-0.1,0.3c-0.1,0.1-0.2,0.1-0.2,0.1c0,0,0,0.1,0,0.1
	C52.2,71.8,52.2,71.9,52.2,71.9z M63.6,70L63.6,70l-0.2-0.1l-0.1-0.1c-0.1,0-0.2,0-0.4-0.1c-0.1,0-0.2,0.2-0.5,0.5s-0.5,0.5-0.7,0.5
	c0,0-0.1,0-0.1,0c0,0.2,0,0.2-0.1,0.3S61.4,71,61.2,71c0,0,0,0,0,0s0,0,0,0s-0.1,0-0.1-0.1S61,71,60.9,71s-0.1,0-0.2,0s-0.1,0-0.2,0
	c-0.2,0-0.3,0-0.4-0.1c-0.1-0.1-0.2-0.1-0.2-0.1c0,0-0.1,0-0.1,0s-0.1,0-0.1,0c-0.2,0-0.3-0.1-0.3-0.3c0,0,0-0.1-0.1-0.1
	s-0.1-0.1-0.2-0.3c-0.1-0.1-0.1-0.2-0.1-0.3c0,0,0-0.1-0.1-0.1S59,69.6,59,69.5c0,0,0-0.1-0.1-0.1s-0.1-0.1-0.1-0.2
	c0-0.1,0-0.1,0.1-0.2c0-0.1-0.1-0.2-0.1-0.2c0,0,0-0.1,0-0.1s0-0.1,0-0.1c0-0.1,0-0.2-0.1-0.3s-0.1-0.2-0.1-0.3s0-0.1,0.1-0.2
	s0.1-0.1,0.1-0.2s0-0.1-0.1-0.2s-0.1-0.2-0.1-0.2c0-0.1,0-0.1,0.1-0.2s0.1-0.1,0.1-0.2l-0.1-0.2c0,0,0,0,0-0.1s0,0,0.1-0.1
	s0.1-0.1,0.1-0.2c0-0.1,0-0.1-0.1-0.2s-0.1-0.1-0.1-0.2c0,0,0-0.1,0.1-0.1s0.1-0.1,0.1-0.1l-0.1-0.1c0,0,0-0.1,0.1-0.1
	c0,0,0-0.1,0-0.1c0-0.1,0-0.1,0-0.1c0-0.1,0-0.1,0.1-0.2c0-0.1,0.1-0.1,0.1-0.2l0,0l-0.2-0.1l0-0.2c0,0-0.1-0.1-0.2-0.1
	c0,0-0.1,0-0.2,0s-0.2,0-0.2,0h0c0,0.1-0.1,0.2-0.1,0.3c0,0,0,0.1,0,0.3c0,0.1,0,0.1-0.1,0.2l0,0.2c0.1,0.1,0.1,0.1,0.1,0.2
	c0,0,0,0.1-0.1,0.1l0,0.1c0,0,0,0.1,0.1,0.2c0,0.1,0.1,0.1,0.1,0.2l-0.1,0.1c0,0-0.1,0.1,0,0.1c0,0.2,0,0.3,0.1,0.4
	c-0.1,0.1-0.1,0.3-0.1,0.6c0,0.2,0,0.4,0,0.6l0.1,0.2c-0.1,0.1-0.1,0.2-0.1,0.2c0,0.1,0,0.1,0.1,0.2s0.1,0.2,0.1,0.3l0,0.1
	c0,0.2,0,0.3,0.1,0.4c0,0.2,0.1,0.3,0.2,0.3c0,0,0,0,0,0c0,0,0,0.1-0.1,0.2l0.1,0.2c0,0.1-0.1,0.2-0.1,0.2c0,0.1,0,0.2,0.1,0.2
	s0.1,0.2,0.1,0.4v0c0.1,0.2,0.3,0.3,0.4,0.5c0.2,0.3,0.4,0.4,0.4,0.4s0,0,0.1,0s0,0,0.1,0c0.1,0,0.1,0,0.1,0.1s0,0.1,0.1,0.1
	c0,0,0.1,0,0.1,0c0.1,0,0.3,0.1,0.5,0.1c0.2,0.1,0.4,0.1,0.5,0.1c0.1,0,0.2,0,0.2-0.1s0.1-0.1,0.1-0.1c0,0,0,0,0.1,0
	c0,0,0.1,0,0.1,0l0,0c0-0.1,0-0.1,0.1-0.1c0,0,0,0,0.1,0s0.1,0,0.1,0c0-0.1,0.1-0.1,0.2-0.1c0,0,0.1,0,0.1,0c0,0,0.1,0,0.1,0
	s0.1,0,0.1-0.1c0-0.1,0.1-0.1,0.2-0.1c0.1-0.1,0.1-0.2,0.2-0.2c0,0,0.1,0,0.2,0h0c0-0.1,0.2-0.3,0.6-0.7
	C63.5,70.6,63.6,70.3,63.6,70z M69.4,68.8c0.1,0,0.1,0,0.2-0.1c0.1-0.1,0.2-0.1,0.2-0.1c0.2,0.1,0.2,0.1,0.3,0.1
	c0.2,0,0.3-0.1,0.3-0.2c0,0,0-0.1,0-0.2s0-0.1,0-0.2c0,0,0-0.1,0.1-0.2c0-0.1-0.2-0.2-0.5-0.2l-0.2-0.1l-0.1,0.1l-0.2,0
	c-0.1,0-0.1,0-0.2-0.1S69,67.6,69,67.6c0,0-0.1,0-0.1,0.1s-0.1,0.1-0.2,0.1c-0.1,0-0.2-0.1-0.2-0.2c0-0.1,0-0.1,0.1-0.2
	s0.1-0.1,0.1-0.2c0,0,0-0.1-0.1-0.2c-0.1-0.1-0.1-0.1-0.1-0.2c0,0,0-0.1,0-0.1s0-0.1,0-0.1c0-0.1-0.1-0.1-0.4-0.1L68,66.4l-0.1,0.1
	c0.1,0,0,0-0.1,0c-0.1,0-0.1,0-0.1,0.1c0,0.1,0,0.1,0,0.2c0,0.1,0,0.2,0,0.2c0,0.1,0,0.2-0.1,0.3c0,0.2-0.1,0.2-0.1,0.3
	c0,0,0,0.1,0,0.1c0,0,0,0.1,0,0.1c0,0.1,0,0.2,0,0.3c0,0.1,0,0.2,0,0.3c0,0,0,0.1-0.1,0.1c0,0.1-0.1,0.1-0.1,0.1
	c0,0.1,0,0.1,0.1,0.1c0,0,0,0.1-0.1,0.3s-0.1,0.2-0.1,0.2l-0.2-0.1c0,0-0.1,0-0.1,0.1s-0.1,0.1-0.1,0.1s-0.1,0-0.1,0s-0.1,0-0.1,0
	s-0.1,0-0.2,0.1c-0.1,0.1-0.2,0.1-0.4,0.1c-0.1,0.1-0.1,0.2-0.1,0.2c0,0-0.1,0-0.2,0l-0.1,0c0,0.1,0,0.1,0,0.2c0,0,0,0.1-0.1,0.1
	s-0.1,0.1-0.1,0.1c0,0,0,0.1,0,0.1c0,0.1,0,0.1-0.1,0.2s-0.1,0.1-0.1,0.1c0,0.1,0,0.2,0.1,0.3l0,0.1c0,0.1,0,0.2-0.1,0.3
	c0,0.2,0.3,0.6,0.8,0.9c0,0,0.1,0,0.1,0c0,0,0.1,0.1,0.2,0.2c0.1,0.1,0.4,0.1,1,0.1c0.1-0.1,0.2-0.2,0.4-0.3c0.1,0,0.2,0,0.3-0.1
	c0,0,0.1-0.1,0.1-0.3c0-0.2,0.1-0.2,0.2-0.2v0c0,0,0-0.1,0-0.2s0-0.1,0-0.2c0-0.1,0-0.2,0.1-0.2c0.1-0.1,0.2-0.1,0.2-0.1
	c0.1,0,0.2,0,0.3,0.1s0.2,0.1,0.3,0.1c0,0,0.1,0,0.2,0c0.1,0,0.1,0,0.1,0c0.1,0,0.1,0,0.1-0.1c0-0.1,0-0.2,0.1-0.3
	c0,0,0.1-0.1,0.1-0.1c0,0,0.1-0.1,0.1-0.2c0-0.1-0.1-0.2-0.2-0.3c0.1,0,0,0-0.2,0c0,0-0.1,0-0.2-0.1s-0.2-0.1-0.4-0.1
	c-0.1,0-0.2-0.1-0.3-0.1s-0.1-0.2-0.1-0.3c0-0.1,0-0.1,0.1-0.1c0-0.1-0.1-0.2-0.1-0.2c0-0.1,0.1-0.2,0.2-0.2c0.1,0,0.2,0,0.3,0
	C69.3,68.8,69.4,68.8,69.4,68.8z M67,71.3c-0.1,0-0.2-0.1-0.3-0.2s-0.2-0.2-0.2-0.3c0,0,0-0.1,0.1-0.1s0.1-0.1,0.1-0.2
	s0.1-0.1,0.2-0.1c0.5,0,0.8,0.1,0.8,0.4c0,0.2-0.1,0.3-0.2,0.4C67.3,71.2,67.1,71.3,67,71.3z M77.4,68.9
	C77.4,68.9,77.4,68.9,77.4,68.9l-0.1-0.2c0,0.1,0,0,0-0.2c0-0.4-0.3-0.8-0.8-1.2c0,0-0.1,0-0.1,0c-0.1,0-0.1,0-0.2-0.1
	s-0.2-0.1-0.3-0.1c0,0,0,0-0.1-0.1s-0.1-0.1-0.2-0.1h0L75.2,67c-0.1,0-0.1,0-0.1,0s-0.1,0-0.2-0.1s-0.2-0.1-0.3-0.1
	c0,0-0.1,0-0.1,0.1C74.5,67,74.4,67,74.3,67c-0.1,0-0.2,0-0.2-0.1c0-0.1-0.1-0.1-0.2-0.1c-0.1,0-0.2,0-0.3,0s-0.2,0-0.3,0
	s-0.1,0-0.2,0c-0.1,0-0.1,0-0.2,0c0,0-0.1,0-0.2,0c-0.1,0-0.2,0-0.3,0c0,0-0.1,0.1-0.1,0.2s-0.1,0.3-0.1,0.3c0,0.2,0.2,0.4,0.7,0.4
	c0.1,0,0.1,0,0.2,0.1s0.1,0.1,0.2,0.1c0,0,0.1,0,0.2-0.1s0.1-0.1,0.2-0.1c0.1,0,0.1,0,0.2,0s0.2,0,0.2,0c0,0,0.1,0,0.1-0.1
	c0,0,0.1-0.1,0.1-0.1c0,0,0.1,0,0.2,0.1l0.1-0.1c0.2,0.1,0.3,0.2,0.4,0.2c0.2,0,0.4,0.1,0.7,0.3c0,0,0.1,0,0.1,0
	c0.1,0,0.1-0.1,0.1-0.1c0.1,0,0.2,0.1,0.2,0.2c0.1,0.1,0.1,0.2,0.1,0.3c0,0,0,0.1,0,0.1c0,0.1,0,0.1,0,0.1l0,0.1l0.1,0.1
	c0,0.2,0,0.4-0.1,0.5c0,0.2-0.1,0.3-0.3,0.4c0,0.2-0.2,0.4-0.3,0.6c-0.2,0.2-0.4,0.3-0.6,0.3c0,0-0.1,0-0.1,0
	c-0.1,0.3-0.2,0.4-0.4,0.4l-0.2,0c-0.1,0.1-0.1,0.2-0.3,0.3l-0.1,0c-0.1,0-0.1,0.1-0.1,0.1c-0.1,0.1-0.1,0.1-0.2,0.2
	s-0.1,0.1-0.1,0.3c0,0.1,0.1,0.2,0.2,0.3s0.2,0.2,0.3,0.2c0,0,0.1-0.1,0.3-0.2s0.3-0.2,0.3-0.2c0,0,0,0,0.1,0s0.1,0,0.1,0
	c0,0,0,0,0-0.1l0-0.1c0,0,0,0,0.1-0.1c0.2-0.1,0.5-0.2,0.8-0.5c0.3-0.2,0.5-0.4,0.7-0.4c0-0.2,0.1-0.4,0.3-0.6s0.3-0.4,0.3-0.7
	c0.1,0,0.2-0.2,0.2-0.6C77.4,69.3,77.4,69.1,77.4,68.9z M73.3,65.1c0.1,0,0.2,0,0.3,0.1s0.2,0.1,0.3,0.1c0,0,0.1,0,0.1-0.1
	s0.1-0.1,0.1-0.1l0.2,0.2c0.2,0,0.3,0.1,0.4,0.1h0c0,0,0.1,0,0.1-0.1s0.1-0.1,0.1-0.1s0.1,0,0.1,0c0.1,0.1,0.2,0.1,0.4,0.1
	c0.2,0,0.4,0,0.4,0.1c0.1,0,0.2,0.1,0.3,0.1l0.1-0.1c0.3-0.1,0.5-0.1,0.5-0.2c0,0,0-0.1-0.1-0.1s-0.1-0.1-0.1-0.1c0,0,0,0,0.1-0.1
	s0.1-0.1,0.1-0.1c0-0.1-0.1-0.1-0.2-0.1c-0.1,0-0.2-0.1-0.2-0.1c0,0,0-0.1,0-0.1l-0.3-0.1c0,0-0.1,0.1-0.2,0.1
	c-0.1,0-0.1-0.1-0.1-0.2c0,0-0.1,0-0.2,0s-0.2,0-0.2,0s-0.1,0-0.2,0.1c-0.1,0-0.2,0.1-0.3,0.1c-0.1,0-0.2,0-0.3-0.1
	c-0.1,0-0.2-0.1-0.3-0.1c-0.2-0.1-0.3-0.1-0.4-0.1c-0.1,0-0.1,0-0.2-0.1s-0.2-0.1-0.2-0.1c-0.3,0-0.5,0.1-0.6,0.2v0.1
	c0,0,0,0.1,0,0.2s-0.1,0.1-0.1,0.2c0,0.2,0.1,0.2,0.2,0.3C73,65.1,73.1,65.1,73.3,65.1z M82.1,71.4L82.1,71.4
	c-0.1-0.4-0.3-0.6-0.7-0.6c-0.1,0-0.1,0-0.2,0c0,0-0.1,0-0.1-0.1s-0.1-0.1-0.1-0.1c-0.1,0-0.2,0.1-0.4,0.3c-0.2,0.2-0.3,0.3-0.3,0.4
	c0.1,0.1,0.1,0.1,0.1,0.2v0c-0.1,0.1-0.1,0.2-0.1,0.2c0,0,0.1,0.1,0.2,0.3s0.2,0.3,0.3,0.3c0.3,0,0.5,0.1,0.5,0.1
	c0.3,0,0.5-0.1,0.6-0.4l0.2-0.1C82.1,71.8,82.1,71.6,82.1,71.4z M80.8,69.1c0,0.2,0.1,0.4,0.3,0.4c0.2,0,0.4,0,0.6,0v-0.2l0.2-0.1
	c0,0,0-0.1-0.1-0.1c-0.1-0.1-0.1-0.1-0.1-0.2s0-0.1,0-0.2c0-0.1,0-0.2,0-0.2c0,0,0-0.1,0-0.1s0-0.1,0-0.1c0,0,0-0.1,0-0.2
	s0-0.1,0-0.2s0-0.1,0-0.2s0-0.1,0-0.2c0-0.1,0-0.1-0.1-0.2c-0.1-0.1-0.1-0.1-0.1-0.2c0,0,0-0.1,0-0.2s0-0.2,0-0.2v0
	c0,0-0.1-0.1-0.1-0.1l0.1-0.1c0,0,0-0.1,0-0.1l-0.1-0.1l0-0.1c0-0.2,0.1-0.4,0.1-0.7c0-0.1,0-0.2,0-0.3c0-0.1,0-0.2,0-0.3
	c0-0.1-0.1-0.2-0.3-0.3c-0.3,0.1-0.4,0.1-0.5,0.1c-0.1,0-0.2,0.1-0.2,0.3c0,0.1,0,0.1,0,0.2s0,0.2,0,0.2c0,0.1,0,0.1-0.1,0.3
	c0,0,0,0.1,0.1,0.2c0,0,0,0.1,0,0.2l0,0.1c0,0,0,0.1,0,0.1s0,0.1-0.1,0.2s-0.1,0.2-0.1,0.2l0,0.1c0.1,0.1,0.1,0.1,0.1,0.2
	c0,0,0,0.1,0,0.2s0,0.2,0,0.2s0,0.1,0,0.2s0,0.1,0,0.1c0,0.1,0,0.2,0,0.3c0,0.2,0,0.3,0,0.3s0,0.1-0.1,0.1s-0.1,0.1-0.1,0.1
	c0,0,0,0.1,0.1,0.2C80.8,68.9,80.8,69,80.8,69.1z"/>
</svg>
