<?xml version="1.0" encoding="utf-8"?>
<!-- Generator: Adobe Illustrator 23.0.1, SVG Export Plug-In . SVG Version: 6.00 Build 0)  -->
<svg version="1.1" id="レイヤー_1" xmlns="http://www.w3.org/2000/svg" xmlns:xlink="http://www.w3.org/1999/xlink" x="0px"
	 y="0px" viewBox="0 0 595.3 71.5" style="enable-background:new 0 0 595.3 71.5;" xml:space="preserve">
<style type="text/css">
	.st0{opacity:0.3;fill:#ED9878;enable-background:new    ;}
	.st1{fill:#FFFFFF;}
</style>
<path class="st0" d="M595.3,71.5H0c0,0,0-7.8,0-61.4c185,56.3,398-4,595.3-9.5C595.7,50.3,595.3,71.5,595.3,71.5z"/>
<path class="st0" d="M595.3,71.5H0c0,0,0-9.3,0-71.3C206.5,62.1,344.8,8,595.3,15.6C595.7,73.1,595.3,71.5,595.3,71.5z"/>
<path class="st0" d="M595.3,71.5H0c0,0,0,9.2,0-44.4C185,83.4,344.8-6,595.3,0.6C595.7,50.3,595.3,71.5,595.3,71.5z"/>
<path class="st1" d="M595.3,71.5H0c0,0,0-1.8,0-55.4c185,56.3,344.8-12,595.3-5.4C595.7,60.4,595.3,71.5,595.3,71.5z"/>
</svg>
