<?xml version="1.0" encoding="utf-8"?>
<!-- Generator: Adobe Illustrator 23.0.1, SVG Export Plug-In . SVG Version: 6.00 Build 0)  -->
<svg version="1.1" id="レイヤー_1" xmlns="http://www.w3.org/2000/svg" xmlns:xlink="http://www.w3.org/1999/xlink" x="0px"
	 y="0px" viewBox="0 0 489.9 109.8" style="enable-background:new 0 0 489.9 109.8;" xml:space="preserve">
<style type="text/css">
	.st0{fill:#221714;}
	.st1{fill:#20ACDE;}
	.st2{fill:#D71718;}
</style>
<g>
	<path class="st0" d="M7.9,21c-3.8,0-5.1,0.1-5.5,0.1c-0.1,0-0.8,0.1-0.9,0.1S1.2,21.1,1,20.9l-0.8-1C0,19.7,0,19.7,0,19.6
		c0-0.1,0-0.1,0.1-0.1c0.3,0,1.7,0.2,1.9,0.2c2.1,0.1,4,0.1,6,0.1h3.5c1.3,0,1.8,0,2.3-1.5c2.2-7.4,2.4-8.2,2.5-9.9
		c0-0.9,0.2-1,0.4-1c0.3,0,4.1,1.9,4.1,2.6c0,0.3,0,0.3-0.9,0.7c-1.3,0.5-3.1,8.2-3.1,8.3c0,0.7,0.5,0.8,1.4,0.8h12.7
		c1.2,0,1.8,0,2.1-0.1c0.5-0.2,2-2.6,2.5-2.6c0.5,0,3.8,2.6,3.8,3.2c0,0.7-1.2,0.7-2.1,0.7h-7.1c-0.5,0-0.8,0-0.8,0.3
		c0,0.2,0,0.3,0.4,0.5c0.2,0.1,0.5,0.4,0.5,0.7c0,0.2-0.1,0.3-0.6,0.6c-1,0.4-1.2,1-1.9,3.2c-0.6,1.9-1.9,5-2.3,5.9
		c-0.1,0.2-0.7,1.4-0.7,1.6c0,0.5,0.3,0.6,2.5,1.7c4.4,2.2,10.1,5.5,10.1,8.3c0,1.3-0.9,1.8-1.5,1.8c-0.9,0-1.6-0.7-2.3-1.5
		c-2.5-2.6-4.5-4.3-8.5-6.6c-0.9-0.6-1.3-0.8-1.7-0.8c-0.4,0-0.5,0.1-1.6,1.4c-2.4,2.7-4.9,4.8-10.7,6.7c-3.8,1.3-6.7,1.7-7.5,1.7
		c-0.3,0-0.6,0-0.6-0.2c0-0.2,0.2-0.3,1-0.5c12.1-4,16.2-9.6,16.2-10.4c0-0.6-1.7-1.2-2-1.3c-0.7-0.2-5.2-1.4-5.4-1.4
		c-0.5,0-0.7,0.3-1,1.1c-0.3,0.8-1,1.5-1.9,1.5c-1,0-1.7-0.7-1.7-1.4c0-0.3,0-0.4,0.8-2c1.9-3.9,3.7-9.3,3.7-10
		c0-0.9-0.7-0.9-1.4-0.9H7.9z M17.9,21c-1.6,0-1.8,0.1-2.3,1.6c-0.7,2.1-2.2,6.5-2.9,8.6c0,0.4,0.2,0.6,0.6,0.6c0.1,0,5.7,0.9,5.9,1
		c1.4,0.3,1.6,0.4,2,0.4c0.7,0,1.1-1.1,1.7-2.4c2.1-4.9,2.8-7.9,2.8-8.7c0-1-0.6-1-1.7-1H17.9z"/>
	<path class="st0" d="M53.3,27.4c-0.9,0-1.6-0.9-1.6-2c0-0.8,0.3-1.3,1.6-3.6c0.9-1.5,1.4-3.7,1.7-5.5c0-0.2,0-0.3,0.1-0.3
		c0.6,0,1,3.3,1,5.1C56.1,24.3,55,27.4,53.3,27.4z M61,27.5v13.7c0,0.5,0.1,2.7,0.1,3.1c0,1.8-1,2.6-2,2.6c-0.6,0-1.4-0.2-1.4-2
		c0-0.2,0.1-2.2,0.1-2.4c0.3-3.7,0.3-8.3,0.3-12.8c0-3.5,0-18-0.2-20.3c0-0.3-0.3-1.5-0.3-1.8c0-0.2,0.1-0.3,0.4-0.3
		c0.2,0,3.5,0.6,4.2,1c0.1,0.1,0.3,0.2,0.3,0.5c0,0.4-0.3,0.6-0.7,1c-0.5,0.4-0.7,0.7-0.7,1.5C61.2,13.4,61,24.8,61,27.5z
		 M64.1,23.3c-0.7,0-0.7-0.9-0.7-1.3c0-1.3-0.1-2.8-0.3-4.2c0-0.2-0.3-1.1-0.3-1.3c0,0,0-0.1,0.1-0.1c0.6,0,3.2,1.7,3.2,4.2
		C66,22.7,64.6,23.3,64.1,23.3z M75,18c1.4,0,1.4-0.7,1.4-1.5c0-0.9-0.1-4.6-0.1-5.3c0-1.4,0-1.6-0.1-2.1c0-0.2-0.4-1.1-0.4-1.4
		c0-0.4,0.5-0.5,0.8-0.5c0.5,0,3.3,0.7,3.8,0.9c0.4,0.1,0.6,0.4,0.6,0.7c0,0.4-0.2,0.6-0.7,1c-0.7,0.6-0.7,1-0.7,3.4v4
		c0.1,0.7,0.7,0.8,1.3,0.8h2.3c1.9,0,2.1,0,2.8-1.2c0.3-0.4,0.8-1.2,1.2-1.2c0.5,0,3.8,2.6,3.8,3.1c0,0.5-1,0.5-2.4,0.5h-7.7
		c-0.4,0-1,0.1-1.3,0.7c-0.2,0.4-0.2,6.8-0.2,7.4c0,2.5,0,3,1.4,3h2.1c1.6,0,2.1,0,2.7-0.6c0.3-0.3,1.2-1.9,1.6-1.9
		c0.3,0,3.8,2.4,3.8,3.1c0,0.6-0.9,0.6-2.4,0.6h-7.8c-0.3,0-1,0-1.3,0.7c-0.1,0.4-0.1,7.3-0.1,8c0,3.2,0,3.4,1.4,3.4h3.4
		c1.4,0,1.8,0,2.3-0.4c0.4-0.4,1.6-2.7,2.1-2.7c0.6,0,3.8,2.8,3.8,3.6c0,0.7-1,0.7-2.4,0.7H71.1c-3.8,0-5.1,0.1-5.5,0.1
		c-0.1,0-0.8,0.1-0.9,0.1c-0.2,0-0.2-0.1-0.4-0.3l-0.8-1c-0.1-0.1-0.2-0.2-0.2-0.3c0-0.1,0-0.1,0.1-0.1c0.3,0,1.7,0.2,1.9,0.2
		c2.1,0.1,3.9,0.1,6,0.1H75c1.4,0,1.4-0.3,1.4-4.3c0-6.4,0-7.2-0.3-7.5c-0.3-0.3-0.5-0.3-2.1-0.3c-2.4,0-4.1,0-4.8,0.1
		c-0.1,0-0.8,0.1-0.9,0.1c-0.1,0-0.2-0.1-0.4-0.3l-0.8-1c-0.2-0.2-0.2-0.2-0.2-0.3c0-0.1,0-0.1,0.1-0.1c0.3,0,1.7,0.1,2,0.1
		c3.5,0.1,4.9,0.1,6.3,0.1c1.3,0,1.3-0.9,1.3-1.6c0-6.1,0-6.7,0-7.9c0-0.9,0-1.5-1.4-1.5h-2.8c-1.1,0-1.2,0.3-2.2,2.4
		c-1.1,2.4-2.4,4.8-4.8,7.4c-0.2,0.2-0.3,0.3-0.4,0.3c-0.1,0-0.1-0.1-0.1-0.1c0-0.1,2.1-5.1,2.5-6c1-2.5,2.7-7.7,2.7-10.6
		c0-0.2-0.2-1.3-0.2-1.4c0-0.3,0.3-0.4,0.5-0.4c0.1,0,4.3,1,4.3,2.1c0,0.3-0.1,0.4-1,1c-0.9,0.5-1.7,3.5-1.7,3.7
		c0,0.6,0.5,0.6,0.8,0.6H75z"/>
	<path class="st0" d="M116.6,18.8c-0.7,0-1.2,0.2-1.3,0.9c0,0.4,0,5.8,0,6.4c0,0.8,0,1,0.4,1c0.5,0,3.9-1.4,4.2-1.4
		c0.1,0,0.2,0,0.2,0.1c0,0.3-2.5,1.9-3.3,2.4c-1.6,1-1.6,1.4-1.6,2.9c0,1.5,0.1,8.1,0.1,9.4c0,0.7,0,4.7-0.1,5.1
		c-0.2,0.7-1.1,1.5-2.2,1.5c-0.7,0-1-0.2-1-1c0-2.3,0.3-12.2,0.3-14.2c0-0.2,0-0.6-0.4-0.6c-0.1,0-3.7,1.9-3.9,2.4
		c-0.3,0.7-0.4,0.7-0.6,0.7c-0.7,0-2.5-3.3-2.5-3.5c0-0.3,0.2-0.3,0.9-0.4c1.2-0.1,5.8-1.7,6.3-2.3c0.3-0.3,0.3-0.6,0.3-1.1
		c0-1.3,0-5.4,0-7c0-0.5,0-1.2-1.2-1.2h-2.7c-1,0-1,0.2-1.7,1.5c-0.7,1.4-1.8,3.4-2.1,3.4c0,0,0-0.1,0-0.1c0-0.3,1-4.1,1.1-4.8
		c0.2-0.9,0.7-4,0.7-6.6c0-0.2-0.1-1-0.1-1.1c0-0.3,0-0.4,0.4-0.4c0.3,0,3.3,0.8,3.3,1.5c0,0.3-0.8,1.5-0.9,1.7
		c-0.1,0.2-1,3.1-1,3.4c0,0.4,0.3,0.5,0.6,0.5h2.3c0.8,0,1.2-0.3,1.2-1.1c0-1.6,0-4.4-0.1-6.2c0-0.4-0.2-2.4-0.2-2.8
		c0-0.2,0-0.4,0.3-0.4c0.2,0,4,0.8,4,1.6c0,0.3,0,0.4-0.7,1c-0.3,0.3-0.3,0.6-0.4,2.7c0,0.6,0,3.7,0,4.3c0,0.3,0,0.9,0.6,0.9
		c0.7,0,1-0.5,1.1-0.7c1-1.4,1-1.5,1.4-1.5c0.6,0,2.9,2.1,2.9,2.7c0,0.7-0.7,0.7-2.4,0.7H116.6z M133.2,15c-1.3,0-1.3,0.7-1.3,1.7
		c0,5.5,0,5.6,1.2,5.6h3.7c1.2,0,1.8,0,2.1-0.2c0.4-0.2,1.4-2.2,1.9-2.2c0.3,0,3.6,2.4,3.6,3c0,0.5-0.3,0.5-2.4,0.5h-16.2
		c-1.3,0-3,0-4.6,0.1c-0.3,0-1.6,0.1-1.8,0.1c-0.2,0-0.2,0-0.5-0.3l-0.8-0.9c-0.2-0.2-0.2-0.3-0.2-0.3c0,0,0.1-0.1,0.2-0.1
		c0.3,0,1.7,0.1,1.9,0.1c2.8,0.1,4.5,0.2,6,0.2h1.8c1.1,0,1.2-0.6,1.2-1.4c0-0.6,0-4.6,0-5.1c-0.1-0.8-0.9-0.8-1.2-0.8
		c-1.4,0-2.1,0-3.6,0c-0.4,0-2.3,0.2-2.6,0.2c-0.2,0-0.2-0.1-0.5-0.4l-0.8-0.9c-0.2-0.2-0.2-0.3-0.2-0.3c0-0.1,0.1-0.1,0.2-0.1
		c0.3,0,1.5,0.1,1.7,0.1c0.5,0,3.7,0.2,5.4,0.2c0.9,0,1.6,0,1.6-1.3c0-0.7,0-2.4-0.1-3.1c0-0.3-0.2-1.8-0.2-2c0-0.2,0-0.4,0.3-0.4
		c0.1,0,2.8,0.7,3.5,1c0.1,0,0.5,0.2,0.5,0.4c0,0.3-0.9,1-1,1.3c-0.1,0.4-0.1,2.2-0.1,2.8c0,0.7,0,1.4,1.3,1.4h1.9
		c1.5,0,1.9,0,2.1-0.1c0.3-0.2,1.2-2,1.6-2c0.3,0,3.1,2,3.1,2.7c0,0.6-0.9,0.6-2.3,0.6H133.2z M137,31.2c-1.1,0-1.3,0.4-1.3,3.2
		c0,1.3,0.1,7.2,0.1,8.3c0,4-3.1,4-3.5,4c-0.8,0-0.9-0.3-1.1-1.1c-0.3-1-1-1.4-1.9-1.8c-1.1-0.5-1.2-0.5-1.2-0.7
		c0-0.1,0.3-0.2,0.5-0.2c0.4,0,2.4,0.1,2.8,0.1c0.9,0,1.7,0,1.7-2c0-1.3-0.1-7.9-0.1-8.2c0-1,0-1.7-1.2-1.7h-5.1
		c-1.3,0-2.9,0-4.6,0.1c-0.2,0-1.7,0.1-1.8,0.1c-0.2,0-0.2,0-0.4-0.3l-0.9-1c-0.1-0.1-0.2-0.2-0.2-0.3c0-0.1,0.1-0.1,0.2-0.1
		c0.3,0,1.7,0.1,2,0.1c2.8,0.1,4.4,0.2,5.9,0.2h4.8c1.2,0,1.2-0.8,1.2-1.4c0-0.6-0.2-3.2-0.2-3.8c0-0.1,0-0.3,0.4-0.3
		c0.2,0,2.8,0.4,2.9,0.5c0.4,0.1,0.8,0.2,0.8,0.6c0,0.2-0.7,1-0.8,1.1c-0.1,0.3-0.2,0.8-0.2,2c0,1.2,0.8,1.2,1.7,1.2
		c0.8,0,1.1-0.3,1.5-1c0.3-0.4,0.8-1.2,1.2-1.2c0.4,0,3.2,2,3.2,2.7c0,0.6-0.9,0.6-2.3,0.6H137z M122.9,34.1c0.6,0,4.5,1,4.5,4
		c0,1.5-0.7,2.4-1.7,2.4c-0.7,0-0.8-0.3-1.6-2.7c-0.3-1.2-0.6-1.7-1.5-3.2c0-0.1-0.2-0.3-0.1-0.4C122.6,34.1,122.7,34.1,122.9,34.1z
		"/>
	<path class="st0" d="M172.4,36.7c-1.1,0-1.2,0.7-1.2,1.7c0,0.9,0.1,5.4,0.1,6.4c0,1.6-1.7,1.9-2.1,1.9c-1,0-1-0.4-1-1.9
		c0-2.1,0.2-12.2,0.2-14.5c0-0.4,0-2.1,0-2.4c0-0.3,0-0.6-0.4-0.6c-0.2,0-0.3,0.1-1.2,1.1c-1.8,2-7.1,6.5-8.1,6.5
		c-0.1,0-0.3,0-0.3-0.2c0-0.2,0.3-0.5,0.7-0.8c3.2-3.2,3.6-3.6,5.5-6c5.8-7.2,7.1-11.9,7.1-12c0-0.3-0.3-0.3-0.7-0.3h-5.6
		c-1.2,0-3,0-4.6,0c-0.3,0-1.5,0.2-1.8,0.2c-0.2,0-0.2,0-0.4-0.3l-0.9-1c-0.1-0.1-0.2-0.2-0.2-0.2c0-0.1,0.1-0.1,0.2-0.1
		c0.2,0,1.2,0.1,1.4,0.1c2,0.1,4.4,0.2,6.5,0.2h5.6c0.3,0,0.8,0,1.1-0.3c0.7-0.7,1.5-4.5,1.6-5.1c0.2-1.1,0.2-1.3,0.5-1.3
		s2.1,0.6,2.8,0.8c1.1,0.3,1.9,0.7,1.9,1.4c0,0.6-0.5,0.9-1.2,1.2c-0.6,0.3-1.7,2.8-1.7,3c0,0.3,0.3,0.3,0.5,0.3h11
		c2,0,2.2,0,2.7-0.8c1-1.5,1-1.7,1.6-1.7c0.6,0,4.5,2.8,4.5,3.2c0,0.5-1,0.5-2.4,0.5h-17.8c-1,0-1.2,0.3-2.5,2.7
		c-0.3,0.6-2,3.3-2,3.7c0,0.6,0.4,0.6,0.8,0.6H184c0.5,0,0.9,0,1.2-0.3c1.1-0.8,1.2-1,1.6-1c0.4,0,3.1,1.7,3.1,2.3
		c0,0.3-1.4,1.3-1.5,1.7c-0.2,0.4-0.2,7.8-0.2,8.8c0,1.2,0.2,6.8,0.2,8.1c0,0.7,0,2.2-0.9,3.2c-0.9,1-2.4,1.4-2.7,1.4
		c-0.3,0-0.4-0.1-0.8-1c-0.1-0.2-0.7-1-1.4-1.4c-0.3-0.2-2.4-0.6-2.4-1c0-0.2,0.2-0.3,0.3-0.3c0.5,0,2.9,0.1,3.4,0.1
		c1.1,0,1.3-0.2,1.4-1.3c0-0.4,0-3.2,0-3.8c0-0.6,0-1.5-1.3-1.5H172.4z M184.1,35.5c1.3,0,1.3-0.8,1.3-1.3c0-4.6,0-4.6-1.3-4.6
		h-11.5c-1.4,0-1.4,0-1.4,4.6c0,0.5,0,1.3,1.2,1.3H184.1z M184,28.5c1.3,0,1.3-0.3,1.3-3.3c0-0.9,0-1.6-1.3-1.6h-11.6
		c-1.3,0-1.3,0.3-1.3,3.6c0,0.6,0,1.3,1.3,1.3H184z"/>
	<path class="st0" d="M226.5,14.6c0,0.1,0.1,0.3,0.1,0.5c0.2,1.4,0.4,2.8,0.4,4.7c0,2.9-0.7,7-4.5,12.8c-3.5,5.3-5.7,6.4-7.5,6.4
		c-2.9,0-5.5-4.5-5.5-9.8c0-2.3,0.5-6.7,4.8-11.1c5.5-5.7,11.4-5.7,13.9-5.7c4,0,5.8,0.8,7,1.4c4.7,2.3,7.6,7,7.6,12.7
		c0,5.7-3.3,12.6-11,15.4c-3.7,1.3-6.6,1.6-7.2,1.6c-0.2,0-0.4,0-0.4-0.3c0-0.1,0.1-0.2,1.2-0.6c4.5-1.8,14-5.5,14-16.4
		c0-1.7-0.2-12.1-12.1-12.1C226.6,14,226.5,14.3,226.5,14.6z M212.3,28c0,2.8,1.1,6.7,3.8,6.7c1.3,0,2.3-0.5,5.3-5.1
		c2.3-3.5,4.3-8.4,4.3-12.7c0-2.6-0.2-2.8-0.7-2.8C220.8,14.1,212.3,19.7,212.3,28z"/>
	<path class="st0" d="M259,26.1c-0.6,1-1.7,1.4-2.3,1.4c-0.9,0-1.3-0.9-1.3-1.8c0-1,0.3-1.4,1-2.4c1.8-2.6,2.1-5.1,2.4-6.9
		c0-0.1,0-0.3,0.2-0.3c0.3,0,1,3.2,1,4.6C260,23.9,259.6,25.1,259,26.1z M265,40c0,0.7,0.3,3.6,0.3,4.2c0,0.7,0,2.5-2.4,2.5
		c-1.2,0-1.3-0.7-1.3-1.4c0-0.6,0.2-3.1,0.2-3.6c0.2-5,0.2-10.5,0.2-14.5c0-3.7,0-14.6-0.4-17.3c0-0.4-0.5-2.1-0.5-2.4
		c0-0.3,0.5-0.3,0.6-0.3c0.5,0,2.2,0.4,3.2,0.7c0.5,0.1,1.3,0.3,1.3,0.9c0,0.4-0.1,0.5-0.8,1c-0.7,0.5-0.7,1-0.7,1.5
		C264.6,19.4,264.6,33.1,265,40z M268.4,21.5c-1.2,0-1.3-1-1.3-2.5c0-1-0.3-2.1-0.8-3.4c0,0-0.1-0.2-0.1-0.3c0,0,0-0.1,0.1-0.1
		c0.5,0,3.8,2,3.8,4.2C270.1,20.7,269.4,21.5,268.4,21.5z M275.1,17.7c-1.3,0-1.7-1.3-2.2-2.9c-0.7-2.3-1.9-4.1-3-5.5
		c0,0-0.2-0.2-0.2-0.2c0-0.1,0-0.1,0.1-0.1c1.4,0,6.8,2.9,6.8,7.1C276.6,16.7,276,17.7,275.1,17.7z M289.1,42.6c1,0,1.4-0.3,1.4-1.4
		c0-3-0.1-15.2-0.4-17.3c0-0.2-0.4-1.4-0.4-1.6c0-0.4,0.4-0.5,0.7-0.5c0.7,0,4,0.3,4,1.2c0,0.3-0.2,0.4-0.7,0.8
		c-0.5,0.3-0.5,0.5-0.5,1.2c0,2.7,0.4,15.9,0.4,18.8c0,1,0,2.4-1.7,2.4c-1.3,0-1.4-0.7-1.5-1.5c-0.2-0.9-0.9-0.9-1.3-0.9h-13.6
		c-1.3,0-1.4,0.4-1.4,1.3c-0.1,1.5-1.7,2-2.1,2c-1.1,0-1.1-1.1-1.1-1.5c0-2,0.1-11.8,0.1-14c0-1.8-0.1-6.6-0.2-7.5
		c0-0.2-0.4-1.4-0.4-1.6c0-0.3,0.2-0.3,0.4-0.3c0.3,0,4.1,1,4.1,1.9c0,0.1,0,0.3-0.2,0.4c-0.6,0.4-0.7,0.5-0.8,0.7
		c-0.1,0.2-0.1,14.6-0.1,15.8c0,1.5,0.1,1.8,1.4,1.8H289.1z M275.3,24.6c0.3,0,2,0.8,3.5,1.8c0.5,0.3,2.5,1.9,2.9,1.9
		c1,0,1.7-4.9,1.7-6.1c0-0.2-0.2-1.1-0.2-1.3c0-0.3,0.3-0.3,0.4-0.3c0.1,0,3.5,0.6,3.5,1.3c0,0.3-0.8,1.2-0.9,1.4
		c-0.1,0.4-0.5,2.4-0.7,2.7c-0.6,2.1-0.7,2.5-1,3.5c-0.1,0.3-0.2,0.6-0.2,0.8c0,0.6,0.3,0.9,1,1.6c1.3,1.3,3.5,4.1,3.5,5.7
		c0,0.7-0.5,1.7-1.4,1.7c-0.8,0-1-0.4-3.4-4.4c-0.2-0.3-0.7-1.3-1.2-1.3c-0.3,0-0.7,0.6-1,1.1c-1.5,2.4-3.3,4.7-5.6,6.3
		c-0.1,0.1-0.3,0.2-0.4,0.3c-0.1,0-0.1-0.1-0.1-0.1s5.1-8.1,5.1-9.8c0-1-2.7-3.8-4.1-5.1c-0.3-0.3-1.7-1.6-1.7-1.7
		C275.2,24.6,275.3,24.6,275.3,24.6z M282.8,16.1c-1,0-1.2-0.5-2.1-3.4c-0.4-1.3-1.4-3.9-2.4-5.1c-0.1-0.1-0.1-0.2-0.1-0.2
		c0-0.1,0.1-0.1,0.1-0.1c0.4,0,6.1,2.7,6.1,7C284.3,14.7,283.8,16.1,282.8,16.1z M284.5,19.9c-0.1,0-0.2,0.2-0.3,0.2c0,0,0,0,0-0.1
		c0.6-0.9,1.5-2.2,1.9-2.7c1.2-1.8,3.3-5.2,3.7-7.8c0.2-1.1,0.2-1.2,0.6-1.2c0.6,0,4.4,2,4.4,2.7c0,0.6-0.3,0.6-1.4,0.8
		c-0.5,0.1-1,0.7-1.3,1C289.3,16,287.3,18.3,284.5,19.9z"/>
	<path class="st0" d="M325.1,13.9c-0.6,0-2.4,1.6-3.1,2.2c-0.6,0.5-2.2,2-3.4,2c-1.6,0-2.8-3.1-2.8-3.2c0-0.3,0.1-0.4,0.3-0.4
		c0.3,0,1.3,0.2,1.5,0.2c1.4,0,1.9-0.1,4.5-1.7c2.1-1.4,3.5-1.4,4.2-1.4c2.9,0,3.5,2,3.5,2.6c0,0.9-0.4,1.4-2.7,3.5
		c-3.1,2.9-6.4,8.7-6.4,8.9c0,0.2,0.3,0.3,0.4,0.3c0.6,0,3,0,3.5,0c2.8,0.2,6,1,8.2,1.7c0.5,0.2,0.6,0.2,0.7,0.2
		c0.6,0,0.8-3.6,0.8-4c0-0.3-0.3-2.3-0.3-2.4c0-0.3,0.3-0.3,0.5-0.3c0.1,0,3.9,0.7,3.9,2.4c0,0.3-0.8,1.4-1,1.7
		c0,0.1-0.6,3.6-0.6,3.7c0,0.6,0.3,0.7,1,1.1c1.7,0.9,5.7,3,5.7,5.2c0,1.2-1.1,1.7-1.6,1.7c-0.9,0-1.4-0.3-4.4-3
		c-0.1,0-1.4-1.1-1.8-1.1c-0.3,0-0.5,0.3-0.6,0.5c-1.3,2.3-3.3,5.3-8.5,8.1c-2.4,1.3-4.4,1.7-4.7,1.7c0,0-0.3,0-0.3-0.1
		c0,0,0.7-0.6,0.8-0.6c4.3-3,6.5-4.7,9-8.6c0.7-1,1.3-2,1.3-2.5c0-0.4,0-0.6-2.4-1.8c-2.9-1.4-5.7-2-8-2c-2.7,0-2.8,0.2-3.5,1.7
		c-3.8,8-4.5,9.6-7.2,9.6c-2.2,0-2.9-2.4-2.9-3.5c0-3.7,3.9-7,8.5-8.6c0.5-0.2,0.7-0.2,1.1-0.9c1-1.6,6.5-9.9,6.7-10.3
		c0.2-0.4,0.6-1.6,0.6-2C325.6,14.2,325.5,13.9,325.1,13.9z M310.5,34.9c0,0.7,0.3,1.3,1.1,1.3c2.4,0,5.2-6.4,5.2-6.6
		c0-0.1,0-0.2-0.2-0.2C315.1,29.4,310.5,32.3,310.5,34.9z"/>
	<path class="st1" d="M363.2,43.6c-0.7,0-1.7-0.5-2.2-1.1c-0.6-0.9-0.6-1.4-0.6-3.5c0-3.9,0-6.1-3.4-7.6c-0.2-0.1-1.4-0.2-1.4-0.4
		s0.2-0.2,0.3-0.2c4.6,0,5.2-1,10.9-12.4c0.3-0.6,1.5-3,1.7-3c0.1,0,0.1,0,0.1,0.1c0,2.4-5.2,14.6-5.2,17c0,1.4,1.9,7.2,1.9,8.4
		C365.4,42.2,364.5,43.6,363.2,43.6z M363.8,15.7c-1.3,0-1.7-1.1-2.2-2.3c-0.3-0.7-1.4-3.5-3.5-5.8c-0.1-0.1-0.6-0.5-0.6-0.6
		c0-0.1,0-0.1,0.1-0.1c0.2,0,8.6,2.1,8.6,6C366.2,13.2,365.9,15.7,363.8,15.7z M387.3,5.4c-0.2,0.1-0.4,0.3-0.4,0.7
		c0,1.1,5.6,9.2,15.2,12.5c1,0.3,1.1,0.4,1.1,0.5c0,0.2-0.1,0.3-0.8,0.5s-1.7,0.5-2.8,1.4c-0.2,0.2-1.3,1.5-1.6,1.5
		c-0.7,0-8.5-7.1-11.9-15.2c-0.1-0.4-0.2-0.5-0.6-0.5s-0.5,0.2-0.7,0.4c-4.3,6.2-9.1,11.8-15.1,15.8c-0.6,0.4-2.5,1.6-3,1.6
		c-0.1,0-0.1,0-0.1-0.1c0-0.1,2.5-2.6,3-3.1c1.7-1.9,12.4-14.3,12.6-18.9c0.1-0.7,0.1-1,0.3-1c0.1,0,0.3,0,0.4,0.1
		c0.5,0.2,2.9,1.6,3.4,1.9c1,0.5,1.2,0.6,1.2,1C387.6,5.1,387.5,5.2,387.3,5.4z M385.3,26.5c-1.2,0-1.5,0.6-1.5,1.3
		c0,2.6,0.2,14.7,0.2,16.6c0,1.5,0,3.3-2.9,3.3c-1.2,0-1.4-0.7-1.4-1.5c0-0.3,0.5-10.1,0.5-12.1c0-0.9,0-6.6-0.1-6.9
		c-0.2-0.5-0.7-0.8-1.3-0.8c-1.2,0-2.7,0-3.9,0.1c-0.2,0-1.2,0.1-1.4,0.1c-0.2,0-0.3-0.1-0.4-0.3l-1-1.1c-0.1-0.2-0.2-0.2-0.2-0.3
		c0,0,0-0.1,0.2-0.1c0.3,0,1.9,0.1,2.2,0.1c2.3,0.1,4.5,0.2,6.8,0.2h9.9c1,0,1.4-0.5,1.6-0.7c0.3-0.6,0.5-1.1,0.8-1.1
		c0.3,0,0.5,0.1,2.9,1.8c1.1,0.7,1.2,0.8,1.2,1.3c0,0.3-0.3,0.6-0.9,1c-0.5,0.4-0.5,0.7-0.5,1c0,0.9,0.1,7.4,0.1,8.8
		c0,1.5,0,5-4.3,5c-1.1,0-1.2,0-2.4-1.8c-0.7-1.1-1.2-1.3-2.2-1.7c-0.6-0.2-0.6-0.2-0.6-0.4c0-0.2,0.7-0.2,1.1-0.2h3.8
		c0.9,0,0.9-0.4,0.9-0.9c0-2.5,0-7.2-0.1-9.4c0-1.4-0.8-1.4-1.3-1.4H385.3z M384.1,19.2c-1.3,0-2.8,0-4.1,0.1c-0.1,0-0.9,0.1-1,0.1
		c-0.1,0-0.2-0.1-0.4-0.3l-0.9-1.1c-0.2-0.2-0.2-0.2-0.2-0.3c0-0.1,0.1-0.1,0.1-0.1c0.9,0,4.8,0.3,5.6,0.3c2.5,0,2.7,0,3.4-1
		c1-1.6,1.3-1.8,1.6-1.8c0.7,0,3.5,2.5,3.5,3.4c0,0.7-0.9,0.7-2.6,0.7H384.1z"/>
	<path class="st1" d="M431.9,16.4c0.7-0.2,1.4-0.3,2.1-0.3c2,0,3.5,1.2,3.5,2.7c0,1.8-1.9,3.5-5.8,7.1c-0.5,0.5-3.7,3.4-3.7,3.8
		c0,0.2,0.2,0.3,0.5,0.3c0.1,0,0.9-0.1,1.1-0.1c1.8,0,3.6,1.6,3.6,3.6c0,0.5-0.3,2.7-0.3,3.2c0,0.5,0.1,2.8,2.9,2.8
		c1.4,0,7.5-1.3,8.8-1.3c1.3,0,2.6,0.7,2.6,1.9c0,2.7-4.1,3.1-9.5,3.1c-5.9,0-6.8-3.1-6.8-6.6c-0.1-4-0.1-4.5-1.6-4.5
		c-1,0-4.3,0.9-7,6c-1.4,2.5-2.2,4-3.9,4c-1.2,0-1.8-1.1-1.8-1.8c0-1.3,0-1.9,8.2-10.8c4.3-4.7,8.2-9,8.2-10.4
		c0-0.5-0.3-0.8-0.8-0.8c-0.7,0-2.1,1-2.8,1.6c-1.1,0.9-2.6,1.9-4,1.9c-2.9,0-4.3-3.6-4.3-4.1c0-0.2,0.1-0.4,0.3-0.4
		c0.1,0,1.3,0.3,1.4,0.3c0.7,0.2,1.4,0.4,2.4,0.4C426.9,18.3,427.4,18.1,431.9,16.4z M426.7,4.8c0.7,0.2,4.2,0.8,4.9,1
		c1.6,0.4,3.1,1.6,3.1,2.9c0,0.4-0.3,1.4-1.4,1.4c-3.5,0-3.6,0-4.8,0.4c-0.3,0.1-1.7,0.9-2,0.9c-0.1,0-0.2-0.1-0.2-0.2
		c0-0.3,2.2-2.6,2.2-3.2c0-0.3-0.8-0.8-1.8-1.5c-1.5-1-1.7-1.6-1.7-1.9c0-0.1,0.1-0.2,0.2-0.2C425.4,4.3,426.5,4.7,426.7,4.8z"/>
	<path class="st0" d="M462.1,30.4c0-1.3,1.2-2.7,4.2-6.2c2-2.3,3.7-5.9,3.7-6.5c0-0.3-0.3-0.3-0.5-0.3c-0.4,0-2.2,0.3-2.6,0.3
		c-1.7,0-3.9-2.1-3.9-3.8c0-0.1,0-0.3,0.3-0.3c0.3,0,1.4,0.7,1.7,0.8c0.5,0.3,1.7,0.8,2.9,0.8c3.6,0,3.6-1.2,3.6-2
		c0-0.3,0-1-0.3-1.5c-0.1-0.2-1-1-1-1.3c0-0.3,1.1-0.7,1.9-0.7c1,0,2.1,0.4,2.2,1.4c0,0.6,0.2,0.7,2,0.8c0.3,0,2,0.2,2,1.1
		c0,1.4-3.2,2.7-5.2,3.4c-0.7,0.3-0.7,0.3-1.7,2.6c-1,2.4-1.2,2.7-2.4,4.7c-0.2,0.4-0.3,0.5-0.3,0.7c0,0.1,0,0.2,0.2,0.2
		s1-0.3,1.4-0.5c0.5-0.2,1-0.3,1.7-0.3c0.6,0,2.6,0.1,3.7,2.7c0.3,0.7,0.3,0.8,0.4,0.8c0.1,0,1.6-2,1.8-2.4c1.4-2,4.3-6,8.1-6
		c2.4,0,4.1,2.1,4.1,3.9c0,2.1-3.4,3.5-6.1,4.7c-1.1,0.5-6,2.4-6.8,2.9c-0.7,0.4-0.7,0.9-0.7,1.8c0,0.4,0.1,2.2,0.1,2.6
		c0,0.7,0,3.2-1.6,3.2c-1.2,0-1.4-1.4-1.4-2.2c0-0.4,0.1-2.5,0.1-2.6c0-0.2,0-0.5-0.3-0.5c-0.3,0-4.2,2.7-4.2,5.2c0,3,4.4,3,5.6,3
		c1.1,0,1.9-0.1,2.8-0.3c0.6-0.1,3.4-0.8,4-0.8c0.9,0,2.1,0.4,2.1,1.5c0,2.7-6.8,2.9-7.8,2.9c-5.5,0-8.5-2.3-8.5-5.7
		c0-2.8,1.7-4.2,5.8-7.5c0.4-0.3,0.7-0.9,0.7-1.5c0-2-0.3-4.4-2.1-4.4c-1.7,0-4.2,2-5.4,4.6c-0.5,1.1-1,2.1-2.4,2.1
		C462.9,31.8,462.1,31.5,462.1,30.4z M473.2,13.9c0.1,0,2.2-0.6,2.2-1c0-0.6-1.1-0.7-1.5-0.7c-0.6,0-0.8,1.2-0.8,1.4
		C473.1,13.7,473.1,13.9,473.2,13.9z M477.2,28c0,0.1,0,0.2,0.2,0.2s8.7-3.5,8.7-6.4c0-1.1-1-1.3-1.5-1.3
		C480.9,20.5,477.2,27.3,477.2,28z"/>
</g>
<g>
	<path class="st2" d="M2.6,80.4c-0.2-0.2-0.2-0.2-0.2-0.3c0-0.1,0.1-0.1,0.1-0.1c0.9,0,5.3,0.3,6.4,0.3c1,0,1.1-0.1,1.6-0.7
		c0.3-0.3,1.2-1.5,1.4-1.5c0.2,0,3.4,2.3,3.4,2.8c0,0.3-0.2,0.4-1.7,1.5c-0.7,0.4-0.8,0.7-0.8,1.5c0,1.5,0.1,9.6,0.6,10.7
		c2.3,5,8.8,5.5,16.4,5.5c5.6,0,11.5-0.4,17-2c0.1,0,1.4-0.4,1.4-0.2c0,0.1-1.4,1.4-1.6,1.8c-0.7,1.1-1.1,2.1-1.5,3.2
		c-0.2,0.6-0.5,0.6-2.3,0.6c-0.2,0-6.9,0.1-8.2,0.1c-15.9,0-19.2-2.4-21.8-7c-0.4-0.7-0.7-1.2-1-1.2c-0.1,0-4.3,4.9-4.9,5.7
		c-0.3,0.4-1.7,2.6-2.1,2.6c-0.6,0-2.9-3.9-2.9-4.2c0-0.3,0.4-0.4,0.5-0.4c1-0.1,1.2-0.1,1.6-0.3C9.8,96,9.8,94.7,9.8,93
		c0-3.3-0.1-6.6-0.2-9.9c-0.1-0.9-0.1-1.5-1.3-1.5c-0.6,0-3.9,0.2-4.3,0.2c-0.1,0-0.2-0.1-0.4-0.3L2.6,80.4z M12.6,68.4
		c0,1.4-1,1.9-1.6,1.9c-0.7,0-0.9-0.3-2.7-3.1c-0.9-1.5-3.3-4.6-4.2-5.3c-0.1-0.1-0.7-0.6-0.6-0.8C3.6,60.9,12.6,63.8,12.6,68.4z
		 M38.9,71.2c2.2,0,2.5,0,3.2-0.8c1.4-1.7,1.5-1.9,2-1.9c0.9,0,3.9,3.1,3.9,3.4c0,0.7-0.9,0.7-2.6,0.7h-23c-4.4,0-5.8,0.1-6.3,0.1
		c-0.2,0-0.9,0.1-1.1,0.1c-0.1,0-0.2-0.1-0.4-0.3l-1-1.1c-0.2-0.2-0.2-0.2-0.2-0.3c0-0.1,0.1-0.1,0.1-0.1c0.3,0,1.9,0.1,2.2,0.1
		c2.4,0.1,4.5,0.2,6.8,0.2h3.8c1,0,1.5-0.3,1.5-1.7c0-2.3,0-2.8-1.4-2.8h-1.3c-4.4,0-5.8,0.1-6.3,0.1c-0.1,0-0.9,0.1-1,0.1
		c-0.1,0-0.3-0.1-0.4-0.3l-0.9-1.1c-0.2-0.2-0.2-0.2-0.2-0.3s0-0.1,0.1-0.1c0.3,0,1.9,0.1,2.2,0.1c2.4,0.1,4.5,0.2,6.9,0.2h1
		c0.4,0,1.3,0,1.3-1.4c0-0.5-0.1-2-0.2-2.5c0-0.1-0.3-0.8-0.3-0.9c0-0.3,0.5-0.3,0.7-0.3c0.3,0,3.3,0.4,3.6,0.5
		c0.3,0,0.5,0.4,0.5,0.6c0,0.4-0.2,0.5-0.7,0.9c-0.5,0.3-0.5,1.4-0.5,1.7c0,0.7,0,1.5,1.3,1.5h2.3c2.5,0,2.7,0,3.2-1.4
		c0.1-0.2,0.6-1.5,1.2-1.5c0.5,0,3.9,2.5,3.9,3.6c0,0.7-0.9,0.7-2.7,0.7h-8c-0.9,0-1.4,0.3-1.4,1.4c0,2.3,0,3.1,1.4,3.1H38.9z
		 M32.3,83.4c-1,0-1.3,0.6-1.3,0.9c0,0.2,0,0.3,0.2,0.5c0.1,0,0.4,0.5,0.4,0.6c0,0.1-0.5,0.6-0.6,0.7c-0.2,0.3-0.2,2-0.2,2.5
		c0,1.1,0.1,6.4,0.1,7.6c0,1.4-1.1,2.2-2.4,2.2c-1,0-1-0.3-1-2.7v-6.7c0-0.1,0-0.7-0.4-0.7c-0.2,0-0.5,0.2-0.6,0.4
		c-1.8,1.8-2,2-4.4,3.6c-3.2,2.2-6.1,3.2-6.4,3.2c-0.1,0-0.1-0.1-0.1-0.1c0-0.4,1.9-1.5,2.2-1.8c6.7-5.5,9.3-9.4,9.3-9.9
		c0-0.4-0.3-0.4-0.6-0.4h-2.8c-0.9,0-1.4,0-1.7,0.6c-0.3,0.8-0.6,1.4-2,1.4c-1.1,0-1.1-0.2-1.1-2.8c0-0.2-0.1-4.9-0.1-5.1
		c0-0.3-0.2-1.6-0.2-2s0.2-0.3,0.5-0.3c0.3,0,2.2,0.8,2.5,0.9c0.8,0.2,1.3,0.4,2,0.4h11.9c0.8,0,1.2-0.1,1.4-0.4
		c0.7-0.9,0.7-1,1.1-1c0.3,0,2.8,1.5,2.8,2.2c0,0.3-0.2,0.5-0.5,0.7c-0.2,0.1-0.5,0.3-0.5,0.6c0,0.2,0.3,3.3,0.3,3.5
		c0,0.7-0.6,2.1-2,2.1c-0.6,0-0.8-0.1-1.6-0.6c-0.2-0.1-0.3-0.1-1.1-0.1H32.3z M35,82.1c1.7,0,1.7-0.5,1.7-2.9
		c0-1.3-0.8-1.5-1.7-1.5H23.5c-1.7,0-1.7,0.5-1.7,2.9c0,1.3,0.8,1.5,1.7,1.5H35z M36.7,90.6c0.2,0,0.8,0.2,0.9,0.2
		c2.4,0.7,6.1,2.1,6.1,5.1c0,1.2-0.8,1.8-1.5,1.8c-0.6,0-0.8-0.1-2.3-1.7c-1.6-1.7-2.7-2.8-5-4.3c-0.4-0.3-3.1-1.6-3.1-1.7
		c0-0.1,0.4-0.1,0.5-0.1c0.3,0,2.1,0.2,2.3,0.2c1.3,0,2.9-3.2,3.5-4.7c0.3-0.9,0.5-1.2,0.7-1.2c0.4,0,3.1,1.9,3.1,2.6
		c0,0.3-0.2,0.3-1.9,1c-2.8,1.1-3.8,2.2-3.8,2.4C36.4,90.4,36.5,90.5,36.7,90.6z"/>
	<path class="st2" d="M70,92.3c-2.7,4.1-4.7,5.8-7.5,7.5c-0.1,0.1-0.8,0.5-0.9,0.5c0,0-0.1-0.1-0.1-0.1s1.2-1.4,1.4-1.7
		c3-3.9,5.5-8.5,5.7-12.9c0-0.9,0-1.3,0.5-1.3c0.1,0,3.5,1.4,4.1,1.7c0.5,0.2,0.8,0.3,0.8,0.7c0,0.4-1.5,1.5-1.7,1.7
		C72.2,88.6,70.4,91.8,70,92.3z M97.5,79.9c1.5,0,2.1,0,2.6-0.5c0.4-0.4,1.7-3,2.3-3c0.3,0,5,3.3,5,4.1c0,0.7-0.9,0.7-2.7,0.7H93.9
		c-0.4,0-0.9,0-1.2,0.3c-0.3,0.3-0.3,0.6-0.3,3.6c0,2.3,0.3,12.8,0.3,15c0,1.7,0,2.9-2,4.6c-1.1,0.9-2,0.9-2.4,0.9
		c-0.5,0-0.7-0.2-1.4-1c-0.9-1-1.2-1.3-4.6-3c-0.5-0.3-0.6-0.3-0.6-0.4c0-0.2,0.2-0.2,0.3-0.2c0.5,0,3.1,0.2,3.6,0.2
		c0.6,0,2.1,0,2.6-0.2c0.6-0.3,0.6-0.9,0.6-6.2c0-3.8-0.1-12.2-0.3-12.9c-0.2-0.6-0.9-0.6-1.3-0.6h-3c-1.2,0-1.4,0.5-1.5,1.4
		c-0.4,13.1-4,19.6-14.2,23c-0.4,0.1-2.3,0.7-2.5,0.7c-0.1,0-0.2-0.1-0.2-0.2c0.6-0.3,1.4-0.7,1.7-0.9c10-5.7,11.5-13.3,11.5-21.8
		c0-1.5,0-2.1-1.4-2.1h-6.2c-4.4,0-5.8,0.1-6.3,0.1c-0.1,0-0.9,0.1-1,0.1c-0.1,0-0.3-0.1-0.4-0.3L62.5,80c-0.2-0.2-0.2-0.2-0.2-0.3
		c0-0.1,0.1-0.1,0.1-0.1c0.3,0,1.9,0.1,2.2,0.1c2.4,0.1,4.5,0.2,6.9,0.2h9.9c1.5,0,1.5-0.5,1.5-4.7c0-4.3,0-4.3-0.1-4.6
		C82.5,70,82,70,81.5,70h-6.1c-4.4,0-5.8,0.1-6.3,0.1c-0.1,0-0.9,0.1-1,0.1c-0.1,0-0.3-0.1-0.4-0.3l-0.9-1.1
		c-0.1-0.1-0.2-0.2-0.2-0.3c0-0.1,0.1-0.1,0.1-0.1c0.3,0,1.9,0.2,2.2,0.2c2.4,0.1,4.5,0.1,6.9,0.1h5.8c0.4,0,1.3,0,1.3-1.2
		c0-1.8,0-3.5-0.2-5.1c-0.1-0.2-0.5-1.4-0.5-1.6c0-0.3,0.3-0.4,0.5-0.4c0.4,0,5.5,0.6,5.5,1.8c0,0.5-0.3,0.6-1.1,1.2
		c-0.4,0.3-0.4,0.5-0.4,2.9c0,2.1,0,2.5,1.5,2.5h3.3c1.2,0,2.2,0,2.9-0.5c0.4-0.3,1.7-2.6,2.2-2.6c0.3,0,4.9,3,4.9,3.8
		c0,0.7-0.9,0.7-2.6,0.7H88.2c-0.4,0-1.1,0-1.4,0.6c-0.1,0.4-0.1,6.6-0.1,7.2c0,1,0,2,1.4,2H97.5z M105,98.6c-1.1,0-1.3-0.4-2-2.5
		c-2.4-6.7-5-8.7-6-9.4c-0.1-0.1-0.9-0.6-0.9-0.7c0-0.1,0.1-0.1,0.1-0.1c0.2,0,1.2,0.3,1.4,0.3c5.2,1.7,9.5,6,9.5,9.1
		C107.2,96.5,106.7,98.6,105,98.6z"/>
	<path class="st2" d="M139.1,72c0.8,0,1.4,0,2-0.7c0.8-1,0.9-1.1,1.3-1.1c0.5,0,2.7,1.4,2.9,1.4c0.1,0,0.3-0.1,0.3-0.3
		c0-0.1-0.2-0.7-0.2-0.9c0-0.1,0.1-0.2,0.2-0.2c0.3,0,0.4,0.1,1.3,1.5c2.2,3.3,4.5,6,5.1,6c0.3,0,0.3-0.7,0.3-1.1
		c0-2.2-0.1-13.1-0.1-15.6c0-0.4,0-0.5,0.3-0.5c0.3,0,3.1,0.9,3.7,1.1c0.8,0.3,1.4,0.4,1.4,1.1c0,0.5-0.2,0.7-1,1.4
		c-0.6,0.5-0.6,2-0.6,3.5c0,1.7-0.1,10.2-0.1,12.1c0,1.3,0.2,1.7,1.1,2.3c5.5,4,10.3,5.5,10.6,5.6c0.8,0.2,0.8,0.2,0.8,0.4
		c0,0.1-0.1,0.2-0.4,0.2c-1.5,0-3.4,1.2-4,2.4c-0.2,0.3-0.2,0.5-0.5,0.5c-0.3,0-3.6-2.1-4.7-2.9c-2-1.5-2.3-1.8-2.5-1.8
		c-0.4,0-0.5,0-0.5,3.7c0,1.8,0.1,10.8,0.1,12.8c0,2.9-2.3,3.1-2.7,3.1c-1.4,0-1.4-0.8-1.4-1.2c0-0.2,0.1-1.8,0.1-2.1
		c0.2-7.1,0.4-13.8,0.4-18.1c0-2.3-0.2-2.8-1.2-4.1c-1.6-2-2.4-3.1-3.8-5.3c-0.8-1.5-0.9-1.7-1.2-1.7c-0.1,0-1.2,0.2-1.5,1.7
		c-0.1,0.4-1.9,6.8-5.3,13.3c-6,11.6-15.6,17-17,17c-0.1,0-0.1-0.1-0.1-0.2c0-0.2,0.5-0.6,0.7-0.7c0.5-0.3,3-2.7,3.4-3.2
		c8.5-8.8,14.4-24.3,14.4-27.2c0-0.7-0.5-0.7-1-0.7h-6.2c-1.5,0-1.7,0.2-2.9,2.7c-1.5,3.1-6,9.6-6.9,9.6c-0.2,0-0.3-0.1-0.3-0.2
		c0-0.3,0-0.4,0.8-1.7c4.9-8.8,7.2-19.4,7.2-22.3c0-0.8,0-1.1,0.4-1.1c0.3,0,3.9,1.6,4.7,2c0.1,0,0.7,0.4,0.7,0.9
		c0,0.3-0.2,0.4-0.5,0.6c-0.8,0.4-1,0.8-2.2,4c-0.2,0.5-1.4,2.9-1.4,3.5c0,0.7,0.6,0.7,1,0.7H139.1z M130.2,78.5
		c1,0,5.9,2.4,5.9,5.8c0,1.3-0.9,3.1-2.1,3.1c-0.9,0-1.1-0.6-1.6-2.9c-0.3-1.4-0.9-3-1.5-3.9c-0.2-0.3-1.1-1.4-1.1-1.7
		C129.8,78.5,130,78.5,130.2,78.5z"/>
	<path class="st2" d="M189.5,82.8c1.6,0,3.7,0,4.9,0c1.3,0,1.3-0.2,1.3-0.5c0-0.5-1.1-3.1-1.1-3.2c0-0.1,0.1-0.2,0.3-0.2
		c0.7,0,4.8,3.2,4.8,6.1c0,1.4-0.9,2.1-1.9,2.1c-1.3,0-1.4-1-1.7-2.5c-0.1-0.7-0.1-0.9-0.5-0.9c-0.2,0-2.1,0.4-2.2,0.6
		c-0.2,0.2-0.2,3.5-0.2,4.3c0,2.1,0.2,11.7,0.2,13.6c0,2-1.5,3-2.6,3c-0.8,0-0.9-0.8-0.9-2.1c0-2.2,0.3-12.3,0.3-14.3
		c0-0.7,0-2.9-0.1-3.4c-0.1-0.4-0.2-0.5-0.9-0.5c-0.2,0-3.7,0.5-4.6,0.9c-0.2,0.1-1.2,0.8-1.4,0.8c-0.5,0-1.8-3.9-1.8-4
		c0-0.1,0.1-0.1,0.2-0.1c0.2,0,1.8,0.2,2.2,0.2c0.2,0,2,0.1,2.5,0.1c1.2,0,1.4-0.3,3.1-3.6c1.8-3.4,4.4-8.4,5.1-10.5
		c0.4-1.2,0.5-1.4,0.8-1.4c0.1,0,4.2,1.9,4.2,2.6c0,0.4-0.1,0.4-1.2,0.7c-0.6,0.2-1.1,0.6-1.5,1c-2.1,2.8-5.1,7.6-7.4,10.3
		c-0.2,0.2-0.3,0.5-0.2,0.7C189,82.8,189.3,82.8,189.5,82.8z M188.4,91.1c0,0.3-1.1,1.4-1.2,1.7c-1.1,2-2.5,5.5-3.8,7.5
		c-0.1,0.1-1.2,1.8-1.7,1.8c-0.1,0-0.2-0.1-0.2-0.2c0-0.1,1.5-4.6,1.7-5.3c1-3.9,1-6.2,1-6.6c0-0.9,0-1,0.3-1s1.5,0.5,1.9,0.7
		C187.7,90.2,188.4,90.6,188.4,91.1z M188.3,72.1c1.5,1.1,1.9,2.3,1.9,3.1c0,1.2-0.9,1.6-1.5,1.6c-0.3,0-0.6-0.1-1.1-0.5
		c-0.4-0.4-2.2-2.9-2.6-3.4c-0.4-0.4-2.7-2.5-2.7-2.6c0-0.2,0.2-0.2,0.4-0.2c0.5,0,2.8,0.8,3.4,0.8c0.3,0,0.4-0.2,1.1-1.8
		c0.6-1.4,2-4.8,2-8.3c0-0.2,0-0.5,0.3-0.5c0,0,4.6,1.5,4.6,2.5c0,0.1,0,0.4-0.2,0.5c-0.2,0.1-1.3,0.6-1.5,0.8
		c-0.6,0.5-2.8,3.9-3.3,4.6c-0.4,0.5-1.7,2.2-1.6,2.7C187.5,71.5,188.2,72,188.3,72.1z M197,88.1c-0.2-0.2-0.2-0.2-0.2-0.3
		c0-0.1,0.1-0.1,0.1-0.1c0.9,0,5.5,0.3,6.5,0.3c0.8,0,1.1-0.3,1.4-0.7c0.5-0.7,0.7-1,1.2-1c0.8,0,3.2,1.4,3.2,2.4
		c0,0.3-0.2,0.5-0.5,0.6c-1,0.4-1,0.4-1.4,1c-2.1,4.1-3.2,6.2-5.4,8.7c-3.5,3.9-8,5.8-8.2,5.8c0,0-0.1,0-0.1-0.1
		c0-0.1,0.1-0.2,0.3-0.4c3.7-3.7,4.1-4.1,5.1-5.3c3.8-4.7,5-9.1,5-9.2c0-0.4-0.2-0.4-1.6-0.4c-0.6,0-3.7,0.2-4.1,0.2
		c-0.1,0-0.2-0.1-0.4-0.3L197,88.1z M199.7,95.7c0,1.7-1.2,2.1-1.7,2.1c-1.1,0-1.2-1.3-1.4-3.4c-0.1-0.6-0.4-1.7-1.3-3.7
		c0-0.2-0.2-0.4-0.2-0.5c0-0.1,0.1-0.2,0.2-0.2c0.3,0,1.6,1,2.1,1.6C197.9,92,199.7,93.7,199.7,95.7z M205.3,82.1
		c-0.6,0-1,0-1.4,0.5c-0.5,0.7-1.1,1.4-2.1,1.4c-1.1,0-1.1-0.7-1.1-2.1c0-1.4,0.2-8.6,0.2-10.2c0-0.8-0.1-4.9-0.1-5.8
		c0-0.2,0-0.3,0.3-0.3c0.5,0,2.8,1.6,3.4,1.6c1,0,4-5.5,4.1-6.5c0.1-0.3,0.1-0.7,0.4-0.7c0.1,0,2.5,1.2,2.9,1.4
		c0.7,0.3,1.4,0.7,1.4,1.1c0,0.3-2,0.9-2.4,1.1c-1.6,1.1-3.7,3-3.7,3.4c0,0.3,0.1,0.3,0.9,0.3h9.6c1,0,1.4,0,1.8-0.7
		c1.1-1.7,1.2-1.9,1.7-1.9c0.6,0,3.4,1.8,3.4,2.9c0,0.3-0.2,0.7-0.6,1c-0.7,0.6-0.9,0.8-0.9,1.6c0,0.7,0.1,4.5,0.1,5.3
		c0,0.9,0.3,5.5,0.3,5.9c0,2.2-2.4,2.4-2.6,2.4c-0.7,0-0.8-0.2-1.1-1.2c-0.1-0.6-0.8-0.6-1.1-0.6H213c-0.2,0-0.4,0-0.4,0.2
		c0,0.2,0.1,0.2,0.9,0.6c0.4,0.1,1.4,0.5,1.4,1.1c0,0.4-0.1,0.4-0.9,1c-0.1,0.1-0.3,0.3-0.3,0.6c0,0.3,1.5,3.2,1.8,3.8
		c0.4,0.7,1,2,1.6,2c1.2,0,4.6-3.6,5.7-4.8c0.1-0.1,0.5-0.6,0.6-0.6c0.2,0,3.5,2.9,3.5,3.5c0,0.2-0.1,0.2-0.3,0.2
		c-0.2,0.1-1.1,0-1.3,0c-1.4,0-2.5,0.5-6.8,2.4c-0.9,0.4-0.9,0.4-0.9,0.7c0,0.5,3.4,5.7,8.7,8.8c1.6,0.9,1.8,1,1.8,1.2
		c0,0.1-0.1,0.1-0.8,0.2c-0.7,0.1-1.8,0.2-2.8,0.5c-0.2,0.1-1.2,0.7-1.5,0.7c-0.4,0-5.6-6-8.4-12.7c-0.2-0.4-1.1-3.1-1.2-3.1
		c-0.1,0-0.1,1.4-0.1,1.7c0,0.5,0.1,8.3,0.1,9.2c0,3,0,4.1-1.1,5c-1,0.7-2.7,1.3-3.9,1.3c-0.3,0-0.4-0.1-0.5-0.3
		c-0.4-0.8-0.5-1.1-1-1.7c-0.3-0.3-1.9-1.6-1.9-1.7c0-0.1,0.1-0.1,1.4-0.1c3.7,0,3.9-0.5,3.9-4.1c0-2.3,0-12.8-0.2-14.2
		c-0.2-1.2-0.7-1.4-1.7-1.4H205.3z M205.4,68.6c-0.6,0-1.3,0.1-1.5,1v2.8c0,1.3,0.9,1.3,1.5,1.3h13c1.5,0,1.5-0.2,1.5-3.8
		c0-1.3-1-1.3-1.5-1.3H205.4z M205.4,75.1c-0.5,0-1.5,0.1-1.5,1.4c0,4.2,0,4.3,1.5,4.3h13.2c0.4,0,1.4-0.1,1.4-1.3
		c0-4.2,0-4.4-1.4-4.4H205.4z"/>
	<path class="st0" d="M243.2,76.2c1.8,0,2.5-0.2,8.5-1.9c3.9-1.1,13.9-3.9,16.7-3.9c1.6,0,3.5,0.6,3.5,2.1c0,1.1-1.1,1.6-1.8,1.6
		c-0.6,0-3.1-0.5-3.5-0.5c-5.5,0-11.7,5.1-11.7,16.4c0,7.3,2.7,7.8,5.3,7.8c0.7,0,3.8-0.3,4.1-0.3c1.4,0,2.1,0.6,2.1,1.6
		c0,2.3-4.8,2.3-5.1,2.3c-8.9,0-8.9-7.3-8.9-9.3c0-1.9,0-11.2,6.3-16.8c0.2-0.1,1.1-0.8,1.1-0.9c0-0.1-0.2-0.1-0.3-0.1
		c-2.5,0-11.6,3.8-13,4.7c-0.6,0.3-1,0.6-1.5,0.6c-2.2,0-4.3-2.9-3.7-3.5C241.7,75.8,243,76.2,243.2,76.2z M271.1,85.9
		c0,1-0.8,1.8-1.5,1.8c-0.8,0-1.2-0.8-1.9-2.5c-0.5-1.2-0.8-1.6-2.2-3.4c-0.1-0.2-0.4-0.6-0.4-0.8c0-0.2,0.5-0.3,0.9-0.2
		C269.7,81.8,271.1,84.5,271.1,85.9z M276.4,83.8c0,1.1-0.7,1.6-1.3,1.6c-1,0-1.5-1.3-2-2.3c-0.4-1-1.7-2.5-2.9-3.5
		c-0.2-0.2-0.4-0.3-0.4-0.6c0-0.3,0.5-0.3,0.6-0.3c0.3,0,0.8,0.1,1.1,0.2C274.2,79.8,276.4,81.7,276.4,83.8z"/>
	<path class="st0" d="M299.6,70.9c0.8,0,1.1,0,1.7-0.7c0.6-0.7,0.8-1,1.1-1c0.2,0,3,0.8,3,1.7c0,0.4-0.3,0.6-1,0.9
		c-1.8,0.9-4.3,5-4.3,5.1c0,0.3,0.1,0.3,1.2,0.3c0.5,0,0.9,0,1.4-0.6c0.8-1,1-1.2,1.4-1.2c0.6,0,2.2,1.7,2.2,2.4
		c0,0.3-0.9,1.3-1,1.6c-0.1,0.7-0.2,5.1-0.2,6.2c0,2.7,0.3,14.4,0.3,16.7c0,1.7-1.8,2.6-2.5,2.6c-0.6,0-0.7-0.2-1.3-0.9
		c-0.4-0.5-1.7-1.4-2.5-1.7c-0.1,0-0.5-0.1-0.5-0.4c0-0.2,0.3-0.3,1.2-0.3c2.5,0,2.5,0,2.7-0.6c0.1-0.6,0.2-4.8,0.2-6.1
		c0-2.4,0-2.8-1.4-2.8h-6.2c-1.2,0-1.2,0-1.5,2.5c-0.7,5-1.8,7.1-4.1,9.9c-0.3,0.5-0.5,0.7-0.8,0.7c-0.1,0-0.2,0-0.2-0.1
		c0-0.2,0.4-0.8,0.4-1c2.2-5.6,2.4-12.6,2.4-15.3c0-3.5-0.1-6.6-0.3-10.2c0-0.2,0-0.5-0.3-0.5c-0.2,0-2.1,2.3-2.7,2.3
		c-0.2,0-0.2-0.1-0.2-0.2c0-0.3,1.6-2.4,1.9-2.9c0.3-0.6,3.9-6.6,4.8-10.7c0.1-0.7,0.2-1,0.4-1c0.1,0,3.5,1.1,3.5,1.8
		c0,0.3-1,1.3-1.1,1.5c-0.4,0.6-0.8,1.3-0.8,1.6c0,0.4,0.4,0.4,1,0.4H299.6z M296.7,72c-1.1,0-1.5,0.2-2.3,1.2
		c-0.3,0.4-1.8,2.5-1.8,2.7c0,0.2,0.6,1.2,2.1,1.2h2.5c1,0,1.2-0.2,1.6-1c0.3-0.6,1.6-3.3,1.6-3.8c0-0.4-0.4-0.4-0.7-0.4H296.7z
		 M296,90.8c1.1,0,1.1-0.3,1.1-2.8c0-2.7,0-3.1-1.1-3.1h-0.8c-0.4,0-0.9,0.1-1.1,0.7c0,0.3-0.1,3.4-0.1,3.8c0,0.7,0,1.4,1.1,1.4H296
		z M296,83.8c1.1,0,1.1-0.6,1.1-1.7c0-2.7,0-3.1-0.1-3.4c-0.1-0.4-0.6-0.5-1-0.5h-0.7c-1.1,0-1.1,0.3-1.1,3.4c0,1.8,0,2.2,1.1,2.2
		H296z M301.4,83.8c0.3,0,0.9,0,1-0.5c0.1-0.2,0.1-1.6,0.1-2.9c0-2.2-0.1-2.2-1.8-2.2c-1.2,0-1.2,0.5-1.2,1.9c0,2.8,0,3.1,0.3,3.4
		c0.3,0.2,0.6,0.2,0.9,0.2H301.4z M299.6,86.3c0,0.6,0,3.8,0.1,4.1c0.2,0.4,0.6,0.4,1.7,0.4c1.2,0,1.2-0.3,1.2-2.1
		c0-3.7,0-3.8-1.2-3.8C299.9,84.9,299.6,85,299.6,86.3z M310.9,89.5c-1,0-1.3,0.4-1.7,0.8c-0.7,0.9-2.2,2.9-2.8,2.9
		c-0.1,0-0.2-0.1-0.2-0.2c0-0.1,1.8-4.1,2.2-4.9c1.4-3.5,1.4-4.1,1.4-5.5c0-0.3,0.1-0.3,0.2-0.3c0.2,0,3.5,1.4,3.5,2
		c0,0.3-1.2,1.2-1.4,1.4c-0.3,0.3-1.4,2-1.4,2.3c0,0.3,0.3,0.3,0.5,0.3h2.4c1.3,0,1.4-0.5,1.4-1.5c0-0.3,0-2.2-0.2-2.9
		c0-0.2-0.4-1-0.4-1.3c0-0.3,0.3-0.3,0.5-0.3c0.7,0,3.9,0.6,3.9,1.3c0,0.2-0.7,0.9-0.8,1.1c-0.1,0.3-0.2,1.5-0.2,2
		c0,1.2,0,1.6,0.9,1.6c1.2,0,1.5-0.1,2-0.7c0.7-0.9,0.8-1.1,1.3-1.1c0.7,0,2.8,2,2.8,2.5c0,0.5-0.3,0.5-2.4,0.5h-3.2
		c-0.4,0-1,0-1.3,0.5c-0.2,0.3-0.2,0.7-0.2,3.2c0,0.8,0,1.6,1.3,1.6c2.2,0,2.5,0,3.1-0.7c1.1-1.4,1.3-1.5,1.7-1.5
		c0.7,0,2.9,2.3,2.9,2.8c0,0.6-0.2,0.6-2.3,0.6h-5.3c-1.4,0-1.4,0.7-1.4,2c0,0.7,0.2,4.1,0.2,4.4c0,2-1.4,2.7-2.3,2.7
		c-0.9,0-0.9-0.5-0.9-1.3c0-1,0.2-5.5,0.2-6.5c0-0.6,0-1.4-1.3-1.4c-2,0-3.4,0-5.1,0c-0.2,0-1.7,0.2-1.8,0.2s-0.2-0.1-0.4-0.3
		l-0.8-1c0-0.1-0.2-0.2-0.2-0.3c0-0.1,0.1-0.1,0.1-0.1c0.3,0,1.6,0.2,1.9,0.2c1.3,0,3.5,0.1,6,0.2c1.7,0,1.7-0.4,1.7-2
		c0-3,0-3.3-1.3-3.3H310.9z M306.8,68.2c-0.2-0.2-0.2-0.2-0.2-0.3c0-0.1,0.1-0.1,0.2-0.1c0.3,0,1.7,0.1,2,0.2c1.7,0,3.7,0.1,5.3,0.1
		h7.1c0.6,0,0.8,0,1.3-0.5c0.6-0.7,0.7-0.7,0.9-0.7c0.4,0,3.1,0.8,3.1,1.8c0,0.3-1,1.4-1,1.6c0,0.5-0.4,6.2-0.8,7.3
		c-1,2.8-3.5,3.6-4.1,3.6c-0.3,0-0.4,0-1.4-1.4c-0.4-0.6-1.3-1.1-2-1.4c-0.1,0-0.6-0.3-0.6-0.3c0-0.2,0.2-0.2,0.3-0.2
		c0.4,0,2.3,0.1,2.7,0.1c1.6,0,3,0,3-7.4c0-0.7,0-1.4-1.4-1.4H318c-1.1,0-1.2,0.2-1.7,2.1c-0.6,2.4-1.9,6.2-6.4,8.8
		c-0.5,0.3-2.3,1.3-2.7,1.3c-0.2,0-0.2-0.1-0.2-0.2c0-0.1,1.8-1.6,2.1-2c2.4-2.4,4.2-6.4,4.2-9.3c0-0.7-0.5-0.7-0.8-0.7
		c-0.9,0-3,0-3.8,0.1c-0.1,0-0.5,0.1-0.6,0.1c-0.2,0-0.3-0.1-0.4-0.3L306.8,68.2z"/>
	<path class="st0" d="M346.4,79.3c0,1.2-0.7,1.8-1.3,1.8c-0.7,0-1-0.2-2.7-2.3c-0.8-1-2.2-2.2-3.1-2.6c-0.3-0.1-0.2-0.2-0.2-0.3
		C339.2,76,346.4,75.4,346.4,79.3z M340.2,91.6c2.8-0.1,3.2-0.8,4.1-2.4c1-1.9,5.5-12.1,5.8-12.1c0.1,0,0.1,0.2,0.1,0.3
		c0,0.1-1.5,4.9-1.8,5.8c-2,7.5-2.2,8.3-2.2,9.9c0,1.5,0.4,2.7,1.5,5.4c0.2,0.6,0.7,2.2,0.7,3.6c0,2.1-1.4,2.4-2.2,2.4
		c-1.9,0-1.9-1.1-2.1-5.5c-0.2-3-1-5.5-3.3-6.5c-0.2-0.1-1.4-0.5-1.4-0.6C339.2,91.7,339.3,91.7,340.2,91.6z M341.3,66
		c0.6,0,2.7,0.5,3.5,0.7c3.1,0.9,4,2.5,4,3.5c0,1-0.7,2-1.7,2c-0.7,0-0.8-0.2-2-1.9c-1-1.3-2.4-2.9-3.5-3.8
		c-0.3-0.2-0.5-0.3-0.5-0.4C341.1,66.1,341.2,66,341.3,66z M360,75c0,1.1-0.6,1.9-1.4,1.9c-0.9,0-1.1-0.4-3.1-4.3
		c-0.4-0.7-2-3.4-3.4-5.1c-0.1-0.1-0.2-0.3-0.2-0.4C352,66.8,360,70.5,360,75z M359.8,93.6c-1.1,0-1.4,0.5-1.4,1.4
		c0,1.2,0.1,6.4,0.1,7.5c0,2.5-2.4,2.5-2.4,2.5c-0.1,0-1.2,0-1.2-1.2c0-0.6,0.2-2.9,0.2-3.4c0.1-3,0.1-10.7,0.1-12.1
		c0-1.9,0-7.3-0.2-8.7c0-0.2-0.3-1.1-0.3-1.3c0-0.2,0.2-0.3,0.3-0.3c0.1,0,0.8,0,2.3,0.9c0.7,0.4,1,0.6,2,0.6h2.8
		c1.3,0,1.3-0.6,1.3-1.2c0-5.8,0-7.9-0.2-10.9c0-0.3-0.3-1.3-0.3-1.5c0-0.2,0.2-0.3,0.3-0.3c0.3,0,0.6,0,3.2,0.7
		c0.8,0.2,1.2,0.3,1.2,0.7c0,0.3-1.1,1.2-1.1,1.4c-0.1,0.3-0.1,5.6-0.1,6.2c0,5,0,5,1.4,5h4.3c0.4,0,0.7-0.1,1-0.4
		c0.7-0.7,0.7-0.8,0.9-0.8c0.6,0,3.4,2.5,3.4,2.7c0,0.3-1.1,1-1.3,1.2c-0.1,0.3-0.2,3.5-0.2,4v0.1c0,2.1,0.2,11.4,0.3,13.3
		c0,0.3,0,0.5,0,0.6c0,3.6-2,4.6-3.8,4.6c-0.4,0-0.4-0.1-1.2-1.1c-1-1.3-1.9-1.8-2.5-2c-0.2-0.1-1-0.4-1-0.5c0-0.2,0.3-0.2,0.4-0.2
		c0.6,0,3.4,0.1,3.9,0.1c0.6,0,1.2,0,1.2-1.4c0-4.5,0-4.6,0-4.8c-0.1-1.3-0.7-1.3-1.4-1.3H359.8z M359.8,87.3
		c-1.4,0-1.4,0.3-1.4,3.7c0,1.3,0.6,1.4,1.4,1.4H372c1.4,0,1.4-0.3,1.4-3.7c0-1.3-0.6-1.4-1.4-1.4H359.8z M359.7,80.6
		c-1.3,0-1.3,0.1-1.3,4.3c0,1.3,0.8,1.3,1.3,1.3H372c1.3,0,1.3-0.1,1.3-4.3c0-1.3-0.8-1.3-1.3-1.3H359.7z M379,69.5
		c0,0.3-0.2,0.3-1.6,0.7c-0.4,0.1-0.7,0.4-1,0.7c-4.1,4.5-4.8,5.2-7.4,7.1c-0.3,0.2-0.3,0.2-0.4,0.2c0,0-0.1,0-0.1-0.1
		c0,0,4.3-6.6,5-7.9c0.4-0.7,1.1-2,1.5-3.3c0-0.1,0.1-1,0.2-1C375.4,65.8,379,69,379,69.5z"/>
	<path class="st0" d="M400.2,72.6c0,0.4-0.7,2.1-0.8,2.4c-0.6,2.2-1.8,11.9-1.8,15.5c0,4.4,0.8,8.3,6.7,8.3c2.1,0,5.3-0.4,9.2-2.3
		c0.7-0.3,4-2.1,4.1-2.1c0.2,0,0.2,0.1,0.2,0.2c0,0.5-6.5,7.5-14.7,7.5c-5.7,0-8.4-3.3-8.4-12c0-2.7,0.1-3.6,1-12.1
		c0.2-1.4,0.6-5,0.6-6.2c0-0.8-0.1-1.5-0.4-2.1c0-0.1-0.5-1.1-0.5-1.2c0-0.3,0.3-0.4,0.6-0.4C398.3,68.1,400.2,71.6,400.2,72.6z"/>
	<path class="st0" d="M445.8,71c0,0.4-0.6,2-0.7,2.4c-0.2,1.2-0.4,2.7-0.4,3c0,0.6,0,0.7,0.5,0.7c0.4,0,1.1-0.1,1.8-0.3
		c0.4-0.2,2.4-1.1,2.9-1.1c1.1,0,2.7,1.2,2.7,1.9c0,0.7-1,1.7-4.6,1.7c-0.1,0-2.9,0-3,0c-0.3,0.1-0.4,0.3-0.4,1.2
		c0,0.8,0.5,11.7,0.7,12.2c0.2,0.7,0.4,0.8,2.7,1.7c2.7,1.2,5.5,2.4,5.5,3.8c0,1.2-0.9,1.7-1.6,1.7c-0.8,0-2.9-1.4-4-2.1
		c-0.7-0.4-1.8-1.1-2.5-1.1c-0.4,0-0.5,0.1-1.1,1.4c-1.7,3.6-5.5,3.9-6.8,3.9c-4,0-7.5-2.6-7.5-5.1c0-2.8,4.2-4.7,9.2-4.7
		c0.4,0,2,0.1,2.3,0.1c0.7,0,0.9-0.1,0.9-1.1c0-1.1-0.4-8.3-0.4-9.4c0-0.3,0-9.2-0.2-10.8c-0.1-0.8-0.4-1.7-1.2-2.6
		c0,0-0.3-0.3-0.3-0.5c0-0.2,0.3-0.2,0.4-0.2C444.4,67.7,445.8,70.7,445.8,71z M437.8,94.5c-0.4,0-5.7,0-5.7,2.4
		c0,0.8,1.5,2.1,4.6,2.1c4.8,0,5.5-3.2,5.4-3.6C441.9,94.8,439.7,94.5,437.8,94.5z"/>
	<path class="st0" d="M488,85.9c0,13.6-13.9,18.2-15,18.2c0,0-0.1,0-0.1-0.1c0-0.1,1.7-1.3,1.9-1.4c5.9-4.2,10-9.9,10-16.9
		c0-1.4-0.3-6.2-4.4-6.2c-2.5,0-4.9,1.4-5.8,2.6c-1.2,1.4-1.3,1.6-2,1.6c-1.9,0-4-2.7-4-3.3c0-0.2,0.3-0.3,0.4-0.3
		c0.3,0,1.7,0.3,2,0.3c1,0,1.3-0.1,4-1.3c2.4-1,3.6-1.5,5.8-1.5C484.5,77.4,488,80,488,85.9z M477.2,68.4c0.8,0.1,1.5,0.1,2,0.1
		c2.1,0,2.6,0,3.4,0.4c1.8,0.7,2,1.7,2,2.1c0,1.1-1.2,1.4-2,1.4c-0.3,0-1.9-0.2-2.2-0.2c-1.4,0-2.4,0.5-5.3,2.1
		c-0.2,0.1-1.4,0.8-1.4,0.8c-0.1,0-0.2,0-0.2-0.2c0-0.2,3-3.4,3-4.3c0-0.3-0.1-0.3-0.9-0.7c-1.3-0.7-3.1-1.9-3.1-2.1
		c0-0.2,0.3-0.2,0.4-0.2C473.1,67.5,476.5,68.3,477.2,68.4z"/>
</g>
</svg>
