<svg xmlns="http://www.w3.org/2000/svg" viewBox="0 0 18.61 31.62"><defs><style>.cls-1{fill:#77644f;stroke:#77644f;stroke-miterlimit:10;stroke-width:0.25px;}</style></defs><title>アセット 5</title><g id="レイヤー_2" data-name="レイヤー 2"><g id="_1" data-name="1"><path class="cls-1" d="M17.14,11.14,13.31,7.6a.4.4,0,0,1-.12-.27V6.94a.36.36,0,0,1,.35-.36H15V.13H3.65V6.58H5.07a.36.36,0,0,1,.35.36v.39a.36.36,0,0,1-.12.27L1.11,11.49a3.09,3.09,0,0,0-1,2.28V28.69a2.75,2.75,0,0,0,2.71,2.8H15.77a2.76,2.76,0,0,0,2.72-2.8V14.28A4.32,4.32,0,0,0,17.14,11.14ZM11.72,1.49h1.45V5.41H11.72Zm-3.14,0H10V5.41H8.58Zm-3.14,0H6.89V5.41H5.44ZM17,28.69A1.28,1.28,0,0,1,15.77,30H2.84a1.28,1.28,0,0,1-1.26-1.3v-3A.64.64,0,0,1,2.2,25H16.41a.64.64,0,0,1,.62.65Zm0-14.16a.63.63,0,0,1-.62.64H1.93a.35.35,0,0,1-.35-.36v-.53a2.77,2.77,0,0,1,.86-2L6.87,8.19v-1a.64.64,0,0,1,.63-.65h3.62a.64.64,0,0,1,.62.65l0,.91,4.81,4.46a1.59,1.59,0,0,1,.5,1.17Z"/></g></g></svg>