<svg id="_1" data-name="1" xmlns="http://www.w3.org/2000/svg" viewBox="0 0 40 40.13"><defs><style>.cls-1{fill:#77644f;}</style></defs><title>アートボード 7 のコピー 8</title><path class="cls-1" d="M20,8.55c.31,0,.61,0,.93,0l.87,0A.45.45,0,0,0,22.29,8l-.94-4a.46.46,0,0,0-.9,0l-.92,4A.46.46,0,0,0,20,8.55Z"/><path class="cls-1" d="M11.05,12.66a.47.47,0,0,0,.74.07,12,12,0,0,1,1.28-1.29.46.46,0,0,0-.07-.73L9.52,8.56a.46.46,0,0,0-.63.63Z"/><path class="cls-1" d="M30.05,12.69a.45.45,0,0,0,.45.12h0a.4.4,0,0,0,.18-.1l0,0s.05,0,.06-.07l2.15-3.48a.46.46,0,0,0-.63-.63l-3.47,2.16a.46.46,0,0,0-.06.74A11.05,11.05,0,0,1,30.05,12.69Z"/><path class="cls-1" d="M30.82,28.45a.45.45,0,0,0-.73-.06,13.09,13.09,0,0,1-1.29,1.29.46.46,0,0,0,.07.73l3.48,2.15a.46.46,0,0,0,.63-.64Z"/><path class="cls-1" d="M37.49,20.08l-4-.93a.21.21,0,0,1-.08,0h0l-.17,0h0a.46.46,0,0,0-.28.44c0,.31,0,.61,0,.93s0,.59,0,.88a.43.43,0,0,0,.27.43h0a.41.41,0,0,0,.16,0h0a.27.27,0,0,0,.09,0l4-.94A.46.46,0,0,0,37.49,20.08Z"/><path class="cls-1" d="M11.79,28.34a.47.47,0,0,0-.74.06L8.89,31.87a.46.46,0,0,0,.63.64L13,30.36a.46.46,0,0,0,.07-.73A12,12,0,0,1,11.79,28.34Z"/><path class="cls-1" d="M21.81,32.52l-.87,0c-.32,0-.62,0-.93,0a.45.45,0,0,0-.48.56l.92,4a.46.46,0,0,0,.9,0l.94-4A.47.47,0,0,0,21.81,32.52Z"/><path class="cls-1" d="M8.65,21.88a.45.45,0,0,0,.28-.44c0-.31,0-.62,0-.93s0-.59,0-.88a.46.46,0,0,0-.28-.44h0a.47.47,0,0,0-.17,0h0a.27.27,0,0,0-.09,0l-4,.93a.46.46,0,0,0,0,.9l4,.92a.21.21,0,0,0,.08,0h0a.41.41,0,0,0,.16,0Z"/><circle class="cls-1" cx="20.94" cy="20.53" r="9"/></svg>