<svg id="_1" data-name="1" xmlns="http://www.w3.org/2000/svg" viewBox="0 0 40 40.13"><defs><style>.cls-1{fill:#77644f;}</style></defs><title>アートボード 7 のコピー 7</title><path class="cls-1" d="M33.59,22.49a4.14,4.14,0,0,1,0-5.28,9.22,9.22,0,0,1,2.57-2.3,9.11,9.11,0,0,1-3.43-.36A4.38,4.38,0,0,1,30.4,13a4.43,4.43,0,0,1-.78-2.7,9.05,9.05,0,0,1,.72-3.37,9.07,9.07,0,0,1-3,1.72,4.38,4.38,0,0,1-2.81.09A4.34,4.34,0,0,1,22.34,7a8.86,8.86,0,0,1-1.4-3.15A8.87,8.87,0,0,1,19.53,7a4.34,4.34,0,0,1-2.21,1.72,4.35,4.35,0,0,1-2.8-.09,9,9,0,0,1-3-1.72,9.05,9.05,0,0,1,.72,3.37,4.36,4.36,0,0,1-.78,2.7,4.4,4.4,0,0,1-2.32,1.57,9.16,9.16,0,0,1-3.43.36,9.17,9.17,0,0,1,2.56,2.3,4.39,4.39,0,0,1,1,2.64,4.35,4.35,0,0,1-1,2.64A9,9,0,0,1,5.72,24.8a9.16,9.16,0,0,1,3.43.36,4.34,4.34,0,0,1,2.32,1.57,4.36,4.36,0,0,1,.78,2.7,9.05,9.05,0,0,1-.72,3.37,9,9,0,0,1,3-1.73,4.42,4.42,0,0,1,2.8-.09,4.45,4.45,0,0,1,2.21,1.72,9,9,0,0,1,1.41,3.15,9,9,0,0,1,1.4-3.15,4.13,4.13,0,0,1,5-1.63,9.1,9.1,0,0,1,3,1.73,9.05,9.05,0,0,1-.72-3.37,4.43,4.43,0,0,1,.78-2.7,4.33,4.33,0,0,1,2.33-1.57,9.11,9.11,0,0,1,3.43-.36A9.09,9.09,0,0,1,33.59,22.49ZM20.94,27.88a8,8,0,1,1,8-8A8,8,0,0,1,20.94,27.88Z"/></svg>