<svg id="_1" data-name="1" xmlns="http://www.w3.org/2000/svg" viewBox="0 0 40 40.13"><defs><style>.cls-1{fill:#77644f;}</style></defs><title>アートボード 7 のコピー 5</title><path class="cls-1" d="M27.26,6.86c3.33,4.25,5,10,5.92,15l0,.09c.08.45.16.9.23,1.34,0,0,0,.06,0,.09.35,2.22.56,4.22.71,5.72v0h0v0L30,29.55c-.19-.83-1.65-8.62-2.71-12-.28-.87-.54-1.44-.75-1.54h-.06a10.72,10.72,0,0,1-4.21-.2L18.05,5.75C20,3.54,24,2.67,27.26,6.86Z"/><rect class="cls-1" x="30.39" y="30.99" width="4.2" height="5.04" transform="translate(-3.15 3.38) rotate(-5.67)"/><path class="cls-1" d="M14.4,5.83a1.08,1.08,0,0,1,1,1.11,1.06,1.06,0,0,1-1.1,1h-.11a1.07,1.07,0,0,1,.19-2.12Z"/><path class="cls-1" d="M8.51,5.27A1.42,1.42,0,1,1,8.4,8.1H8.26a1.42,1.42,0,0,1,.25-2.82Z"/><path class="cls-1" d="M15.75,13.14a1,1,0,0,1-.44,0,1.07,1.07,0,0,1-.88-.76,1.06,1.06,0,0,1,.71-1.32,1.08,1.08,0,0,1,1.33.72A1.06,1.06,0,0,1,15.75,13.14Z"/><path class="cls-1" d="M9.38,12.43a1.41,1.41,0,1,1,.81,2.71,1.34,1.34,0,0,1-.59,0,1.42,1.42,0,0,1-.22-2.76Z"/><path class="cls-1" d="M13.76,18.81a1.41,1.41,0,0,1-.2,2,1.38,1.38,0,0,1-1.09.31,1.44,1.44,0,0,1-.9-.5,1.4,1.4,0,0,1,.19-2A1.42,1.42,0,0,1,13.76,18.81Z"/><path class="cls-1" d="M18,15.28a1.06,1.06,0,1,1-1.64,1.35,1.05,1.05,0,0,1,.14-1.49A1.06,1.06,0,0,1,18,15.28Z"/><path class="cls-1" d="M18.49,18.9a1.06,1.06,0,0,1,1.45-.4,1.07,1.07,0,0,1-.68,2,.91.91,0,0,1-.38-.13A1.06,1.06,0,0,1,18.49,18.9Z"/><path class="cls-1" d="M17.18,23.32a1.42,1.42,0,0,1-.9,2.64,1.55,1.55,0,0,1-.51-.18,1.42,1.42,0,0,1,1.41-2.46Z"/></svg>