<svg id="_1" data-name="1" xmlns="http://www.w3.org/2000/svg" viewBox="0 0 40 40.13"><defs><style>.cls-1{fill:#77644f;}.cls-2{fill:none;stroke:#77644f;stroke-miterlimit:10;stroke-width:2px;}</style></defs><title>アートボード 7 のコピー 6</title><polygon class="cls-1" points="13.94 2.9 13.94 2.89 11.31 3.19 11.31 7.26 13.94 7.57 13.94 3.37 13.94 2.9 13.94 2.9"/><path class="cls-1" d="M13.11,16a4.71,4.71,0,0,0,.88.64,27.59,27.59,0,0,0,3.67-7.73c.09-.29.16-.59.23-.89a4.28,4.28,0,0,1,2.29,3.79H26a3.75,3.75,0,0,1,3.75-3.75H30a.58.58,0,0,0,.58-.58A4.61,4.61,0,0,0,26,2.89H13.57V7.55H15.9A22.14,22.14,0,0,1,13.11,16Z"/><path class="cls-2" d="M13.11,32.17a4.87,4.87,0,0,0,1.34,3.2,4.71,4.71,0,0,0,2.84,1.24h9.07c2.17,0,3.51-1.38,4-4.1.21-1.24.58.68-.39-4.18A53.85,53.85,0,0,0,26,17.05l-.14-.26H20.47l-.12.08c-.82.4-1.49.92-1.53,1.57v.08C18.85,19.86,12.73,27.15,13.11,32.17Z"/><path class="cls-1" d="M21.22,12.6c-.38,0-.7.45-.7,1V17h4.63V13.61c0-.56-.32-1-.7-1Z"/></svg>