<svg id="_1" data-name="1" xmlns="http://www.w3.org/2000/svg" xmlns:xlink="http://www.w3.org/1999/xlink" viewBox="0 0 40 40.13"><defs><style>.cls-1{mask:url(#mask);filter:url(#luminosity-noclip-2);}.cls-2{mix-blend-mode:multiply;fill:url(#linear-gradient);}.cls-3,.cls-5{fill:#77644f;}.cls-4{mask:url(#mask-2);}.cls-5{opacity:0.7;}.cls-6{filter:url(#luminosity-noclip);}</style><filter id="luminosity-noclip" x="17.23" y="-8211.57" width="8.73" height="32766" filterUnits="userSpaceOnUse" color-interpolation-filters="sRGB"><feFlood flood-color="#fff" result="bg"/><feBlend in="SourceGraphic" in2="bg"/></filter><mask id="mask" x="17.23" y="-8211.57" width="8.73" height="32766" maskUnits="userSpaceOnUse"><g class="cls-6"/></mask><linearGradient id="linear-gradient" x1="21.59" y1="19.17" x2="21.59" y2="17.37" gradientUnits="userSpaceOnUse"><stop offset="0"/><stop offset="1" stop-color="#fff"/></linearGradient><filter id="luminosity-noclip-2" x="17.23" y="17.37" width="8.73" height="1.8" filterUnits="userSpaceOnUse" color-interpolation-filters="sRGB"><feFlood flood-color="#fff" result="bg"/><feBlend in="SourceGraphic" in2="bg"/></filter><mask id="mask-2" x="17.23" y="17.37" width="8.73" height="1.8" maskUnits="userSpaceOnUse"><g class="cls-1"><path class="cls-2" d="M21.59,17.85a18.68,18.68,0,0,1-4.36-.48,6.33,6.33,0,0,0,4.36,1.8A5.58,5.58,0,0,0,26,17.37,18.71,18.71,0,0,1,21.59,17.85Z"/></g></mask></defs><title>アートボード 7 のコピー 3</title><path class="cls-3" d="M20.06,2.72c-3.94-.89-5.14-.71-7,.41l.42,1.28a6.1,6.1,0,0,1,2.23-.75,22.62,22.62,0,0,1,4.39.71Z"/><path class="cls-3" d="M17,39.67a1.37,1.37,0,0,1-1.22-1.2s-1.83-20.9-1.28-21.72c.37-.55,3.76-.46,4.17-.67s.28-.47.31-1.26h5.33c0,.79-.05,1.06.31,1.26s3.8.12,4.17.67c.55.82-1.29,21.72-1.29,21.72a1.36,1.36,0,0,1-1.21,1.2,26.49,26.49,0,0,1-4.65.34A42.79,42.79,0,0,1,17,39.67Z"/><polygon class="cls-3" points="25.08 12.25 22.73 12.14 22.73 7.83 20.5 7.83 20.5 12.13 18.15 12.25 18.15 15.99 25.08 15.99 25.08 12.25"/><polygon class="cls-3" points="23.05 12.48 23.05 6.92 20.18 6.92 20.18 12.47 23.05 12.48"/><path class="cls-3" d="M23.71,9.21V2.4a10.06,10.06,0,0,0-2.09-.28,9.93,9.93,0,0,0-2.09.28V9.21Z"/><g class="cls-4"><path class="cls-5" d="M21.59,17.85a18.68,18.68,0,0,1-4.36-.48,6.33,6.33,0,0,0,4.36,1.8A5.58,5.58,0,0,0,26,17.37,18.71,18.71,0,0,1,21.59,17.85Z"/></g></svg>