<svg id="_1" data-name="1" xmlns="http://www.w3.org/2000/svg" viewBox="0 0 40 40.13"><defs><style>.cls-1{fill:#77644f;}</style></defs><title>アートボード 7 のコピー 10</title><path class="cls-1" d="M12.42,22c.85-.49,1.25-2.49.42-4.19s-2.35-2.59-3.41-2S8.18,18.31,9,20,11.57,22.48,12.42,22Z"/><path class="cls-1" d="M32.45,15.83c-1.06-.61-2.59.28-3.42,2s-.43,3.7.42,4.19,2.59-.28,3.42-2S33.51,16.44,32.45,15.83Z"/><path class="cls-1" d="M24.89,17.87a1.82,1.82,0,0,0,1.44-.49h0l.18-.16,0,0L26.7,17l0,0,.16-.19,0,0a4.37,4.37,0,0,0,.84-2.05,5.31,5.31,0,0,0-.2-2.83h0l-.11-.21,0,0a.91.91,0,0,0-.11-.16l0-.06-.13-.14-.05,0-.15-.13,0,0a2.56,2.56,0,0,0-1-.42,2,2,0,0,0-1.54.23l-.06,0-.12.1-.06.05-.12.12,0,.05A5.07,5.07,0,0,0,23,13.79C22.77,15.78,23.85,17.66,24.89,17.87Z"/><path class="cls-1" d="M14.64,11.64l0,0-.11.21h0a5.31,5.31,0,0,0-.2,2.83,4.47,4.47,0,0,0,.84,2.05h0l.16.2,0,0,.16.17,0,0,.18.16h0a1.82,1.82,0,0,0,1.44.49c1-.21,2.12-2.09,1.85-4.08a5.07,5.07,0,0,0-.92-2.56l0-.05-.12-.12L17.87,11l-.12-.1-.06,0a2,2,0,0,0-1.54-.23,2.56,2.56,0,0,0-1,.42l0,0-.15.13-.05,0-.13.14,0,.06A.91.91,0,0,0,14.64,11.64Z"/><path class="cls-1" d="M26.22,23.88a2,2,0,0,1-1.28-1.27,4.24,4.24,0,0,0-7.88,0,2,2,0,0,1-1.29,1.27,4.05,4.05,0,0,0-3,3.86,4.1,4.1,0,0,0,4.18,4,4.31,4.31,0,0,0,2.83-1.05,1.78,1.78,0,0,1,2.4,0A4.26,4.26,0,0,0,25,31.76a4.11,4.11,0,0,0,4.19-4A4.05,4.05,0,0,0,26.22,23.88Z"/></svg>