<svg id="_1" data-name="1" xmlns="http://www.w3.org/2000/svg" viewBox="0 0 40 40.13"><defs><style>.cls-1{fill:#77644f;}</style></defs><title>アートボード 7 のコピー 4</title><path class="cls-1" d="M29.76,17.93a9.17,9.17,0,0,0-3.33-4A8.5,8.5,0,0,0,25,13.1V11.41a1,1,0,0,0-.95-.95H22.86V8.67h1.06l1-1.73V4.67a8.73,8.73,0,0,0,1.62-.17,6.87,6.87,0,0,0,.75-.19V2.06a3.29,3.29,0,0,1-1.15.44,8.82,8.82,0,0,1-1.63.13c-.76,0-1.61-.06-2.5-.12s-1.84-.12-2.81-.12A12.72,12.72,0,0,0,15.1,3a8.47,8.47,0,0,0-2,1A8.34,8.34,0,0,0,11.4,5.51L13,6.81a6.28,6.28,0,0,1,1.31-1.19,6.58,6.58,0,0,1,2.27-.94,11,11,0,0,1,1.17-.18V6.94l1,1.73h1.06v1.79H18.55a1,1,0,0,0-.95.95v1.7a9.17,9.17,0,0,0-5.47,8.39v16a2,2,0,0,0,.15.77,2.05,2.05,0,0,0,.72.87,2,2,0,0,0,1.11.34H28.49a2,2,0,0,0,.77-.15,2.14,2.14,0,0,0,.88-.72,2,2,0,0,0,.34-1.11v-16A9.25,9.25,0,0,0,29.76,17.93ZM28.55,37.46v0l0,0H14.09l0,0s0,0,0,0v-16a7.36,7.36,0,0,1,.57-2.82,7.26,7.26,0,0,1,2.63-3.19,7.78,7.78,0,0,1,1.06-.59h6a7.32,7.32,0,0,1,3,2.55,7.15,7.15,0,0,1,1.24,4.05Z"/></svg>