<svg id="_1" data-name="1" xmlns="http://www.w3.org/2000/svg" viewBox="0 0 40 40.13"><defs><style>.cls-1,.cls-2{fill:#77644f;}.cls-1{stroke:#77644f;stroke-miterlimit:10;}</style></defs><title>アートボード 7 のコピー 9</title><path class="cls-1" d="M10.09,34.44V23.11a.7.7,0,0,0-.26-.54L7.55,19.85l13.39-14,13.38,14-2.27,2.72a.7.7,0,0,0-.26.54V34.44ZM20.94,9.55c-.19,0-.37,1.08-.5,1.22l-9.36,9.47a.66.66,0,0,0-.17.45V32.94a.67.67,0,0,0,.67.67H30.3a.67.67,0,0,0,.66-.67V20.69a.66.66,0,0,0-.17-.45L21.44,9.77A.7.7,0,0,0,20.94,9.55Z"/><rect class="cls-2" x="17.38" y="22.37" width="2.21" height="3.6"/><rect class="cls-2" x="22.28" y="22.37" width="2.21" height="3.6"/></svg>