<svg id="_1" data-name="1" xmlns="http://www.w3.org/2000/svg" viewBox="0 0 40 40.13"><defs><style>.cls-1{fill:#77644f;}</style></defs><title>アートボード 7 のコピー 2</title><path class="cls-1" d="M27.44,4.63c-2.88,0-5.21,3.72-5.21,6.71a6,6,0,0,0,2.07,4.43c1,.87,1.61,3.69,1.73,5.16V37.79A1.27,1.27,0,0,0,27.35,39h.18a1.27,1.27,0,0,0,1.32-1.21V20.93c.12-1.47.73-4.29,1.73-5.16a6.05,6.05,0,0,0,2.06-4.43C32.64,8.35,30.31,4.63,27.44,4.63Z"/><path class="cls-1" d="M16.9,5.78V12a.62.62,0,0,1-.64.6h-.18a.62.62,0,0,1-.64-.6V5.76a1.06,1.06,0,0,0-1.21-1.1A1.06,1.06,0,0,0,13,5.76V12a.63.63,0,0,1-.65.6h-.17a.62.62,0,0,1-.64-.6V5.78a1.17,1.17,0,0,0-2.34,0v6c0,2.71.7,3.42,1.86,4.26.94.68,1.74,3.22,1.74,4.91V37.79A1.26,1.26,0,0,0,14.14,39h.18a1.27,1.27,0,0,0,1.32-1.21V20.93c0-1.69.8-4.23,1.74-4.91,1.16-.84,1.87-1.55,1.86-4.26v-6A1.17,1.17,0,0,0,16.9,5.78Z"/></svg>