<svg xmlns="http://www.w3.org/2000/svg" viewBox="0 0 20 30.97"><defs><style>.cls-1{fill:#77644f;}</style></defs><title>アセット 10</title><g id="レイヤー_2" data-name="レイヤー 2"><g id="_1" data-name="1"><path class="cls-1" d="M6.27.27.61,2.48A1,1,0,0,0,.07,3.72a1,1,0,0,0,1.24.54L5.08,2.79A.41.41,0,0,1,5.62,3l.14.35a.43.43,0,0,1-.24.55l-4,1.55a.74.74,0,1,0,.54,1.37l4-1.55a.41.41,0,0,1,.54.24l.14.35a.43.43,0,0,1-.24.54L2.52,8a.74.74,0,0,0-.42,1,.75.75,0,0,0,1,.42L7,7.79A.43.43,0,0,1,7.58,8l.14.35a.42.42,0,0,1-.24.54l-4,1.56a.73.73,0,0,0-.42.95.74.74,0,0,0,1,.42L8,10.3a.42.42,0,0,1,.55.23l.13.35a.42.42,0,0,1-.24.55L4.48,13a.74.74,0,0,0-.42,1,.73.73,0,0,0,1,.41L9,12.8a.43.43,0,0,1,.55.24l.13.35a.41.41,0,0,1-.24.54l-4,1.56A.73.73,0,0,0,6,16.86l4-1.56a.42.42,0,0,1,.54.24l.14.35a.41.41,0,0,1-.24.54L6.64,17.91a1,1,0,1,0,.7,1.78l5.34-1.94c1.65,4.17,1.59,8.48,2.45,10.67,1,2.7,2.83,2.75,3.74,2.39a1.77,1.77,0,0,0,1-2.3L14.43,14.56,13.84,13,9.3,1.44A2.33,2.33,0,0,0,8,.13,2.18,2.18,0,0,0,6.27.27Z"/></g></g></svg>