<?xml version="1.0" encoding="utf-8"?>
<!-- Generator: Adobe Illustrator 23.0.1, SVG Export Plug-In . SVG Version: 6.00 Build 0)  -->
<svg version="1.1" id="レイアウト" xmlns="http://www.w3.org/2000/svg" xmlns:xlink="http://www.w3.org/1999/xlink" x="0px"
	 y="0px" viewBox="0 0 165.8 43.2" style="enable-background:new 0 0 165.8 43.2;" xml:space="preserve">
<style type="text/css">
	.st0{fill:#6A3314;}
	.st1{fill:#FFFFFF;}
</style>
<g>
	<g>
		<path class="st0" d="M163.4,43.2c-53.3-13.1-107.7-13.1-161,0C4,39.1,5.6,35,7.1,31c-2.4-3.3-4.8-6.5-7.1-9.7
			c54.8-13.9,111-13.9,165.8,0c-2.4,3.2-4.7,6.4-7.1,9.6C160.3,35,161.8,39.1,163.4,43.2z"/>
	</g>
	<g>
		<g>
			<path class="st1" d="M27,22.4c1.3-0.5,2.5-0.6,2.7-0.7c1.1-0.2,2.4-0.2,3.5-0.1L33.1,23c-1.9-0.6-4.1-0.3-4.5-0.2
				c-0.2,0-0.8,0.1-1.5,0.3L27,22.4z M28.3,27.8c-0.2,0.3-0.5,0.8-0.4,1.4c0.1,0.8,0.9,1,3,0.7c0.5-0.1,2.1-0.3,4.2-1.3l0.2,1.3
				c-1,0.3-2.9,0.7-3.9,0.9c-1,0.2-4.1,0.6-4.4-1.2c0-0.1-0.1-1,0.7-2.1L28.3,27.8z"/>
			<path class="st1" d="M42,19.9c0.1,0,0.3,0.1,0.3,0.2c0,0,0,0,0,0.1c-0.1,0.1-0.2,0.2-0.2,0.2c-0.1,0.1-1.3,4.1-1.5,4.7
				c0.4-0.5,1.1-1.2,2.2-1.3c1-0.1,1.7,0.3,1.8,1.4c0,0.4,0,2.3,0.1,2.7c0.1,0.6,0.3,0.7,0.7,0.7c0.1,0,1.3-0.2,1.9-2.3l0.7,0.3
				c-0.3,0.8-0.9,2.8-2.9,3.1c-1.1,0.1-1.6-0.6-1.7-1.4c0-0.4,0-2.3-0.1-2.8c0-0.4-0.2-1-0.9-0.9c-1.1,0.1-2.3,1.6-3,5.5l-1.3-0.3
				c0-0.1,1.5-5.7,1.8-6.7c0.7-2.3,0.7-2.3,0.9-3.4L42,19.9z"/>
			<path class="st1" d="M50,20.9c0.3,0,0.7,0,1.9-0.1c0.1-0.3,0.5-1.9,0.6-2.2l1,0.3c0.1,0,0.3,0,0.3,0.2c0,0-0.2,0.3-0.2,0.3
				c-0.1,0.1-0.4,1-0.4,1.3c0.9-0.2,1.4-0.3,1.9-0.6l0,0.8c-0.5,0.1-1,0.2-2.2,0.4c-0.3,1.1-0.9,3.3-1.3,6L50.3,27
				c0.3-1.2,0.6-2.8,1.4-5.6c-0.9,0.1-1.2,0.2-1.7,0.3L50,20.9z M57,21.9c0.2,0,0.3,0,0.3,0.1c0,0.1-0.1,0.3-0.1,0.4
				c0,0.1,0,0.7,0,1c0.1,1,0.2,1.8,0.3,2.2c0.8,0.2,1.4,0.4,2.5,0.9l-0.7,1c-0.6-0.4-1-0.6-1.6-0.9c0,0.6,0.1,1.6-2.2,1.8
				c-1.7,0.1-2.5-0.5-2.5-1.2c-0.1-0.7,0.7-1.6,2.2-1.7c0.2,0,0.6,0,1.1,0c-0.1-0.6-0.2-1.1-0.2-1.8c0-0.2-0.1-1.5-0.2-1.7L57,21.9z
				 M55.4,26.1c-0.8,0.1-1.3,0.4-1.2,1c0,0.4,0.5,0.8,1.2,0.7c0.6-0.1,1.2-0.3,1.1-1.1c0-0.1-0.1-0.5-0.1-0.5
				C56.2,26.1,55.8,26,55.4,26.1z M59.1,21.6c-1.3-0.8-2.5-1.1-3.2-1.3l0.3-0.5c0.5,0.1,1.9,0.3,3.4,0.7L59.1,21.6z"/>
			<path class="st1" d="M73.1,18.8l0,0.5L67,19.6l0.1,2.2l5-0.2c0,0.4,0.1,4-0.3,5.2c-0.4,0.9-1.1,0.9-1.6,1l-1.8,0.1l-0.3-0.6
				c0.2,0,0.7,0,1.3,0c0.7,0,0.9-0.1,1.1-0.4c0.4-0.7,0.4-2.3,0.4-4.7l-3.8,0.2c0,1.6-0.1,4.1-3.9,5.9l-0.5-0.4
				c1.1-0.6,2.3-1.3,2.9-3.1c0.3-0.9,0.2-2.3,0.2-2.8l-0.1-2.1l-3.4,0.2l0-0.5l4.8-0.2L67,17.8c0-0.2,0-0.4-0.1-0.7l1.3-0.1
				c0.1,0,0.1,0,0.1,0.1c0,0.1,0,0.1,0,0.2l0.1,1.7L73.1,18.8z"/>
			<path class="st1" d="M77.8,17.8c0.3,0.1,0.3,0.1,0.3,0.1c0,0-0.1,0.2-0.1,0.2c-0.1,0.2-0.4,2.1-0.4,4.8c0,2.2,0.2,3.2,0.3,3.7
				l-1.3,0.2c-0.1-0.7-0.3-1.9-0.3-3.9c0-1.6,0-2,0.3-5.3L77.8,17.8z M80.3,23.8C80.2,24,80,24.2,80,24.7c0,0.7,0.8,0.8,1.9,0.8
				c1.8,0,2.8-0.3,3.5-0.5l0,1.2c-0.2,0-1.2,0.2-2.9,0.2c-2.5,0-3.4-0.5-3.4-1.4c0-0.7,0.4-1.2,0.6-1.5L80.3,23.8z M84.7,19.4
				c-0.4-0.1-1.3-0.4-2.8-0.4c-1.3,0-2,0.2-2.4,0.3l-0.1-0.7c0.3,0,0.4-0.1,0.7-0.1c1.2-0.3,2.5-0.3,3.2-0.3c0.7,0,1.1,0,1.5,0.1
				L84.7,19.4z"/>
			<path class="st1" d="M94.1,19.9l0-1.4c0-0.1,0-0.8,0-1.1l1.2,0.1c0.1,0,0.2,0.1,0.2,0.1c0,0.1-0.1,0.3-0.1,0.4l-0.1,2l1,0
				c0.5,0,1.3,0,1.7,0l0,0.8c-0.7-0.1-1.7-0.1-1.7-0.1l-1,0l-0.2,5.6c0,0.6-0.3,1.1-1,1.1c-0.2,0-0.9-0.1-2-0.4l0-0.7
				c0.8,0.3,1.2,0.4,1.3,0.4c0.3,0,0.4-0.2,0.4-0.5L94,21c-1,1.7-2.5,3.6-5.6,5.2L88,25.6c2.5-1.4,4-3.5,4.7-5.1l-2.6-0.1
				c-0.5,0-1.4,0-1.9,0l0-0.8c0.4,0,1.4,0.1,1.9,0.1L94.1,19.9z"/>
			<path class="st1" d="M109.3,27.5c-0.8-1.6-2.1-2.8-2.8-3.4c-1.2,1.1-2.4,2.1-5.8,2.9l-0.2-0.6c1.4-0.2,3.7-1.1,5.3-3.1
				c1-1.3,1.6-2.8,2-3.6l-3.9-0.2c-0.4,0-1.6,0-2,0l0-0.8c0.9,0.1,1.2,0.1,2,0.2l3.2,0.1c0.4,0,1.5,0,1.8,0l0.5,0.6
				c-0.2,0.2-0.3,0.4-0.3,0.5c-0.3,0.6-1.2,2.5-2.1,3.5c1.6,1.1,2.6,2,3.5,3.2L109.3,27.5z"/>
			<path class="st1" d="M121.7,28.8c-0.8-1.7-2-2.9-2.6-3.5c-1.2,1.1-2.4,2-5.9,2.6l-0.2-0.7c1.4-0.1,3.7-0.9,5.4-2.9
				c1.1-1.3,1.7-2.7,2.1-3.5l-3.9-0.3c-0.4,0-1.6-0.1-2-0.1l0.1-0.8c0.9,0.1,1.2,0.2,1.9,0.2l3.2,0.3c0.4,0,1.5,0.1,1.8,0.1l0.5,0.6
				c-0.2,0.2-0.3,0.4-0.4,0.5c-0.3,0.6-1.3,2.5-2.2,3.4c1.6,1.2,2.6,2.1,3.4,3.3L121.7,28.8z"/>
			<path class="st1" d="M128.9,23.7c0.8,0.3,1.4,0.5,2.4,1c0.7-1.3,1-2.2,1.4-3.9l1.3,0.5c0.1,0,0.2,0.1,0.2,0.2c0,0,0,0.1-0.1,0.1
				c-0.1,0.1-0.1,0.1-0.2,0.3c-0.5,1.4-0.8,2.2-1.5,3.5c1.3,0.8,1.8,1.3,2.4,1.8l-1.1,1c-0.6-0.9-1.2-1.4-1.9-2
				c-2.1,2.7-4.9,3.3-6.2,3.5l-0.2-0.6c1.9-0.4,3.8-1.3,5.5-3.6c-1-0.6-1.6-0.9-2.5-1.2L128.9,23.7z"/>
			<path class="st1" d="M137.2,29.8l1.3,0.2l-0.2,1.3l-1.3-0.2L137.2,29.8z M138.4,21.9l1.6,0.3l-1.5,6.8l-0.9-0.1L138.4,21.9z"/>
		</g>
	</g>
	<g>
		<g>
			<g>
				<path class="st0" d="M36.3,3c0,0-0.1-0.1-0.1-0.1c0-0.2,0.1-0.3,0.3-0.3c0.1,0,0.1,0,0.2,0l8.1,6.3c0,0,0.1,0.1,0.1,0.1
					c0,0.2-0.1,0.3-0.2,0.3c-0.1,0-0.1,0-0.2,0L36.3,3z"/>
				<path class="st0" d="M48,8.7c-0.3,0.3-0.7,0.2-0.8,0C46.9,8.6,47,8.2,47.3,8c1.4-0.9,1.8-2.4,1.5-3.7C48.8,4,49,3.8,49.3,3.7
					c0.3,0,0.6,0.1,0.6,0.5c0,0.1,0,0.2,0,0.3c0,0,0,0,0.1,0c0.6-0.3,1.2-0.8,1.5-1.3c0.1-0.2,0.1-0.3-0.1-0.3c-1,0.1-3,0.3-4.2,0.5
					c-0.8,0.1-0.8-0.8-0.2-0.9c1.3-0.2,3.2-0.4,4.6-0.5c0.9-0.1,1.4,0.6,0.9,1.4c-0.5,0.7-1.1,1.4-2.1,1.8c-0.2,0.1-0.4,0.1-0.5,0
					C49.8,6.7,49.2,7.8,48,8.7z"/>
				<path class="st0" d="M54.1,6.8c1.3-0.7,2-2.1,1.8-3.8c-0.1-0.7,0.9-0.7,0.9-0.1c0.2,1.7-0.4,3.6-2.1,4.7C54,8,53.4,7.2,54.1,6.8
					z M58.8,6.8c-0.6,0.3-1.2,0.1-1.2-0.6c0-0.8-0.1-3-0.1-3.5c0-0.7,0.9-0.7,0.9-0.1c0,0.4,0.1,2.7,0.1,3c0,0.2,0.1,0.2,0.3,0.1
					c0.7-0.5,1.4-1.4,1.8-2.4c0.3-0.6,1.1-0.2,0.9,0.4C60.9,4.9,60,6.1,58.8,6.8z"/>
				<path class="st0" d="M64.7,6.5c2-0.7,3.1-2.4,3.4-3.8c0.1-0.2,0-0.5-0.3-0.5c-0.9,0-2.3,0.1-3.6,0.2c-0.6,0-0.7-0.8-0.1-0.9
					c1.2-0.1,2.9-0.2,4-0.2c0.7,0,1.3,0.5,1,1.2c-0.5,1.8-1.6,3.6-4,4.7C64.4,7.6,64,6.7,64.7,6.5z"/>
				<path class="st0" d="M72.7,7.2c-0.6,0.4-1.1-0.3-0.5-0.7c1.1-0.6,1.4-1.6,1.3-2.6c0-0.3,0.2-0.5,0.4-0.5c0.2,0,0.5,0.1,0.5,0.4
					c0,0,0,0.1,0,0.1c0.4-0.2,0.9-0.5,1.1-0.8c0.1-0.1,0-0.1,0-0.1c-0.7,0-2.2,0.1-3.1,0.1c-0.7,0.1-0.7-0.7-0.1-0.8
					c1-0.1,2.4-0.1,3.4-0.1c0.7,0,1.1,0.6,0.6,1.2c-0.4,0.5-0.9,1-1.6,1.2c-0.1,0-0.2,0.1-0.3,0C74.1,5.8,73.6,6.6,72.7,7.2z"/>
				<path class="st0" d="M82.5,1.5c0.4,0,0.8,0,1.2,0c0.6,0,1.1,0.4,1.1,1c-0.1,1.9-1.2,3.8-3.9,4.5c-0.6,0.2-0.9-0.7-0.2-0.9
					c2.1-0.4,3.1-2,3.2-3.4c0-0.3-0.1-0.5-0.4-0.5c-0.7,0-2.1,0-2.7,0c-0.3,0-0.4,0.3-0.4,0.5c0,0.2,0,0.8,0,1c0,0.6-0.9,0.6-0.9,0
					c0-0.3,0-0.8,0-1.3c0-0.8,0.8-1,1.1-1c0.4,0,0.7,0,1.1,0c0-0.4,0-0.9,0-1.1C81.5,0.1,81.8,0,82,0c0.2,0,0.5,0.1,0.5,0.4
					L82.5,1.5z"/>
				<path class="st0" d="M88.2,4c-0.3,0-0.4-0.2-0.4-0.4s0.1-0.4,0.4-0.4c0.9,0,2,0.1,3,0c0.3,0,0.4,0.2,0.4,0.4
					c0,0.2-0.1,0.4-0.4,0.4c-0.3,0-0.7,0-1.1,0c0,0.5,0,1.2,0,1.6c0.7,0,1.4,0,2,0c0.5,0,0.5,0.8-0.1,0.8c-1.4-0.1-3.3-0.1-4.5-0.1
					c-0.6,0-0.6-0.8,0-0.8c0.5,0,1.2,0,1.8,0c0-0.5,0-1.2,0-1.6C88.9,4,88.5,4,88.2,4z"/>
				<path class="st0" d="M95.1,4c-0.3,0-0.5-0.2-0.5-0.5c0-0.2,0.2-0.5,0.5-0.4l5.6,0.2c0.3,0,0.4,0.2,0.4,0.5
					c0,0.2-0.2,0.4-0.5,0.4L95.1,4z"/>
				<path class="st0" d="M103.9,6.6c2-0.5,3.3-2,3.8-3.3c0.1-0.2,0.1-0.5-0.3-0.5c-0.9-0.1-2.3-0.1-3.6-0.2c-0.6,0-0.6-0.9,0-0.9
					c1.2,0,2.9,0.1,4,0.2c0.7,0.1,1.2,0.6,0.9,1.4c-0.8,1.8-2,3.4-4.5,4.2C103.5,7.8,103.2,6.8,103.9,6.6z M108.4,1.5
					c-0.4-0.2,0-0.7,0.4-0.6c0.2,0.1,0.7,0.4,0.9,0.6c0.3,0.4-0.2,0.9-0.5,0.5C109,2,108.6,1.6,108.4,1.5z M109.2,0.8
					c-0.4-0.2-0.1-0.7,0.3-0.6c0.2,0.1,0.7,0.4,0.9,0.6c0.3,0.4-0.2,0.9-0.5,0.6C109.8,1.2,109.4,0.9,109.2,0.8z"/>
				<path class="st0" d="M112.5,7.9c-0.2-0.9-0.1-2.1,0.2-3.2c0.2-1.1,0.5-2.1,0.6-2.6c0.1-0.7,1-0.4,0.9,0.1
					c-0.1,0.4-0.3,1.2-0.5,1.9s-0.4,1.5-0.4,1.9c0,0.2,0,0.2,0.1,0c0-0.1,0.1-0.2,0.1-0.2c0.2-0.4,0.9,0,0.5,0.6
					c-0.1,0.2-0.3,0.5-0.3,0.7s-0.2,0.4-0.2,0.5c-0.1,0.2,0,0.5-0.2,0.7C113,8.4,112.6,8.4,112.5,7.9z M115.3,8.3
					c-0.7-0.5-0.7-1.5,0.3-1.9c0.5-0.2,1.1-0.1,1.6,0c0-0.1,0-0.3,0-0.5c0-0.4,0.1-1.1,0.1-1.8c-0.5,0-1,0-1.5-0.1
					c-0.6-0.1-0.4-1,0.3-0.8c0.4,0.1,0.8,0.1,1.3,0.1c0-0.5,0.1-1,0.1-1.2c0.1-0.6,0.9-0.4,0.9,0.1c0,0.2-0.1,0.6-0.1,1.1
					c0.2,0,0.3,0,0.5-0.1c0.6-0.1,0.9,0.7,0.1,0.8c-0.2,0-0.4,0.1-0.7,0.1c-0.1,0.7-0.1,1.4-0.1,1.8c0,0.2,0,0.5,0,0.8
					c0.4,0.2,0.7,0.5,0.9,0.8c0.5,0.5-0.2,1.2-0.6,0.7c-0.1-0.2-0.3-0.4-0.5-0.5C117.3,8.5,116.2,9,115.3,8.3z M117,7.3
					c-0.4-0.2-0.9-0.3-1.2-0.2c-0.2,0.1-0.3,0.4-0.1,0.5C116.1,7.9,116.8,7.8,117,7.3L117,7.3z"/>
				<path class="st0" d="M121.4,9.3c0,0-0.1,0-0.2,0c-0.1,0-0.3-0.2-0.2-0.3c0-0.1,0-0.1,0.1-0.1l8.1-6.3c0.1,0,0.1,0,0.2,0
					c0.1,0,0.3,0.2,0.3,0.3c0,0.1,0,0.1-0.1,0.1L121.4,9.3z"/>
			</g>
		</g>
	</g>
</g>
</svg>
