<?xml version="1.0" encoding="utf-8"?>
<!-- Generator: Adobe Illustrator 23.0.1, SVG Export Plug-In . SVG Version: 6.00 Build 0)  -->
<svg version="1.1" id="レイヤー_1" xmlns="http://www.w3.org/2000/svg" xmlns:xlink="http://www.w3.org/1999/xlink" x="0px"
	 y="0px" viewBox="0 0 427.8 38.1" style="enable-background:new 0 0 427.8 38.1;" xml:space="preserve">
<style type="text/css">
	.st0{fill:#92AB23;stroke:#92AB23;stroke-width:0.25;stroke-linecap:round;stroke-linejoin:round;stroke-miterlimit:10;}
</style>
<g>
	<g>
		<path class="st0" d="M5.3,34.9c-0.2,0-1,0-1.1,0.8c-0.1,0.8-0.3,1.7-1.8,1.7c-0.5,0-1.4,0-1.4-1.5c0-0.8,0.1-2,0.1-2.2
			c0.2-3,0.2-14.4,0.2-17.7c0-3.5,0-9.4-0.5-12.4c0-0.2-0.4-1.5-0.4-1.8c0-0.2,0.1-0.3,0.3-0.3c0.1,0,2.6,1.2,2.9,1.4
			c1,0.5,1.6,0.5,2.2,0.5h19.4c1.5,0,1.8-0.1,2-0.4c0.3-0.3,1.3-2.4,1.8-2.4c0.6,0,3.7,2.6,3.7,3.2c0,0.6-1,0.6-2.5,0.6h-25
			c-1.3,0-1.3,0.4-1.3,2.3c0,2.8-0.2,16.4-0.2,19.5c0,1.3,0,6,0.3,6.9c0.2,0.7,0.8,0.7,1.2,0.7h21.6c1.8,0,2,0,2.5-0.9
			c0.7-1.4,0.9-1.6,1.3-1.6c0.6,0,3.4,2.1,3.4,2.9c0,0.6-1.3,0.6-3.2,0.6H5.3z M24,10.5c1.7,0,2,0,2.4-1c0.2-0.6,0.8-1.7,1.2-1.7
			c0.6,0,3.3,2.1,3.3,2.9c0,0.8-1.3,0.8-3,0.8h-5.5c-0.5,0-1.2,0-1.3,1c-0.2,2.5-0.2,2.8-0.6,5.3v0.3c0,0.7,0.6,0.7,1.2,0.7h3.4
			c1.5,0,1.8-0.1,2.1-0.4c0.3-0.4,1.5-2.3,1.9-2.3c0.3,0,3.9,2.6,3.9,3.2c0,0.6-0.8,0.6-2.1,0.6h-8.8c-0.2,0-0.5,0-0.5,0.3
			c0,1.5,6.5,7.3,12.4,8.1c0.5,0.1,0.6,0.1,0.6,0.1c0,0.1-1.3,0.5-1.5,0.6c-0.4,0.2-1.4,0.7-2.4,1.9c-0.1,0.1-0.2,0.2-0.3,0.2
			c-0.4,0-6.1-2.8-9.4-9.9c-0.4-1-0.5-1.1-0.7-1.1c-0.2,0-0.2,0.1-0.6,1.1c-3,9.4-12.8,11.1-13.4,11.1c-0.1,0-0.2,0-0.2-0.1
			c0-0.1,0.6-0.4,0.8-0.5C14.7,28,17.3,22,17.3,20.6c0-0.7-0.5-0.7-0.8-0.7h-2.8c-3.5,0-4.7,0.1-5.1,0.1c-0.1,0-0.7,0.1-0.8,0.1
			c-0.1,0-0.2-0.1-0.4-0.2L6.6,19c-0.2-0.2-0.2-0.2-0.2-0.3c0,0,0-0.1,0.1-0.1c0.3,0,1.5,0.1,1.8,0.1c2,0.1,3.6,0.2,5.5,0.2h2.9
			c0.3,0,0.8,0,1.1-0.5c0.3-0.6,0.4-4.8,0.4-5.6c0-1.2-0.6-1.3-1.2-1.3h-2.8c-1.1,0-1.4,0.1-2.1,1.1c-1.8,2.4-4.2,4.1-4.4,4.1
			c-0.1,0-0.1,0-0.1-0.1c0-0.1,1.2-1.8,1.4-2.2c1.8-3.1,2.9-5.7,3.4-9.1c0-0.2,0.1-0.2,0.2-0.2C13,5.1,15,5.9,15.4,6
			c0.3,0.1,0.7,0.3,0.7,0.7c0,0.3-0.1,0.4-0.8,0.7c-0.6,0.4-1.5,2.4-1.5,2.6c0,0.4,0.4,0.4,0.9,0.4H24z"/>
		<path class="st0" d="M59.1,5.8c1.2,0,1.2-0.5,1.2-1.9c0-0.4,0-1-0.1-1.4c-0.1-0.3-0.3-0.6-0.3-0.8c0-0.2,0.3-0.3,0.5-0.3
			c0.5,0,3.9,0.8,3.9,1.6c0,0.2-0.3,0.4-0.8,0.8c-0.2,0.2-0.3,0.7-0.3,1c0,1,0.7,1,1.3,1h7.2c1.8,0,1.9,0,2.9-1.2
			c0.9-1,1-1.2,1.3-1.2c0.5,0,3.4,2.4,3.4,2.8c0,0.6-0.2,0.6-2.1,0.6H52.8c-1.4,0-1.5,0.4-1.5,1.7c0,13.5,0,16.3-1.8,20.8
			c-2,4.9-5.1,7-5.2,7c-0.1,0-0.2,0-0.2-0.2c0-0.2,1.6-2.6,1.9-3.2c1.6-2.8,2.8-7.4,2.8-12.5c0-0.2,0-0.8-0.2-0.8
			c-0.2,0-1.7,2.3-2.3,4.2c-0.5,1.5-0.6,1.7-0.9,1.7c-0.6,0-2-3.2-2.3-4c0-0.2,0.1-0.2,0.2-0.2c0.1,0,0.4,0,0.6,0
			c0.7,0,1.5-0.8,2.9-2.1c1.7-1.6,1.9-1.8,1.9-3.1c0-6.2-0.1-7.7-0.5-10.2c0-0.3-0.4-1.4-0.4-1.6c0-0.2,0.1-0.4,0.3-0.4
			c0.3,0,1.3,0.4,2.2,1c1.3,0.8,1.5,0.8,2.3,0.8H59.1z M46,15c-1.1,0-1.2-0.6-1.4-2.3c-0.1-0.9-0.5-2.3-0.7-3c0-0.2-0.5-0.9-0.5-1
			c0-0.1,0-0.2,0.2-0.2c0.3,0,1.3,0.6,1.6,0.9c1.7,1.3,2,3.6,2,3.9C47.4,14.5,46.9,15,46,15z M59.5,30.6c0,0.4-0.2,0.4-1,0.5
			c-1,0.7-2.3,1.6-3,2c-3.7,2.3-8.2,4-8.7,4c-0.1,0-0.2,0-0.2-0.1c0-0.1,1-0.8,1.2-0.9c1.6-1.1,6.1-4.1,7.9-7.2
			c0.1-0.2,0.2-0.4,0.4-0.4c0.2,0,1.3,0.5,1.6,0.7C58.9,29.8,59.5,30,59.5,30.6z M59.3,26.9c-0.3,0-0.7,0-1,0.4
			C58,27.6,57.8,28,56.9,28c-1.1,0-1.1-0.8-1.1-1.2c0-0.7,0.3-5.6,0.3-6.7c0-0.3-0.2-0.4-0.2-0.4c-0.3,0-2.9,2.4-3.5,2.4
			c0,0-0.1-0.1-0.1-0.1c0-0.6,3-3.4,3-3.8c0-0.2-0.8-1.6-1.3-2.4c-0.2-0.3-1.5-1.7-1.5-1.8c0-0.1,0.2-0.2,0.5-0.2
			c0.2,0,2.4,0.2,3.6,1.2c0.1,0.1,0.6,0.8,0.8,0.8c0.4,0,2.4-3,2.4-3.3c0-0.4-0.4-0.4-0.6-0.4c-2.9,0-4.1,0.1-4.3,0.1
			c-0.2,0-0.7,0.1-0.8,0.1c-0.2,0-0.2-0.1-0.4-0.3l-0.8-0.9c-0.1-0.2-0.2-0.2-0.2-0.2c0-0.1,0-0.1,0.2-0.1c0.2,0,1.4,0.1,1.7,0.2
			c0.8,0,3.6,0.1,5.3,0.1c0.8,0,1.3-0.2,1.9-2.4c0-0.2,0.2-1,0.2-1.2c0.1-0.2,0.3-0.2,0.4-0.2c0.2,0,2.3,0.6,2.8,0.6
			C65.4,7.9,66,8,66,8.4c0,0.4-0.2,0.5-1,0.9c-0.6,0.2-1,1.1-1,1.4c0,0.3,0.3,0.3,0.5,0.3h6.9c1.6,0,1.8,0,2.2-0.3
			c0.3-0.3,1.6-1.8,2-1.8c0.4,0,3,2.2,3,2.6c0,0.6-0.8,0.6-2.1,0.6h-8.2c-0.2,0-0.5,0-0.5,0.2c0,0.6,2.6,3.4,3.2,3.4
			c0.4,0,0.5-0.1,1.2-1.2c0.2-0.3,1.1-2,1.3-2c0.1,0,3,1.6,3,2.3c0,0.2,0,0.4-1.2,0.6c-0.4,0.1-3.1,0.8-3.1,1.2
			c0,0.3,2.2,1.9,5.8,3.2c0.3,0.1,1.8,0.4,1.8,0.6c0,0.1-2,1-2.4,1.2c-0.2,0.1-1,0.9-1.2,0.9c-0.5,0-3.5-2.5-3.8-2.5
			c-0.3,0-0.3,0.2-0.3,1.5c0,4.8,0,5.3-0.2,5.7c-0.3,0.8-1,1.3-1.9,1.3c-0.9,0-1-0.5-1.2-1s-0.5-0.6-1-0.6h-1.5
			c-0.6,0-1.1,0-1.1,0.9c0,0.3,0.2,4.3,0.2,4.8c0,4.8-3.6,4.8-3.7,4.8c-0.8,0-0.9-0.4-1-1.2c-0.1-0.8-0.4-1.5-1.1-1.6
			c-0.5-0.1-0.8-0.2-0.8-0.3c0-0.1,0.2-0.2,0.6-0.2c1.5,0,2.2,0,2.6-0.1c0.5-0.2,0.6-1.6,0.6-3.6c0-3,0-3.4-1.1-3.4H59.3z
			 M67.9,25.8c1,0,1.2,0,1.2-2.4c0-0.9-0.5-1-1.2-1h-8.2c-1.2,0-1.2,0.4-1.2,1.6c0,1.5,0,1.8,1.2,1.8H67.9z M68.1,21.4
			c1.1,0,1.1-0.5,1.1-1.4c0-1.2,0-1.6-1.1-1.6h-8.4c-1.1,0-1.1,0.5-1.1,1.4c0,1.2,0,1.6,1.1,1.6H68.1z M68.7,17.4
			c0.3,0,0.8,0,0.8-0.4c0-0.1-1.4-2.2-1.7-2.6c-0.2-0.4-1-1.9-1.2-2.1c-0.2-0.2-0.6-0.2-0.8-0.2h-1.9c-0.8,0-1,0.2-1.6,1.1
			c-0.5,0.6-3.4,3.8-3.4,4c0,0.2,0.2,0.2,0.4,0.2H68.7z M76.4,37c-1.2,0-1.9-1-3.3-2.7c-1.2-1.5-3.6-3.9-3.9-4.2
			c-0.7-0.6-0.9-0.8-0.9-0.9c0-0.2,0.2-0.2,0.3-0.2c0.2,0,2.8,0.5,5,1.8c2.3,1.3,3.2,2.2,4,3.5c0.2,0.2,0.3,0.7,0.3,1
			C78,36.1,77.3,37,76.4,37z"/>
		<path class="st0" d="M89,15.5c-0.2-0.2-0.2-0.2-0.2-0.3c0,0,0-0.1,0.1-0.1c0.7,0,3.8,0.2,4.4,0.2c1.2,0,1.2-0.7,1.2-1.3
			c0-1.1,0-5.7,0-6.5c0-0.9-0.6-1-1.2-1c-0.7,0-2.4,0.1-3.1,0.1c-0.1,0-0.4,0.1-0.5,0.1c-0.1,0-0.2-0.1-0.3-0.2l-0.7-0.9
			c-0.1-0.1-0.2-0.2-0.2-0.3c0,0,0-0.1,0.1-0.1c0.2,0,1.1,0.1,1.3,0.1c0.5,0,3.6,0.2,4.2,0.2c2.4,0,2.7,0,3.1-0.1
			c0.3,0,0.4-0.2,1.2-1.2c0.3-0.4,0.6-0.8,1-0.8c0.2,0,3.4,2.2,3.4,2.6c0,0.6-0.7,0.6-1.9,0.6h-2.6c-0.4,0-1,0-1.2,0.5
			c-0.1,0.3-0.1,4.8-0.1,6.2c0,2,0,2.2,0.6,2.2c0.2,0,0.5,0,0.9-0.6c0.8-1,1-1.3,1.2-1.3c0.4,0,2.5,2.2,2.5,2.6
			c0,0.4-1.1,0.4-1.9,0.4h-2c-1.3,0-1.3,0.6-1.3,1.7c0,0.7,0,6.6,0.1,7c0.1,0.3,0.3,0.3,0.4,0.3c0.8,0,4.4-1,4.8-1
			c0.1,0,0.3,0,0.3,0.2c0,0.4-1.5,1-8.5,3.6c-2.2,0.9-2.5,1-3,1.7c-0.3,0.4-0.6,0.6-0.9,0.6c-0.5,0-2-3.2-2-3.6
			c0-0.2,0.1-0.4,0.3-0.4c0.2,0,0.8,0.1,1,0.1c0.7,0,4.6-0.2,4.8-0.8c0.1-0.3,0.1-7.2,0.1-8c0-0.5,0-1.3-1-1.3c-0.2,0-1.8,0-2.7,0.1
			c-0.2,0-0.7,0.1-0.8,0.1s-0.2-0.1-0.3-0.2L89,15.5z M111.4,24.4c0,0.3-0.2,0.4-0.5,0.4c-0.5,0.2-0.5,0.2-1.3,2.6
			c-0.5,1.6-1.8,5.1-7.1,7.8c-3.4,1.7-6.9,2.1-7.3,2.1c-0.3,0-0.5-0.2-0.5-0.3c0-0.2,0.4-0.2,0.9-0.4c1.9-0.4,7.1-2.6,9.7-6.3
			c1.8-2.6,2.2-5.7,2.2-6.2c0-0.2-0.2-0.8-0.2-0.9c0-0.4,0.4-0.3,0.6-0.2C108.5,23,111.4,23.9,111.4,24.4z M116.7,3.5
			c0.4,0,1,0,1.5-0.4c0.2-0.1,0.9-1,1.2-1s3,1.8,3,2.4c0,0.2-1.1,1-1.2,1.3c-0.1,0.2-0.1,2.3-0.1,2.7c0,1.9,0.2,11.4,0.2,13.6
			c0,0.6,0,2.2-1.9,2.2c-0.8,0-0.8-0.4-1-1c-0.2-0.7-0.8-0.7-1.6-0.7c-0.4,0-1,0.1-1.1,0.6c-0.1,0.5-0.1,4.8-0.1,5.8
			c0,1,0,3.8,0.3,4.3c0.4,0.8,2.1,0.8,3,0.8c2.5,0,2.6-0.5,3.2-4.2c0.2-1.1,0.2-1.3,0.5-1.3c0.2,0,0.2,0.2,0.2,0.6
			c0.2,1.5,0.2,2.1,0.5,2.8c0.1,0.4,1.3,1.8,1.3,2.1c0,0.3-0.4,1-0.9,1.4c-0.6,0.6-1.6,1-4.8,1c-3.7,0-5.6-0.4-5.9-2.4
			c-0.1-0.6,0-3.4,0-4c0-1.1,0-6-0.1-6.7c-0.1-0.9-0.7-0.9-1.1-0.9h-4.9c-0.6,0-0.6,0.3-0.8,0.9c-0.2,0.8-1,1.1-1.6,1.1
			c-0.5,0-1-0.2-1-1.2c0-0.1,0.1-1.6,0.1-1.8c0.1-1.3,0.1-2.1,0.1-5.7c0-4.9,0-8-0.2-10.7c0-0.4-0.2-2.1-0.2-2.6
			c0-0.1,0-0.3,0.1-0.3c0.4,0,1.9,0.9,2.3,1c0.7,0.2,1.2,0.2,1.8,0.2H116.7z M117.3,9.4c1.2,0,1.2-0.3,1.2-2.6c0-1.8,0-2.2-1.2-2.2
			h-9.7c-1.2,0-1.2,0.3-1.2,2.6c0,1.9,0,2.2,1.2,2.2H117.3z M107.6,10.5c-1.2,0-1.2,0.4-1.2,2.6c0,1.7,0,2.1,1.2,2.1h9.7
			c1.3,0,1.3-0.3,1.3-2.7c0-1.5,0-2-1.3-2H107.6z M117.2,21.5c1.2,0,1.3-0.2,1.3-3.7c0-1,0-1.5-1.2-1.5h-9.6c-1.2,0-1.2,0.6-1.2,1.4
			c0,3.8,0,3.8,1.3,3.8H117.2z"/>
		<path class="st0" d="M133.1,12.2c-0.2-0.2-0.2-0.2-0.2-0.3s0.1-0.1,0.2-0.1c0.8,0,4.2,0.2,4.9,0.2c1,0,1-0.3,1-3
			c0-0.7,0-2.8-0.1-4.4c0-0.4-0.2-1.9-0.2-2.2c0-0.2,0-0.3,0.3-0.3c0,0,4.2,1,4.2,2c0,0.2,0,0.2-0.6,0.8c-0.5,0.6-0.7,1.6-0.7,2.6
			c0,1.4,0,2.2,0,3.7c0,0.6,0.1,0.8,0.6,0.8c0.5,0,0.7-0.2,0.9-0.4s1.1-1.4,1.4-1.4c0.2,0,3,2.2,3,2.6s-0.2,0.4-2.1,0.4h-2.7
			c-0.5,0-1,0.1-1.1,0.6c-0.1,0.4-0.1,8-0.1,9.2c0,1.9,0,2.1,0.4,2.1c0.6,0,4.4-1.7,4.5-1.7c0.1,0,0.2,0.1,0.2,0.2
			c0,1.3-8.5,5.4-10,6.6c-0.6,0.5-0.8,0.8-1,1.2c-0.1,0.2-0.3,0.6-0.6,0.6c-0.6,0-0.9-0.4-1.1-0.7c-0.4-0.6-1.9-3-1.9-3.4
			c0-0.2,0.2-0.2,1.4-0.3c0.4,0,3.4-0.6,4.3-0.8c0.9-0.2,0.9-1.1,0.9-1.8c0-1.7,0.2-9.1,0.2-10.6c0-0.7-0.2-1.1-0.9-1.1
			c0,0-2,0-2.9,0.1c-0.1,0-0.7,0.1-0.8,0.1c-0.2,0-0.2-0.1-0.4-0.2L133.1,12.2z M143.8,19.2c-0.2-0.2-0.2-0.2-0.2-0.3s0-0.1,0.2-0.1
			c0.2,0,1.5,0.1,1.8,0.1c2,0.1,3.6,0.2,5.5,0.2h10.9c1.9,0,2.1,0,2.6-0.7c1.1-1.6,1.2-1.8,1.7-1.8c0.6,0,1.2,0.4,3,1.8
			c1,0.7,1.1,0.8,1.1,1.1c0,0.6-0.8,0.6-2.1,0.6h-12.9c-0.8,0-1.3,0.4-1.4,0.5s-1.6,1.7-1.6,2.2c0,0.5,0.9,0.5,1.4,0.5h8.2
			c0.5,0,1.8,0,2.2-0.2c0.4-0.2,1.6-1.6,1.9-1.6c0.4,0,3.1,1.8,3.1,2.3c0,0.3-0.1,0.4-0.7,0.8c-0.7,0.5-0.7,0.8-1.2,4.1
			c-0.7,4.8-1.3,6.2-2.2,7c-1.2,1.1-3.4,1.4-3.8,1.4c-0.5,0-0.6,0-0.7-0.7c-0.2-1-1-1.6-1.5-1.9c-0.1,0-0.6-0.3-0.6-0.5
			s0.2-0.2,0.3-0.2c0.2,0,1,0.1,1.2,0.1c2.2,0,3.2,0,3.8-2.2c0.4-1.6,1-5.5,1-6.6c0-0.8-0.4-0.8-1.2-0.8c-0.9,0-1.1,0.2-1.6,1.3
			c-2.6,5.9-8.4,9.4-9,9.8c-0.6,0.3-2.5,1-2.7,1c-0.1,0-0.3,0-0.3-0.2c0-0.1,0.5-0.5,0.7-0.6c5.3-3.7,8.2-9.5,8.2-10.7
			c0-0.5-0.3-0.5-1.4-0.5c-0.7,0-0.8,0.1-1.6,1.3c-4.4,6.6-9.6,8-10.2,8c0,0-0.1,0-0.1-0.1c0-0.2,1.6-1.4,2-1.6
			c2.2-1.9,3.6-3.5,4.8-5.8c0.4-0.7,0.6-1.1,0.6-1.4c0-0.4-0.4-0.4-1.3-0.4c-0.9,0-1.1,0.3-1.9,1.1c-2.9,3.1-6,5.4-6.7,5.4
			c-0.1,0-0.2,0-0.2-0.1s0.5-0.6,0.6-0.7c4.6-6,6.5-8.8,6.5-9.5c0-0.5-0.7-0.5-1-0.5c-0.9,0-2.5,0-3.3,0.1c-0.2,0-0.7,0.1-0.9,0.1
			c-0.1,0-0.2-0.1-0.3-0.3L143.8,19.2z M160.7,3.2c0.7,0,1-0.2,1.2-0.4c0.7-0.8,0.8-0.8,1.1-0.8c0.3,0,2.8,1.2,2.8,1.9
			c0,0.3-0.2,0.4-0.4,0.6c0,0-0.5,0.3-0.5,0.4c-0.2,0.3-0.2,5.6-0.2,6.5c0,0.4,0.1,2.6,0.1,3.1c0,0.8,0,2.6-1.9,2.6
			c-0.4,0-0.8-0.1-1.1-0.4c-0.4-0.5-0.5-0.6-1.1-0.6h-7.1c-0.8,0-0.8,0-1.2,0.6c-0.4,0.5-1.2,0.8-1.8,0.8c-0.7,0-1.2-0.3-1.2-1.1
			c0-0.2,0.2-2.7,0.2-3.9c0-1.1-0.1-6.6-0.1-7.6c0-0.4-0.2-2.2-0.2-2.4c0-0.1,0-0.3,0.2-0.3c0.2,0,1.5,0.6,1.7,0.7
			c1.2,0.5,1.3,0.7,2.1,0.7H160.7z M153.4,4.3c-1.2,0-1.2,0.3-1.2,3.2c0,1,0.3,1.3,1.2,1.3h7.2c0.6,0,1.1-0.1,1.2-1c0-0.4,0-2,0-2.4
			c0-1-0.5-1.1-1.2-1.1H153.4z M153.4,9.8c-0.9,0-1.1,0.5-1.1,1.1c0,3.8,0.2,3.8,1.3,3.8h7c1.1,0,1.2-0.2,1.2-3.8
			c0-0.4,0-1.1-1.2-1.1H153.4z"/>
		<path d="M179,15.1c1.4,0,1.9-0.1,6.4-1.4c2.9-0.8,10.5-3,12.6-3c1.2,0,2.7,0.5,2.7,1.6c0,0.9-0.9,1.2-1.3,1.2
			c-0.4,0-2.3-0.4-2.7-0.4c-4.2,0-8.9,3.9-8.9,12.3c0,5.5,2.1,5.9,4,5.9c0.5,0,2.8-0.2,3.1-0.2c1,0,1.6,0.4,1.6,1.2
			c0,1.7-3.6,1.7-3.8,1.7c-6.7,0-6.7-5.5-6.7-7c0-1.4,0-8.4,4.8-12.7c0.1-0.1,0.8-0.6,0.8-0.7c0-0.1-0.1-0.1-0.2-0.1
			c-1.9,0-8.7,2.9-9.8,3.5c-0.4,0.2-0.8,0.4-1.1,0.4c-1.6,0-3.2-2.2-2.8-2.7C177.9,14.8,178.8,15.1,179,15.1z M200,22.4
			c0,0.8-0.6,1.3-1.2,1.3c-0.6,0-0.9-0.6-1.4-1.9c-0.4-0.9-0.6-1.2-1.6-2.6c-0.1-0.1-0.3-0.5-0.3-0.6c0-0.2,0.4-0.2,0.7-0.1
			C199,19.3,200,21.3,200,22.4z M204,20.8c0,0.9-0.5,1.2-1,1.2c-0.8,0-1.2-1-1.5-1.7c-0.3-0.7-1.3-1.9-2.2-2.6
			c-0.2-0.1-0.3-0.3-0.3-0.4c0-0.2,0.4-0.2,0.5-0.2c0.3,0,0.6,0.1,0.8,0.2C202.3,17.8,204,19.2,204,20.8z"/>
		<path d="M209.2,20.4c-0.1-0.1-0.1-0.2-0.1-0.2c0-0.1,0.1-0.1,0.1-0.1c0.6,0,3.4,0.2,4,0.2c0.6,0,0.8-0.3,1.1-0.6
			c0.7-0.8,0.8-0.9,1-0.9c0.2,0,2.1,1.2,2.1,1.7c0,0.1,0,0.2-0.1,0.2c-0.1,0.1-0.7,0.5-0.8,0.6c-0.2,0.2-0.2,0.6-0.2,4.2
			c0,4,0,4.3,0.9,5.5c1.4,1.9,3.3,2.5,9.4,2.5c5,0,7.8-0.2,10.4-0.6c0.4-0.1,2.6-0.5,2.7-0.5c0.1,0,0.2,0,0.2,0.1
			c0,0.1-0.5,0.6-0.6,0.7c-0.2,0.3-0.6,0.8-0.8,1.2c-0.6,1.3-0.6,1.3-1,1.5c-0.4,0.1-3.8,0.1-4.3,0.1c-3,0-8.1-0.2-10.2-0.4
			c-1.4-0.2-3.9-0.5-5.8-3.2c-0.2-0.3-1.2-2-1.3-2c-0.3,0-2.9,3.2-3.4,4.2c-0.5,1.1-0.6,1.2-0.9,1.2c-0.3,0-1.2-1.1-1.4-1.3
			c-0.3-0.3-0.8-0.7-0.8-1c0-0.2,0.2-0.2,0.4-0.3c0.9-0.2,4.3-1.9,4.5-3.4v-7.3c0-0.8,0-1.3-1-1.3c-0.1,0-1.6,0-2.5,0.1
			c-0.1,0-0.6,0.1-0.7,0.1s-0.2-0.1-0.3-0.2L209.2,20.4z M215.3,15.3c-0.7,0-0.8-0.2-2-2.3c-0.3-0.5-1.3-2-3.2-3.8
			c-0.5-0.5-0.5-0.5-0.5-0.7c0-0.1,0.1-0.2,0.3-0.2c0.1,0,1.6,0.4,3.3,1.3c1.6,0.9,3.2,2.1,3.2,4.6
			C216.3,14.8,215.8,15.3,215.3,15.3z M217.7,26.4c-0.1-0.2-0.1-0.2-0.1-0.2c0-0.1,0-0.1,0.1-0.1c0.2,0,0.9,0.1,1.1,0.1
			c0.3,0,2.8,0.1,3.5,0.1c1.2,0,1.2-0.1,1.2-1.6c0-1,0-1.4-1-1.4c-0.4,0-2.3,0.1-2.5,0.1c-0.1,0-0.2-0.1-0.3-0.2l-0.6-0.8
			c-0.1-0.2-0.1-0.2-0.1-0.2c0-0.1,0.1-0.1,0.1-0.1c0.5,0,2.9,0.2,3.5,0.2c0.8,0,0.9-0.4,0.9-1c0-0.3,0-0.8-0.1-1.2
			c0-0.1-0.3-0.8-0.3-0.8c0-0.1,0.1-0.1,0.2-0.1c0.5,0,2.5,0.2,2.5,1c0,0.1-0.4,0.7-0.4,0.9c0,0.1,0,0.3,0,0.5
			c0,0.7,0.4,0.7,0.7,0.7h2.4c0.9,0,1-0.3,1-1c0-0.3-0.1-1.9-0.1-2.2c0-0.2,0.3-0.2,0.4-0.2c0.4,0,2.3,0.4,2.3,0.8
			c0,0.2-0.5,1-0.5,1.1c-0.1,0.3-0.1,0.5-0.1,0.7c0,0.6,0.1,0.8,0.7,0.8c0.9,0,1.1-0.1,1.4-0.6c0.8-1.2,0.9-1.3,1.2-1.3
			c0.6,0,2.1,2,2.1,2.2c0,0.5-0.8,0.5-1.5,0.5h-2.9c-0.5,0-1,0.1-1,0.9c0,2,0,2.2,1,2.2h1.1c1.3,0,1.5,0,1.9-0.6
			c0.8-1.2,0.9-1.3,1.2-1.3c0.6,0,2.1,2,2.1,2.2c0,0.6-0.8,0.6-1.5,0.6h-14.3c-0.9,0-2.3,0-3.5,0.1c-0.1,0-0.8,0.1-0.9,0.1
			c-0.1,0-0.2-0.1-0.3-0.2L217.7,26.4z M221.5,13.4c-0.6,0-0.8,0.3-0.8,0.8c0,0.9,0.1,1.6,0.3,2c0.2,0.5,0.5,0.5,2.6,0.5
			c1,0,1.8,0,2.4-0.9c0.1-0.2,0.6-1.2,0.8-1.2c0,0,0.2,0.1,0.2,0.3c0.1,0.2,0.2,0.9,0.2,1.1c0,0.1,0.4,0.7,0.4,0.9
			c0,0.5-0.8,1.2-1.5,1.5c-0.8,0.3-2.2,0.3-3.9,0.3c-3,0-3-1.1-3-4.1c0-0.5,0-1.2-0.1-1.6c0-0.1-0.2-0.6-0.2-0.7
			c0-0.2,0.4-0.3,0.5-0.3c0.4,0,0.7,0.1,1.3,0.4c0.5,0.2,0.7,0.2,0.9,0.2h1.4c0.6,0,1-0.1,1-1c0-2,0-2.3-1.1-2.3
			c-0.8,0-2.3,0-3.3,0.1c-0.1,0-0.6,0.1-0.7,0.1c-0.1,0-0.2-0.1-0.3-0.2l-0.6-0.8c-0.2-0.2-0.2-0.2-0.2-0.2s0.1-0.1,0.1-0.1
			c0.2,0,1,0.1,1.2,0.1c0.4,0,3.1,0.1,3.7,0.1c0.6,0,0.9,0,1.1-0.4c0.2-0.3,0.4-0.6,0.7-0.6c0.1,0,1.9,1.1,1.9,1.4
			c0,0.1,0,0.2-0.4,0.5c-0.3,0.3-0.3,0.7-0.3,1.2c0,0.3,0.1,2,0.1,2.4c0,1.2-1,1.3-1.2,1.3c-0.4,0-0.6-0.2-0.8-0.5
			c-0.2-0.3-0.5-0.3-0.8-0.3H221.5z M226.1,29.1c0,0.2-0.1,0.2-0.9,0.6c-0.4,0.2-2.3,1.4-2.7,1.6c-0.7,0.4-1.8,0.8-2.6,0.8
			c-0.1,0-0.3,0-0.3-0.2c0-0.1,1.6-1.3,1.9-1.5c0.7-0.7,1.5-1.7,1.7-2.3c0.3-0.6,0.3-0.6,0.5-0.6c0.1,0,0.2,0.1,0.3,0.1
			C224.5,27.9,226.1,28.8,226.1,29.1z M226.2,23.3c-0.9,0-0.9,0.6-0.9,1.3c0,1.5,0,1.8,1.1,1.8h2c1,0,1.1-0.3,1.1-1.3
			c0-1.4,0-1.8-1-1.8H226.2z M231.4,13.6c-0.7,0-1,0.1-1,0.9c0,1.6,0,2,2.3,2c1.7,0,3.7,0,4.1-1c0.1-0.3,0.4-1.6,0.6-1.6
			c0.1,0,0.6,1.3,0.8,1.4c0.1,0.2,0.7,0.8,0.7,1c0,0.5-0.7,1-1.3,1.4c-0.6,0.3-1.3,0.6-3.6,0.6c-5.3,0-5.3-0.3-5.3-3.3
			c0-0.4-0.3-2.4-0.3-2.5c0-0.2,0.4-0.3,0.6-0.3c0.1,0,1.2,0.3,1.3,0.3c0.5,0.1,0.8,0.1,1,0.1h1.9c0.7,0,1-0.2,1-1
			c0-0.3,0-1.7-0.1-2c-0.1-0.4-0.4-0.6-0.8-0.6c-2,0-3.3,0-3.4,0.1c-0.1,0-0.9,0.1-1,0.1c-0.1,0-0.2-0.1-0.3-0.2l-0.6-0.8
			C228,8.3,228,8.3,228,8.3s0.1-0.1,0.1-0.1c0.2,0,1.3,0.1,1.5,0.1s2.8,0.1,4,0.1c0.5,0,0.6-0.1,0.8-0.4c0.3-0.4,0.4-0.5,0.7-0.5
			c0.1,0,1.8,1.1,1.8,1.3c0,0.1-0.1,0.2-0.4,0.5c-0.2,0.1-0.3,0.4-0.3,0.9c0,0.4,0.1,2.4,0.1,2.8c0,1.2-1.2,1.3-1.3,1.3
			c-0.5,0-0.6-0.1-0.8-0.5c-0.1-0.3-0.6-0.3-0.7-0.3H231.4z M234.8,31.5c0,0.5-0.4,1-0.9,1c-0.5,0-0.8-0.3-1.3-0.7
			c-1.1-1-3-2.6-3.4-2.9c-0.2-0.2-0.6-0.4-0.6-0.5s0.1-0.2,0.3-0.2c0.3,0,0.3,0,0.9,0.1C232.3,28.7,234.8,29.3,234.8,31.5z"/>
		<path d="M252.5,32.8c0,0.7-0.3,1.3-1.1,1.3c-1.6,0-3.3-3.3-3.3-8.4c0-1.9,0.2-3.5,0.9-6.5c0.9-4,1-4.2,1-5.2
			c0-1.1-0.2-1.7-0.8-2.7c-0.1-0.2-0.6-1-0.6-1.2s0.4-0.3,0.6-0.3c1.8,0,3.5,3.3,3.5,3.9c0,0.3-1.4,4.3-1.7,5.1
			c-0.7,2.2-1.2,4.2-1.2,6.6c0,0.2,0,2.3,0.8,2.3c0.3,0,0.3-0.1,0.9-1.9c0.1-0.4,1.1-3.3,1.3-3.3c0.1,0,0.1,0.2,0.1,0.3
			c0,1.1-0.9,5.8-0.9,6.7C252,30.2,252.5,32.4,252.5,32.8z M265.3,31.3c-0.9,1.8-2.7,3.1-4.9,3.1s-4.1-1.3-4.1-3.3
			c0-0.5,0-3.9,6.7-4c0.8,0,0.8-0.2,0.8-2.3c0-0.2-0.1-3.7-0.1-4.6c0-0.2,0-0.6-0.3-0.8c-0.1-0.1-1.3-0.1-1.5-0.1
			c-3.7,0-4.9-2.6-4.9-2.9c0-0.1,0-0.2,0.2-0.2c0.1,0,0.8,0.4,0.9,0.5c0.9,0.4,2.3,0.7,3.7,0.7c1.8,0,1.8,0,1.8-2.2
			c0-2.1,0-3-0.6-3.8c-0.1-0.2-1-0.9-1-1.1c0-0.2,0.4-0.6,1.1-0.6c0.7,0,2.9,0.5,2.9,1.7c0,0.2,0,0.3-0.4,0.8
			c-0.1,0.2-0.2,0.4-0.2,0.7c0,1,1.7,1.1,1.9,1.1c1.4,0.1,2.5,0.1,2.5,1.5c0,1.5-2.2,2.5-3.4,3c-1.2,0.5-1.2,0.6-1.2,2
			c0,0.7,0.2,4.4,0.3,5.3c0.1,1.2,0.2,1.4,1.1,1.8c1.6,0.7,5.1,2.2,5.1,4.2c0,0.6-0.5,1.3-1.2,1.3c-0.4,0-0.5-0.1-1.3-1.1
			c-1-1.2-2.7-2.5-3.3-2.2C265.7,29.8,265.4,31,265.3,31.3z M257.6,30.8c0,0.9,1,1.4,2.2,1.4c1.9,0,3.9-1.6,3.9-2.7
			c0-0.6-0.5-0.8-2.6-0.8C259.3,28.8,257.6,29.9,257.6,30.8z M265.2,15.3c0,1.3,0.3,1.3,0.5,1.3c0.5,0,1.7-0.4,1.7-1.2
			c0-0.6-1.1-1-1.5-1c-0.1,0-0.3,0-0.4,0.1C265.3,14.6,265.2,14.8,265.2,15.3z M271.8,11.3c0.9,0.6,1.3,1.3,1.3,1.8
			c0,0.6-0.4,1.2-0.9,1.2c-0.4,0-0.7-0.2-1.6-1.3c-0.6-0.7-0.9-0.9-2.3-1.7c-0.1-0.1-0.5-0.3-0.5-0.5c0-0.1,0.3-0.3,0.5-0.3
			C269.4,10.6,270.6,10.6,271.8,11.3z M276,11.3c0,0.4-0.3,1-0.8,1c-0.7,0-1.1-0.6-1.6-1.3c-0.4-0.6-1.6-1.4-2.6-1.9
			c-0.3-0.1-0.4-0.3-0.4-0.4c0-0.3,1-0.3,1.2-0.3C273.1,8.4,276,9.4,276,11.3z"/>
		<path d="M290.5,11.2c0,0.3-0.3,1.7-0.3,2c0,0.2-0.2,1.5-0.2,2.4c0,0.7,0.1,0.9,0.7,1.2c0.3,0.2,0.5,0.3,0.5,0.7
			c0,0.1,0,0.5-0.3,0.9c-0.7,1-0.8,1.1-0.8,1.2c0,0.1,0,0.1,0.1,0.1c0.1,0,0.2-0.1,0.8-0.7c1.7-1.6,5.7-5.4,8.8-5.4
			c2.2,0,3.2,1.6,3.2,3.9c0,1.2-0.2,2.7-0.4,4.2c-0.5,3.3-0.5,3.8-0.5,4.9c0,1.3,0.2,3.1,2.4,3.1c0.5,0,1.9,0,3.5-1.6
			c0.2-0.3,0.5-0.6,0.7-0.6c0.1,0,0.2,0.2,0.2,0.3c0,0.5-1.8,4.3-5.3,4.3c-3.9,0-3.9-3.9-3.9-4.8c0-0.8,0-1.2,0.4-3.1
			c0.6-3,0.9-6.1,0.9-6.9c0-0.6,0-2.3-2-2.3c-2.3,0-5.1,2.3-7.3,4.4c-2.2,2.1-2.5,3.4-2.5,6.7c0,1.5,0.1,3.3,0.3,4.2
			c0.3,2.1,0.4,2.4,0.4,3.1c0,1.1-0.3,1.8-1.3,1.8c-1,0-1.2-0.8-1.5-2.5c-0.1-0.4-1-3.6-1.3-3.6c-0.1,0-0.2,0.1-0.4,0.9
			c-0.3,1-0.8,1.8-1.8,1.8c-0.8,0-1.2-0.7-1.2-1.2c0-1.2,1.1-3.1,1.4-3.7c0.1-0.3,0.4-0.8,0.4-1.1c0-0.4-0.6-2-0.8-2.5
			c-0.7-1.8-0.8-2.1-0.8-2.6c0-1.5,1-2.4,1.6-2.6c2.3-0.7,3.5-1.1,3.9-1.3c0.2-0.1,0.2-0.4,0.2-1c0-1.8-0.2-3.3-0.9-4.8
			c-0.1-0.3-1-1.4-1-1.6c0-0.3,0.5-0.3,0.8-0.3C288.5,9,290.5,10.6,290.5,11.2z M287.6,18.7c-0.3,0-3.7,0.7-3.7,2.3
			c0,1.2,0.8,3.6,1.1,3.6c0.1,0,0.3-0.2,0.4-0.3c0.1-0.2,1.8-3.6,2-3.9c0.3-0.6,0.7-1.3,0.6-1.5C287.9,18.8,287.7,18.7,287.6,18.7z
			 M287.6,26.4c0-0.2,0.1-1.1,0.1-1.2c0-0.1,0-0.3-0.2-0.3c-0.3,0-1.3,2.2-1.3,2.5c0,0.8,1.1,2.4,1.2,2.4
			C287.6,29.8,287.6,29.6,287.6,26.4z"/>
		<path d="M316.4,15.1c1.4,0,1.9-0.1,6.4-1.4c2.9-0.8,10.4-3,12.6-3c1.2,0,2.6,0.5,2.6,1.6c0,0.9-0.9,1.2-1.3,1.2
			c-0.4,0-2.3-0.4-2.7-0.4c-4.2,0-8.9,3.9-8.9,12.3c0,5.5,2.1,5.9,4,5.9c0.5,0,2.9-0.2,3.1-0.2c1,0,1.6,0.4,1.6,1.2
			c0,1.7-3.6,1.7-3.8,1.7c-6.7,0-6.7-5.5-6.7-7c0-1.4,0-8.4,4.8-12.7c0.1-0.1,0.8-0.6,0.8-0.7c0-0.1-0.1-0.1-0.2-0.1
			c-1.9,0-8.7,2.9-9.8,3.5c-0.5,0.3-0.8,0.4-1.2,0.4c-1.6,0-3.2-2.2-2.8-2.7C315.3,14.8,316.3,15.1,316.4,15.1z"/>
		<path d="M350.4,16.3c0,0.3-0.1,0.4-0.4,1.3c-0.5,1.3-0.8,2.5-0.8,4.2c0,3.3,1.7,5.7,2.7,5.7c0.6,0,0.7-0.2,1.7-1.8
			c0.2-0.3,0.8-1.1,1-1.1c0.1,0,0.2,0.1,0.2,0.3c0,0.1-0.1,0.6-0.1,0.7c-0.4,1.5-0.4,1.8-0.4,2.5c0,0.6,0.1,1,0.2,1.3
			c0.1,0.4,0.3,0.9,0.3,1.1c0,0.7-0.7,1-1.2,1c-2.1,0-6.3-3.5-6.3-9.7c0-0.9,0.5-5,0.5-5.8c0-0.7-0.1-1.5-0.2-1.9
			c-0.2-0.8-0.3-0.9-0.3-1.1c0-0.1,0.1-0.1,0.2-0.1C348.9,12.8,350.4,15.5,350.4,16.3z M366.4,17.1c1.7,1.3,2.9,3.7,2.9,6.3
			c0,0.6-0.1,2.2-1.6,2.2c-1.6,0-1.6-1.8-1.6-2.2c0-2.7,0-4.1-1.7-5.9c-0.3-0.3-1.6-1.3-1.6-1.5c0-0.1,0.1-0.2,0.3-0.2
			C363.1,15.9,365,15.9,366.4,17.1z"/>
		<path d="M386.2,8.5c0-0.1-0.2-0.4-0.2-0.5c0-0.2,0.6-0.2,0.8-0.2c0.9,0,2.7,0.8,2.7,1.5c0,0.3-0.7,1.5-0.8,1.7
			c-0.2,0.5-0.5,1.7-0.5,2.1c0,0.1,0,0.2,0.1,0.2c0.1,0,0.2,0,0.9-0.3c0.3-0.1,0.8-0.3,1.2-0.3c0.3,0,1,0.1,1,0.6
			c0,1.2-2.2,1.9-3.2,2.2c-0.3,0.1-0.3,0.1-0.4,0.6c0,0.1-0.2,1.8-0.2,3.2c0,0.8,0,1,0.4,1c0.4,0,2.7-0.7,2.7-1.7
			c0-0.1-0.1-0.5-0.1-0.6s0.1-0.1,0.2-0.1c0.2,0,0.9,0.2,1,0.2c1.3,0.1,2.2,0.2,2.2,0.9c0,1.2-3.7,2.7-5.2,3.2
			c-1,0.4-1.1,0.4-1.1,0.7c0,0.6,0.4,4.4,0.4,4.7c0.1,1.1,0.1,1.2,0.8,1.5c2.6,1.1,4.7,2.8,4.7,4.3c0,0.9-0.6,1.4-1.1,1.4
			c-0.5,0-0.6-0.2-1.8-1.6c-0.7-0.8-1.9-1.8-2.3-1.8c-0.2,0-0.3,0.2-0.4,0.5c-0.7,1.5-2.9,3.3-5.6,3.3c-3.1,0-4.2-2.2-4.2-3.6
			c0-2,2-3.5,5.9-3.5c0.3,0,1.5,0.1,1.7,0.1c0.4,0,0.4-0.1,0.4-1.2c0-0.7,0-2.9-0.1-3.8c0-0.3,0-0.5-0.3-0.5c-0.5,0-2.4,0.2-2.9,0.2
			c-0.8,0-3.1,0-4.5-1.3c-0.5-0.5-1-1.3-1-1.5c0-0.1,0-0.1,0.1-0.1c0.2,0,1.1,0.4,1.2,0.5c1.5,0.5,3,0.6,4,0.6c0.8,0,3,0,3.2-0.6
			c0-0.1,0.3-4.4,0.3-4.4c0-0.2-0.2-0.2-0.7-0.2c-2.3-0.2-4.4-1.8-4.4-3.1c0-0.1,0-0.2,0.1-0.2c0,0,0.8,0.5,0.9,0.5
			c1.4,0.9,2.7,0.9,3.2,0.9c0.7,0,1-0.2,1.1-0.5c0.1-0.3,0.2-2.2,0.2-2.9C386.8,9.9,386.3,8.8,386.2,8.5z M382.8,29.7
			c-0.1,0-3.5,0-3.5,1.9c0,1.3,1.7,1.6,2.6,1.6c1.1,0,2.5-0.5,3.3-1.2c0.6-0.5,0.9-1.3,0.8-1.6C385.7,29.8,383.4,29.7,382.8,29.7z"
			/>
		<path d="M404.3,16c2.3,0,6.5-0.7,9-1.1c1.7-0.3,1.9-0.3,1.9-1.2c0-1.6-0.2-3.6-0.5-4.5c0-0.2-0.6-0.8-0.6-0.9
			c0-0.2,0.5-0.2,0.7-0.2c1.4,0,2.7,0.6,2.7,1.6c0,0.2-0.1,0.9-0.1,1c0,0.8,1,1.3,2.9,2.1c0.8,0.3,1.7,0.7,2.9,0.7
			c0.3,0,1.7-0.2,2-0.2c0.4,0,1.9,0.1,1.9,1.3c0,0.9-0.6,1.2-1.8,1.2c-0.7,0-3.8-0.3-4.4-0.3c-0.8,0-2.9,0.1-3.6,0.3
			c-0.5,0.2-0.5,0.7-0.5,3.6c0,0.9,0,1.2,0.4,2.1c0.6,1.4,1,2.5,1,4.4c0,6.4-5,10.5-6,10.5c-0.1,0-0.2,0-0.2-0.1
			c0-0.1,1.3-1.6,1.6-2c0.9-1.3,1.8-3.4,1.8-4.8c0-0.1,0-0.5-0.3-0.5c-0.1,0-0.6,0.1-0.7,0.1c-1.8,0-3.4-1.7-3.4-4.3
			c0-0.4,0-4,3.2-4.5c0.9-0.1,0.9-0.3,0.9-2c0-1.8,0-2-0.7-2c-0.3,0-3.7,0.6-5.8,1.3c-0.6,0.2-3,1.3-3.5,1.3c-0.7,0-3.5-1.4-3.5-2.7
			c0-0.1,0.1-0.3,0.2-0.3C402.2,15.8,403.8,16,404.3,16z M414,21.4c-0.8,0-1.9,1.3-1.9,3c0,1.8,1.3,2.6,2.1,2.6c1.3,0,1.3-2,1.3-2.5
			c0-1.2-0.3-2-0.4-2.3C415.1,22.1,414.7,21.4,414,21.4z M417.1,13.6c0,0.5,0.1,0.6,0.6,0.6c0.1,0,2.3-0.1,2.3-0.6
			c0-0.3-2.2-1.8-2.5-1.7C417.2,12,417.1,12.7,417.1,13.6z"/>
	</g>
</g>
</svg>
