<?xml version="1.0" encoding="utf-8"?>
<!-- Generator: Adobe Illustrator 23.0.1, SVG Export Plug-In . SVG Version: 6.00 Build 0)  -->
<svg version="1.1" id="レイヤー_1" xmlns="http://www.w3.org/2000/svg" xmlns:xlink="http://www.w3.org/1999/xlink" x="0px"
	 y="0px" viewBox="0 0 124.4 44.6" style="enable-background:new 0 0 124.4 44.6;" xml:space="preserve">
<style type="text/css">
	.st0{fill:#6A3314;}
</style>
<g>
	<g>
		<g>
			<path class="st0" d="M47.5,44.4c0,0,0.1,0,0.3,0c0.1,0,0.1,0,0.2,0c0,0,0.1,0,0.2-0.1c0.1,0,0.2-0.2,0.2-0.4c0-0.1,0-0.2,0-0.2
				c0-0.1,0-0.1-0.1-0.2c-0.2-0.2-0.3-0.2-0.3-0.4c-0.1-0.1-0.1-0.1-0.2-0.2l0-0.1l0,0l-0.1,0c-0.1-0.1-0.2-0.1-0.2-0.1
				c0,0-0.1-0.1-0.1-0.1c0,0,0,0-0.1-0.1c-0.1-0.1-0.2-0.1-0.2-0.2c-0.1,0,0,0,0,0c0,0-0.1-0.1-0.1-0.2c-0.1-0.1-0.2-0.2-0.4-0.3
				c-0.1-0.1-0.2-0.1-0.3-0.1c0,0-0.1,0,0,0c0,0,0.1,0,0,0c0,0-0.1-0.1-0.3-0.3l-0.2-0.2l-0.2-0.1c0,0-0.1-0.1-0.2-0.1
				c-0.1,0-0.1,0-0.2,0c-0.1,0-0.1,0-0.1,0l0,0l0,0c0,0-0.1,0-0.1,0c-0.1,0-0.1,0-0.2,0c-0.1,0-0.1,0-0.1,0l-0.2-0.1
				c-0.1-0.1-0.3-0.2-0.4-0.2L44,40.7c0,0,0,0,0,0c0,0,0,0,0,0c0,0,0,0,0,0c0,0-0.1-0.1-0.2-0.2c0,0-0.1-0.1-0.2-0.1l0,0l0,0
				c0,0-0.1,0-0.1,0c-0.1,0-0.2,0-0.2,0c-0.1,0-0.1,0-0.1,0c0.1,0,0,0-0.1-0.1c0,0-0.1-0.1-0.2-0.2c0,0-0.1,0-0.1,0l0,0
				c0,0-0.1,0-0.1,0l-0.2,0c0,0,0,0,0,0c0,0,0,0,0,0l-0.1-0.1c0,0-0.1-0.1-0.2-0.1l-0.1,0l-0.1,0l0,0c-0.1,0-0.2,0-0.2,0
				c-0.2,0-0.3,0-0.3,0c0,0,0,0,0.1,0l-0.1,0l-0.1,0l-0.3-0.1c-0.2-0.1-0.4-0.1-0.6-0.2c-0.2-0.1-0.4-0.1-0.6-0.2
				c-0.2-0.1-0.4-0.2-0.6-0.2L39.2,39c-0.1,0-0.1,0-0.1,0L39,38.8c-0.1,0-0.1-0.1-0.2-0.1c-0.1,0-0.2-0.1-0.3-0.1
				c-0.1,0-0.2,0-0.2,0l-0.2,0c-0.1,0-0.1,0-0.1,0l-0.2,0c-0.1,0-0.2-0.1-0.3-0.1c-0.4,0-0.9-0.2-1.3-0.3c-0.1,0-0.2,0-0.3-0.1
				c-0.1,0-0.2-0.1-0.4-0.1c-0.2,0-0.5-0.1-0.7-0.1c-0.1,0-0.2,0-0.4-0.1c-0.1,0-0.1,0-0.3-0.1c-0.1,0-0.1-0.1-0.2-0.1
				c-0.1,0-0.2,0-0.2,0c-0.1,0-0.2,0-0.3,0c-0.1,0-0.3,0-0.4,0c-0.1,0-0.2-0.1-0.4-0.1c-0.2,0-0.3,0-0.4,0c-0.1,0-0.2,0-0.4-0.1
				c-0.1,0-0.1,0-0.2,0l-0.2,0c-0.1,0-0.2,0-0.3,0c-0.1,0-0.1,0-0.2,0c0,0-0.1,0-0.2,0c-0.1,0-0.3,0-0.4,0c-0.1,0-0.2,0-0.5,0
				l-0.2,0.1c0,0,0,0,0,0l-0.1,0c-0.2,0-0.5,0.1-0.8,0.1c0,0,0,0-0.1,0c-0.1,0-0.1-0.1-0.3-0.1c-0.2,0-0.3,0-0.4,0l-0.4,0
				c-0.1,0-0.2,0-0.2,0c-0.1,0-0.1,0-0.2,0l-0.4,0c-0.1,0-0.3,0-0.4,0c-0.1,0-0.1,0-0.1,0l-0.2-0.1c-0.1,0-0.2,0-0.3,0
				c-0.1,0-0.2,0-0.2,0c-0.1,0-0.1,0-0.1,0l-0.2,0c-0.1,0-0.2,0-0.3,0l-0.2,0l-0.4,0c-0.1,0-0.1,0-0.2,0c-0.1,0-0.2,0-0.2,0
				c0,0-0.1,0-0.1,0l-0.1,0l-0.2,0c-0.1,0-0.3,0-0.4,0l-0.1,0l-0.1,0c0,0,0,0,0,0c0,0,0,0,0,0c0,0,0,0-0.1-0.1
				c-0.1,0-0.2-0.1-0.3-0.1l-0.2,0l-0.2,0c-0.1,0-0.2,0-0.3,0c-0.1,0-0.1,0-0.1,0c0,0,0,0-0.1,0c-0.1,0-0.2-0.1-0.3-0.1l-0.2,0
				l-0.2,0l-0.2,0c-0.1,0-0.2,0-0.3,0c-0.2,0-0.3,0-0.3,0c-0.1,0-0.1,0-0.1,0l-0.2,0C19.6,37,19.4,37,19,37c-0.1,0-0.1,0-0.1,0
				l-0.2,0l-0.2,0l-0.2-0.1c0,0-0.1,0-0.1,0l-0.1,0c0,0,0,0,0,0c0,0,0,0,0,0c0,0,0,0-0.1-0.1c0,0-0.1,0-0.2-0.1c0,0-0.1,0-0.1,0l0,0
				l-0.1,0c-0.1,0-0.2,0-0.3,0c0,0,0,0,0,0s0,0,0,0l0,0L17,36.5c-0.1,0-0.1,0-0.3,0c-0.2,0-0.3,0-0.3,0.1c-0.1,0,0,0,0.1,0
				c0.1,0,0,0-0.1-0.1c0,0-0.1-0.1-0.2-0.1c0,0-0.1,0-0.1-0.1c0,0-0.1,0-0.1,0l0,0c-0.2,0-0.3,0-0.3,0c0,0,0,0,0,0s0,0,0,0
				c0,0,0,0,0,0l-0.2,0c-0.1,0-0.3,0-0.4-0.1c-0.2-0.1,0,0-0.2-0.1c0,0-0.1-0.1-0.2-0.1c0,0-0.1,0-0.1,0l-0.1,0c-0.1,0-0.2,0-0.3,0
				l-0.1,0c0,0,0,0,0,0c0,0,0,0,0,0l-0.2-0.1c-0.1,0-0.2-0.1-0.3-0.1l-0.2-0.1c-0.1,0-0.1,0-0.3-0.1l-0.2,0l0,0l-0.1,0l-0.1,0
				l-0.2,0c0,0-0.2-0.1-0.3-0.1c-0.1,0-0.3-0.1-0.4-0.1c-0.3-0.1-0.5-0.2-0.8-0.3l-0.4-0.1c0,0-0.3-0.1-0.4-0.1l-0.1,0
				c0.1,0-0.1,0-0.2-0.1c-0.2-0.1-0.1,0-0.2-0.1c0,0-0.1-0.1-0.2-0.1l-0.1,0l-0.1,0l-0.1,0L9,34.4c-0.1,0-0.2-0.1-0.3-0.1l-0.1,0
				c0,0,0,0,0,0c0,0,0,0,0,0c0,0,0,0,0,0c0,0,0,0,0,0c0,0-0.1-0.1-0.2-0.2C8.2,34,7.9,34,7.8,34c-0.1,0-0.2,0-0.2,0l0,0c0,0,0,0,0,0
				l-0.1,0l-0.2-0.1l-0.1,0c0.1,0,0,0,0,0c0,0-0.1-0.1-0.2-0.2c-0.1,0-0.1-0.1-0.2-0.2c0,0-0.1,0-0.1,0c0,0-0.1,0-0.1,0
				c-0.1,0-0.2,0-0.2,0c0,0,0,0,0,0c0,0,0,0,0,0c0,0,0,0,0,0c0,0,0,0,0,0c0,0,0,0-0.1-0.1c-0.1-0.1-0.2-0.2-0.4-0.2
				c-0.1,0-0.2,0-0.3,0c0,0,0,0,0,0l0,0l0,0c0,0-0.1-0.1-0.1-0.1l-0.1-0.1l-0.1,0l-0.1,0c-0.1,0-0.2-0.1-0.2-0.1l-0.1,0
				c0,0,0,0-0.1,0l-0.2-0.1l-0.3-0.2l-0.1-0.1c0,0,0,0-0.1-0.1c0-0.1-0.1-0.2-0.2-0.2c-0.1-0.1-0.2-0.1-0.2-0.1
				c-0.1,0-0.1,0-0.1-0.1l-0.2-0.1l-0.1-0.1c0,0,0,0-0.1-0.1c0-0.1-0.1-0.1-0.2-0.2c-0.1-0.1-0.2-0.1-0.2-0.2C2.9,31,2.9,31,2.9,31
				l0,0c0,0-0.1,0-0.1-0.1c0,0-0.1,0-0.1-0.1c-0.2-0.1-0.1,0-0.2-0.2l-0.1-0.2c-0.1-0.1-0.1-0.1-0.1-0.1C2.1,30.3,2,30.2,1.9,30
				l-0.1-0.1l0,0l-0.1-0.1l-0.2-0.3c0,0,0-0.2-0.1-0.5c-0.1-0.2-0.2-0.2-0.2-0.2c0-0.1,0-0.2-0.1-0.4c-0.1-0.2-0.1-0.3-0.2-0.4
				c0-0.1,0-0.2-0.1-0.4c0-0.1-0.1-0.2-0.1-0.4c0-0.1,0-0.2-0.1-0.4c0-0.1,0-0.2,0-0.4c0-0.1,0-0.1,0-0.2c0-0.1-0.1-0.2-0.1-0.2
				c0-0.1-0.1-0.1-0.1-0.1c0,0,0,0,0,0c0,0,0,0,0,0c0,0,0,0,0-0.1c0,0,0-0.1,0.1-0.2c0-0.1,0-0.2,0-0.3c-0.1-0.2-0.1-0.3-0.1-0.3
				c0,0,0.1-0.2,0.1-0.3c0-0.2-0.1-0.3-0.1-0.4c0,0,0-0.2,0-0.3l0-0.2c0,0,0-0.1,0-0.1c0,0,0.1-0.1,0.1-0.2c0-0.1,0-0.2,0-0.2
				c0-0.1,0-0.2,0-0.3c0-0.2,0-0.3,0-0.4c0-0.1,0-0.2,0.1-0.3c0-0.1,0-0.2,0-0.3l0-0.2c0,0,0-0.1,0-0.1c0-0.1,0.1-0.2,0.1-0.4
				c0-0.1,0-0.2,0-0.3l0.1-0.3c0-0.1,0-0.1,0-0.1c0,0,0-0.1,0.1-0.1c0,0,0.1-0.1,0.1-0.2c0-0.1,0-0.2,0-0.2C1,20.1,1,20,1,20
				c0,0,0.1-0.1,0.2-0.2c0.1-0.2,0.1-0.2,0.2-0.3l0.1-0.1c0,0,0.1-0.2,0-0.2c0-0.1,0-0.2,0-0.2c0.1-0.1,0.2-0.4,0.3-0.4
				c0,0,0.1-0.1,0.1-0.1C2,18.3,2,18.2,2,18.2l0.2-0.3l0.1-0.2c0.1-0.1,0.1-0.1,0.2-0.3c0-0.1,0.1-0.2,0.1-0.2c0,0,0,0,0.1-0.1
				c0.1-0.1,0.2-0.2,0.3-0.3c0.1-0.1,0.1-0.2,0.1-0.2c0,0,0,0,0,0c0,0,0,0,0,0l0,0c0,0,0,0,0,0c0,0,0.1,0,0.2-0.1
				c0,0,0.1-0.1,0.1-0.1l0,0l0,0c0,0,0,0,0,0c0.1-0.2,0.2-0.3,0.2-0.3c0,0,0,0,0,0c0,0,0.1-0.1,0.1-0.1c0.1-0.1,0.1-0.1,0.1-0.1l0,0
				c-0.1,0,0,0,0,0c-0.1,0-0.1,0-0.1,0.1c0,0,0,0,0,0c0,0,0.1,0,0.2,0c0,0,0.1,0,0.2-0.1c0,0,0.1,0,0.1-0.1l0.1,0
				c0.1-0.1,0.2-0.2,0.2-0.2c0,0,0,0,0,0c0,0,0.1,0,0.2-0.1c0.1,0,0.1,0,0.2-0.1l0,0l0.1-0.1l0.1-0.1C5.4,15,5.4,15,5.4,15
				c0,0,0,0,0,0L5.5,15l0.2-0.1l0,0l0,0c0,0,0,0,0,0l0,0c-0.1,0-0.1,0-0.1,0c0,0,0.1,0,0.2,0c0.1,0,0.2-0.1,0.2-0.1l0.1,0l0.2-0.1
				l0.1,0l0,0l0,0c0,0,0.2-0.1,0.2-0.1c0.2-0.1,0.2-0.2,0.2-0.2c0,0,0,0-0.1,0.1l0,0l-0.1,0l0,0c0,0-0.1,0-0.1,0c0,0,0,0,0,0
				c0,0,0.1,0,0.2,0c0.1,0,0.1,0,0.2,0c0,0,0.1,0,0.2,0l0.1,0c0.2-0.1,0.3-0.2,0.3-0.2l0,0c-0.1,0,0,0,0,0c0,0,0,0,0,0c0,0,0,0,0,0
				c0.1,0,0.3,0,0.5-0.1c0.3-0.2,0.3-0.2,0.3-0.3c0,0,0,0,0,0c0,0,0,0-0.1,0c0,0,0,0,0,0l0,0l0,0c0,0,0,0,0,0c-0.1,0,0,0,0,0
				c0.1,0,0.1,0,0.3,0c0.1,0,0.2,0,0.2,0c0.1,0,0.1,0,0.1-0.1c0.1,0,0.1-0.1,0.1-0.1c0.1-0.1,0.1-0.1,0.1-0.1C9,13.3,9,13.2,9,13.1
				S9,13,8.9,13c0,0-0.2,0-0.3,0c-0.1,0-0.2,0-0.1-0.1c0,0,0,0,0-0.1c-0.1,0-0.1-0.1-0.3-0.1c0,0-0.1,0-0.1,0l0,0l0,0l-0.1,0
				c-0.1,0-0.1,0-0.2,0c-0.1,0-0.2,0.1-0.2,0.1c-0.1,0.1-0.2,0.1-0.1,0c0.1-0.1,0.1,0,0-0.1c-0.1,0-0.1,0-0.3,0c0,0-0.1,0-0.1,0
				c-0.1,0,0,0-0.1,0c-0.1,0-0.1,0-0.2,0.1c-0.2,0.1-0.3,0.1-0.3,0.1c0,0,0,0,0,0c0.1,0,0.1,0,0.1,0c0,0,0.1,0,0.1,0c0,0,0,0-0.2,0
				c-0.1,0-0.1,0-0.2,0c0,0-0.1,0-0.2,0l0,0c-0.1,0-0.1,0-0.1,0l0,0c-0.2,0.1-0.3,0.3-0.4,0.3c0,0.1-0.1,0.1,0,0
				c0,0,0.1-0.1,0.1-0.1c0,0,0,0,0,0l0,0l-0.1,0l-0.2,0.1l-0.1,0c0,0,0.1,0,0.1,0c0,0-0.1,0-0.2,0c-0.1,0-0.1,0-0.3,0.1l0,0
				c-0.1,0,0,0-0.1,0l0,0l0,0l-0.2,0.1l-0.1,0.1c0,0-0.2,0.1-0.2,0.2c-0.1,0.1-0.2,0.2-0.2,0.2c0,0,0,0,0,0l0,0c0,0,0,0,0,0
				c0,0,0,0,0,0c0,0-0.1,0.1-0.2,0.1c-0.2,0.1-0.3,0.2-0.4,0.3c-0.1,0.1-0.1,0.1-0.1,0.1l0,0c0,0,0,0,0,0l0,0c0,0,0,0,0,0
				c0,0,0,0-0.1,0c0,0-0.1,0-0.2,0.1c0,0-0.1,0-0.2,0.1l-0.1,0.1l0,0C3.1,15.1,3,15.2,3,15.2c0,0,0,0,0,0.1
				c-0.1,0.1-0.1,0.2-0.2,0.2c-0.1,0.1-0.1,0.2-0.1,0.2c0,0,0,0,0,0c0,0,0,0,0,0l0,0c0,0,0,0,0,0c0,0,0,0-0.1,0c0,0-0.1,0.1-0.2,0.1
				l-0.1,0.1c0,0-0.1,0.1-0.1,0.1C2.4,16,2.4,16,2.3,16c-0.1,0.1-0.1,0.2-0.1,0.3c0,0,0,0.1-0.1,0.1c-0.1,0.1-0.2,0.2-0.3,0.4
				c-0.1,0.2-0.1,0.3-0.1,0.3c0,0,0,0.1-0.1,0.2l-0.1,0.3l-0.1,0.3c0,0.1,0,0,0,0.1c0,0,0,0-0.1,0.1c0,0-0.1,0.1-0.2,0.2l-0.1,0.2
				L1,18.7c-0.1,0.2,0,0.3,0,0.4c0,0,0,0,0,0.1l0,0.2c0,0.1-0.1,0.2-0.1,0.2c0,0.1-0.1,0.1-0.2,0.3c-0.1,0.2,0,0.3,0,0.4
				c0,0.1,0,0.1,0,0.1c0,0,0,0.1-0.1,0.1c0,0-0.1,0.1-0.1,0.2c0,0.1,0,0.1-0.1,0.2l-0.1,0.3c0,0.2,0,0.3,0,0.4c0,0.1,0,0.1-0.1,0.3
				c0,0.1-0.1,0.1-0.1,0.2l0,0.2c0,0.1,0,0.2,0,0.3c0,0.1,0,0.2-0.1,0.4c0,0.2,0,0.3,0,0.3c0,0.1,0,0.3,0,0.4c0,0.1,0,0.1,0,0.1
				c0,0,0,0.1-0.1,0.1C0.1,23.8,0,23.9,0,24l0,0.2l0,0.2c0,0,0,0.2,0,0.2c0.1,0.1,0.1,0.2,0.1,0.3c0,0.1-0.1,0.2-0.1,0.4
				c0,0.2,0.1,0.3,0.1,0.4c0,0,0,0.1-0.1,0.3c0,0.1,0,0.2,0,0.3c0,0.1,0.1,0.2,0.1,0.2c0,0.1,0,0.1,0,0.1c0,0,0,0.1,0,0.2
				c0,0.1,0,0.3,0,0.4c0,0.1,0,0.3,0,0.4c0,0.1,0,0.2,0.1,0.4c0,0.1,0,0.2,0.1,0.4c0.1,0.2,0.1,0.3,0.1,0.4c0,0.1,0,0.2,0.1,0.4
				c0.1,0.2,0.3,0.3,0.3,0.3c0,0,0,0.1,0,0.3c0,0,0,0.1,0,0.1l0,0l0,0l0.1,0.1l0.1,0.2l0.1,0.1c0,0,0.1,0.1,0.1,0.1l0.1,0.2
				c0.1,0.1,0.1,0.2,0.2,0.3c0,0.1,0.1,0.2,0.1,0.2L2,31.1L2,31.2l0,0c0,0,0,0,0.1,0.1c0.1,0.1,0.2,0.1,0.2,0.1c0,0,0,0,0.1,0
				c0,0,0,0,0,0l0,0c0.1,0.1,0.2,0.1,0.2,0.2c0.1,0.1,0.1,0,0.2,0.2c0,0.1,0.1,0.1,0.2,0.2l0.2,0.1l0.2,0.1c0.1,0.1,0.2,0.1,0.2,0.2
				c0.1,0,0.1,0.1,0.1,0.1c0,0,0,0,0.1,0.1c0,0.1,0.1,0.1,0.2,0.2L4.2,33l0.3,0.3l0.2,0.1c0,0,0.1,0.1,0.1,0.1c0,0,0.1,0,0.1,0.1
				c0.1,0,0.1,0.1,0.2,0.1c0,0,0,0,0,0c0,0,0,0,0,0l0.1,0c0,0,0.1,0.1,0.2,0.2l0.1,0c0,0,0.1,0,0.1,0.1c0.1,0,0.1,0,0.2,0
				c0.1,0,0.2,0,0.2,0c0,0-0.1,0,0,0c0,0,0.1,0.1,0.2,0.2c0,0,0,0,0.1,0.1l0,0c0,0,0.1,0,0.1,0c0.1,0,0.2,0.1,0.2,0.1l0.2,0
				c0,0,0,0,0,0c0,0-0.1,0,0,0c-0.1,0-0.1,0-0.1,0l0.1,0.1c0,0,0.1,0.1,0.2,0.2L7,34.7l0.2,0.1l0.1,0c0,0,0.1,0,0.1,0
				c0,0,0.1,0,0.1,0c0.2,0,0.2,0,0.3,0c0.1,0-0.1,0-0.1,0L7.9,35c0,0,0.1,0.1,0.2,0.1l0.1,0l0,0c0,0,0.1,0,0.1,0
				c0.1,0,0.2,0,0.3,0.1c0.1,0,0,0,0.1,0l0.4,0.2l0.2,0.1c0.1,0,0.3,0.1,0.2,0.1c0.1,0,0.2,0.1,0.5,0.2c0.2,0,0.2,0,0.3,0
				c0.1,0-0.1,0,0,0l0.4,0.1c0.3,0.1,0.5,0.2,0.8,0.3c0.1,0,0.3,0.1,0.4,0.1c0.2,0,0.2,0.1,0.5,0.1l0.2,0c0,0,0,0,0,0l0,0
				c0.1,0,0.1,0,0.2,0l0.2,0c0,0,0.1,0,0.2,0l0.2,0.1c0.1,0,0.1,0,0.1,0c0,0,0.1,0.1,0.2,0.1l0.1,0c0.1,0,0.1,0,0.1,0
				c0.1,0,0.1,0,0.2,0l0.2,0c0,0,0,0,0,0l0,0c0,0,0,0,0,0c0,0,0.1,0.1,0.3,0.2c0.1,0.1,0.2,0,0.2,0.1l0.1,0c0.1,0,0.3,0.1,0.4,0.1
				l0.2,0l0.1,0c0,0,0.1,0,0.1,0c0.1,0,0.1,0,0.2,0c0.1,0,0.1,0,0.1,0c0,0,0,0,0,0c0,0,0,0,0,0c0,0,0,0,0,0c0,0,0,0,0,0
				c0,0,0.1,0.1,0.3,0.2c0,0,0.1,0,0.1,0l0.1,0c0.1,0,0.1,0,0.2,0c0.1,0,0.2,0,0.2,0c0.1,0,0.1,0,0.1,0c-0.1,0,0,0,0.1,0l0.2,0
				l0.1,0c0,0,0.1,0,0.1,0c0.1,0,0.1,0,0.2,0l0.1,0c0,0,0,0,0,0c0,0,0.1,0.1,0.3,0.1l0.1,0l0,0l0,0l0.1,0c0.1,0,0.1,0,0.3,0.1l0.2,0
				l0.2,0c0.1,0,0.2,0,0.3,0c0.2,0,0.5,0,0.8,0l0.2,0c0.1,0,0.3,0,0.3,0c0.1,0,0.1,0,0.1,0c0,0,0.1,0,0.1,0c0.1,0,0.1,0,0.3,0l0.2,0
				l0.2,0c0,0,0,0,0.1,0c0.1,0,0.1,0.1,0.3,0.1c0.1,0,0.2,0,0.3,0c0.1,0,0.1,0,0.2,0l0.2,0l0.2,0c0,0,0,0,0.1,0
				c0.1,0,0.1,0.1,0.3,0.1l0,0c0,0,0.1,0,0,0l0.1,0l0.1,0c0.1,0,0.3,0,0.4,0l0.2,0c0,0,0.1,0,0.2,0c0.1,0,0.1,0,0.1,0
				c0.2,0,0.1,0,0.3,0l0.4,0l0.2,0c0.1,0,0.1,0,0.1,0c0.1,0,0.1,0,0.2,0c0.1,0,0.2,0,0.3,0l0.2,0c0,0,0,0,0.1,0l0.2,0
				c0.1,0,0.2,0,0.3,0c0.1,0,0.3,0,0.4,0l0.4-0.1c0.2,0,0.3-0.1,0.4-0.1l0.4-0.1l0.4-0.1c0,0,0,0,0.1,0c0.1,0,0.1,0.1,0.3,0.1
				c0.3,0,0.5-0.1,0.8-0.1l0.1,0c0.1,0,0.1,0,0.1,0l0.2-0.1c0,0,0.2,0,0.3,0c0.1,0,0.2,0,0.3,0c0.1,0,0.1,0,0.2,0c0.1,0,0.1,0,0.2,0
				c0.1,0,0.3,0.1,0.4,0l0.2,0c0,0,0.1,0,0.2,0c0.1,0,0.2,0,0.4,0c0.2,0,0.3,0,0.4,0c0.1,0,0.2,0.1,0.3,0.1c0.2,0,0.3,0,0.4,0
				c0.1,0,0.3,0,0.4,0c0.1,0,0.1,0,0.2,0.1c0,0,0.1,0.1,0.2,0.1c0.1,0,0.1,0,0.2,0c0.1,0,0.2,0,0.4,0.1c0.2,0.1,0.5,0.1,0.7,0.1
				c0.1,0,0.2,0.1,0.3,0.1c0.1,0.1,0.2,0.1,0.4,0.1c0.5,0.1,0.9,0.2,1.3,0.3c0.1,0,0.2,0.1,0.3,0.1l0.2,0.1c0.1,0,0.2,0,0.2,0l0.2,0
				c0,0,0.1,0,0.1,0c0.1,0,0.2,0.1,0.3,0.2c0.1,0,0.1,0.1,0.3,0.1c0,0,0.1,0.1,0.2,0.1l0.1,0.1c0.2,0.1,0.4,0.2,0.6,0.3
				c0.2,0.1,0.4,0.1,0.6,0.2c0.2,0.1,0.3,0.2,0.5,0.3l0.3,0.1l0.1,0.1l0.1,0c0.1,0,0.1,0,0.2,0.1c0.2,0,0.3,0,0.3,0c0,0,0,0-0.1,0
				l0,0c0,0,0,0,0,0l0,0l0.1,0.1l0.1,0.1c0,0,0.1,0,0.1,0.1c0,0,0.1,0,0.1,0c0.1,0.1,0.2,0.1,0.3,0.1c0.1,0,0,0,0,0
				c0,0,0.1,0.2,0.3,0.3c0.2,0.1,0.4,0.1,0.5,0.1c0,0,0,0,0,0c0,0,0,0,0,0l0,0c0,0,0,0,0,0c0,0,0,0,0,0c0,0,0,0,0.1,0.1
				c0,0,0.1,0.1,0.1,0.1c0,0,0.1,0,0.1,0.1l0,0l0.1,0.1c0.2,0.1,0.3,0.1,0.4,0.2l0.2,0.1c0.2,0.1,0.3,0.1,0.3,0.1l0.1,0c0,0,0,0,0,0
				l0.1,0c0.2,0.1,0.3,0.1,0.3,0.1c0,0,0,0,0,0c0,0,0,0,0,0l0.2,0.1l0.1,0.1c0,0,0.1,0.1,0,0c0,0,0,0,0,0c0,0,0.1,0.2,0.3,0.3
				C45.8,43,45.9,43,46,43c0.1,0,0.1,0,0.1,0C46,43,46,43,46,43c0,0,0,0,0.1,0.1c0,0,0.1,0.1,0.1,0.1c0,0,0.1,0.1,0.1,0.1l0,0
				c0.1,0.1,0.2,0.1,0.3,0.2c0,0,0.1,0.1,0.2,0.1c0.1,0,0.1,0,0.2,0.1c0,0,0.2,0.1,0.3,0.2c0.1,0.1,0.4,0.2,0.4,0.2c0,0,0,0,0-0.1
				c0-0.1,0.1-0.1,0.1-0.1c0,0,0,0.1-0.1,0.1c0,0,0,0,0,0.1C47.6,44,47.5,44,47.5,44c-0.1,0-0.2,0.1-0.2,0.2
				C47.4,44.3,47.4,44.4,47.5,44.4z"/>
		</g>
	</g>
	<g>
		<path class="st0" d="M100.7,31.4c0,0-0.2,0-0.3,0.1c-0.1,0-0.2,0.1-0.1,0c0.1,0,0-0.1-0.2-0.2c0,0-0.1,0-0.1,0c-0.1,0-0.1,0-0.1,0
			c0,0-0.1,0-0.1,0c-0.1,0-0.2,0-0.2,0c-0.1,0-0.2,0-0.3,0l-0.1,0c0,0,0,0-0.1,0c0,0-0.1,0-0.1,0l-0.1,0c-0.2,0.1-0.3,0.2-0.2,0.1
			c0,0,0,0,0.1,0l0,0c0,0,0.1,0,0,0c0,0,0,0,0,0c0.1,0,0.1,0,0.1,0c0,0,0,0-0.1-0.1c-0.1,0-0.2-0.1-0.4-0.1l-0.2,0
			c-0.1,0-0.3,0-0.3,0c0,0-0.1,0-0.2,0c-0.1,0-0.1,0-0.2,0l0,0l-0.1,0l-0.1,0c-0.1,0-0.2,0.1-0.2,0.1c0,0,0,0,0,0l0,0c0,0-0.1,0,0,0
			l-0.1,0c-0.1,0-0.1,0-0.2,0.1c-0.1,0.1-0.2,0.1-0.2,0.1c0,0,0.1,0,0,0l-0.2,0l-0.1,0c0.1,0,0,0,0,0c0,0,0.1,0,0.1,0l0,0
			c0,0-0.1,0-0.2-0.1c-0.2-0.1-0.5,0-0.6,0.1c-0.1,0-0.2,0.1-0.1,0.1c0,0,0,0,0.1,0c0,0,0,0-0.1,0c-0.1,0-0.2-0.1-0.5,0
			c-0.3,0.1-0.3,0.1-0.4,0.2c-0.1,0,0.1,0,0.1,0c0,0-0.1,0-0.3,0c0,0-0.1,0-0.1,0c0,0,0,0,0,0c0,0-0.1,0-0.1,0c-0.1,0-0.2,0-0.4,0
			c-0.1,0-0.2,0.1-0.3,0.1c0,0-0.1,0-0.2,0c-0.2,0-0.4,0.1-0.6,0.1l-0.3,0c-0.1,0-0.2,0-0.3,0.1l-0.3,0.1c0,0,0,0-0.2,0
			c-0.1,0-0.1,0-0.3,0c0,0-0.1,0-0.2,0.1c0,0-0.1,0-0.1,0.1c-0.1,0.1-0.2,0.1-0.1,0.1c-0.2-0.1-1.1,0-1.2,0.2c0,0-0.1,0-0.3,0
			c0,0-0.1,0-0.1,0l-0.1,0l-0.2,0l-0.2,0c-0.1,0-0.2,0-0.2,0.1c-0.1,0-0.1,0-0.1,0.1c0,0,0,0-0.1,0c-0.1,0-0.2,0-0.4,0l-0.3,0l0,0
			c0,0,0,0,0,0l0,0c-0.1,0-0.1,0-0.1,0.1c-0.1,0-0.1,0.1-0.2,0.1c0,0-0.1,0-0.1,0l-0.2,0c-0.1,0-0.3,0-0.3,0c-0.1,0-0.2-0.1-0.4-0.1
			L86,33c0,0-0.2,0-0.2,0.1l-0.2,0.1c-0.1,0,0,0-0.1,0c0,0-0.1,0-0.1,0c-0.1,0-0.1,0-0.2,0c-0.1,0-0.2,0-0.2,0.1
			c-0.1,0-0.1,0-0.2,0.1c0,0-0.1,0-0.1,0l-0.2,0c-0.1,0-0.1,0-0.1,0c-0.1,0-0.1-0.1-0.4-0.2l-0.4,0c0,0-0.1,0-0.1,0
			c-0.1,0-0.1,0-0.1,0l-0.2,0.1c-0.1,0-0.1,0-0.3,0c-0.1,0-0.1,0-0.2,0c-0.1,0-0.2,0-0.2,0.1c-0.1,0.1-0.1,0.1-0.3,0
			c-0.1,0-0.1,0-0.2-0.1c-0.1,0-0.2,0-0.3,0.1l-0.2,0.1c0,0,0,0-0.1,0l-0.3,0c0,0-0.1,0-0.1-0.1c-0.1,0-0.1-0.1-0.3-0.1
			c-0.3,0-0.4,0.1-0.4,0.1c-0.1,0-0.2,0-0.4,0l-0.4,0l-0.1,0c0,0-0.1,0-0.2,0l-0.2,0.1c0,0-0.1,0,0,0c0,0-0.1,0-0.1-0.1
			c0,0-0.1,0-0.1-0.1c0,0-0.2,0-0.2,0c-0.1,0-0.2,0-0.2,0c-0.1,0-0.1,0-0.2,0c-0.1,0-0.2,0.1-0.3,0.1c-0.1,0-0.1,0-0.1,0
			c-0.1,0-0.2,0-0.3,0c-0.1,0-0.1,0-0.2,0c0,0,0,0,0,0c0,0,0,0,0,0c0,0,0,0,0,0l-0.1,0c-0.1,0-0.1-0.1-0.3-0.1c-0.1,0-0.1,0-0.1,0
			l-0.1,0c-0.1,0-0.1,0-0.2,0c-0.1,0-0.2,0-0.3,0c-0.2,0-0.2,0-0.4,0c-0.1,0-0.3,0-0.5,0c-0.2,0-0.2,0-0.4,0c-0.1,0-0.3,0-0.3,0
			c-0.1,0-0.1,0-0.2,0c-0.1,0-0.3,0-0.4,0.1c-0.1,0-0.1,0.1-0.2,0.1c0,0,0,0,0,0c0,0,0,0,0,0l-0.1,0c-0.1,0-0.3,0-0.4,0
			c-0.1,0-0.3,0-0.3,0c-0.1,0-0.1,0-0.2,0c-0.1,0-0.2,0-0.3,0c-0.1,0-0.3,0-0.4,0c-0.1,0-0.4,0-0.5,0c-0.1,0-0.1,0-0.2,0
			c0,0-0.1,0,0,0l0,0c0,0-0.1,0-0.3-0.1c-0.1,0-0.1,0-0.3,0c-0.1,0-0.2,0.1-0.2,0.1C70.5,34,70.5,34,70.5,34c0,0,0,0,0.1,0
			c0,0,0,0,0,0c0,0,0.1,0,0.1,0c0,0,0,0,0,0l-0.1-0.1c-0.1,0-0.1-0.1-0.2-0.1c-0.1,0-0.1,0-0.2,0c0,0-0.1,0-0.1,0
			c-0.2,0.1-0.2,0.1-0.3,0.1c0,0,0,0,0,0c0,0,0.1,0,0,0c-0.1,0-0.2,0-0.3,0.1l-0.1,0c0,0,0,0,0,0c0.1,0,0,0-0.1,0c0,0-0.1,0-0.2-0.1
			c0,0-0.1,0-0.1,0l-0.1,0l-0.1,0c-0.2,0-0.2,0.1-0.3,0.1L68.4,34c0,0,0,0,0,0c0,0,0,0,0.1,0c0,0,0,0,0,0c0,0,0.1,0,0.1,0
			c0,0,0,0,0,0c0,0,0,0,0,0c-0.1,0-0.1-0.1-0.4-0.2c-0.3,0-0.5,0.1-0.5,0.1c-0.1,0-0.1,0.1-0.1,0.1c0,0,0,0,0.1,0l-0.1,0
			c-0.1,0-0.1,0-0.2,0c-0.1,0-0.1,0-0.2,0l-0.4,0l0,0c0,0,0.1,0,0,0c0,0,0,0,0.1,0l0,0c0,0,0,0,0,0c0,0-0.1-0.1-0.3-0.2
			c0,0-0.1,0-0.2-0.1c-0.1,0-0.2,0-0.2,0c-0.1,0-0.2,0-0.2,0.1L65.9,34l0,0l0,0l0,0c-0.1,0-0.1,0-0.2,0l-0.2,0l0,0c0,0,0,0,0,0
			c0,0,0,0,0,0c0.1,0,0.1,0,0.1,0c0,0-0.1-0.1-0.2-0.1c-0.2-0.1-0.4,0-0.5,0l-0.2,0.1l0,0c0,0,0,0,0,0l-0.1,0l-0.2,0
			c0,0-0.1,0-0.1,0l-0.1,0c-0.1,0-0.1,0-0.2,0c-0.1,0-0.2,0-0.3,0l-0.2,0c-0.1,0-0.2,0-0.3,0c-0.1,0-0.1,0-0.1,0l-0.4,0
			c-0.2,0-0.4,0.1-0.4,0.1l-0.1,0l-0.1,0l-0.1,0c-0.1,0-0.1,0-0.1,0c0.1,0,0,0,0,0l0,0l0,0c-0.1,0-0.2-0.1-0.4-0.1c0,0,0,0-0.1,0
			l0,0c-0.1,0-0.1,0-0.1,0c-0.1,0-0.1,0-0.2,0c-0.1,0-0.1,0-0.1,0l-0.4,0c0,0-0.1,0-0.4-0.1c-0.3,0-0.5,0.1-0.4,0.1l-0.4,0l-0.4,0
			c-0.2,0-0.3,0.1-0.3,0.1c-0.1,0-0.1,0,0,0c0,0-0.1-0.1-0.5,0c-0.2,0-0.3,0.1-0.3,0.1c-0.1,0-0.1,0,0,0l-0.4,0c0.1,0,0.1,0,0.1,0
			c-0.1,0-0.1-0.1-0.3-0.2c-0.3-0.1-0.5,0.1-0.6,0.1c-0.1,0.1-0.1,0.1-0.1,0.1l0,0c0,0,0,0,0,0l-0.1,0l-0.2,0l-0.1,0c0,0,0,0,0,0
			l-0.2,0l-0.1,0l-0.1,0c0,0,0,0,0,0l-0.2-0.1c-0.1,0-0.1,0-0.2,0l0,0l-0.1,0c0,0-0.1,0-0.1,0c-0.1,0-0.2,0.1-0.2,0.1c0,0,0,0,0,0
			l-0.1,0l-0.2,0c0,0-0.1,0-0.1,0c0,0-0.1,0-0.1-0.1c0,0-0.1,0-0.2,0c0,0-0.1,0-0.2,0l0,0c0,0-0.1,0-0.1,0c-0.2,0.1-0.2,0.1-0.3,0.1
			c0,0-0.1,0,0,0c0,0,0,0-0.1,0c-0.1,0-0.1-0.1-0.3-0.1c0,0,0,0-0.1,0l0,0c0,0-0.1,0-0.1,0c-0.1,0-0.1,0-0.1,0
			c-0.1,0-0.1,0.1-0.1,0.1c0,0,0,0-0.1,0c-0.1,0-0.1,0-0.2,0c-0.1,0-0.2,0-0.2,0c-0.1,0-0.2,0-0.5,0.1l-0.2,0.1c0,0,0,0,0,0l0,0
			c0,0,0,0,0,0c0,0,0,0,0,0c0,0-0.1,0-0.2-0.1c0,0-0.1,0-0.2,0c0,0-0.1,0-0.1,0c0,0-0.1,0-0.1,0c-0.2,0.1-0.3,0.2-0.3,0.1l-0.4,0
			c0,0-0.2,0-0.4-0.1c-0.3,0-0.4,0.2-0.4,0.2c0,0,0,0-0.1,0c0,0-0.1,0-0.2-0.1c0,0-0.1,0-0.2,0l-0.1,0l-0.2,0c-0.1,0-0.1,0-0.2,0
			c-0.1,0-0.2,0.1-0.2,0.1c0,0-0.1,0-0.1,0c0,0-0.1,0-0.2,0c-0.1,0-0.3,0-0.4,0c-0.1,0-0.3,0.1-0.3,0c-0.1,0-0.2-0.1-0.5,0
			c-0.2,0.1-0.3,0.2-0.3,0.2l-0.4,0c-0.1,0-0.1,0-0.1,0l-0.2-0.1c-0.2,0-0.3,0-0.4,0c-0.2,0-0.5,0.1-0.7,0.1l-0.3,0
			c-0.1,0-0.2,0-0.4,0c-0.2,0.1-0.2,0.2-0.3,0.2c0,0-0.1,0-0.1,0l-0.2,0c-0.1,0-0.2,0-0.3,0c-0.1,0-0.1,0-0.2,0c0,0-0.1,0-0.1,0
			c0,0,0,0-0.1,0c0,0-0.1,0-0.2,0c-0.1,0-0.2,0-0.2,0c-0.1,0-0.2,0-0.3,0.1c-0.1,0-0.2,0.1-0.3,0.2c-0.1,0-0.2,0.1-0.3,0.2
			c-0.1,0.1-0.2,0.1-0.2,0.2c-0.1,0-0.2,0.1-0.3,0.2c-0.1,0.1-0.2,0.1-0.3,0.2c-0.1,0.1-0.2,0.3-0.2,0.4l-0.1,0.3L40,38.1
			c-0.1,0.4,0.1,0.5,0,0.6c0,0,0,0.1,0,0.2c0,0.1,0,0.2,0,0.3c0,0.1,0.1,0.2,0.1,0.3c0,0,0,0.1,0.1,0.1c0,0.1,0.1,0.1,0.1,0.2
			c0.1,0.1,0.1,0.1,0.1,0.2c0.1,0.2,0.2,0.3,0.2,0.5c0,0.1,0.1,0.2,0.2,0.3c0.1,0.1,0.2,0.2,0.2,0.2l0.1,0.2l0.1,0.1l0,0.1l0,0
			l0.1,0.1c0.1,0.1,0.2,0.2,0.2,0.2c0,0,0,0,0,0c-0.1-0.1,0,0,0,0c0,0,0,0.2,0.2,0.4c0,0,0,0,0.1,0.1c0,0,0,0,0.1,0
			c0.1,0.1,0.1,0.1,0.2,0.1c0.1,0,0.2,0.1,0.2,0.1c0,0,0.1,0,0,0c0,0,0,0-0.1,0l0,0c0,0,0,0,0,0l0,0l0.2,0.1
			c0.1,0.1,0.3,0.2,0.4,0.3c0,0,0.1,0.1,0.1,0.1l0,0l0,0l0,0c0,0,0,0,0,0s0,0.1,0.1,0.2c0,0,0.1,0.1,0.1,0.1c0,0,0.1,0,0.1,0.1
			c0,0,0,0,0,0l0,0c0,0,0,0,0,0c0,0,0.1,0.1,0.2,0.2c0.1,0.1,0.1,0.1,0.2,0.2c0,0,0.1,0,0.1,0c0.1,0,0.1,0,0.1,0c0.1,0,0.1,0,0.2,0
			c0.2,0,0.2,0,0.2,0c0,0,0,0-0.1,0c-0.1-0.1,0,0,0,0c0.1,0,0.2,0.1,0.2,0.1c0,0,0.1,0,0.1,0c-0.1-0.1-0.1,0-0.1-0.1l0,0
			c0,0,0.1,0.1,0.3,0.2c0,0,0.1,0.1,0.1,0.1l0,0c0,0,0,0,0,0c0,0,0.1,0.2,0.5,0.3c0.2,0.1,0.3,0.1,0.4,0.1c0.1,0,0.1,0,0.1,0
			c0,0-0.2-0.1-0.1-0.1c0.1,0,0.2,0.1,0.5,0.2c0.2,0.1,0.4,0,0.5,0c0,0,0.1,0,0,0c0,0,0,0,0,0c0,0,0,0,0,0c0.1,0,0.2,0,0.4,0
			c0.1,0,0.1,0,0.1,0c0,0,0.1,0,0.1,0c0.2,0,0.3,0,0.3,0c0.1,0,0.2-0.1,0.2-0.2c0-0.1-0.1-0.2-0.2-0.2c0,0,0,0-0.1-0.2
			c0,0-0.1-0.1-0.1-0.1c0,0-0.2-0.1-0.2-0.1c0,0-0.1-0.1-0.3-0.2c0,0-0.1,0-0.1,0c0,0-0.1,0-0.1,0c-0.1,0-0.1,0-0.2,0
			c-0.1,0-0.1,0,0,0c0.2,0,0.1,0,0-0.1c0-0.1-0.4-0.3-0.6-0.3c-0.1,0-0.2,0-0.2,0c0,0,0,0,0.1,0c0.1,0.1,0.1,0.1,0-0.1
			c0,0-0.1-0.1-0.2-0.1l-0.1-0.1c0,0,0,0,0.1,0c0.1,0,0,0,0,0l-0.1-0.1c-0.1-0.1-0.1-0.1-0.2-0.2c-0.1-0.1-0.2-0.1-0.3-0.1l-0.1-0.1
			c0,0,0,0-0.2-0.1c-0.1-0.1-0.2-0.1-0.3-0.1c-0.1,0-0.2,0-0.2,0l0,0l0.1,0c0,0,0.1,0,0.1,0c0.1,0,0.1,0,0.1,0c0,0,0,0-0.1-0.1
			c0,0-0.1-0.1-0.2-0.1l0,0c0,0,0,0,0,0l0,0c0,0,0,0,0,0c0,0,0,0-0.1-0.1c0,0,0-0.1-0.1-0.1c0,0-0.1-0.1-0.1-0.1
			c-0.1,0-0.1,0-0.1-0.1c-0.1-0.1-0.3-0.2-0.4-0.2l-0.2-0.1l0,0c0,0,0,0,0,0c0,0-0.1,0-0.1-0.1c-0.1,0-0.1-0.1-0.2-0.1
			c-0.1,0-0.2,0-0.2,0c0,0-0.1,0,0,0l0.1,0c0,0,0,0,0,0c0.1,0,0,0,0.1,0c0.1,0.1,0,0.1,0-0.1c0-0.1-0.1-0.1-0.2-0.3
			c-0.1-0.1-0.2-0.1-0.2-0.2c-0.1-0.1-0.2-0.1-0.2-0.1c0,0,0,0,0,0c0,0,0,0,0,0l-0.1,0L42,40.5l-0.2-0.2c-0.1-0.1-0.2-0.1-0.2-0.2
			c0,0-0.1,0-0.1-0.1c-0.1-0.2-0.2-0.3-0.4-0.5c0-0.1-0.1-0.2-0.2-0.2l-0.1-0.1c0,0,0-0.1-0.1-0.1l-0.1-0.2c0,0,0,0,0-0.2
			c0-0.3-0.1-0.5-0.1-0.6l0.1-0.3l0.1-0.3c0-0.1,0-0.1,0.1-0.2c0.1-0.1,0.1-0.1,0.2-0.2c0-0.1,0.1-0.1,0.2-0.1
			c0.1-0.1,0.2-0.1,0.3-0.2c0.1-0.1,0.1-0.1,0.3-0.2c0.1-0.1,0.2-0.1,0.3-0.1c0.1,0,0.2,0,0.3-0.1c0.1,0,0.1,0,0.1,0l0.2,0
			c0,0,0.1,0,0.1,0c0,0,0.1,0,0.1,0c0,0,0.1,0,0.1,0c0.1,0,0.3,0,0.4,0l0.2,0c0.1,0,0.1,0,0.2-0.1c0.2-0.1,0.2-0.2,0.3-0.2
			c0,0,0.2,0,0.3,0l0.4,0c0.2,0,0.5,0,0.7-0.1c0.1,0,0.3,0,0.3,0l0.2,0.1c0.1,0,0.2,0,0.2,0l0.4,0c0.2-0.1,0.3-0.2,0.4-0.2
			c0,0,0.1,0,0.3,0c0.2,0,0.3,0,0.4,0c0.1,0,0.2,0,0.3,0c0.1,0,0.1,0,0.2,0c0.1,0,0.2-0.1,0.3-0.1c0.1,0,0.1-0.1,0.1-0.1l0.1,0
			l0.2,0l0.1,0l0,0l0.2,0.1c0.1,0,0.2,0,0.3,0c0.2-0.1,0.3-0.1,0.3-0.1c0,0,0.2,0.1,0.4,0.1l0.4,0c0.2,0,0.4-0.1,0.4-0.1
			c0,0,0,0,0,0l0,0c0,0,0,0,0,0c0,0,0.1,0.1,0.2,0.1c0,0,0.1,0,0.1,0l0.1,0l0,0c0.1,0,0.1,0,0.2,0c0.1,0,0.2-0.1,0.2-0.1
			c0,0,0.2,0,0.3,0c0.2,0,0.1,0,0.3,0c0.1,0,0.2,0,0.3,0c0.1,0,0.2-0.1,0.3-0.1c0,0,0,0,0.1,0c0,0,0,0,0,0c0,0,0,0,0,0l0,0
			c0,0,0,0,0.1,0c0.1,0,0.2,0.1,0.3,0.1c0.2,0,0.3-0.1,0.4-0.1c0.1,0,0.1-0.1,0.1-0.1c0,0,0,0,0,0l0,0c-0.1,0,0,0,0,0c0,0,0,0,0,0
			c0,0,0.1,0.1,0.2,0.1c0.2,0,0.3,0,0.4,0l0.2,0l0.1,0c0.1,0,0.1,0,0.2-0.1c0.1,0,0.2-0.1,0.2-0.1c0,0,0,0,0,0c0,0,0,0,0,0l0,0
			c-0.1,0,0,0,0,0c0,0,0.1,0,0.2,0.1c0.1,0,0.1,0,0.2,0l0,0l0,0l0,0l0.2,0c0,0,0.1,0,0.2,0c0.1,0,0.1,0,0.1,0l0.2,0l0.1,0
			c0,0,0.1,0,0.1,0c0.1,0,0.1,0,0.1,0c0.1-0.1,0.2-0.1,0.2-0.1c0,0,0,0-0.2,0c-0.1,0,0,0,0,0c0.1,0,0.2,0.2,0.4,0.2l0.5,0
			c0.2,0,0.3-0.1,0.4-0.1c0.1,0,0.1,0,0.1,0c-0.1,0,0.1,0.1,0.4,0.1c0.2,0,0.3-0.1,0.4-0.1c0.1,0,0.1,0,0.1,0l0.4,0l0.4,0
			c0.3,0,0.5-0.1,0.4-0.1c0,0,0.1,0.1,0.4,0.1l0.5,0c0.2,0,0.3-0.1,0.3-0.1l0.1,0c0,0,0,0,0,0c0,0,0,0,0,0l0,0c-0.1,0,0,0,0,0
			c0,0,0.1,0,0.2,0.1c0,0,0.1,0,0.1,0c0.1,0,0,0,0.1,0c0.1,0,0.2,0,0.3-0.1l0.1,0c0,0,0,0,0,0l0,0c0.3,0,0.3-0.1,0.4-0.1l0.2,0
			l0.1,0c0,0,0.1,0,0.2,0c0.1,0,0.2,0,0.3-0.1c0.1,0,0,0,0.1,0l0.4,0l0.2,0c0,0,0.1,0,0.2,0c0,0,0.1,0,0.1,0l0.2,0l0.1,0
			c0,0,0.1,0,0.1,0c0,0,0.1,0,0.1,0c0.1,0,0.2-0.1,0.2-0.1c0,0-0.1,0-0.1,0l0.2,0.1c0.1,0,0.1,0,0.3,0.1l0.1,0l0.1,0l0.1,0
			c0.1,0,0.2,0,0.2,0l0,0l0.1,0c0,0,0.1,0,0.1,0c0.1,0,0.2-0.1,0.2-0.1c0,0,0,0,0,0c0.1,0-0.1,0-0.1,0c0,0-0.1,0-0.1,0
			c0,0,0,0,0.1,0.1c0,0,0.1,0.1,0.2,0.1c0,0,0,0,0.1,0c0,0,0.1,0,0.1,0l0.1,0l0,0l0.5,0c0.1,0,0.2,0,0.3-0.1l0.1,0c0,0,0,0,0,0
			c0.1,0,0.1,0,0.2,0c0.2-0.1,0.2-0.1,0.3-0.1c0,0,0,0-0.1,0c-0.1,0,0,0,0,0c0,0,0.1,0.1,0.1,0.1c0,0,0.1,0,0.1,0.1c0,0,0.1,0,0.1,0
			l0,0c0.2,0,0.3-0.1,0.3-0.1c0.1,0,0.1-0.1,0.1-0.1l0.1,0c0,0,0,0-0.1,0c0,0,0.1,0,0,0c0,0,0,0,0,0c0,0,0,0,0,0c0,0,0,0,0,0
			c0.1,0,0.1,0.1,0.3,0.1c0.1,0,0.2,0,0.2,0c0.1,0,0.1,0,0.1,0l0.1,0c0,0,0.1,0,0.2,0c0.1,0,0.1-0.1,0.2-0.1
			c0.1-0.1,0.1-0.1,0.1-0.1c0,0-0.1,0,0,0c0,0-0.1,0-0.1,0c0,0,0,0,0,0c0,0,0.1,0.1,0.2,0.1c0,0,0.1,0,0.1,0c0,0,0.1,0,0.1,0l0,0
			c0.2,0,0.3-0.1,0.3-0.1c0.1-0.1,0.2-0.1,0.2-0.2c0,0,0,0,0,0c-0.1,0-0.1,0-0.1,0c0,0,0.1,0,0.1,0c0,0,0.1,0,0.2,0
			c0.1,0,0.1,0,0.2,0c0.1,0,0.2,0,0.2,0c0.1,0,0.1,0,0.3,0c0.2,0,0.3,0,0.5,0l0.2,0c0,0,0.1,0,0.2,0c0.3,0,0.3,0,0.5,0
			c0.1,0,0.3,0,0.4,0l0.1,0c0,0,0,0,0.1,0c0,0,0.1,0,0.1,0c0.1,0,0.2-0.1,0.2-0.1c0.1,0,0,0,0.1,0c0,0,0.1,0,0.2,0
			c0.2,0,0.3,0,0.5,0c0.1,0,0.4,0,0.5-0.1c0.1,0,0.2,0,0.4,0c0.1,0,0.3,0,0.4-0.1c0.1,0,0.1,0,0.3,0c0,0,0.1,0,0.1,0
			c0.1,0,0.1,0,0.1,0c0,0,0.1,0,0.1,0c0,0,0.1,0,0.1,0c0,0,0.1,0,0.1,0l0,0l0,0c0.1,0,0.2,0,0.2-0.1c0.1,0,0.1,0,0.1,0
			c0.1,0,0.2-0.1,0.3-0.1l0.1-0.1c0.1,0,0.2,0,0.2,0c0.1,0,0.1,0,0.2,0c0,0,0,0,0,0c0,0,0,0,0,0c0.1,0,0.1,0.1,0.2,0.1
			c0.2,0,0.3,0,0.3,0l0.2-0.1c0,0,0,0,0,0l0.1,0l0.4,0c0.1,0,0.2,0,0.4,0c0.2,0,0.3-0.1,0.3-0.1c0,0,0,0,0.1,0
			c0.1,0,0.1,0.1,0.2,0.1c0.1,0,0.1,0,0.2,0l0.1,0l0.2,0c0,0,0.2,0,0.3-0.1c0.1,0,0.1-0.1,0.2-0.1c0,0,0,0,0.1,0c0,0,0.1,0,0.2,0
			c0.1,0,0.2,0,0.3,0c0.1,0,0.2,0,0.2-0.1c0.1-0.1,0.1-0.1,0.3-0.1c0.1,0,0.3,0.1,0.5,0l0.2-0.1c0,0,0.1,0,0.1,0c0,0,0,0,0.1,0
			l0.4,0c0,0,0.1,0.1,0.3,0.1c0.1,0,0.2,0,0.2,0l0.2,0c0.1,0,0.1,0,0.2,0c0.1,0,0.1-0.1,0.2-0.1c0.1,0,0.1,0,0.3,0
			c0.1,0,0.1,0,0.2,0c0.1,0,0.2,0,0.3-0.1l0.2-0.1c0,0,0,0,0.1,0l0.4,0c0,0,0.1,0.1,0.2,0.1c0,0,0.1,0,0.1,0l0.1,0l0,0l0.2,0l0.2,0
			c0.1,0,0.2-0.1,0.2-0.1c0.1,0,0.1-0.1,0.1-0.1c0,0,0,0,0,0l0,0c0,0,0,0,0,0l0,0l0.3,0c0.1,0,0.2,0,0.3,0c0.1,0,0.2,0,0.2,0
			c0.1,0,0.1,0,0.2-0.1c0,0,0.1,0,0.1,0l0.2,0l0.2,0l0.1,0c0,0,0,0,0,0c0.1,0,0.2,0.1,0.4,0.1c0.2,0,0.3-0.1,0.4-0.1c0,0,0,0,0.1,0
			l0.2,0c0.1,0,0.2,0,0.3,0c0.1,0,0.2,0.1,0.4,0.1c0.3,0,0.4-0.1,0.4-0.2c0,0,0,0,0,0c0,0-0.1,0,0,0c0,0,0,0,0,0
			c0.1,0,0.2,0.1,0.4,0.1c0.1,0,0.3,0,0.3,0c0.4,0,0.8,0,1.1,0c0.1,0,0.2,0,0.3,0c0.1,0,0.2,0,0.3,0c0,0,0,0,0.1,0c0,0,0.1,0,0.2,0
			l0.1,0c0,0,0,0,0,0c0,0,0.1,0,0.2,0.1c0.2,0,0.5,0,0.6-0.1c0.1-0.1,0.2-0.1,0.1,0c0,0-0.1,0,0,0c0,0,0.1,0,0.2,0
			c0.1,0,0.2,0,0.3,0c0.2,0,0.3-0.1,0.3-0.1c0.1,0-0.1,0-0.1,0c0,0,0.1,0,0.2,0.1c0,0,0.1,0,0.1,0c0,0,0.1,0,0.1,0l0.1,0l0.1,0
			l0.2,0l0.1,0l0,0l0.1,0c0.1,0,0.2-0.1,0.2-0.1c0.1-0.1,0.2-0.1,0.1-0.1c0,0,0,0-0.1,0c0,0,0,0,0,0c0,0,0,0,0,0l0,0
			c0.1,0,0.2,0,0.2-0.1l0.2-0.1c0,0,0,0,0,0l0,0l0,0c0,0,0,0,0,0l0.2,0c0.3,0,0.3,0,0.5-0.1l0.2,0c-0.1,0-0.1,0-0.1,0
			c0.1,0,0.1,0,0.2,0.1c0.1,0,0.1,0,0.3,0l0,0l0.1,0l0,0c0.1,0,0.1,0,0.1,0c0.3-0.1,0.3-0.2,0.3-0.2c0,0,0,0,0,0c0,0-0.1,0,0,0
			c0,0,0,0,0,0l0.1,0c0.1,0,0.2-0.1,0.3-0.1c0.1,0,0.2,0,0.2-0.1c0,0,0.1,0,0.1,0c0,0,0,0,0,0c0,0,0,0,0,0c0,0,0.2,0.1,0.4,0
			c0.2,0,0.2-0.1,0.3-0.2c0,0,0.1-0.1,0.1-0.1c0.1-0.1,0-0.1,0.1-0.1c0.1,0,0.1-0.1,0.1-0.2C100.9,31.4,100.8,31.4,100.7,31.4z"/>
	</g>
	<g>
		<path class="st0" d="M108.4,1.6c0,0,0.1,0,0.2,0c0.1,0,0.1,0,0.2,0c0,0,0.1,0,0.2,0c0.1,0,0.2,0,0.3,0c0,0,0.1,0,0.2,0
			c0.1,0,0.1,0,0.2,0c0,0,0,0,0.1,0l0.1,0c0.1,0,0.2,0,0.2,0c0,0,0,0,0.1,0c0.1,0,0.2,0,0.4,0c0.2,0,0.3,0,0.3-0.1c0.1,0,0,0,0,0
			c0,0,0.1,0,0.2,0c0,0,0.1,0,0.1,0c0.1,0,0.1,0,0.2,0c0.2,0,0.3,0,0.3,0c0,0,0,0,0,0c0,0,0,0,0,0l0.1,0c0.1,0,0.4,0.1,0.5,0
			c0.1,0,0.1,0,0.2,0l0.2,0c0,0,0.1,0,0.1,0l0.1,0c0.1,0,0.3,0,0.4,0l0.2,0c0.1,0,0.1,0,0.1,0c0.1,0,0.2,0.1,0.5,0.1
			c0.1,0,0.2,0,0.2,0l0.1,0c0,0,0,0,0.1,0c0.1,0,0.3,0.1,0.4,0.1c0.1,0,0.3,0.1,0.4,0.1l0.2,0.1c0.1,0.1,0.2,0.1,0.3,0.1l0.2,0
			c0.1,0,0.2,0.1,0.2,0.1c0.1,0,0.1,0,0.2,0.1l0.2,0.1l0.1,0.1c0,0,0,0,0.1,0c0,0,0.1,0.1,0.2,0.2c0.2,0.2,0.5,0.1,0.5,0.2
			c0.1,0.1,0.3,0.2,0.4,0.3l0.2,0.2c0.1,0.1,0.2,0.1,0.3,0.2c0.2,0.1,0.2,0.1,0.3,0.3c0.1,0.1,0.2,0.2,0.3,0.2
			c0.1,0,0.2,0.1,0.2,0.1c0.1,0.1,0.2,0.3,0.4,0.4l0.2,0.2c0.1,0,0.1,0.1,0.1,0.2c0.1,0.2,0.3,0.3,0.4,0.4c0.1,0.1,0.2,0.3,0.4,0.5
			c0.2,0.1,0.2,0.2,0.3,0.4c0.1,0.2,0.3,0.3,0.4,0.5c0.3,0.3,0.4,0.6,0.6,1c0,0.1,0.1,0.2,0.1,0.3l0.1,0.1c0,0,0,0.1,0,0.1
			c0,0.1,0.1,0.2,0.1,0.3c0.1,0.1,0.1,0.2,0.2,0.3c0.2,0.3,0.3,0.7,0.5,1.1c0,0.1,0.1,0.4,0.1,0.5c0,0.1,0,0.2,0,0.3
			c0.1,0.2,0.2,0.3,0.2,0.4c0,0.1,0,0,0,0.1c0,0,0,0.1,0,0.2c0,0,0,0.1,0,0.1l0,0.1l0,0.3c0,0,0.1,0.2,0.1,0.2l0.1,0.1c0,0,0,0,0,0
			c0,0,0,0,0,0c0,0,0,0.1,0,0.2c0,0.1,0,0.2,0,0.2l0,0.3c0,0,0,0.1,0,0.2l0,0.2c0,0,0,0.1,0,0.1l0,0.2c0,0.1,0,0.2,0,0.3l0,0.6
			l0,0.1l0,0c0,0,0,0,0,0l0,0l0,0.2c0,0.1,0,0.2,0,0.4c0,0.2,0,0.2,0,0.2l0,0.3c0,0.1,0,0.1,0,0.1l0,0.1c0,0.1-0.1,0.1-0.1,0.2
			l0,0.1l0,0.1c0,0.1,0,0.1,0,0.1l0,0.1c0,0,0,0,0,0l0,0c0,0,0,0,0,0c0,0-0.1,0.1-0.1,0.3c0,0,0,0.1,0,0.1c0,0.1,0,0.1,0,0.1l0,0.2
			c0,0,0,0,0,0.1l-0.1,0.2c0,0.1-0.1,0.3-0.1,0.2c0,0-0.1,0.1-0.2,0.3c-0.1,0.2-0.1,0.4-0.1,0.4c0,0,0,0,0,0l-0.1,0.1
			c-0.1,0.2-0.2,0.4-0.3,0.6l-0.2,0.3l-0.1,0.3l-0.1,0.1c-0.1,0.1-0.1,0.2-0.1,0.3l0,0.1c0,0,0,0,0,0l0,0.1c-0.2,0.4-0.5,0.7-0.7,1
			l-0.3,0.5c-0.1,0.1-0.3,0.3-0.4,0.5l-0.4,0.5l-0.2,0.2l-0.1,0.1c0,0,0,0,0,0c-0.1,0-0.2,0.1-0.4,0.3c-0.1,0.1-0.1,0.2-0.2,0.2
			c0,0,0,0,0,0l-0.1,0.1c-0.1,0-0.3,0.3-0.4,0.4l-0.1,0.1c0,0,0,0,0,0l-0.2,0.2c-0.2,0.1-0.3,0.3-0.5,0.4c-0.2,0.1-0.3,0.2-0.5,0.4
			c-0.1,0.1-0.2,0.1-0.2,0.2l-0.1,0.1c0,0,0,0-0.1,0.1c-0.1,0-0.2,0.1-0.3,0.2c0,0-0.1,0.1-0.2,0.1c-0.2,0.1-0.3,0.2-0.5,0.4
			c-0.2,0.2-0.2,0.2-0.4,0.3c0,0-0.1,0-0.2,0.1l0,0c0,0,0,0-0.1,0c0,0-0.1,0-0.1,0.1c-0.1,0.1-0.1,0.2-0.1,0.2c0,0-0.1,0.1-0.2,0.1
			c-0.1,0-0.2,0.1-0.3,0.2c-0.2,0.2-0.2,0.2-0.4,0.2c-0.1,0-0.2,0.1-0.3,0.1c-0.1,0-0.2,0.1-0.3,0.1c-0.2,0.1-0.3,0.1-0.5,0.2
			c-0.1,0-0.1,0.1-0.3,0.1c-0.1,0.1-0.2,0.1-0.2,0.2c-0.1,0.1-0.3,0.1-0.5,0.2c-0.2,0.1-0.3,0.1-0.5,0.2c-0.2,0.1-0.2,0.1-0.4,0.2
			c-0.2,0-0.4,0.2-0.5,0.2c-0.1,0-0.2,0.1-0.2,0.1c-0.1,0-0.1,0.1-0.2,0.1c-0.2,0.1-0.3,0.1-0.5,0.2l-0.2,0.1c-0.1,0-0.1,0-0.1,0
			l-0.1,0c-0.1,0-0.2,0-0.3,0l-0.2,0.1c-0.1,0-0.4,0.1-0.5,0.2c-0.1,0-0.1,0-0.1,0c-0.1,0-0.1,0-0.2,0c-0.1,0-0.2,0-0.3,0l-0.2,0
			c-0.2,0-0.4,0.1-0.4,0.1c0,0-0.1-0.1-0.4,0c-0.3,0.1-0.5,0.1-0.8,0.1c-0.1,0-0.1,0-0.3,0l-0.1,0l-0.1,0c-0.1,0-0.1,0-0.2,0.1
			c-0.1,0-0.1,0.1-0.2,0.1c0,0,0.1,0-0.1,0l-0.2,0.1c0,0-0.1,0,0,0c0.1,0,0.1,0,0.1,0c0,0-0.1,0-0.3,0c-0.1,0-0.2,0-0.3,0l-0.1,0
			c-0.1,0-0.2,0-0.3,0c-0.2,0-0.4,0.2-0.4,0.2c0,0,0,0,0,0l-0.1,0c-0.2,0.1-0.3,0.1-0.5,0.1c0,0-0.1,0-0.1,0c0,0,0,0,0,0
			c0,0-0.1,0-0.2,0c-0.1,0-0.3,0.1-0.4,0.1c-0.1,0-0.1,0.1-0.2,0.1c0,0-0.1,0.1-0.2,0.2c-0.1,0.1-0.2,0.1-0.2,0.2
			c0,0-0.1,0.1-0.2,0.1c-0.1,0.1-0.2,0.1-0.2,0.1c-0.1,0.1-0.1,0.2,0,0.3c0,0,0,0,0,0l0.1,0.1c0,0,0,0,0.1,0.1c0,0,0.1,0.1,0.2,0.1
			c0.2,0,0.2,0,0.3,0.1c0.1,0,0.2,0.1,0.4,0c0.1,0,0.2,0,0.2,0c0,0,0,0,0,0c0,0,0.1,0,0.2,0c0.1,0,0.2,0,0.2,0c0,0,0.1,0,0.1,0
			c0.2,0,0.3-0.1,0.5-0.1l0.1,0c0.1,0,0.2-0.1,0.3-0.1c0.2-0.1,0.2-0.1,0.1-0.1c0.1,0,0.2-0.1,0.3-0.1l0.1,0c0,0-0.1,0-0.1,0
			c0,0,0,0,0.1,0c0.1,0,0.2,0,0.4,0c0.2,0,0.2-0.1,0.3-0.1c0.1,0,0.1-0.1,0.1-0.1c0,0,0,0,0,0l0.1,0c0.1,0,0.1-0.1,0.2-0.1
			c0.1-0.1,0.1-0.1,0.2-0.1c0,0,0,0,0,0c0,0,0,0,0,0c0,0,0,0,0,0l0,0c0,0,0,0,0,0c0,0,0.2,0,0.4-0.1c0.2-0.1,0.5-0.2,0.7-0.3
			c0,0,0.2,0,0.4-0.1c0.2-0.1,0.3-0.2,0.4-0.2c0.1-0.1,0.2-0.1,0.4-0.2c0,0,0.1,0,0.2,0c0.1,0,0.2-0.1,0.3-0.1
			c0.2-0.1,0.2-0.1,0.4-0.2l0.2-0.1c0,0,0.1,0,0.2,0c0,0,0.1,0,0.1,0c0.1,0,0.1,0,0.2,0l0.2-0.1c0.2-0.1,0.3-0.1,0.5-0.2
			c0.1,0,0.2-0.1,0.3-0.1c0.1-0.1,0.1-0.1,0.2-0.1c0.2-0.1,0.3-0.2,0.4-0.2c0.1,0,0.2,0,0.3-0.1c0.1,0,0.2-0.1,0.3-0.1
			c0.1-0.1,0.3-0.1,0.5-0.2c0.1-0.1,0.3,0,0.5-0.2c0.1-0.1,0.2-0.1,0.2-0.2l0.2-0.1c0.2-0.1,0.3-0.1,0.5-0.2c0.1,0,0.2-0.1,0.3-0.1
			c0.1,0,0.2-0.1,0.2-0.1c0.1,0,0.2,0,0.3-0.1c0.1,0,0.2-0.1,0.3-0.2c0.1-0.1,0.1-0.1,0.2-0.1c0.1,0,0.2,0,0.3-0.1
			c0.2-0.1,0.2-0.2,0.3-0.2c0,0,0,0,0,0c0,0,0,0,0,0c0,0,0,0,0,0c0,0,0.1,0,0.1,0c0.1,0,0.2-0.1,0.3-0.1c0.1-0.1,0.2-0.1,0.3-0.2
			c0.1-0.1,0.4-0.2,0.5-0.3c0.1,0,0.2-0.1,0.3-0.1c0.1,0,0.1-0.1,0.2-0.1c0.5-0.2,0.7-0.5,1.1-0.7c0.2-0.1,0.3-0.2,0.5-0.4l0.3-0.2
			c0,0,0.2-0.1,0.2-0.2l0.1-0.2c0.1-0.1,0,0,0.1,0c0,0,0.1,0,0.2-0.1c0.1,0,0.2-0.1,0.2-0.2c0.1-0.1,0.2-0.2,0.2-0.3l0.1-0.1
			c0.1,0,0.1-0.1,0.2-0.1l0.1-0.1l0.2-0.2l0.5-0.5c0.2-0.2,0.3-0.3,0.5-0.5l0.4-0.5c0.3-0.3,0.6-0.7,0.8-1.1l0.1-0.1
			c0-0.1,0.1-0.1,0.1-0.1c0-0.1,0.1-0.2,0.1-0.2c0,0,0-0.1,0,0l0.1-0.1l0.3-0.6c0.1-0.2,0.2-0.4,0.3-0.6c0,0,0.1-0.1,0.1-0.2
			c0-0.1,0.1-0.2,0.1-0.3c0-0.2,0-0.2,0-0.2c0,0,0,0,0.1-0.2c0.1-0.2,0.1-0.3,0.2-0.4l0-0.2c0-0.1,0-0.2,0-0.3l0-0.2c0,0,0,0,0,0
			l0,0c0,0,0.1-0.1,0.1-0.3l0-0.1c0,0,0-0.1,0-0.1c0-0.1,0-0.1,0-0.2c0-0.1,0-0.1,0-0.2l0,0c0,0,0,0,0,0l0,0c0,0,0,0,0,0
			c0,0,0,0,0-0.1c0,0,0-0.1,0.1-0.2c0-0.1,0-0.2,0-0.3l0-0.3c0-0.2,0-0.4,0-0.4c0,0,0-0.1,0-0.2l0-0.2l0,0l0-0.1l0-0.1
			c0-0.5,0-0.8-0.1-1.4l0-0.2c0,0,0-0.1,0-0.1l-0.1-0.3c0-0.1,0,0,0-0.1c0,0,0-0.1,0-0.1c0-0.1,0-0.2,0-0.3c0-0.1-0.1-0.2-0.1-0.3
			l-0.1-0.1c0,0,0,0,0,0l-0.1-0.3l0-0.1c0,0,0-0.1,0-0.1c0-0.1,0-0.4-0.1-0.5c-0.1-0.1-0.1-0.2-0.1-0.2c0,0,0-0.1-0.1-0.3
			c-0.1-0.3-0.1-0.4-0.2-0.7c-0.2-0.3-0.4-0.7-0.6-1.1c-0.2-0.2-0.2-0.2-0.3-0.5c0,0-0.1-0.1-0.1-0.2l-0.1-0.1
			c-0.1-0.1-0.1-0.2-0.1-0.3c-0.3-0.3-0.4-0.7-0.7-1c-0.2-0.2-0.3-0.3-0.4-0.4c0-0.1-0.1-0.2-0.2-0.3c-0.1-0.1-0.2-0.2-0.3-0.2
			c-0.1-0.1-0.2-0.2-0.3-0.4C120.2,5.1,120,5.1,120,5c0-0.1-0.1-0.2-0.2-0.2l-0.2-0.2c-0.1-0.1-0.2-0.3-0.4-0.4
			c-0.2-0.2-0.4-0.1-0.4-0.3c0-0.1-0.1-0.1-0.2-0.2c-0.1-0.1-0.2-0.1-0.3-0.2c-0.2-0.1-0.2-0.1-0.4-0.3c-0.2-0.1-0.3-0.2-0.4-0.3
			c-0.2-0.1-0.4-0.1-0.4-0.2c0,0-0.1-0.1-0.2-0.2c0,0-0.1-0.1-0.1-0.1l-0.1-0.1l-0.2-0.1c-0.1-0.1-0.2-0.1-0.2-0.1
			c-0.1,0-0.1,0-0.2-0.1c-0.1-0.1-0.2-0.1-0.3-0.1c-0.1,0-0.1,0-0.1-0.1c0,0-0.1-0.1-0.2-0.1c-0.2-0.2-0.3-0.2-0.5-0.2
			c-0.2-0.1-0.3-0.1-0.4-0.2c0,0-0.1,0-0.1-0.1c-0.1,0-0.1,0-0.2,0c-0.1,0-0.2,0-0.2,0c0,0-0.1-0.1-0.3-0.2
			c-0.1-0.1-0.3-0.1-0.4-0.1c-0.2-0.1-0.3-0.1-0.4-0.1l-0.2,0l-0.2,0c-0.1,0-0.4-0.1-0.5,0c-0.1,0-0.1,0-0.2,0l-0.2-0.1
			c0,0-0.1,0-0.2,0c0,0-0.1,0-0.2,0c-0.2,0-0.3,0-0.3,0c0,0,0,0,0,0c0,0,0,0,0,0l-0.1,0c-0.1-0.1-0.5,0-0.6,0c-0.1,0-0.1,0-0.2,0.1
			c0,0-0.1,0-0.2,0c-0.1,0-0.3,0-0.4,0.1c-0.1,0-0.2,0.1-0.2,0.1l0,0c0,0,0,0,0,0c0,0,0,0,0,0c-0.1,0-0.1,0-0.2,0
			c-0.2,0-0.3,0.1-0.4,0.2c-0.1,0.1-0.2,0.1-0.3,0.2c-0.1,0.1-0.1,0.1-0.2,0.2c-0.1,0.1-0.1,0.1-0.1,0.1c-0.1,0-0.1,0.1-0.1,0.2
			C108.3,1.6,108.4,1.6,108.4,1.6z"/>
	</g>
</g>
<g>
	<g>
		<path class="st0" d="M19.5,28.2L19.2,23c-0.7,1-0.9,1.2-1.2,1.3c-0.3,0-0.5-0.2-0.6-0.4c0-0.1,0-0.3,0.2-0.4
			c1-1.1,1.8-2.6,2.2-4.2c0.1-0.2,0.2-0.4,0.4-0.4c0.3,0,0.6,0.2,0.7,0.5c0,0.2-0.3,1.1-0.7,2l0.4,6.7c0,0.3-0.2,0.5-0.5,0.5
			C19.8,28.6,19.5,28.5,19.5,28.2L19.5,28.2z M21,21.7c-0.3,0-0.5-0.2-0.5-0.4c0-0.2,0.1-0.5,0.5-0.5l5.6-0.5c0.3,0,0.5,0.2,0.5,0.4
			c0,0.2-0.1,0.5-0.4,0.5L21,21.7z M26,27.9c-0.6,0.1-1.1,0.1-1.7,0.2c-0.5,0-1.1,0.1-1.6,0.1c-0.5,0-0.9-0.3-0.9-0.8
			c0-0.2,0-0.4-0.1-0.7c0-0.3,0-0.5-0.1-0.8c0-0.4,0.3-0.8,0.8-0.9c0.4-0.1,0.9-0.1,1.4-0.1c0.6-0.1,1.3-0.1,1.9-0.1
			c0.5,0,0.9,0.2,1,0.7c0,0.2,0.1,0.5,0.1,0.8c0,0.3,0,0.5,0.1,0.7C26.9,27.4,26.6,27.8,26,27.9z M22.2,24.4c-0.3,0-0.5-0.2-0.5-0.4
			c0-0.2,0.1-0.5,0.5-0.5l3.7-0.3c0.3,0,0.5,0.2,0.5,0.4c0,0.2-0.1,0.5-0.4,0.5L22.2,24.4z M22.1,23c-0.3,0-0.5-0.2-0.5-0.4
			c0-0.2,0.1-0.5,0.4-0.5l3.7-0.3c0.3,0,0.5,0.2,0.5,0.4c0,0.2-0.1,0.5-0.4,0.5L22.1,23z M21.8,20.1c-0.3,0-0.5-0.2-0.5-0.4
			c0-0.2,0.1-0.5,0.4-0.5l3.8-0.3c0.3,0,0.5,0.2,0.5,0.4c0,0.2-0.1,0.5-0.4,0.5L21.8,20.1z M25.8,26.3c0-0.1,0-0.3,0-0.4
			c0-0.3-0.1-0.3-1.6-0.2c-0.4,0-0.8,0.1-1.1,0.1c-0.3,0-0.3,0.2-0.3,0.7c0.1,0.6,0.1,0.7,0.4,0.7c0.4,0,0.7,0,1.1-0.1
			c0.4,0,0.8-0.1,1.2-0.1C25.8,27,25.8,26.9,25.8,26.3z"/>
		<path class="st0" d="M32.5,27.1c0,0.3-0.2,0.5-0.5,0.5c-0.2,0-0.5-0.1-0.5-0.4l0,0l-0.2-2.3c-0.1,0.1-1.1,1.8-1.6,1.8
			c-0.3,0-0.5-0.2-0.5-0.4c0-0.2,0.1-0.3,0.2-0.4c0.5-0.4,1.2-1.2,1.7-2.1c-1.4,0.1-1.5-0.3-1.6-1.4c0-0.2,0-0.4,0-0.6
			c0-0.5,0.3-0.8,0.8-0.9c0.2,0,0.4,0,0.7-0.1L30.9,20l-1.3,0.1c-0.3,0-0.5-0.2-0.5-0.4c0-0.2,0.1-0.4,0.4-0.5l1.3-0.1l-0.1-0.7l0,0
			c0-0.3,0.2-0.5,0.4-0.5c0.3,0,0.5,0.1,0.5,0.4l0,0l0.1,0.7L33,19c0.3,0,0.5,0.2,0.5,0.4c0,0.2-0.1,0.4-0.4,0.5l-1.2,0.1l0.1,0.8
			c0.2,0,0.4,0,0.6,0c0.5,0,0.9,0.2,1,0.7c0,0.2,0.1,0.4,0.1,0.6c0.1,1.1,0.1,1.6-1.5,1.7l0,0.6c0.1-0.1,0.2-0.2,0.3-0.2
			c0.3,0,1.1,0.5,1.4,0.7c0.1,0.1,0.2,0.2,0.2,0.4c0,0.3-0.2,0.6-0.4,0.6c-0.1,0-0.2,0-0.3-0.1c-0.3-0.3-0.8-0.6-1.1-0.7
			c0,0,0,0,0,0C32.4,26.1,32.5,27.1,32.5,27.1L32.5,27.1z M31.1,21.6c-0.1,0-0.2,0-0.4,0c-0.3,0-0.3,0.1-0.3,0.7
			c0,0.6,0.1,0.7,0.8,0.6L31.1,21.6z M32.1,22.8c0.7-0.1,0.7-0.1,0.7-0.7c-0.1-0.6-0.1-0.7-0.8-0.6L32.1,22.8z M36.4,18.9
			c0,0.2-0.1,0.5-0.1,0.7c0.2,0,0.5,0,0.7,0c0.7,0,1.1,0.4,1.1,0.8c0.1,0.5,0.1,1.2,0.2,1.8c0.1,0.6,0.1,1.3,0.1,1.8
			c0,0.6-0.4,1-0.9,1.1c0,0,0.1,0,0.1,0.1c0.4,0.3,0.8,0.6,1.3,0.7c0.3,0.1,0.4,0.2,0.4,0.4c0,0.3-0.2,0.6-0.5,0.6
			c-0.5,0-2-0.9-2-1.3c0-0.2,0.1-0.3,0.2-0.4c-0.1,0-0.3,0-0.4,0c-0.3,0-0.7,0.1-1,0.1c0.2,0.1,0.4,0.2,0.4,0.5
			c0,0.5-1.8,1.6-2.3,1.7c-0.3,0-0.6-0.2-0.6-0.4c0-0.2,0.1-0.5,0.4-0.6c0.6-0.2,1.1-0.6,1.5-1c0.1-0.1,0.1-0.1,0.2-0.1
			c-0.6,0-0.9-0.4-1-0.9c-0.1-0.5-0.1-1.1-0.2-1.7c-0.1-0.6-0.1-1.3-0.1-1.8c0-0.4,0.2-0.9,1-1c0.1,0,0.2,0,0.3,0
			c0-0.2,0.1-0.4,0.1-0.7l-1.5,0.1c-0.3,0-0.5-0.2-0.5-0.4c0-0.2,0.1-0.5,0.5-0.5l4.2-0.3c0.3,0,0.5,0.2,0.5,0.4
			c0,0.2-0.1,0.5-0.5,0.5L36.4,18.9z M35.2,23.7c0,0.2,0,0.3,0,0.5c0,0.3,0.1,0.4,1,0.3c1.1-0.1,1.2-0.1,1.2-0.5c0-0.1,0-0.3,0-0.5
			L35.2,23.7z M37.4,21.9l-2.3,0.2c0,0.3,0.1,0.5,0.1,0.8l2.3-0.2L37.4,21.9z M37.3,21.1c0-0.1,0-0.3,0-0.4
			c-0.1-0.4-0.1-0.4-1.2-0.3c-0.9,0.1-1,0.1-1,0.5c0,0.1,0,0.3,0,0.4L37.3,21.1z"/>
		<path class="st0" d="M46.3,21.3c0.2,0.3,0.9,1.2,1,1.7c0.2,0.8-0.5,1-1.1,0.7c-0.2-0.1-0.3-0.1-0.5-0.1c-0.9-0.1-2.1,0-2.7,0.2
			c-0.6,0.2-0.7,0.8-0.1,1.1c0.6,0.3,1.4,0.3,2.3,0.2c1-0.1,1,1.1,0,1.1c-1,0.1-2,0-2.8-0.4c-1.3-0.7-1.3-2.5,0.4-3
			c1-0.3,2.1-0.3,2.8-0.3c0.2,0,0.2-0.1,0.1-0.2c0-0.1-0.1-0.3-0.3-0.6c-0.2-0.3-0.5-0.7-0.8-1.1c-0.1,0-0.1,0-0.2,0.1
			c-1.2,0.4-2.2,0.4-3,0.1c-0.7-0.3-0.4-1.3,0.4-1c0.7,0.3,1.3,0.2,2.1,0c-0.3-0.4-0.6-0.8-0.7-1.1c-0.5-0.9,0.7-1.2,1-0.4
			c0.1,0.2,0.3,0.6,0.7,1.1c0.1-0.1,0.3-0.1,0.5-0.2c0.1-0.1,0.2-0.2,0.4-0.3c0.8-0.5,1.3,0.5,0.7,0.9c-0.3,0.2-0.6,0.3-0.9,0.5
			C45.8,20.6,46.1,21,46.3,21.3z"/>
		<path class="st0" d="M51.2,24.3c-0.4,0.9-1.6,0.3-1-0.4c0,0,0.1-0.1,0.1-0.1c0.4-0.7,1.1-1.7,1.4-2.6c0-0.2,0-0.4,0-0.6
			c-0.2,0.1-0.5,0.3-0.8,0.5c-0.7,0.5-1.1-0.5-0.6-0.8c0.4-0.2,0.9-0.5,1.4-0.7c0-0.8,0-1.6,0.1-2c0-0.7,1.1-0.6,1,0
			c0,0.4-0.1,1-0.1,1.6c0.3-0.1,0.7,0.2,0.6,0.8c0.1-0.1,0.2-0.3,0.4-0.4c1.6-1.5,3.2-1.6,3.2,0.6c0,0.7-0.1,1.8-0.1,2.5
			c0,1.3,0.6,1.1,1.3,0.2c0.5-0.6,1.3,0.1,0.8,0.7c-1.3,1.6-3.2,1.6-3.2-0.8c0-0.6,0.1-1.8,0.1-2.4c0-0.8-0.2-1.4-1.7,0
			c-0.5,0.5-1,0.9-1.4,1.5c0,1.2,0.1,2.4,0.4,3.2c0.2,0.7-0.9,1.1-1.1,0.2c-0.1-0.5-0.1-1.2-0.2-2C51.5,23.5,51.3,24,51.2,24.3z"/>
		<path class="st0" d="M62.8,19.3c0.1-0.2,0.2-0.4,0.3-0.6c0.2-0.2,0.1-0.2-0.1-0.1c-0.8,0.3-0.6,0.3-1.3,0.7
			c-0.3,0.2-0.6,0.3-1,0.4c-0.9,0.3-1.3-0.9-0.5-1.1c0.2-0.1,0.8-0.2,1.2-0.4c0.5-0.2,1.5-0.5,2.5-0.9c1.1-0.4,2-0.7,2.9-0.9
			c0.7-0.1,0.9,0.4,0.8,0.8c-0.1,0.2-0.3,0.4-1,0.4c-0.6,0-1.2,0.3-1.6,0.4c-0.6,0.3-1.1,1-1.3,1.4c-0.8,1.7,0.1,3.9,2.5,3.6
			c1.1-0.1,1.3,1.1,0.2,1.2C63.2,24.5,61.8,21.6,62.8,19.3z"/>
		<path class="st0" d="M71.9,22.4c-0.9-0.8-1.3-2-1.5-3.4c-0.1-0.6-0.1-0.8-0.2-1.2c0-0.7,1-0.9,1.1-0.1c0.1,0.4,0,0.5,0.1,0.9
			c0.1,1.1,0.4,2.2,1.1,2.7c0.3,0.2,0.5,0.3,0.7-0.1c0.1-0.2,0.2-0.5,0.3-0.7c0.2-0.7,1.2-0.3,1,0.3c-0.1,0.3-0.3,0.7-0.4,0.9
			C73.5,23,72.6,23,71.9,22.4z M77.7,20c-0.2-0.9-0.8-1.7-1.4-2c-0.6-0.3,0-1.2,0.7-0.7c0.8,0.5,1.7,1.5,1.8,2.4
			C78.9,20.4,77.9,20.7,77.7,20z"/>
		<path class="st0" d="M86.1,21.2c0.7-0.8,0.6-1.8,0-2.2c-0.6-0.3-1.8-0.3-2.8,0.4c-0.4,0.3-0.6,0.5-0.9,0.9
			c-0.3,0.6-1.5,0.1-0.9-0.7c1.1-1.3,1.9-2.2,3-3.8c0.1-0.2,0-0.1-0.1-0.1c-0.3,0.2-1,0.5-1.8,0.7c-0.8,0.3-1.1-0.8-0.4-1
			c0.7-0.1,1.8-0.5,2.4-0.7c0.9-0.3,1.6,0.4,1.1,1c-0.3,0.4-0.7,0.9-1.1,1.3c-0.4,0.4-0.8,0.9-1.2,1.3c0.9-0.6,2.2-0.7,3.1-0.3
			c1.7,0.8,1.3,2.8,0.2,3.7c-1,0.9-2.7,1-3.6,0.6c-1.2-0.7-0.8-2.1,0.5-2.2c0.9-0.1,1.7,0.4,1.8,1.3C85.7,21.6,85.9,21.4,86.1,21.2z
			 M83.7,21.1c-0.5,0.1-0.5,0.5-0.1,0.7c0.3,0.1,0.6,0.1,0.9,0.1C84.6,21.4,84.2,21,83.7,21.1z"/>
		<path class="st0" d="M93.4,16c0.9-0.2,1.7,0.3,1.8,1.5c0.1,0.8,0.1,1.8-0.2,2.5c-0.4,1.1-1.4,1.7-2.5,1.5
			c-0.9-0.2-0.6-1.2,0.1-1.1c0.6,0.1,1.1,0,1.3-0.7c0.2-0.6,0.2-1.3,0.2-1.9c-0.1-0.7-0.3-1-0.8-0.9C93.2,17,93,17,92.8,17
			c-0.4,1.7-1,3.3-1.8,4.6c-0.5,0.8-1.7,0.2-1-0.6c0.7-0.9,1.3-2.2,1.6-3.7l-0.1,0c-0.5,0.1-0.9,0.2-1.2,0.3c-0.7,0.1-0.8-0.9-0.1-1
			c0.3-0.1,0.7-0.1,1.1-0.1l0.5-0.1c0.1-0.5,0.2-1.1,0.2-1.8c0-0.7,1.1-0.7,1.1,0c0,0.4-0.1,1-0.2,1.6L93.4,16z M97.6,18.1
			c-0.3-0.6-0.9-1.4-1.7-1.7c-0.6-0.3-0.1-1.1,0.6-0.8c0.9,0.4,1.8,1.2,2.1,1.9C98.9,18.2,98,18.8,97.6,18.1z"/>
		<path class="st0" d="M103.9,21.6c-0.9,0.2-1.2-0.8-0.3-1.1c0.6-0.2,1.1-0.4,1.4-0.6c1.1-0.8,1.4-1.6,1.1-2
			c-0.3-0.4-1.1-0.5-2.2,0.1c-0.6,0.3-1.3,0.9-1.4,1.1c-0.6,0.7-1.1,0.4-1.3,0c-0.2-0.4-0.3-1-0.2-1.8c0-0.8,0.1-1.7,0.1-2.2
			c0.1-0.7,1-0.8,1,0c0,0.5-0.1,1.1-0.1,1.6c0,0.5-0.1,1,0,1.1c0,0.1,0.1,0.1,0.2,0c0.2-0.1,0.7-0.5,1.2-0.7
			c3.2-1.7,5.7,1.1,2.2,3.6C105.3,21,104.6,21.4,103.9,21.6z M103.3,14.6c-0.5,0.2-1-0.5-0.5-0.8c0.1,0,0.2-0.1,0.1-0.1
			c-0.2-0.1-0.6-0.3-0.8-0.4c-0.5-0.5,0.2-1.1,0.7-0.8c0.2,0.1,0.6,0.3,0.9,0.4c0.3,0.2,0.6,0.4,0.7,0.7c0,0.3-0.1,0.7-0.6,0.8
			C103.6,14.5,103.5,14.5,103.3,14.6z"/>
	</g>
</g>
</svg>
