<?xml version="1.0" encoding="utf-8"?>
<!-- Generator: Adobe Illustrator 23.0.1, SVG Export Plug-In . SVG Version: 6.00 Build 0)  -->
<svg version="1.1" id="レイヤー_1" xmlns="http://www.w3.org/2000/svg" xmlns:xlink="http://www.w3.org/1999/xlink" x="0px"
	 y="0px" viewBox="0 0 327.4 78.9" style="enable-background:new 0 0 327.4 78.9;" xml:space="preserve">
<style type="text/css">
	.st0{fill:none;stroke:#000000;stroke-width:0.5;stroke-miterlimit:10;}
</style>
<g>
	<g>
		<path d="M33.5,2.1h-1.9v8.8h-1.3v-10h3.2V2.1z M33.2,1.2h-2.5v9.4h0.6V1.8h1.9V1.2z"/>
		<path d="M44.8,5.3c-0.1,0-1-0.1-1.4-0.2C43,5.1,42.7,5,42.3,5c0,0.3-0.1,1.7-0.1,1.9c-0.1,1.5-0.8,2.6-2.5,3.8l-0.1-0.1
			c0.9-1.1,1.6-2.4,1.7-3.8c0-0.3,0-1.6,0-1.9c-0.6,0-1,0.1-2.1,0.3c0,0.3,0,1.8,0,2.1c0,0.4,0,0.7-0.3,0.7c-0.4,0-0.6-0.7-0.6-0.8
			c0,0,0-0.5,0.1-0.5V6.2c0-0.5,0-0.5,0-0.8c-0.3,0.1-1.3,0.3-1.4,0.4c-0.2,0.1-0.2,0.1-0.3,0.1c-0.4,0-0.9-0.7-0.9-1.2
			c0-0.1,0-0.4,0.1-0.5c0.1,0.1,0.4,0.5,0.4,0.6c0.2,0.1,0.5,0.2,0.6,0.2c0.2,0,1.2-0.1,1.4-0.2c0-0.4,0-1.4-0.2-1.8
			c-0.1-0.2-0.3-0.3-0.8-0.4c0.3-0.2,0.4-0.3,0.7-0.3c0.3,0,1.2,0.4,1.2,0.6c0,0.1-0.1,0.4-0.1,0.5c-0.1,0.3-0.1,0.9-0.1,1.3
			c1.5-0.2,1.6-0.2,2.1-0.2c0-0.3,0-1.2,0-1.4c0-0.5,0-0.9-0.9-1c0.3-0.2,0.4-0.3,0.7-0.3c0.3,0,1.4,0.2,1.4,0.6
			c0,0.1-0.1,0.5-0.1,0.5c-0.1,0.4-0.1,1.2-0.1,1.6c0.1,0,1.2-0.1,1.3-0.1c0.1,0,0.4-0.1,0.4-0.1c0.4,0,0.8,0.3,1,0.4
			c0.1,0.1,0.2,0.1,0.2,0.3C45.2,5.3,45,5.3,44.8,5.3z"/>
		<path d="M50.1,4.4c-0.2,0-0.3-0.2-0.7-0.5c-0.9-0.9-1.4-1.2-1.8-1.3c0.2,0,0.3,0,0.5,0c0.4,0,2.4,0.2,2.4,1.4
			C50.5,4.3,50.2,4.4,50.1,4.4z M51.1,8.1c-0.4,0.3-1.1,0.8-1.4,1.1c-0.1,0.1-0.3,0.4-0.4,0.4c-0.1,0-0.1,0-0.2,0
			c-0.4,0-1.2-1-1.2-1.5c0-0.2,0-0.4,0.1-0.5c0.4,0.6,0.7,0.7,0.9,0.7c0.3,0,2.1-1.3,2.5-1.6c1.8-1.4,2.8-2.6,3.4-3.3l0,0
			C54.7,4.2,53.6,6.1,51.1,8.1z"/>
		<path d="M57.9,7.1c-0.5,0-1-0.4-1-1s0.4-1,1-1s1,0.4,1,1S58.5,7.1,57.9,7.1z"/>
		<path d="M69.6,4.7c-0.2,0.1-0.2,0.1-0.8,0.6c-0.3,0.3-1.6,1.4-1.8,1.6c-0.3,0.2-0.4,0.3-0.6,0.4c0.7,0.5,1.1,1.3,1.1,1.7
			c0,0.3-0.2,0.6-0.5,0.6c-0.2,0-0.3,0-0.6-0.5c-0.7-1.2-1.7-2.2-2.9-3c1.6,0.4,2.4,0.9,2.6,1c1.7-2,1.9-2.1,2.3-2.9
			c-3,0.3-4.7,0.4-5.6,0.7c-0.1,0-0.4,0.2-0.5,0.2c-0.3,0-1-0.9-1-1.3c0-0.2,0-0.4,0.1-0.6c0.4,0.7,0.5,0.8,1,0.8
			c1.2,0,5.6-0.3,5.8-0.3c0.2,0,0.3-0.1,0.5-0.3c0.1-0.1,0.2-0.1,0.3-0.1c0.2,0,0.5,0.3,0.6,0.5c0.1,0.1,0.4,0.5,0.4,0.6
			C70.2,4.5,70.1,4.5,69.6,4.7z"/>
		<path d="M74,6.2c0,0.3-0.2,0.5-0.4,0.5c-0.3,0-0.4-0.3-0.5-0.6c-0.2-0.4-0.5-0.9-0.8-1.2C73.2,5,74,5.5,74,6.2z M73.1,10.3
			c3.3-1.6,4.3-5.2,4.3-5.3c0-0.2-0.3-0.4-0.6-0.6c0.1,0,0.3-0.1,0.5-0.1c0.5,0,1.1,0.6,1.1,0.7c0,0.1,0,0.1-0.2,0.3
			c-0.1,0.1-0.5,1.1-0.6,1.3C76,9.5,74.3,10.1,73.1,10.3L73.1,10.3z M75.9,5.6c0,0.2-0.1,0.5-0.4,0.5c-0.3,0-0.3-0.1-0.5-0.6
			c-0.1-0.3-0.3-0.7-0.7-1.2C75.3,4.6,75.9,5.2,75.9,5.6z"/>
		<path d="M85.3,7.4c-0.2,0-0.3-0.1-0.5-0.3c-1.1-1.3-1.5-1.6-2.2-1.9c0,0.7,0,3.1,0,3.2c0,0.2,0.1,1.2,0.1,1.4
			c0,0.5-0.2,0.8-0.5,0.8c-0.3,0-0.6-0.5-0.6-1.1c0-0.1,0-0.2,0.1-0.7C81.8,8,81.8,6.6,81.8,6c0-0.6,0-3.1-0.1-3.5
			c0-0.1-0.1-0.2-0.9-0.6c0.2-0.1,0.5-0.3,0.7-0.3c0.2,0,1.4,0.2,1.4,0.6c0,0.1-0.1,0.5-0.2,0.5c-0.1,0.5-0.1,1.7-0.1,2.2
			c1.3,0.2,3.2,0.9,3.2,1.9C85.8,7.3,85.5,7.4,85.3,7.4z"/>
		<path d="M88.1,10.1H90V1.3h1.3v10h-3.2V10.1z M88.5,11H91V1.6h-0.6v8.8h-1.9V11z"/>
		<path d="M103.2,3.3c-0.6,0-1.4,0-2,0.2c-1.1,0.4-2.4,1.8-2.4,3.4c0,0.5,0.2,1.6,1.7,2.1c0.2,0.1,1.3,0.3,1.5,0.4
			c0.3,0.2,0.4,0.3,0.4,0.6c0,0.4-0.3,0.4-0.6,0.4c-0.3,0-1.1-0.1-1.9-0.5c-1.6-0.8-1.7-2.2-1.7-2.7c0-1.7,1-2.8,2.2-3.8
			c-0.6-0.1-2.6,0.7-3.6,1.2c-0.5,0.3-0.6,0.3-0.8,0.3c-0.3,0-0.9-0.3-0.9-1c0-0.4,0.2-0.6,0.2-0.7c0.2,0.5,0.5,0.6,0.9,0.6
			c0.4,0,5.4-1.2,5.7-1.3c0.4-0.2,0.7-0.2,0.8-0.2c0.5,0,1,0.3,1,0.7C103.9,3.3,103.6,3.3,103.2,3.3z M102.9,6.1
			c-0.3,0-0.4-0.2-0.6-0.6c-0.1-0.3-0.5-0.8-0.8-1.1c0.6,0.2,1.8,0.5,1.8,1.3C103.2,5.8,103.1,6.1,102.9,6.1z M104.1,5.6
			c-0.2,0-0.3-0.2-0.6-0.6c-0.3-0.5-0.7-0.8-1-1c0.8,0,1.9,0.5,1.9,1.2C104.5,5.5,104.3,5.6,104.1,5.6z"/>
		<path d="M115.9,2.7h-7c0,4.1,0,6.5-2.3,8.3l-0.1-0.1c0.7-1,1.2-2.1,1.4-4.4c-0.3,0.3-0.7,0.8-0.8,0.9c0,0.1,0,0.4-0.3,0.4
			c-0.1,0-0.1-0.1-0.2-0.1L106,6.6c0.1,0,0.2,0,0.3,0c0.5,0,1.5-0.3,1.6-0.3c0-0.2,0.1-0.8,0.1-1.5c0-0.2,0-2-0.3-2.8l1.3,0.6h1.8
			c0-0.8-0.1-1-0.3-1.4l1.3,0.4c0.1,0,0.2,0.1,0.2,0.2c0,0.1-0.1,0.2-0.3,0.3c0,0.3,0,0.5,0,0.6h2.6l0.4-0.6c0-0.1,0.1-0.1,0.2-0.1
			c0.1,0,0.1,0.1,0.2,0.1l0.8,0.6c0,0,0.1,0.1,0.1,0.2C116,2.7,115.9,2.7,115.9,2.7z M107.4,5.2c-0.3,0-0.3-0.1-0.5-0.6
			c-0.2-0.7-0.4-1-0.6-1.2l0-0.1c0.9,0.3,1.6,0.7,1.6,1.4C107.9,5.1,107.5,5.2,107.4,5.2z M115.2,6c0,0.2,0,0.5,0,0.8
			c0,0.5,0.1,2.8,0.1,3c0,0.5,0,1.2-1.5,1.3c-0.1-0.6-0.3-0.9-0.6-1.1V9.9c0.4,0,0.7,0.1,0.9,0.1c0.2,0,0.3,0,0.3-0.2v-1h-1.7
			c0,0.2,0.1,1.6,0.1,1.7c0,0.2,0,0.6-0.6,0.6c-0.4,0-0.4-0.2-0.4-0.4v-2h-1.4c0,0.2,0,1.5,0,1.6c0,0.2,0,0.6-0.7,0.6
			c-0.3,0-0.3-0.2-0.3-0.4c0-0.1,0.1-3.2,0.1-3.8c0-1,0-1.4-0.1-1.9l1.1,0.5h1.3c-0.4-0.7-0.8-1-1-1.1V4.2c0.2,0,0.8,0,1.4,0.3
			c0.2-0.2,0.4-0.5,0.5-0.7h-2.3c-0.8,0-1,0-1.2,0.1l-0.2-0.4c0.7,0,1.1,0.1,1.6,0.1h2.2l0.4-0.3c0.2-0.1,0.2-0.1,0.2-0.1
			c0,0,0.1,0,0.2,0.1l0.6,0.5c0.1,0,0.1,0.1,0.1,0.3c0,0.2-0.2,0.2-0.3,0.2c-0.1,0-0.5,0-0.5,0c-0.2,0.1-1.1,0.4-1.3,0.5
			c0.1,0.1,0.3,0.3,0.3,0.5c0,0.1,0,0.2-0.1,0.2h1.6l0.4-0.4c0.1,0,0.1-0.1,0.2-0.1c0.1,0,0.1,0,0.2,0.1l0.5,0.4
			c0.1,0.1,0.1,0.1,0.1,0.2C115.6,5.7,115.4,5.9,115.2,6z M111.7,5.7h-1.4v1.3h1.4V5.7z M111.7,7.2h-1.4v1.3h1.4V7.2z M114.3,5.7
			h-1.7v1.3h1.7V5.7z M114.3,7.2h-1.7v1.3h1.7V7.2z"/>
		<path d="M127.2,9c-0.2,0-0.3-0.1-0.5-0.3c-0.3-0.3-0.8-0.7-1.3-1c-0.6,1.2-1.5,2.3-2.8,2.9l0,0c1-1,1.8-2.4,2.1-3.3
			c-0.9-0.5-1.6-0.7-2.6-0.8c-0.3,0.6-1.5,3.1-2.5,3.1c-0.6,0-1-0.9-1-1.5c0-1.4,1.8-2,3-2.1c0.7-1.7,1.2-3.2,1.2-3.2
			c0-0.1-0.1-0.1-0.2-0.1c-0.3,0-1.1,0.8-1.4,0.8c-0.3,0-0.7-0.5-0.7-1c0-0.3,0.2-0.5,0.3-0.6c0.1,0.3,0.4,0.5,0.6,0.5
			c0.2,0,0.9-0.2,1.5-0.4c0.1,0,0.4-0.2,0.5-0.2c0.2,0,0.8,0.4,0.8,0.7c0,0.2-0.1,0.2-0.3,0.5c-0.4,0.4-1.3,2.7-1.4,2.9
			c0.9,0.1,1.7,0.3,2.6,0.6c0-0.1,0.2-0.8,0.2-1.1c0-0.3-0.2-0.6-0.4-1c0.1,0,0.2-0.1,0.4-0.1c0.4,0,1,0.6,1,1
			c0,0.3-0.3,1.2-0.4,1.5c0.8,0.4,1.9,1,1.9,1.6C127.6,9,127.3,9,127.2,9z M121,6.6c-0.2,0-2,0.3-2,1.4c0,0.6,0.4,0.9,0.6,0.9
			c0.4,0,1.4-1.8,1.6-2.2C121.2,6.6,121.1,6.6,121,6.6z"/>
		<path d="M137.2,5.9c-1.1,0.2-1.7,0.4-2.9,0.9c0,0.2,0.1,0.6,0.1,1.2c0,0.4,0,1-0.4,1c-0.5,0-0.5-0.7-0.5-1.2c0-0.4,0-0.5,0-0.6
			c-0.5,0.3-1.5,1.1-1.5,1.7c0,0.8,1.4,0.8,1.7,0.8c0.5,0,1.2-0.1,1.7-0.2c0.2,0,0.3,0,0.4,0c0.5,0,0.7,0.4,0.7,0.6
			c0,0.3-0.3,0.4-0.4,0.4c-0.2,0-1.2,0.1-1.7,0.1c-0.7,0-3,0-3-1.4c0-1.1,1.4-2.1,2-2.4c-0.1-0.6-0.2-1.1-0.9-1.1
			c-0.7,0-1.1,0.6-1.3,1c-0.5,0.8-0.6,0.9-0.8,0.9c-0.3,0-0.4-0.1-0.4-0.5c0-0.2,0-0.6,0.2-0.8c0.7-0.6,1.1-1,1.9-2.3
			C131.7,4,131.5,4,131.3,4c-1,0-1.2-0.7-1.2-0.9c0-0.1,0-0.1,0-0.2c0.3,0.4,0.7,0.5,1.2,0.5c0.2,0,0.5,0,1.2-0.1
			c0.1-0.2,0.6-1,0.6-1.2c0-0.2-0.4-0.4-0.8-0.4c0.2-0.1,0.4-0.4,0.8-0.4c0.5,0,1.1,0.4,1.1,0.7c0,0.2-0.1,0.3-0.2,0.4
			c-0.3,0.3-0.3,0.3-0.5,0.7c0.4-0.2,1.2-0.4,1.3-0.5c0.1,0,0.2,0,0.2,0c0.3,0,0.6,0.2,0.6,0.4c0,0.2-0.2,0.3-0.3,0.4
			c-0.8,0.3-1.6,0.4-2.3,0.5c-0.2,0.2-1,1.3-1.1,1.5c0,0.1-0.1,0.1-0.1,0.2c0.3-0.1,0.7-0.2,1.2-0.2c0.9,0,1.2,0.7,1.3,1
			c0.3-0.2,1-0.6,1.9-1c0.3-0.1,0.3-0.2,0.3-0.4c0-0.2-0.1-0.2-0.4-0.4c0.1,0,0.2-0.1,0.3-0.1c0.6,0,1.4,0.4,1.4,1
			C137.8,5.7,137.6,5.8,137.2,5.9z"/>
		<path d="M143.7,6.7c-0.1,0-0.4,0-0.5-0.4c0-0.1-0.1-0.4-0.1-0.5c-0.2,0.1-0.2,0.1-0.3,0.1c0,0.5,0,3.9,0,4.2c0,0.1,0,0.5,0,0.6
			c0,0.3-0.4,0.4-0.6,0.4c-0.3,0-0.4-0.1-0.4-0.3c0-0.4,0.1-2,0.1-2.4c0-0.3,0-1.8,0-2.2c-0.5,0.2-1,0.3-1.4,0.4
			c-0.1,0.2-0.2,0.3-0.3,0.3c-0.1,0-0.1-0.1-0.2-0.2l-0.4-1.1c0.5,0.2,1.4,0.2,1.7,0.1c1.4-2,1.5-2.6,1.7-3.3l1,0.5
			c0,0,0.1,0.1,0.1,0.1c0,0.2-0.2,0.2-0.4,0.2c-0.6,0.8-1.4,1.6-2.2,2.3c0.3,0,0.7,0,1.4-0.1c-0.1-0.4-0.3-0.6-0.4-0.7l0.1-0.1
			c0.7,0.2,1.5,0.7,1.5,1.3C144.2,6.4,144.1,6.7,143.7,6.7z M141.5,7.6c-0.3,1.1-0.8,2.1-1.6,2.9h0c0.5-1,0.7-2.1,0.7-3.3
			c0-0.2,0-0.2,0-0.5l1.1,0.4c0.1,0,0.2,0.1,0.2,0.2C141.9,7.4,141.8,7.5,141.5,7.6z M142.7,2c-0.5,0.5-0.8,0.9-1.3,1.4
			c0.5,0.3,0.6,0.5,0.6,0.9c0,0.3-0.3,0.4-0.5,0.4c-0.3,0-0.5-0.2-0.5-0.4c-0.4-0.6-0.5-0.9-0.9-1.2l0,0c0.2,0,0.6,0,1.1,0.2
			c0.3-0.7,0.5-1.5,0.5-2.3l1.1,0.6c0.1,0,0.1,0.1,0.1,0.2C143,1.8,142.9,1.9,142.7,2z M144,8.6c-0.4,0-0.5-0.4-0.5-0.7
			c-0.1-0.4-0.3-0.8-0.5-1.2l0.1-0.1c1.1,0.2,1.6,1,1.6,1.4C144.6,8.4,144.3,8.6,144,8.6z M149.1,10.8c-0.4-0.1-1.3-0.5-2-1.3
			c-1.4,1.1-2.8,1.2-3.2,1.3v0c0.7-0.3,1.8-0.8,2.8-1.8c-0.2-0.4-0.4-0.8-0.6-1.6c-0.3,0.9-1.2,2.5-2.9,3.2l0,0
			c0.7-0.7,2-2.1,2.4-4.4c-0.3,0-0.6,0-0.9,0.1l-0.2-0.4c0.3,0,0.5,0.1,1.2,0.1c0-0.2,0.1-0.5,0.1-1.1c-0.4,0-0.6,0-0.9,0.1
			l-0.2-0.4c0.5,0,1,0.1,1.6,0.1h2l0.3-0.4c0.1-0.1,0.1-0.1,0.2-0.1c0.1,0,0.2,0.1,0.2,0.1l0.5,0.4c0.1,0,0.1,0.1,0.1,0.2
			c0,0.1-0.1,0.1-0.2,0.1h-2.7c0,0.3-0.1,0.8-0.2,1.1h1.9l0.4-0.4c0.1-0.1,0.1-0.1,0.2-0.1s0.1,0,0.2,0.1l0.6,0.4
			c0,0,0.1,0.1,0.1,0.2c0,0.1-0.1,0.1-0.2,0.1h-3.2c-0.1,0.4-0.1,0.6-0.3,1h1.6l0.3-0.3c0.1-0.1,0.1-0.1,0.2-0.1c0,0,0.1,0,0.1,0
			l0.6,0.5c0,0,0.1,0.1,0.1,0.2c0,0.1,0,0.1-0.4,0.3c-0.1,0.3-0.4,0.8-1,1.4c0.4,0.3,1.1,0.7,2.3,0.8v0.1
			C149.7,10,149.3,10.3,149.1,10.8z M148.1,2c-1.2,0.4-2.3,0.5-3.4,0.5c-0.4,0-0.7,0-1,0V2.3c0.7-0.1,2.3-0.4,3.4-0.9
			c0.2-0.1,0.2-0.1,0.5-0.3l0.9,0.6c0.1,0,0.1,0.1,0.1,0.2C148.7,2,148.5,2,148.1,2z M145.1,4.3c-0.3,0-0.4-0.3-0.5-0.5
			c-0.2-0.7-0.3-0.9-0.5-1.1l0-0.1c0.8,0.2,1.4,0.6,1.4,1.2C145.5,4.1,145.2,4.3,145.1,4.3z M146.6,4.1c-0.4,0-0.5-0.3-0.5-0.6
			c-0.1-0.5-0.3-0.8-0.5-1l0,0c0.6,0.2,1.4,0.5,1.4,1.2C147,3.9,146.9,4.1,146.6,4.1z M146.2,7.3c0.1,0.4,0.4,0.8,0.8,1.2
			c0.5-0.6,0.5-0.8,0.7-1.2H146.2z M149,3c-0.7,0.7-1.4,1.1-1.7,1.3l-0.1,0c0.3-0.6,0.9-1.7,0.9-2.2l1,0.6c0,0,0.1,0.1,0.1,0.1
			C149.2,3,149.1,3,149,3z"/>
		<path d="M155.6,4.4l0.5-0.5c0.1-0.1,0.1-0.1,0.2-0.1c0.1,0,0.2,0.1,0.2,0.1l0.6,0.5c0.1,0.1,0.1,0.1,0.1,0.2
			c0,0.1-0.1,0.1-0.2,0.1h-2v0.9c0.4,0,1.8,0.5,1.8,1.4c0,0.4-0.3,0.5-0.5,0.5c-0.3,0-0.4-0.2-0.6-0.7c-0.4-0.8-0.5-1-0.7-1.1
			c0,0.8,0,4.2,0,4.9c0,0.4-0.5,0.5-0.6,0.5c-0.2,0-0.3-0.1-0.3-0.3c0,0,0-0.2,0-0.3c0.1-1.3,0.1-2.7,0.1-4
			c-0.5,0.9-1.5,2.1-2.5,2.7l0-0.1c1-1.2,2.1-3.2,2.4-4.4h-0.9c-0.7,0-0.9,0-1.2,0.1l-0.2-0.4c0.7,0.1,1.5,0.1,1.6,0.1h0.8l0-1.8
			c-1.1,0.2-1.6,0.3-2.1,0.3l0-0.1c1.6-0.6,2.8-1,3.5-1.6c0.2-0.1,0.2-0.2,0.3-0.3l0.8,0.8c0,0,0.1,0.1,0.1,0.1
			c0,0.1-0.1,0.1-0.2,0.1c-0.1,0-0.1,0-0.2,0c-0.3,0.1-0.7,0.3-1.4,0.5c0,1,0,1.4,0,2H155.6z M160.1,2.8l0.4-0.4
			c0.1-0.1,0.1-0.1,0.2-0.1c0,0,0.1,0.1,0.1,0.1l0.6,0.5c0,0,0.1,0.1,0.1,0.1c0,0.2-0.3,0.3-0.4,0.4c0,1.6,0.1,4.3,0.1,4.9
			c0,0.3,0.1,1.4,0.1,1.6c0,0.5-0.7,0.6-0.7,0.6c-0.4,0-0.4-0.2-0.3-0.7h-1.8c0,0.2,0,0.2,0,0.3c0,0.3-0.1,0.4-0.2,0.4
			c-0.1,0.1-0.4,0.2-0.5,0.2c-0.4,0-0.4-0.3-0.4-0.4c0,0,0-0.2,0-0.3c0.1-0.9,0.1-3.9,0.1-4.4c0-2-0.1-2.7-0.2-3.4l1.1,0.6H160.1z
			 M158.4,3v6.4h1.8V3H158.4z"/>
		<path d="M165.9,10.8c-0.9,0-1.6-0.7-1.6-1.6c0-0.9,0.7-1.6,1.6-1.6c0.9,0,1.6,0.7,1.6,1.6C167.5,10.1,166.8,10.8,165.9,10.8z
			 M165.9,7.9c-0.7,0-1.2,0.5-1.2,1.2c0,0.7,0.5,1.2,1.2,1.2c0.7,0,1.2-0.5,1.2-1.2S166.6,7.9,165.9,7.9z"/>
		<path d="M172.3,7c0.1,0.3,0.1,0.5,0.1,1.1c0,0.9-0.1,1.3-0.2,1.5c-0.2,0.5-0.6,0.8-1,0.8c-0.3,0-0.6-0.2-0.6-0.5
			c0-0.3,0.1-0.4,0.5-0.8C171.4,8.9,172.1,8.1,172.3,7L172.3,7z M176.3,2.9c0-1.1,0-1.3-0.2-1.7l1.1,0.3c0,0,0.3,0.1,0.3,0.2
			c0,0.1,0,0.1-0.3,0.3c0,0.3,0,0.3,0,1h1.4l0.5-0.7c0.1-0.1,0.1-0.1,0.2-0.1c0.1,0,0.2,0.1,0.2,0.1l0.6,0.6c0,0,0.1,0.1,0.1,0.2
			c0,0.1-0.1,0.1-0.2,0.1h-2.9c0,0.1,0,0.8,0,0.9c0,0.2,0,0.6-0.6,0.6c-0.3,0-0.4-0.2-0.4-0.4c0-0.2,0-0.9,0-1.1h-1.7
			c0,1,0,1.1,0,1.3c-0.1,0.1-0.2,0.3-0.5,0.3c-0.2,0-0.4-0.1-0.4-0.3c0-0.1,0-0.8,0-1.3h-1.5c-0.7,0-0.9,0-1.2,0.1l-0.2-0.4
			c0.5,0,1,0.1,1.6,0.1h1.3c0-1.2,0-1.3-0.1-1.7l1.1,0.3c0.2,0,0.2,0.1,0.2,0.2c0,0.1,0,0.1-0.3,0.3c0,0.3,0,0.4,0,0.9H176.3z
			 M174.6,6.1c0.2,0.1,0.3,0.1,0.3,0.2s-0.1,0.2-0.3,0.3c0,0.3,0,3.1,0,3.3c0,0.2,0.1,0.2,1,0.2c1.2,0,1.5,0,1.8-1.9h0.1
			c0.1,0.3,0.3,1.6,0.4,1.7c0.2,0.1,0.3,0.1,0.3,0.3c0,0.1-0.1,0.5-0.6,0.7c-0.4,0.2-0.7,0.2-2,0.2c-1.6,0-2,0-2-1.4V6.6
			c0-0.6-0.1-0.8-0.1-1L174.6,6.1z M174.8,4.9c1,0.1,2.2,0.9,2.2,1.7c0,0.5-0.3,0.5-0.5,0.5c-0.4,0-0.5-0.3-0.7-0.7
			C175.5,5.7,175.2,5.3,174.8,4.9L174.8,4.9z M178,6.7c2.1,0.8,2.3,1.8,2.3,2.2c0,0.1,0,0.7-0.5,0.7c-0.4,0-0.6-0.4-0.9-1.3
			C178.9,8.1,178.4,7.2,178,6.7L178,6.7z"/>
		<path d="M187.7,10c-0.3,0.4-0.7,0.6-1,0.6c-0.4,0-0.4-0.2-0.4-0.6c0-0.1,0-0.2-0.2-0.6c-0.2-0.4-0.3-0.6-0.5-0.8v0
			c0.1,0.1,1.1,0.7,1.3,0.7c0.1,0,0.3-0.1,0.4-0.2c0.6-1,0.9-2.7,0.9-3.2c0-1.1-0.4-1.2-0.8-1.2c-0.2,0-0.4,0-0.5,0
			c-0.7,1.5-1.6,3.5-2.3,4.8c-0.3,0.5-0.5,0.8-0.8,0.8c-0.2,0-0.4-0.2-0.4-0.6c0-0.3,0.1-0.4,0.5-0.9c0.4-0.5,1.3-1.8,2.1-3.9
			c-0.5,0.2-1,0.5-1.4,0.7c-0.3,0.2-0.4,0.2-0.6,0.2c-0.3,0-0.9-0.5-0.9-1c0-0.2,0.1-0.4,0.2-0.5c0.2,0.5,0.5,0.5,0.7,0.5
			c0.3,0,0.5,0,0.7-0.1c0.3-0.1,1.4-0.3,1.6-0.4c0.1-0.2,0.4-1.1,0.4-1.6c0-0.5-0.3-0.6-0.8-0.9c0.4-0.2,0.6-0.2,0.7-0.2
			c0.3,0,1.2,0.6,1.2,0.9c0,0.2,0,0.3-0.4,0.9c-0.1,0.2-0.3,0.5-0.4,0.8c0.1,0,0.2,0,0.4,0c0.9,0,1.4,0.4,1.4,1.9
			C188.9,6.9,188.5,9.2,187.7,10z M192.2,7.4c-0.1,0-0.2,0-0.5-0.3c-0.5-0.3-1.4-0.5-1.6-0.5V6.5c0.2-0.1,1.2-0.3,1.2-0.3
			c0.1,0,0.1-0.1,0.1-0.2c0-0.1-0.4-1-1.9-2.1c0.4,0.1,0.9,0.2,1.5,0.5c0.9,0.5,1.6,1.4,1.6,2.4C192.6,7.2,192.4,7.4,192.2,7.4z"/>
		<path d="M197.6,10.5c-0.4,0-0.6,0-0.8,0v-0.1c0.7-0.1,2-0.4,3.1-1.1c0.6-0.4,1-0.9,1-1.7c0-0.5-0.3-1.4-1.3-1.4
			c-1.4,0-2.5,1-3.3,1.9c0,0.1-0.2,0.3-0.3,0.4c-0.1,0.2-0.2,0.2-0.3,0.2c-0.5,0-0.6-0.6-0.6-0.9c0-0.3,0.1-0.5,0.1-0.6
			c0.2-0.7,0.3-2.2,0.3-2.5c0-1,0-1.5,1.5-1.9c0.1,0,0.4-0.1,0.4-0.1c0,0,0,0,0-0.1c0-0.1,0-0.1-0.4-0.3c-0.2-0.1-0.5-0.5-0.5-1.1
			c0.7,0.5,0.8,0.6,1.6,0.8c0.4,0.1,1,0.4,1,1.1c0,0.2,0,0.4-0.3,0.4c-0.1,0-0.2,0-0.5-0.2c-0.4-0.2-0.9-0.3-1.3-0.3
			c-0.3,0-1.1,0.1-1.1,0.5c0,0.2,0.1,0.3,0.3,0.6c0.1,0.1,0.2,0.3,0.2,0.5c0,0.2,0,0.3-0.2,0.7c-0.1,0.3-0.3,1.1-0.3,1.4
			c0,0.1,0,0.2,0.1,0.2c0.1,0,0.7-0.4,0.9-0.5c0.9-0.5,1.8-0.8,2.8-0.8c1.6,0,2.2,1.1,2.2,1.9C201.9,9.3,200.2,10.5,197.6,10.5z"/>
		<path d="M205.4,5.6c-0.3,0-0.3-0.1-0.7-0.6c-0.2-0.3-0.3-0.4-0.7-0.7V4.2c0.6,0,0.9,0,1.1,0c0.7,0.2,0.8,0.6,0.8,0.8
			C205.9,5.3,205.7,5.6,205.4,5.6z M205.6,8.6c0,0.1,0,0.2,0,0.3c0,0.1,0.1,0.4,0.2,0.6c0.2,0.5,0.2,0.6,0.2,0.8
			c0,0.1,0,0.7-0.6,0.7c-0.1,0-0.6,0-0.6-0.7c0-0.1,0.1-0.8,0.1-0.9c0-0.5-0.5-0.7-0.8-0.8V8.4c0.7-0.1,0.7-0.2,1.1-1
			c0.2-0.4,0.4-0.8,0.5-1.2c0-0.1,0.8-1.9,1.1-2.6l0.1,0C206.4,5.7,206.4,5.8,205.6,8.6z M206.1,3c-0.3,0-0.4-0.1-0.7-0.7
			c-0.2-0.3-0.3-0.7-0.6-0.9V1.3c0.4,0,1.8,0.3,1.8,1.1C206.6,2.6,206.5,3,206.1,3z M214.3,10.5h-6.7c-0.7,0-0.9,0-1.2,0.1l-0.2-0.4
			c0.2,0,0.5,0,1.1,0.1V6.9c0-0.5,0-0.7-0.1-1l1.1,0.5h3.6l0.3-0.3c0.1-0.1,0.2-0.2,0.3-0.2c0.1,0,0.2,0.1,0.2,0.1l0.4,0.3
			c0.1,0.1,0.2,0.2,0.2,0.3c0,0.1-0.1,0.2-0.3,0.4v3.2l0.4-0.6c0-0.1,0.1-0.1,0.2-0.1c0.1,0,0.1,0.1,0.2,0.1l0.6,0.6
			c0,0.1,0.1,0.1,0.1,0.2C214.5,10.5,214.4,10.5,214.3,10.5z M212.5,2.4c0,0.4,0,2.3,0,2.6c0,0.3-0.1,0.3-0.2,0.4
			c-0.2,0.1-0.4,0.2-0.5,0.2c-0.3,0-0.3-0.2-0.3-0.5h-3.2c0,0.2,0,0.6-0.6,0.6c-0.1,0-0.3,0-0.3-0.3c0-0.3,0-1.6,0.1-1.9
			c0-0.1,0-0.7,0-1c0-0.3,0-0.5-0.1-1.3l1.1,0.5h3.1l0.2-0.2c0.1-0.1,0.2-0.2,0.3-0.2c0.1,0,0.1,0.1,0.2,0.1l0.4,0.3
			c0.1,0.1,0.2,0.2,0.2,0.3C212.9,2.2,212.7,2.3,212.5,2.4z M209,6.7h-0.7v3.6h0.7V6.7z M211.7,1.9h-3.2v1.3h3.2V1.9z M211.7,3.5
			h-3.2v1.3h3.2V3.5z M210.6,6.7h-0.7v3.6h0.7V6.7z M212.2,6.7h-0.8v3.6h0.8V6.7z"/>
		<path d="M220.4,10.3c1.9-0.4,3.9-1.7,3.9-3.7c0-1.5-1.3-2.3-2.6-2.3c-0.6,1.2-1.2,2.5-1.9,3.4c0.5,0.6,0.7,0.8,0.7,1.1
			c0,0.2-0.1,0.4-0.4,0.4c-0.4,0-0.8-0.6-0.9-0.8c-0.2,0.2-1,1.2-1.7,1.2c-0.2,0-0.4-0.1-0.4-0.2c-0.1-0.1-0.3-0.7-0.4-0.9
			c-0.2-0.3-0.2-0.4-0.2-0.6c0-0.2,0.1-0.8,0.4-1.3c0.4-0.7,0.8-1.1,1.1-1.3c-0.4-1.6-0.5-1.8-0.9-2.4c0.4,0,1,0.3,1.3,1.2
			c0.1,0.2,0.2,0.6,0.2,0.8c0.8-0.5,1.8-0.8,2.3-0.9c0.2-0.5,0.3-1.1,0.3-1.3c0-0.3-0.1-0.3-0.7-0.9c0.1-0.1,0.2-0.1,0.5-0.1
			c0.7,0,1.4,0.4,1.4,0.9c0,0.2-0.1,0.5-0.2,0.6c-0.2,0.5-0.2,0.5-0.3,0.7c1.6,0,3.5,0.8,3.5,2.8C225.3,9,223.3,10.4,220.4,10.3
			L220.4,10.3z M218.2,5.9c-0.3,0.3-1,1.2-1,2.2c0,0.2,0,0.7,0.4,0.7c0.4,0,1.2-0.9,1.3-1C218.5,7,218.3,6.4,218.2,5.9z M218.7,5.3
			c0.3,1.1,0.5,1.5,0.7,1.7c0.8-1.2,1.4-2.5,1.4-2.7C219.6,4.6,218.9,5.2,218.7,5.3z"/>
		<path d="M235.7,3.3c-0.6,0-1.4,0-2,0.2c-1.2,0.4-2.4,1.8-2.4,3.4c0,0.5,0.2,1.7,1.7,2.1c0.2,0.1,1.3,0.3,1.5,0.4
			c0.3,0.2,0.4,0.3,0.4,0.6c0,0.4-0.4,0.4-0.6,0.4c-0.3,0-1.1-0.1-1.9-0.5c-1.6-0.8-1.7-2.1-1.7-2.7c0-1.7,1-2.8,2.2-3.8
			c-0.6-0.1-2.6,0.7-3.6,1.2c-0.5,0.3-0.6,0.3-0.8,0.3c-0.3,0-0.9-0.4-0.9-1c0-0.4,0.1-0.6,0.2-0.7c0.2,0.5,0.5,0.6,0.9,0.6
			c0.4,0,5.4-1.2,5.7-1.3c0.5-0.2,0.7-0.2,0.9-0.2c0.5,0,1,0.3,1,0.7C236.5,3.3,236.1,3.3,235.7,3.3z"/>
		<path d="M248.4,10.3h-8.5c-0.8,0-1,0-1.2,0.1l-0.2-0.4c0.5,0,0.7,0,1.3,0.1V6.8c0-2.4,0-2.6-0.1-3.8l1.2,0.5h1
			c0.5-0.7,0.7-1.8,0.7-2.3l1.2,0.6c0.1,0.1,0.2,0.1,0.2,0.2c0,0.3-0.3,0.3-0.5,0.3c-0.4,0.4-0.8,0.8-1.3,1.2h3.5l0.3-0.3
			c0,0,0.1-0.1,0.2-0.1c0.1,0,0.2,0.1,0.2,0.1l0.6,0.5c0.1,0.1,0.1,0.1,0.1,0.2c0,0.2-0.3,0.3-0.4,0.4c0,0.3,0,2,0,2.3v3.5h0.2
			l0.4-0.6c0-0.1,0.1-0.1,0.2-0.1c0.1,0,0.2,0.1,0.2,0.1l0.6,0.6c0.1,0,0.1,0.1,0.1,0.2C248.6,10.3,248.5,10.3,248.4,10.3z
			 M241.9,3.8h-1v6.2h1V3.8z M243.9,3.8h-1v6.2h1V3.8z M245.9,3.8h-1.1v6.2h1.1V3.8z"/>
		<path d="M254.8,3.8c0.1,0,0.1,0.1,0.1,0.2c0,0.1,0,0.1-0.1,0.1c-0.1,0-0.3,0-0.4,0.1c-0.2,0.3-0.4,0.5-0.6,0.8
			c0.1,0.1,0.2,0.2,0.2,0.3c0,0,0,0.1-0.1,0.1c0,0-0.1,0.1-0.1,0.1c0,0.4-0.1,0.7-0.1,2.5c0,0.3,0,2,0,2.4c0,0.7-0.5,0.7-0.6,0.7
			c-0.4,0-0.4-0.3-0.4-0.5c0-0.2,0.1-1.9,0.1-2.2c0-1,0-1.9,0-2.5c-0.7,0.7-1.4,1.2-2.3,1.5l0,0c1-0.9,2.3-2.6,3-3.7
			c0.1-0.1,0.1-0.2,0.3-0.7L254.8,3.8z M254.4,1.8c0,0,0.1,0.1,0.1,0.2c0,0.1-0.1,0.1-0.2,0.1c-0.1,0-0.3,0-0.3,0
			c-0.9,0.9-1.8,1.6-3.3,2.1l0-0.1c0.9-0.6,2.1-1.9,2.5-2.6c0.1-0.2,0.2-0.5,0.2-0.7L254.4,1.8z M258.4,5L258.4,5
			c0,0.6,0.1,4.1,0.1,4.8c0,0.3,0,1.2-1.3,1.2c-0.1-0.6-0.4-0.8-1.1-1.3V9.8c0.2,0,0.7,0.1,1.1,0.1c0.4,0,0.4-0.1,0.4-0.4
			c0-1.1,0-3.3-0.1-4.4h-1.7c-0.8,0-1,0-1.2,0.1l-0.2-0.4c0.5,0,1.1,0.1,1.6,0.1h2.8l0.6-0.7c0.1-0.1,0.1-0.1,0.2-0.1
			c0.1,0,0.2,0.1,0.2,0.1l0.7,0.7c0.1,0.1,0.1,0.1,0.1,0.2c0,0.1-0.1,0.1-0.2,0.1H258.4z M258.3,2.1l0.5-0.6
			c0.1-0.1,0.1-0.1,0.2-0.1c0.1,0,0.2,0.1,0.2,0.1l0.7,0.6c0.1,0.1,0.1,0.1,0.1,0.2c0,0.1-0.1,0.1-0.2,0.1h-3.5
			c-0.7,0-0.9,0-1.2,0.1L255,2c0.5,0.1,1,0.1,1.6,0.1H258.3z"/>
		<path d="M267.8,9.9c-0.2,0.2-0.7,0.8-1.2,0.8c-0.4,0-0.4-0.2-0.4-0.7c0-0.1,0-0.2-0.1-0.3c-0.2-0.3-0.5-0.9-0.6-1l0,0
			c0.4,0.3,1,0.7,1.3,0.7c0.2,0,0.4-0.2,0.4-0.3c0.8-1.6,0.8-3,0.8-3.2c0-0.4,0-1.1-0.7-1.1c-0.1,0-0.3,0-0.5,0.1
			c-0.7,1.7-0.9,1.9-2.1,4.3c-0.2,0.4-0.5,1-0.7,1.2c-0.1,0.1-0.2,0.1-0.3,0.1c-0.2,0-0.4-0.1-0.4-0.5c0-0.3,0.1-0.5,0.3-0.8
			c0.8-1.1,1.3-1.7,2.3-4.1c-0.5,0.2-1.3,0.6-1.5,0.7c-0.1,0.1-0.3,0.2-0.5,0.2c-0.5,0-1-0.6-1-1c0-0.3,0.1-0.4,0.2-0.5
			c0.1,0.2,0.4,0.6,0.8,0.6c0.2,0,0.5-0.1,0.9-0.2c0.2,0,1.1-0.3,1.3-0.3c0.2-0.4,0.5-1.2,0.5-1.6c0-0.4-0.6-0.7-0.8-0.8
			c0.1-0.1,0.4-0.2,0.7-0.2c0.3,0,0.6,0.1,1.1,0.6c0.1,0.1,0.1,0.1,0.1,0.2c0,0.2-0.2,0.5-0.2,0.6c-0.2,0.4-0.3,0.5-0.6,1.1
			c0.1,0,0.2,0,0.4,0c1.2,0,1.5,0.7,1.5,1.9C268.9,7,268.4,9.2,267.8,9.9z M272.2,7.5c-0.2,0-0.3-0.1-0.6-0.3
			c-0.6-0.4-1.1-0.5-1.6-0.5V6.6c0.5,0,1.3-0.2,1.3-0.4c0-0.2-0.5-1.3-2-2.1c1.4,0.1,3.1,1.3,3.1,2.8C272.6,7.1,272.5,7.5,272.2,7.5
			z M271.6,4c-0.2,0-0.3-0.1-0.7-0.5c-0.1-0.1-0.6-0.6-1.2-0.7c1.1-0.1,2.2,0.1,2.2,0.8C272,3.8,271.8,4,271.6,4z M272.6,3.1
			c-0.2,0-0.2-0.1-0.7-0.5c-0.1-0.1-0.5-0.3-0.8-0.5c-0.2-0.1-0.3-0.1-0.5-0.1c0.2,0,0.4-0.1,0.8-0.1c0.2,0,1.5,0,1.5,0.8
			C272.9,2.9,272.8,3.1,272.6,3.1z"/>
		<path d="M281.4,10c-0.2,0-0.3-0.1-1.1-0.6c-0.5-0.4-1-0.5-1.3-0.6c-0.1,0.8-0.4,1.6-2,1.6c-0.8,0-1.9-0.4-1.9-1.2
			c0-1,1.2-1.4,3-1.4c-0.1-0.4-0.1-1-0.1-2.2c0-0.3,0-2.3,0-2.5c0-0.5,0-0.9-1-1c0.2-0.3,0.5-0.4,0.8-0.4c0.5,0,1.3,0.3,1.3,0.8
			c0,0.1-0.1,0.3-0.1,0.5c-0.1,0.4-0.2,0.6-0.2,1c0.4,0,1.4-0.4,1.5-0.4c0.3-0.1,0.4-0.1,0.6-0.1c0.1,0,0.6,0,0.6,0.5
			c0,0.2-0.1,0.3-0.1,0.3c-0.4,0.3-1.6,0.5-1.8,0.5c-0.4,0-0.6-0.2-0.8-0.3c0,0.2-0.1,0.6-0.1,1.2c0,1.2,0.2,2,0.2,2.4
			c1.4,0.2,2.4,0.9,2.5,0.9c0.3,0.2,0.4,0.3,0.4,0.6C281.7,9.9,281.5,10,281.4,10z M277.1,8.5c-0.1,0-1.6,0-1.6,0.6
			c0,0.5,0.9,0.5,1.3,0.5c1.1,0,1.3-0.5,1.3-1.1C277.8,8.5,277.5,8.5,277.1,8.5z"/>
		<path d="M288.5,11.1c-0.2,0-0.3-0.1-1-1.2c-0.4-0.7-0.7-0.9-2.7-2.9c-0.2-0.2-0.5-0.5-0.5-0.9c0-0.2,0-0.4,0.4-0.8
			c1.8-1.8,1.9-2,2.6-3c0.1-0.1,0.1-0.2,0.1-0.3c0-0.1-0.1-0.4-0.6-0.8c0.1,0,0.1,0,0.2,0c1,0,1.5,0.9,1.5,1.2
			c0,0.3-0.2,0.4-0.4,0.6c-0.4,0.3-2.1,1.8-3,2.8c-0.1,0.1-0.2,0.3-0.2,0.4c0,0.3,0.1,0.4,0.8,1c2,1.7,2.7,2.3,3,2.8
			c0.1,0.2,0.2,0.4,0.2,0.6C288.9,10.8,288.8,11.1,288.5,11.1z"/>
		<path d="M297,3.5c-0.7,0.3-1.5,0.5-2.3,0.6c-1.4,3-1.7,3.6-2.1,4.3c0,0.1-0.1,0.2-0.3,0.2c-0.1,0-0.4-0.1-0.4-0.5
			c0-0.3,0.2-0.5,0.2-0.6c0.4-0.5,1.1-1.5,1.8-3.2c-0.2,0.1-0.5,0.1-0.9,0.1c-1,0-1.2-0.6-1.2-0.8c0-0.1,0-0.2,0.1-0.3
			c0.2,0.3,0.5,0.5,1.1,0.5c0.3,0,0.7,0,1.2-0.2c0.1-0.1,0.4-1,0.4-1.3c0-0.4-0.5-0.5-0.6-0.6c0.2-0.2,0.4-0.3,0.6-0.3
			c0.4,0,1.1,0.5,1.1,0.8c0,0.1-0.1,0.3-0.2,0.4c-0.2,0.3-0.3,0.4-0.4,0.7c0.3-0.1,0.6-0.2,0.8-0.3c0.5-0.2,0.6-0.3,0.7-0.3
			c0.2,0,0.7,0.2,0.7,0.4C297.2,3.4,297.1,3.4,297,3.5z M299.8,6.2c-0.2,0-0.4-0.1-0.4-0.1c-0.5-0.3-0.6-0.4-1-0.4
			c-1.1,0-1.1,0.9-1.1,1.3c0,0.6,0.1,1.1,0.2,1.4c1,0.2,2.1,0.7,2.1,1.3c0,0.1-0.1,0.5-0.4,0.5c-0.2,0-0.7-0.3-0.9-0.5
			c-0.4-0.3-0.5-0.3-0.7-0.4c0,0.2,0,0.7-0.4,1.1c-0.5,0.4-1.2,0.5-1.4,0.5c-0.9,0-1.7-0.5-1.7-1.3c0-0.9,1-1.3,2.1-1.3
			c0.2,0,0.3,0,0.5,0c-0.1-0.6-0.1-0.8-0.1-1c0-1.3,1.3-1.7,1.8-1.9c0,0,0.3-0.1,0.3-0.1c0,0,0.1-0.1,0.1-0.1c0-0.2-0.6-0.6-1.5-0.8
			c0.3-0.1,0.5-0.1,0.8-0.1c1.4,0,2.3,0.9,2.3,1.5C300.1,6,300,6.2,299.8,6.2z M295.6,8.9c-0.2,0-1.3,0-1.3,0.6
			c0,0.5,0.7,0.6,1.2,0.6c1.1,0,1.1-0.9,1.1-1.2C296.3,8.9,296.2,8.9,295.6,8.9z"/>
		<path d="M306.7,10.4c-1,0-2.2-0.4-2.2-1.4c0-0.8,0.8-1,1.3-1c1,0,1.6,0.9,1.7,1.5c0.6-0.1,1.3-0.9,1.3-1.8c0-0.8-0.6-1.6-1.7-1.6
			c-1.6,0-2.8,1.1-3.7,2.5c-0.3,0.4-0.4,0.6-0.6,0.6c-0.3,0-0.5-0.2-0.5-0.6c0-0.3,0.1-0.5,0.7-1.1c0.6-0.6,1.8-2.2,3-3.8
			c0.2-0.2,0.6-0.8,0.6-1c0-0.1,0-0.1-0.1-0.1c-0.1,0-0.7,0.2-1.5,0.7c-0.2,0.1-0.4,0.2-0.5,0.2c-0.2,0-0.9-0.3-0.9-1
			c0-0.3,0.1-0.5,0.2-0.6c0.4,0.6,0.5,0.6,0.9,0.6c0.6,0,2-0.4,2-0.5c0.3-0.1,0.3-0.1,0.4-0.1c0.4,0,0.9,0.6,0.9,0.8
			c0,0.3-0.1,0.3-0.4,0.6c-0.1,0.1-0.2,0.2-0.4,0.4c-1.9,2-2.1,2.3-2.3,2.7c0.7-0.4,1.4-0.7,2.5-0.7c1.9,0,2.5,1.1,2.5,2
			C309.9,8.9,308.9,10.4,306.7,10.4z M305.5,8.5c-0.2,0-0.5,0.2-0.5,0.5c0,0.6,1.1,0.8,1.4,0.8c0.2,0,0.3,0,0.4-0.1
			C306.5,8.8,305.7,8.5,305.5,8.5z"/>
	</g>
</g>
<g>
	<path class="st0" d="M234,78H105.9c-3.8,0-6.8-3-6.8-6.8v0c0-3.8,3-6.8,6.8-6.8H234c3.8,0,6.8,3,6.8,6.8v0
		C240.8,74.9,237.7,78,234,78z"/>
	<g>
		<path d="M121.2,75v0.4h-0.7v-7.4h7.3v0.6h-6.6v5.7h6.7V75H121.2z M125.1,71.9c0.1,0.2,0.7,1.1,2.5,1.7c-0.2,0.2-0.3,0.3-0.4,0.6
			c-1.6-0.6-2.3-1.6-2.6-2c-0.4,0.8-1.2,1.5-2.5,1.9c-0.1-0.3-0.2-0.4-0.5-0.6c1.1-0.2,2-0.7,2.4-1.5h-2.3v-0.6h2.5
			c0.1-0.3,0.1-0.8,0.1-1.1h-1.2c-0.3,0.5-0.4,0.7-0.5,0.9c-0.1-0.1-0.2-0.2-0.7-0.4c0.2-0.2,0.8-0.9,1.1-2l0.6,0.2
			c0.1,0,0.2,0.1,0.2,0.2c0,0.1-0.1,0.1-0.3,0.1c0,0.1-0.1,0.2-0.2,0.4h3.7v0.6H125c0,0.6-0.1,0.9-0.1,1.1h2.8v0.6H125.1z"/>
		<path d="M136.7,73.5h-1.4v1.1c0,0.7-0.3,0.8-1.3,0.8c0-0.2-0.1-0.4-0.2-0.7c0.3,0,0.3,0.1,0.5,0.1c0.3,0,0.3,0,0.3-0.3v-1h-1.5
			v-1.3c-0.2,0.2-0.4,0.3-0.6,0.5c-0.1-0.1-0.2-0.3-0.5-0.4c0.3-0.2,0.5-0.3,1-0.7c-0.3-0.4-0.6-0.6-0.7-0.7l0.4-0.4
			c0.3,0.3,0.4,0.4,0.7,0.7c0.2-0.2,0.4-0.4,0.6-0.9h-1.9v-0.5h2.1c0.1-0.3,0.2-0.5,0.2-0.7H132v1.6c0,1.7,0,3.2-1.4,4.7
			c-0.2-0.2-0.3-0.3-0.6-0.4c0.9-0.9,1.2-1.8,1.3-2.9c-0.4,0.4-0.5,0.5-0.8,0.7c0,0.2,0,0.2-0.1,0.2c-0.1,0-0.1-0.1-0.2-0.2
			l-0.3-0.5c0.2-0.1,0.7-0.4,1.3-0.9c0-0.3,0-0.5,0-0.7c-0.2,0.1-0.4,0.3-0.5,0.4c-0.3-0.6-0.4-0.9-0.8-1.4l0.5-0.4
			c0.3,0.4,0.6,0.9,0.8,1.3v-2.1h2.8v-0.8l0.7,0c0.1,0,0.2,0,0.2,0.1c0,0.1-0.1,0.1-0.2,0.2v0.5h3v0.6h-2.7c0.1,0,0.2,0.1,0.2,0.1
			c0,0.1-0.2,0.1-0.3,0.1c-0.1,0.2-0.1,0.3-0.1,0.4h2.9v0.5h-2.1c0.3,0.5,0.5,0.7,0.7,0.9c0.1-0.1,0.5-0.5,0.8-0.7l0.5,0.4
			c0.1,0.1,0.1,0.1,0.1,0.1s0,0.1-0.1,0.1c-0.1,0-0.1,0-0.1,0c-0.2,0.2-0.5,0.5-0.6,0.6c0.5,0.4,0.8,0.6,1.1,0.7
			c-0.2,0.2-0.3,0.3-0.4,0.5c-0.2-0.1-0.5-0.3-0.9-0.6V73.5z M133.9,73.9C134,73.9,134,74,134,74c0,0.1,0,0.1-0.1,0.1
			c0,0-0.1,0-0.1,0c-0.4,0.4-0.8,0.8-1.4,1.2c-0.2-0.2-0.2-0.3-0.5-0.4c0.3-0.1,1-0.6,1.6-1.3L133.9,73.9z M133.8,72.1h2.2v-0.4
			h-2.2V72.1z M136,72.5h-2.2V73h2.2V72.5z M135.8,71.2c-0.2-0.2-0.5-0.5-0.7-1h-0.3c-0.1,0.2-0.3,0.6-0.6,1H135.8z M136.2,73.6
			c0.8,0.4,1.5,1.1,1.6,1.3c-0.3,0.2-0.4,0.4-0.5,0.5c-0.4-0.5-1-1-1.6-1.3L136.2,73.6z"/>
		<path d="M144.6,75h-0.7v-2.5h-2.1c-0.1,0.9-0.2,1.8-0.9,2.9c-0.1-0.1-0.3-0.2-0.8-0.3c0.5-0.7,1-1.6,1-4v-3.2h6.4v6.2
			c0,0.8-0.2,1.2-1.7,1.2c0-0.3-0.1-0.5-0.3-0.8c0.2,0,0.4,0.1,0.7,0.1c0.6,0,0.6-0.2,0.6-0.6v-1.6h-2.1V75z M143.9,70.5h-2.1V71
			c0,0.3,0,0.6,0,0.8h2.1V70.5z M143.9,68.6h-2.1v1.3h2.1V68.6z M144.6,69.9h2.1v-1.3h-2.1V69.9z M144.6,71.8h2.1v-1.3h-2.1V71.8z"
			/>
		<path d="M157.8,75.1h-4c-0.7,0-1.6-0.1-2.1-0.9c-0.3,0.2-0.7,0.6-1,0.8c0,0.1,0,0.2-0.1,0.2c-0.1,0-0.1-0.1-0.1-0.1l-0.3-0.7
			c0.5-0.2,1-0.6,1.2-0.7v-2.3h-1.1v-0.6h1.8v2.4c0,0.3,0,0.7,0.4,1c0.4,0.3,0.8,0.3,2.1,0.3c1.1,0,2.7,0,3.6-0.1
			C157.9,74.7,157.9,74.9,157.8,75.1z M151.6,69.5c-0.4-0.5-0.8-0.9-1.4-1.5l0.5-0.5c0.7,0.6,1.1,1,1.4,1.4
			C151.9,69.2,151.8,69.3,151.6,69.5z M152.2,69.7v-0.6h2.4v-0.5h-2v-0.5h2v-0.6l0.8,0c0.1,0,0.1,0,0.1,0.1c0,0.1-0.1,0.1-0.2,0.1
			v0.3h2.1v0.5h-2.1v0.5h2.6v0.6H152.2z M157.3,73.9c-0.9-0.5-1.5-1.1-2-1.6v1.9h-0.6v-1.9c-0.7,0.8-1.4,1.2-1.8,1.5
			c-0.1-0.2-0.3-0.4-0.5-0.5c0.4-0.2,1.2-0.5,2-1.3H153v-1.8h3.9v1.8h-1.4c0.2,0.2,0.4,0.4,0.8,0.7c0.1-0.1,0.6-0.5,0.9-0.8l0.4,0.3
			c0.1,0,0.1,0.1,0.1,0.1c0,0.1-0.1,0.1-0.1,0.1c-0.1,0-0.1,0-0.1,0c-0.1,0.1-0.3,0.3-0.7,0.6c0.2,0.1,0.6,0.3,1,0.6
			C157.6,73.6,157.5,73.7,157.3,73.9z M156.3,70.6h-2.6v0.8h2.6V70.6z"/>
		<path d="M165.3,71.1v3.3c0,0.9-0.3,0.9-1.5,0.9c0-0.3-0.1-0.5-0.2-0.8c0.2,0,0.5,0.1,0.7,0.1c0.5,0,0.5-0.1,0.5-0.5v-3h-1
			c0,1.4,0,3.3-2.3,4.3c-0.1-0.2-0.2-0.3-0.5-0.6c1.7-0.7,2.1-1.6,2.1-3.7h-2.7v-0.6h3.5v-1.1h-2.9v-0.6h2.9v-1.2l0.8,0
			c0.1,0,0.2,0,0.2,0.1c0,0.1-0.1,0.1-0.2,0.2v0.8h2.8v0.6h-2.8v1.1h3.5v0.6H165.3z M162.2,72.1c-0.4,0.8-1,1.5-1.2,1.8
			c-0.2-0.2-0.4-0.3-0.7-0.4c0.6-0.7,1-1.2,1.3-2l0.7,0.3c0.1,0,0.1,0.1,0.1,0.1C162.4,72.2,162.2,72.1,162.2,72.1z M167,74.3
			c-0.4-1.1-1-2-1.2-2.3l0.7-0.3c0.4,0.5,1,1.5,1.3,2.2C167.6,73.9,167.4,74,167,74.3z"/>
		<path d="M172.7,67.9c0.1,0,0.2,0.1,0.2,0.1c0,0.1-0.1,0.1-0.3,0.1c-0.1,0.3-0.2,0.7-0.3,1h1.9c0,0.2-0.1,1.1-0.4,2.2
			c-0.3,0.8-0.9,2.6-2.9,4.1c-0.2-0.2-0.3-0.3-0.6-0.5c1.2-0.8,2.1-1.9,2.4-2.6c-0.4-0.4-0.5-0.5-1.3-1.1c-0.3,0.5-0.3,0.6-0.6,0.9
			c-0.2-0.2-0.4-0.3-0.6-0.4c0.5-0.6,1.5-2.3,1.9-4.1L172.7,67.9z M172.1,69.8c-0.1,0.3-0.2,0.6-0.4,0.8c0.5,0.3,0.6,0.4,1.3,1
			c0.2-0.6,0.4-1.2,0.5-1.8H172.1z M176.3,75.4h-0.7v-3.6c-0.2-0.1-0.7-0.6-1.2-1.4l0.5-0.5c0.4,0.5,0.5,0.6,0.8,0.8v-3.2l0.8,0.1
			c0.1,0,0.2,0,0.2,0.1c0,0.1-0.1,0.1-0.2,0.2v3.5c0.9,0.8,1.6,1.2,2,1.4c-0.2,0.2-0.2,0.3-0.4,0.6c-0.4-0.2-0.8-0.5-1.6-1.1V75.4z"
			/>
		<path d="M183.1,72c0-0.2-0.1-0.3-0.1-0.4c-0.3,0.1-0.4,0.1-0.8,0.1v3.7h-0.7v-3.6c-0.2,0-0.9,0.1-1.1,0.1c0,0.1-0.1,0.2-0.1,0.2
			c-0.1,0-0.1-0.1-0.1-0.2l-0.1-0.6c0.2,0,0.4,0,0.7,0c0.2-0.3,0.4-0.5,0.5-0.8c-0.2-0.2-0.7-0.8-1.3-1.2l0.4-0.6
			c0.1,0.1,0.2,0.2,0.4,0.4c0.2-0.3,0.6-1,0.9-1.6l0.6,0.3c0.1,0,0.1,0.1,0.1,0.1c0,0.1-0.1,0.1-0.2,0.1h-0.1
			c-0.4,0.6-0.5,0.9-0.9,1.5c0.1,0.2,0.3,0.3,0.4,0.4c0.5-0.8,0.7-1.1,0.9-1.5l0.6,0.3c0.1,0,0.1,0.1,0.1,0.1c0,0.1-0.1,0.1-0.2,0.1
			c-0.7,1-0.9,1.4-1.5,2.2c0.4,0,0.6-0.1,1.3-0.1c-0.1-0.4-0.2-0.5-0.3-0.7l0.5-0.2c0.3,0.5,0.5,1.1,0.6,1.6
			C183.6,71.8,183.4,71.9,183.1,72z M181.3,72.6c-0.1,0.9-0.3,1.6-0.4,1.9c-0.2-0.1-0.3-0.1-0.6-0.2c0.2-0.5,0.4-1.4,0.5-2l0.6,0.1
			c0.1,0,0.2,0,0.2,0.1C181.4,72.6,181.3,72.6,181.3,72.6z M182.9,73.9c-0.1-0.5-0.2-1.1-0.3-1.6l0.5-0.1c0.1,0.4,0.2,0.9,0.4,1.6
			C183.2,73.8,183.1,73.8,182.9,73.9z M183.6,75.1c-0.2-0.2-0.5-0.4-0.5-0.4c0.8-0.7,1.2-1.4,1.4-2.1h-0.9V72h1.3l0.3,0.3
			C185.1,72.6,184.8,73.9,183.6,75.1z M187.8,75.1c-1.1-1-1.5-1.8-1.6-2.2v1.5c0,1-0.5,1.1-1.4,1.1c0-0.1,0-0.3-0.3-0.7
			c0.1,0,0.3,0.1,0.6,0.1c0.3,0,0.5,0,0.5-0.4v-3H184v-2.9h1.1c0.2-0.3,0.3-0.5,0.4-0.9l0.7,0.1c0.1,0,0.1,0,0.1,0.1
			c0,0.1-0.1,0.1-0.2,0.1c-0.1,0.2-0.2,0.4-0.3,0.6h1.8v2.9h-1.5v0.6c0.2,0.4,0.3,0.6,0.4,0.8c0.5-0.5,0.8-0.8,1-1L188,72
			c0.1,0.1,0.1,0.1,0.1,0.2s-0.1,0.1-0.1,0.1c0,0-0.1,0-0.2,0c-0.3,0.3-0.8,0.7-1,0.9c0.4,0.6,0.9,1.1,1.4,1.5
			C188.1,74.7,188,74.8,187.8,75.1z M186.9,69h-2.2v0.6h2.2V69z M186.9,70.1h-2.2v0.7h2.2V70.1z"/>
		<path d="M191.5,71.4c-0.5-0.4-0.9-0.7-1.4-1l0.4-0.6c0.6,0.3,1.1,0.7,1.4,1C191.7,71,191.6,71.1,191.5,71.4z M191.1,75.1
			c0,0,0,0.1,0,0.1c0,0.1-0.1,0.1-0.1,0.1c0,0-0.1,0-0.1-0.1l-0.6-0.4c1-1.4,1.6-2.9,1.6-3c0.1,0.1,0.3,0.3,0.6,0.5
			C192.1,73.3,191.5,74.4,191.1,75.1z M192.2,69.3c-0.7-0.6-1.2-0.9-1.5-1.1l0.4-0.6c0.5,0.3,1.2,0.8,1.6,1
			C192.5,68.9,192.4,69,192.2,69.3z M197.5,71.5c-0.2-0.3-0.3-0.5-0.5-0.8c-1,0.2-3.5,0.5-4.3,0.5c0,0.1,0,0.2-0.2,0.2
			c-0.1,0-0.1-0.1-0.1-0.2l-0.2-0.7c0.2,0,0.4,0,0.8,0c0.1-0.1,0.8-1.3,1.3-3l0.7,0.2c0.1,0,0.2,0.1,0.2,0.1c0,0.1-0.1,0.1-0.2,0.1
			c-0.5,0.9-0.6,1.3-1.2,2.4c1.3-0.1,2.3-0.2,2.9-0.3c-0.4-0.5-0.6-0.8-0.9-1.1l0.6-0.4c0.6,0.7,1.4,1.8,1.8,2.5
			C197.9,71.2,197.9,71.3,197.5,71.5z M196.7,75.3v-0.6h-2.8v0.6h-0.7v-3.6h4.2v3.6H196.7z M196.7,72.4h-2.8v1.8h2.8V72.4z"/>
		<path d="M206.9,73.5h-1.4v1.1c0,0.7-0.3,0.8-1.3,0.8c0-0.2-0.1-0.4-0.2-0.7c0.3,0,0.3,0.1,0.5,0.1c0.3,0,0.3,0,0.3-0.3v-1h-1.5
			v-1.3c-0.2,0.2-0.4,0.3-0.6,0.5c-0.1-0.1-0.2-0.3-0.5-0.4c0.3-0.2,0.5-0.3,1-0.7c-0.3-0.4-0.6-0.6-0.7-0.7l0.4-0.4
			c0.3,0.3,0.4,0.4,0.7,0.7c0.2-0.2,0.4-0.4,0.6-0.9h-1.9v-0.5h2.1c0.1-0.3,0.2-0.5,0.2-0.7h-2.5v1.6c0,1.7,0,3.2-1.4,4.7
			c-0.2-0.2-0.3-0.3-0.6-0.4c0.9-0.9,1.2-1.8,1.3-2.9c-0.4,0.4-0.5,0.5-0.8,0.7c0,0.2,0,0.2-0.1,0.2c-0.1,0-0.1-0.1-0.2-0.2
			l-0.3-0.5c0.2-0.1,0.7-0.4,1.3-0.9c0-0.3,0-0.5,0-0.7c-0.2,0.1-0.4,0.3-0.5,0.4c-0.3-0.6-0.4-0.9-0.8-1.4l0.5-0.4
			c0.3,0.4,0.6,0.9,0.8,1.3v-2.1h2.8v-0.8l0.7,0c0.1,0,0.2,0,0.2,0.1c0,0.1-0.1,0.1-0.2,0.2v0.5h3v0.6h-2.7c0.1,0,0.2,0.1,0.2,0.1
			c0,0.1-0.2,0.1-0.3,0.1c-0.1,0.2-0.1,0.3-0.1,0.4h2.9v0.5H206c0.3,0.5,0.5,0.7,0.7,0.9c0.1-0.1,0.5-0.5,0.8-0.7l0.5,0.4
			c0.1,0.1,0.1,0.1,0.1,0.1s0,0.1-0.1,0.1c-0.1,0-0.1,0-0.1,0c-0.2,0.2-0.5,0.5-0.6,0.6c0.5,0.4,0.8,0.6,1.1,0.7
			c-0.2,0.2-0.3,0.3-0.4,0.5c-0.2-0.1-0.5-0.3-0.9-0.6V73.5z M204.1,73.9c0.1,0.1,0.1,0.1,0.1,0.2c0,0.1,0,0.1-0.1,0.1
			c0,0-0.1,0-0.1,0c-0.4,0.4-0.8,0.8-1.4,1.2c-0.2-0.2-0.2-0.3-0.5-0.4c0.3-0.1,1-0.6,1.6-1.3L204.1,73.9z M204,72.1h2.2v-0.4H204
			V72.1z M206.2,72.5H204V73h2.2V72.5z M206,71.2c-0.2-0.2-0.5-0.5-0.7-1H205c-0.1,0.2-0.3,0.6-0.6,1H206z M206.4,73.6
			c0.8,0.4,1.5,1.1,1.6,1.3c-0.3,0.2-0.4,0.4-0.5,0.5c-0.4-0.5-1-1-1.6-1.3L206.4,73.6z"/>
		<path d="M218,73.3c-0.4-0.1-0.5-0.2-0.6-0.3v2.3h-0.7v-0.4h-1.4v0.4h-0.7v-2.8h1.7c-0.8-0.5-1.3-1.1-1.5-1.3h-1.1
			c-0.5,0.6-1,1-1.5,1.3h1.6v2.8h-0.7v-0.4h-1.4v0.4h-0.7v-2.2c-0.3,0.1-0.4,0.2-0.6,0.2c-0.1-0.2-0.2-0.4-0.4-0.6
			c1-0.3,2-0.8,2.7-1.6h-2.5v-0.6h3c0.2-0.3,0.3-0.5,0.3-0.6h-2.6v-2.2h2.6v2c0,0,0-0.1,0.1-0.1l0.7,0.1c0.1,0,0.1,0,0.2,0.1v-2.1
			h2.6V70h-2.6c0,0.1-0.1,0.1-0.3,0.1c-0.1,0.1-0.1,0.3-0.3,0.5h4v0.6h-2.5c0.4,0.4,1.2,1.2,2.7,1.6C218.2,72.9,218.1,73.1,218,73.3
			z M213.2,68.4h-1.3v1.1h1.3V68.4z M213.2,73.1h-1.4v1.3h1.4V73.1z M216.7,73.1h-1.4v1.3h1.4V73.1z M216.7,68.4h-1.3v1.1h1.3V68.4z
			"/>
	</g>
</g>
<g>
	<g>
		
			<image style="overflow:visible;" width="1184" height="458" xlink:href="1B2142904EE3D1BF.png"  transform="matrix(0.24 0 0 0.24 30.4712 -15.6016)">
		</image>
	</g>
	<g>
		<g>
			<path d="M93.5,35.5c-0.5,12-3.2,16.2-11.4,21.1l-3.4-3.3c7.6-4.2,10-8.4,10.2-17.9h-7.9v9.6h-5v-9.6h-7.8v-4.8h7.8v-8l4.6,0.5
				c1,0.1,1.3,0.2,1.3,0.6c0,0.2-0.1,0.3-0.3,0.4c-0.5,0.3-0.5,0.4-0.5,0.6v5.9h7.9c0-3.2,0-6-0.1-8.7l4.3,0.6
				c0.3,0,1.3,0.2,1.3,0.7c0,0.2-0.1,0.3-0.4,0.5c-0.3,0.3-0.4,0.3-0.5,0.5v6.3h7.1v4.8H93.5z"/>
			<path d="M119.8,32.6c-2.4-2-5.3-3.8-8.6-5.3l2.6-3.9c2.8,1.2,6.2,3,8.8,5.2L119.8,32.6z M132.1,44c-6.6,5.4-10.6,7.1-15.8,9.4
				c-0.2,0.6-0.3,1.3-0.6,1.3c-0.3,0-0.6-0.3-0.9-0.8l-2.9-5c3.4-0.8,8.9-2.2,15.6-7.3c6.4-4.8,10.5-10.3,12.3-12.9l2.9,4.2
				C140.9,35.1,137.6,39.6,132.1,44z"/>
			<path d="M157.8,43.6c-2.6,0-4.7-2.1-4.7-4.7s2.1-4.7,4.7-4.7s4.7,2.1,4.7,4.7S160.4,43.6,157.8,43.6z"/>
			<path d="M205,32.5c-1,1-7,7-12.2,12.6c1.6,1.9,2.4,2.9,3.5,4.7l-4.2,3.4c-3.2-5.8-7.3-9.9-10.6-12.6l3.3-3.3
				c1.6,1.3,2.8,2.4,4.6,4.1c3.3-3.3,5.7-5.8,8.5-8.8h-23.7v-4.7h27.2c0.6,0,1.3-0.5,2-0.9l3.5,4.1C206.1,31.6,205.5,32.1,205,32.5z
				"/>
			<path d="M220.1,41.1c-0.7-2.4-1.8-4.6-3.2-6.8l3.9-1.5c1.4,2.2,2.5,4.4,3.2,6.8L220.1,41.1z M242,33.6c-0.4,0.2-0.4,0.4-0.8,2
				c-3.2,12.9-11.6,17.8-15.7,20.2l-3.4-3c8.1-4,13.9-9.8,15.5-21.7l4.1,1.3c0.5,0.2,0.8,0.5,0.8,0.8
				C242.5,33.4,242.4,33.4,242,33.6z M227.9,39c-0.7-2.5-1.7-4.7-3-6.8l3.7-1.4c1.6,2.5,2.4,5.1,2.9,6.8L227.9,39z"/>
			<path d="M273.7,45.7c-3.1-2.9-7.3-6.3-12.3-8.4v18.1h-5V22.2l5,0.9c0.1,0,1,0.2,1,0.7c0,0.3-1.1,0.9-1.1,1.1v11l2-3.1
				c2.1,0.9,3.5,1.5,7.1,3.8c3.3,2.2,4.9,3.6,6.6,5L273.7,45.7z"/>
		</g>
	</g>
</g>
</svg>
